<svg width="183" height="165" viewBox="0 0 183 165" fill="none" xmlns="http://www.w3.org/2000/svg">
<path d="M94.082 163.382L179.188 113.08C181.896 111.558 184.223 109.061 181.579 107.422L96.1676 58.2009C94.8869 57.4078 92.9423 56.8849 91.638 57.6428L2.29053 109.49C-0.417859 111.064 -0.905486 115.459 1.80878 117.033L82.8842 163.299C84.5832 164.283 86.5089 164.808 88.4722 164.823C90.4355 164.837 92.3688 164.341 94.082 163.382Z" fill="#225870"/>
<path d="M115.749 64.9218C115.475 65.1401 115.175 65.3236 114.856 65.4682C114.862 65.4891 114.864 65.5112 114.86 65.5328C114.857 65.5544 114.849 65.5749 114.836 65.593C114.824 65.611 114.808 65.626 114.789 65.6369C114.77 65.6479 114.749 65.6544 114.727 65.6562C114.568 65.6562 114.41 65.6562 114.251 65.6562C113.748 65.778 113.225 65.7885 112.717 65.687C112.21 65.5855 111.731 65.3745 111.314 65.0687C110.612 64.7634 109.952 64.3685 109.351 63.8937C107.894 62.7187 106.414 61.0266 104.757 59.8223C104.757 60.1571 104.804 60.4979 104.839 60.8151L105.198 64.0464L105.832 69.7746C105.832 69.8744 105.832 70.1799 105.885 70.2622C108.646 73.8342 116.249 72.5711 116.249 72.5711C116.249 72.5711 120.743 60.9679 115.749 64.9218Z" fill="#F47A63"/>
<path d="M116.501 107.974L107.565 114.742L118.017 121.792L128.469 113.15" fill="url(#paint0_linear_66_3717)"/>
<path d="M122.835 101.171C122.835 101.171 122.036 105.612 123.334 106.135C124.632 106.658 129.908 110.776 129.121 112.427C127.311 116.217 116.501 107.974 116.501 107.974L117.841 98.574" fill="#EF9841"/>
<path d="M116.013 84.1802C116.013 85.0321 115.256 99.8195 115.256 99.8195C115.256 99.8195 121.26 105.36 125.743 105.013L127.957 90.6662" fill="#FFF7E1"/>
<path d="M105.444 96.1654C105.444 96.1654 113.423 97.0819 118.123 92.2291C120.855 89.4033 126.013 84.5916 126.013 84.5916L106.984 83.1992" fill="#FFF7E1"/>
<path d="M67.3095 0.343475C58.7437 5.4195 37.5407 17.9686 31.2015 21.6522C30.6601 21.9648 30.2116 22.4157 29.9018 22.9587C29.5921 23.5017 29.4324 24.1174 29.439 24.7425V111.787C29.3098 113.549 31.319 115.206 32.9641 114.272L68.6079 93.9797C70.0414 93.1572 70.9579 91.9998 70.9579 90.3489V2.41736C70.9594 1.99034 70.8474 1.57059 70.6333 1.20111C70.4192 0.831629 70.1107 0.525705 69.7395 0.314679C69.3682 0.103652 68.9476 -0.00489088 68.5206 0.000169158C68.0936 0.00522919 67.6756 0.123711 67.3095 0.343475Z" fill="#68E1FD"/>
<path d="M57.1575 37.227C56.8877 37.2273 56.6183 37.2037 56.3526 37.1565C54.5901 36.8392 53.1331 35.5232 52.2401 33.4434C51.4018 31.2632 51.1981 28.8902 51.6526 26.599C52.5985 21.3115 56.1294 17.6749 59.7014 18.3094C61.4639 18.6266 62.9209 19.9426 63.8139 22.0224C64.6522 24.2026 64.8559 26.5756 64.4014 28.8668C64.0294 31.1747 63.0109 33.3299 61.4639 35.0826C60.9334 35.7184 60.2768 36.2373 59.5356 36.6064C58.7943 36.9755 57.9846 37.1868 57.1575 37.227ZM58.92 19.8662C56.4877 19.8662 53.9791 22.9154 53.2682 26.881C52.8688 28.8635 53.0378 30.9184 53.7559 32.8089C54.4021 34.3599 55.4244 35.3352 56.6288 35.5467C57.8331 35.7582 59.1256 35.2001 60.2713 33.9722C61.6066 32.4512 62.4845 30.5835 62.8034 28.5848C63.2028 26.6024 63.0338 24.5474 62.3158 22.6569C61.6284 21.1 60.6296 20.1306 59.4253 19.925C59.2607 19.8927 59.0936 19.875 58.9259 19.8721L58.92 19.8662Z" fill="#F2F2F2"/>
<path opacity="0.6" d="M36.5183 30.9935V104.061L44.385 99.0558V26.4521L36.5183 30.9935Z" fill="white"/>
<path d="M70.717 1.37754L59.3723 7.9282V10.3487C59.37 10.5528 59.3147 10.7527 59.2116 10.9289C59.1086 11.105 58.9615 11.2513 58.7848 11.3533L50.1132 16.3706C49.9963 16.4454 49.8613 16.4869 49.7226 16.4907C49.5839 16.4945 49.4468 16.4604 49.326 16.3922C49.2052 16.3239 49.1053 16.2241 49.037 16.1033C48.9686 15.9825 48.9345 15.8454 48.9382 15.7067V13.9442L32.6703 23.4853C32.5145 23.5766 32.3854 23.707 32.2957 23.8637C32.2061 24.0204 32.159 24.1978 32.1591 24.3783V111.37C32.1631 111.492 32.1985 111.61 32.262 111.714C32.3255 111.818 32.4149 111.904 32.5214 111.963C32.6279 112.022 32.7479 112.053 32.8698 112.052C32.9916 112.051 33.1111 112.018 33.2166 111.957L70.952 90.0846C71.0154 90.7597 70.8942 91.4393 70.6013 92.0509C70.3085 92.6624 69.855 93.1829 69.2893 93.5568C67.3329 94.8023 32.9581 114.255 32.9581 114.255C32.9581 114.255 30.238 115.482 29.4331 112.239V24.7425C29.4319 24.1766 29.5649 23.6185 29.8212 23.114C30.0776 22.6095 30.4499 22.1729 30.9077 21.8403C32.4823 20.6946 67.3036 0.343538 67.3036 0.343538C67.5937 0.178945 67.9142 0.0750251 68.2457 0.0380891C68.5772 0.00115301 68.9127 0.031971 69.232 0.128672C69.5512 0.225372 69.8474 0.385939 70.1027 0.600622C70.358 0.815306 70.567 1.07963 70.717 1.37754Z" fill="#124577"/>
<path d="M119.204 1.00145C127.376 6.1186 147.932 18.039 154.941 22.3102C156.528 23.2854 156.768 24.7366 156.798 26.599V113.591C156.366 114.094 155.768 114.425 155.113 114.525C154.458 114.626 153.788 114.488 153.226 114.137L118.734 94.6495C117.018 93.6389 115.667 92.5991 115.667 90.6074L115.966 2.58184C115.966 0.672451 117.6 -0.00905234 119.204 1.00145Z" fill="#68E1FD"/>
<path d="M116.031 1.95898L127.246 8.42152V10.842C127.249 11.0461 127.304 11.246 127.407 11.4222C127.51 11.5983 127.657 11.7446 127.834 11.8467L136.511 16.8581C136.628 16.9328 136.763 16.9743 136.902 16.9781C137.041 16.9819 137.178 16.9479 137.299 16.8796C137.419 16.8114 137.519 16.7115 137.588 16.5907C137.656 16.47 137.69 16.3329 137.686 16.1942V14.4317L153.978 23.9845C154.134 24.0758 154.263 24.2062 154.352 24.3629C154.442 24.5196 154.489 24.697 154.489 24.8775V111.875C154.485 111.997 154.45 112.115 154.386 112.219C154.323 112.323 154.233 112.409 154.127 112.468C154.02 112.528 153.9 112.558 153.778 112.557C153.656 112.556 153.537 112.523 153.431 112.462L115.679 90.6073C115.615 91.2824 115.736 91.962 116.029 92.5736C116.322 93.1851 116.775 93.7056 117.341 94.0795C119.298 95.325 153.672 114.777 153.672 114.777C153.672 114.777 156.392 116.005 157.197 112.762V25.2241C157.199 24.6582 157.066 24.1001 156.809 23.5955C156.553 23.091 156.181 22.6545 155.723 22.3218C154.148 21.1762 119.086 0.795725 119.086 0.795725C119.086 0.795725 116.595 -0.326405 116.031 1.95898Z" fill="#124577"/>
<path d="M73.4723 140.733C80.5749 140.733 86.3327 137.361 86.3327 133.201C86.3327 129.042 80.5749 125.67 73.4723 125.67C66.3696 125.67 60.6118 129.042 60.6118 133.201C60.6118 137.361 66.3696 140.733 73.4723 140.733Z" fill="#FF912E"/>
<path d="M60.6179 133.201V131.028L62.0162 132.767L60.6179 133.201Z" fill="#E0944F"/>
<path d="M86.3327 131.028V133.201H84.7053L85.898 131.456L86.3327 131.028Z" fill="#E0944F"/>
<path d="M73.4723 138.559C80.5749 138.559 86.3327 135.187 86.3327 131.028C86.3327 126.868 80.5749 123.496 73.4723 123.496C66.3696 123.496 60.6118 126.868 60.6118 131.028C60.6118 135.187 66.3696 138.559 73.4723 138.559Z" fill="#FFB92C"/>
<path d="M79.9995 130.017C80.0914 130.198 80.1263 130.403 80.0994 130.605L80.0465 130.805H77.6965C77.7165 130.739 77.7303 130.672 77.7376 130.605C77.7289 130.452 77.6803 130.304 77.5966 130.176C77.4601 129.945 77.2547 129.762 77.0091 129.653C76.6672 129.475 76.2897 129.377 75.9046 129.365C75.5485 129.338 75.1908 129.392 74.8588 129.524C74.5298 129.665 74.4025 129.849 74.477 130.076C74.5873 130.355 74.7578 130.605 74.9763 130.81C75.2296 131.068 75.467 131.341 75.6872 131.627C75.7919 131.75 75.8595 131.901 75.8824 132.061C75.9052 132.221 75.8824 132.384 75.8165 132.532C75.5588 132.958 75.1529 133.274 74.6767 133.419C73.8884 133.747 73.0452 133.922 72.1916 133.936C71.2696 133.967 70.3491 133.838 69.4714 133.554L68.1202 134.142L66.5398 133.372L67.8499 132.784C67.6127 132.62 67.4009 132.423 67.2213 132.197C67.0863 132.043 66.9808 131.866 66.9099 131.674C66.8649 131.537 66.8373 131.395 66.8277 131.251C66.8119 131.154 66.8119 131.055 66.8277 130.957L66.8747 130.846H69.2247C69.2 130.923 69.1804 131.001 69.1659 131.081C69.1757 131.273 69.241 131.459 69.3539 131.615C69.5413 131.908 69.8111 132.139 70.1294 132.279C70.5535 132.492 71.0182 132.612 71.4924 132.632C71.9212 132.661 72.3511 132.593 72.7497 132.432C73.0748 132.291 73.1962 132.107 73.114 131.88C72.9987 131.599 72.822 131.348 72.597 131.145C72.3386 130.891 72.0991 130.618 71.8802 130.329C71.7772 130.203 71.7129 130.05 71.6952 129.888C71.6775 129.726 71.7071 129.563 71.7803 129.418C72.0549 128.989 72.4704 128.669 72.9553 128.513C73.7135 128.207 74.5229 128.048 75.3406 128.043C76.2057 128.014 77.0688 128.147 77.8845 128.437L79.2299 127.849L80.7045 128.654L79.3532 129.242C79.6339 129.438 79.8571 129.706 79.9995 130.017Z" fill="#EA8B24"/>
<path d="M73.4958 137.437C79.4563 137.437 84.2882 134.607 84.2882 131.116C84.2882 127.624 79.4563 124.794 73.4958 124.794C67.5353 124.794 62.7034 127.624 62.7034 131.116C62.7034 134.607 67.5353 137.437 73.4958 137.437Z" stroke="#F7931E" stroke-width="3.52502" stroke-miterlimit="10"/>
<path d="M73.4723 135.305C80.5749 135.305 86.3327 131.932 86.3327 127.773C86.3327 123.613 80.5749 120.241 73.4723 120.241C66.3696 120.241 60.6118 123.613 60.6118 127.773C60.6118 131.932 66.3696 135.305 73.4723 135.305Z" fill="#FF912E"/>
<path d="M60.6179 127.773V125.593L62.0162 127.332L60.6179 127.773Z" fill="#E0944F"/>
<path d="M86.3327 125.593V127.773H84.7053L85.898 126.022L86.3327 125.593Z" fill="#E0944F"/>
<path d="M73.4723 133.125C80.5749 133.125 86.3327 129.753 86.3327 125.593C86.3327 121.434 80.5749 118.062 73.4723 118.062C66.3696 118.062 60.6118 121.434 60.6118 125.593C60.6118 129.753 66.3696 133.125 73.4723 133.125Z" fill="#FFB92C"/>
<path d="M79.9995 124.589C80.0914 124.77 80.1263 124.975 80.0994 125.176L80.0465 125.376H77.6965C77.7165 125.311 77.7303 125.244 77.7376 125.176C77.7289 125.023 77.6803 124.876 77.5966 124.747C77.4601 124.516 77.2547 124.333 77.0091 124.225C76.6672 124.047 76.2897 123.949 75.9046 123.937C75.5485 123.909 75.1908 123.964 74.8588 124.095C74.5298 124.236 74.4025 124.42 74.477 124.648C74.5873 124.926 74.7578 125.177 74.9763 125.382C75.2296 125.64 75.467 125.912 75.6872 126.199C75.7919 126.322 75.8595 126.472 75.8824 126.632C75.9052 126.792 75.8824 126.956 75.8165 127.103C75.5588 127.529 75.1529 127.845 74.6767 127.99C73.8884 128.318 73.0452 128.494 72.1916 128.507C71.2696 128.539 70.3491 128.41 69.4714 128.126L68.1202 128.713L66.5398 127.943L67.8499 127.356C67.6127 127.192 67.4009 126.994 67.2213 126.768C67.0863 126.615 66.9808 126.437 66.9099 126.246C66.8649 126.109 66.8373 125.966 66.8277 125.823C66.8119 125.725 66.8119 125.626 66.8277 125.529L66.8747 125.417H69.2247C69.2 125.494 69.1804 125.573 69.1659 125.652C69.1757 125.845 69.241 126.03 69.3539 126.187C69.5413 126.48 69.8111 126.711 70.1294 126.851C70.5535 127.064 71.0182 127.184 71.4924 127.203C71.9212 127.233 72.3511 127.164 72.7497 127.003C73.0748 126.862 73.1962 126.678 73.114 126.451C72.9987 126.171 72.822 125.92 72.597 125.717C72.3386 125.462 72.0991 125.189 71.8802 124.9C71.7772 124.774 71.7129 124.621 71.6952 124.46C71.6775 124.298 71.7071 124.135 71.7803 123.99C72.0549 123.561 72.4704 123.241 72.9553 123.085C73.7135 122.779 74.5229 122.619 75.3406 122.615C76.2057 122.585 77.0688 122.719 77.8845 123.008L79.2299 122.421L80.7045 123.226L79.3532 123.813C79.6339 124.01 79.8571 124.277 79.9995 124.589Z" fill="#EA8B24"/>
<path d="M73.4958 132.009C79.4563 132.009 84.2882 129.179 84.2882 125.687C84.2882 122.196 79.4563 119.366 73.4958 119.366C67.5353 119.366 62.7034 122.196 62.7034 125.687C62.7034 129.179 67.5353 132.009 73.4958 132.009Z" stroke="#F7931E" stroke-width="1.17501" stroke-miterlimit="10"/>
<path d="M73.4547 132.115C80.5573 132.115 86.3151 128.743 86.3151 124.583C86.3151 120.423 80.5573 117.051 73.4547 117.051C66.3521 117.051 60.5942 120.423 60.5942 124.583C60.5942 128.743 66.3521 132.115 73.4547 132.115Z" fill="#FF912E"/>
<path d="M60.5942 124.583V122.403L61.9925 124.142L60.5942 124.583Z" fill="#E0944F"/>
<path d="M86.3093 122.403V124.583H84.6819L85.8745 122.832L86.3093 122.403Z" fill="#E0944F"/>
<path d="M73.4547 129.935C80.5573 129.935 86.3151 126.563 86.3151 122.403C86.3151 118.243 80.5573 114.871 73.4547 114.871C66.3521 114.871 60.5942 118.243 60.5942 122.403C60.5942 126.563 66.3521 129.935 73.4547 129.935Z" fill="#FFB92C"/>
<path d="M79.976 121.398C80.068 121.58 80.1028 121.784 80.0759 121.986L80.023 122.186H77.673C77.6931 122.12 77.7069 122.054 77.7142 121.986C77.7055 121.833 77.6569 121.685 77.5732 121.557C77.4367 121.326 77.2313 121.143 76.9857 121.034C76.6438 120.856 76.2663 120.758 75.8811 120.746C75.525 120.719 75.1674 120.773 74.8354 120.905C74.5064 121.046 74.3791 121.23 74.4535 121.457C74.5638 121.736 74.7343 121.986 74.9529 122.191C75.2061 122.449 75.4435 122.722 75.6638 123.008C75.7684 123.131 75.8361 123.282 75.8589 123.442C75.8818 123.602 75.859 123.765 75.793 123.913C75.5353 124.339 75.1295 124.655 74.6533 124.8C73.865 125.128 73.0217 125.303 72.1681 125.317C71.2461 125.348 70.3257 125.219 69.448 124.935L68.0967 125.523L66.5164 124.753L67.8265 124.165C67.5892 124.002 67.3774 123.804 67.1979 123.578C67.0629 123.424 66.9573 123.247 66.8865 123.055C66.8415 122.918 66.8138 122.776 66.8042 122.632C66.7884 122.535 66.7884 122.436 66.8042 122.338L66.8512 122.227H69.2012C69.1766 122.304 69.157 122.382 69.1425 122.462C69.1522 122.654 69.2175 122.84 69.3305 122.996C69.5178 123.289 69.7877 123.52 70.106 123.66C70.5301 123.873 70.9948 123.994 71.469 124.013C71.8978 124.042 72.3277 123.974 72.7263 123.813C73.0513 123.672 73.1728 123.488 73.0905 123.261C72.9753 122.98 72.7986 122.729 72.5735 122.526C72.3152 122.272 72.0757 121.999 71.8568 121.71C71.7538 121.584 71.6895 121.431 71.6718 121.269C71.6541 121.108 71.6836 120.944 71.7569 120.799C72.0315 120.37 72.447 120.05 72.9319 119.894C73.6901 119.588 74.4995 119.429 75.3172 119.424C76.1823 119.395 77.0453 119.528 77.861 119.818L79.2064 119.23L80.681 120.035L79.3298 120.623C79.6105 120.819 79.8336 121.087 79.976 121.398Z" fill="#EA8B24"/>
<path d="M73.4724 128.819C79.4329 128.819 84.2648 125.988 84.2648 122.497C84.2648 119.006 79.4329 116.176 73.4724 116.176C67.5119 116.176 62.6799 119.006 62.6799 122.497C62.6799 125.988 67.5119 128.819 73.4724 128.819Z" stroke="#F7931E" stroke-width="3.52502" stroke-miterlimit="10"/>
<path d="M73.4547 126.192C80.5573 126.192 86.3151 122.82 86.3151 118.661C86.3151 114.501 80.5573 111.129 73.4547 111.129C66.3521 111.129 60.5942 114.501 60.5942 118.661C60.5942 122.82 66.3521 126.192 73.4547 126.192Z" fill="#FF912E"/>
<path d="M60.5942 118.661V116.487L61.9925 118.226L60.5942 118.661Z" fill="#E0944F"/>
<path d="M86.3093 116.487V118.661H84.6819L85.8745 116.916L86.3093 116.487Z" fill="#E0944F"/>
<path d="M73.4547 124.019C80.5573 124.019 86.3151 120.647 86.3151 116.487C86.3151 112.327 80.5573 108.955 73.4547 108.955C66.3521 108.955 60.5942 112.327 60.5942 116.487C60.5942 120.647 66.3521 124.019 73.4547 124.019Z" fill="#FFB92C"/>
<path d="M79.976 115.482C80.068 115.664 80.1028 115.868 80.0759 116.07L80.023 116.27H77.673C77.6931 116.204 77.7069 116.138 77.7142 116.07C77.7055 115.917 77.6569 115.769 77.5732 115.641C77.4367 115.41 77.2313 115.227 76.9857 115.118C76.6438 114.94 76.2663 114.842 75.8811 114.83C75.525 114.803 75.1674 114.857 74.8354 114.989C74.5064 115.13 74.3791 115.314 74.4535 115.541C74.5638 115.82 74.7343 116.07 74.9529 116.275C75.2061 116.533 75.4435 116.806 75.6638 117.092C75.7684 117.215 75.8361 117.366 75.8589 117.526C75.8818 117.686 75.859 117.849 75.793 117.997C75.5353 118.423 75.1295 118.739 74.6533 118.884C73.865 119.212 73.0217 119.387 72.1681 119.401C71.2461 119.432 70.3257 119.303 69.448 119.019L68.0967 119.607L66.5164 118.837L67.8265 118.249C67.5892 118.086 67.3774 117.888 67.1979 117.662C67.0629 117.508 66.9573 117.331 66.8865 117.139C66.8415 117.002 66.8138 116.86 66.8042 116.716C66.7884 116.619 66.7884 116.52 66.8042 116.422L66.8512 116.311H69.2012C69.1766 116.388 69.157 116.466 69.1425 116.546C69.1522 116.738 69.2175 116.924 69.3305 117.08C69.5178 117.373 69.7877 117.604 70.106 117.744C70.5301 117.957 70.9948 118.077 71.469 118.097C71.8978 118.126 72.3277 118.058 72.7263 117.897C73.0513 117.756 73.1728 117.572 73.0905 117.345C72.9753 117.064 72.7986 116.813 72.5735 116.61C72.3152 116.356 72.0757 116.083 71.8568 115.794C71.7538 115.668 71.6895 115.515 71.6718 115.353C71.6541 115.192 71.6836 115.028 71.7569 114.883C72.0315 114.454 72.447 114.134 72.9319 113.978C73.6901 113.672 74.4995 113.513 75.3172 113.508C76.1823 113.479 77.0453 113.612 77.861 113.902L79.2064 113.314L80.681 114.119L79.3298 114.707C79.6105 114.903 79.8336 115.171 79.976 115.482Z" fill="#EA8B24"/>
<path d="M73.4724 122.902C79.4329 122.902 84.2648 120.072 84.2648 116.581C84.2648 113.09 79.4329 110.259 73.4724 110.259C67.5119 110.259 62.6799 113.09 62.6799 116.581C62.6799 120.072 67.5119 122.902 73.4724 122.902Z" stroke="#F7931E" stroke-width="1.17501" stroke-miterlimit="10"/>
<path d="M68.4259 119.748C75.5285 119.748 81.2863 116.376 81.2863 112.216C81.2863 108.056 75.5285 104.684 68.4259 104.684C61.3233 104.684 55.5654 108.056 55.5654 112.216C55.5654 116.376 61.3233 119.748 68.4259 119.748Z" fill="#FF912E"/>
<path d="M55.5654 112.216V110.042L56.9637 111.781L55.5654 112.216Z" fill="#E0944F"/>
<path d="M81.2863 110.042V112.216H79.6531L80.8516 110.471L81.2863 110.042Z" fill="#E0944F"/>
<path d="M68.4259 117.574C75.5285 117.574 81.2863 114.202 81.2863 110.042C81.2863 105.882 75.5285 102.51 68.4259 102.51C61.3233 102.51 55.5654 105.882 55.5654 110.042C55.5654 114.202 61.3233 117.574 68.4259 117.574Z" fill="#FFB92C"/>
<path d="M74.947 109.037C75.0389 109.218 75.0738 109.423 75.0469 109.625L74.994 109.825H72.644C72.664 109.759 72.6778 109.693 72.6851 109.625C72.6764 109.472 72.6278 109.324 72.5441 109.196C72.4077 108.965 72.2022 108.782 71.9566 108.673C71.6147 108.495 71.2372 108.397 70.8521 108.385C70.496 108.358 70.1384 108.412 69.8064 108.544C69.4773 108.685 69.3501 108.869 69.4245 109.096C69.5348 109.375 69.7053 109.625 69.9238 109.83C70.1771 110.088 70.4145 110.361 70.6347 110.647C70.7394 110.77 70.807 110.921 70.8299 111.081C70.8528 111.241 70.8299 111.404 70.764 111.552C70.5063 111.978 70.1004 112.294 69.6242 112.439C68.836 112.767 67.9927 112.942 67.1391 112.956C66.2171 112.987 65.2967 112.858 64.4189 112.574L63.0677 113.162L61.4873 112.392L62.7974 111.804C62.5602 111.64 62.3484 111.443 62.1688 111.217C62.0338 111.063 61.9283 110.886 61.8574 110.694C61.8124 110.557 61.7848 110.415 61.7752 110.271C61.7594 110.174 61.7594 110.075 61.7752 109.977L61.8222 109.866H64.1722C64.1476 109.943 64.1279 110.021 64.1134 110.101C64.1232 110.293 64.1885 110.479 64.3014 110.635C64.4888 110.928 64.7586 111.159 65.0769 111.299C65.501 111.512 65.9657 111.632 66.44 111.652C66.8688 111.681 67.2987 111.613 67.6972 111.452C68.0223 111.311 68.1437 111.127 68.0615 110.9C67.9462 110.619 67.7696 110.368 67.5445 110.165C67.2862 109.911 67.0466 109.638 66.8277 109.349C66.7247 109.223 66.6605 109.07 66.6427 108.908C66.625 108.746 66.6546 108.583 66.7278 108.438C67.0025 108.009 67.4179 107.689 67.9028 107.533C68.661 107.227 69.4704 107.068 70.2881 107.063C71.1533 107.034 72.0163 107.167 72.832 107.457L74.1774 106.869L75.652 107.674L74.3008 108.262C74.5815 108.458 74.8046 108.726 74.947 109.037Z" fill="#EA8B24"/>
<path d="M68.4492 116.452C74.4097 116.452 79.2416 113.621 79.2416 110.13C79.2416 106.639 74.4097 103.809 68.4492 103.809C62.4887 103.809 57.6567 106.639 57.6567 110.13C57.6567 113.621 62.4887 116.452 68.4492 116.452Z" stroke="#F7931E" stroke-width="1.17501" stroke-miterlimit="10"/>
<path d="M53.4563 65.2568C53.503 64.8612 53.5736 64.4688 53.6678 64.0818" stroke="#2E3192" stroke-width="1.17501" stroke-miterlimit="10" stroke-linecap="round"/>
<path d="M55.0894 59.1702C58.4734 49.3471 67.8852 31.1228 90.269 31.1287C113.928 31.1287 120.649 49.6996 122.458 57.7896" stroke="#2E3192" stroke-width="1.17501" stroke-miterlimit="10" stroke-linecap="round" stroke-dasharray="2.29 5.13"/>
<path d="M122.934 60.3157C123.046 61.0559 123.081 61.4907 123.081 61.4907" stroke="#2E3192" stroke-width="1.17501" stroke-miterlimit="10" stroke-linecap="round"/>
<path d="M122.082 61.7904V61.6376C122.082 61.2938 122.172 60.9559 122.344 60.6581C122.516 60.3604 122.764 60.1134 123.062 59.9422C123.36 59.771 123.698 59.6817 124.042 59.6834C124.386 59.685 124.723 59.7775 125.02 59.9515L143.291 70.6382C143.586 70.8099 143.831 71.0559 144.001 71.3518C144.171 71.6477 144.261 71.983 144.261 72.3243C144.262 72.6687 144.173 73.0073 144.001 73.3059C143.83 73.6045 143.582 73.8523 143.284 74.0242C142.985 74.196 142.647 74.2859 142.302 74.2845C141.958 74.2831 141.62 74.1906 141.323 74.0163L123.04 63.4824C122.746 63.3087 122.503 63.0611 122.335 62.7642C122.167 62.4673 122.08 62.1315 122.082 61.7904Z" fill="#124577"/>
<path d="M132.581 61.1736C131.168 61.2129 129.774 61.5116 128.469 62.0548C126.4 62.942 132.499 64.7397 132.499 64.7397" fill="#F2AE16"/>
<path d="M133.122 69.2458C134.884 70.2387 136.582 71.402 138.333 72.436C138.95 71.5203 139.347 70.4745 139.494 69.3801C139.641 68.2856 139.533 67.1721 139.179 66.1262C138.004 62.4602 134.314 60.3687 130.954 61.4262C129.978 61.7578 129.1 62.3273 128.399 63.0833C127.699 63.8392 127.198 64.7578 126.941 65.7561C129.027 66.9252 131.071 68.1002 133.122 69.2458Z" fill="#EA8B24"/>
<path d="M133.122 69.2458C134.461 69.9978 135.754 70.8438 137.064 71.6604C137.76 70.0241 137.835 68.19 137.275 66.5022C136.1 62.8362 132.411 60.7446 129.05 61.8021C128.274 62.0598 127.557 62.4723 126.944 63.0145C126.331 63.5567 125.835 64.2175 125.484 64.957C128.063 66.3377 130.584 67.8182 133.122 69.2458Z" fill="#FFD008"/>
<path d="M133.304 69.0342C134.402 69.6217 135.466 70.3326 136.541 71.0082C137.131 69.5862 137.19 67.9989 136.705 66.5373C135.666 63.3237 132.446 61.4907 129.514 62.4248C128.841 62.6478 128.219 63.0041 127.686 63.4724C127.153 63.9408 126.72 64.5116 126.412 65.1508C128.739 66.4316 131.024 67.7417 133.304 69.0342V69.0342Z" stroke="#F7931E" stroke-width="0.587503" stroke-miterlimit="10"/>
<path d="M133.122 69.2458L133.468 69.4456C133.476 69.1003 133.371 68.762 133.169 68.482C132.966 68.2191 132.696 68.016 132.387 67.8946C132.078 67.7692 131.77 67.6595 131.465 67.5655C131.193 67.4855 130.932 67.371 130.689 67.2248C130.595 67.1744 130.516 67.099 130.461 67.0068C130.406 66.9146 130.377 66.8092 130.378 66.7019C130.377 66.6077 130.4 66.5148 130.443 66.4309C130.486 66.3471 130.548 66.2748 130.625 66.2202C130.807 66.0831 131.032 66.0164 131.259 66.0322C131.479 66.0375 131.694 66.0938 131.888 66.1967C132.031 66.2633 132.166 66.3482 132.287 66.4493L132.434 66.6079L133.268 65.756L133.122 65.5974C132.973 65.453 132.805 65.3304 132.622 65.2332C132.373 65.091 132.104 64.9879 131.823 64.9277V64.0405H130.648V64.9159C130.173 64.9758 129.733 65.1978 129.403 65.5445C129.097 65.8595 128.924 66.2804 128.921 66.7195C128.917 66.792 128.917 66.8645 128.921 66.9369L133.122 69.2458Z" fill="#EA8B24"/>
<path d="M91.591 19.6606C89.1578 19.788 86.7684 20.3595 84.5409 21.3468C81.0159 22.9624 91.591 25.8001 91.591 25.8001" fill="#F2AE16"/>
<path d="M96.7542 42.9769C102.495 40.9742 105.371 34.2519 103.177 27.9622C100.983 21.6726 94.5504 18.1973 88.8091 20.2C83.0678 22.2027 80.1922 28.925 82.3861 35.2146C84.5801 41.5043 91.0129 44.9796 96.7542 42.9769Z" fill="#EA8B24"/>
<path d="M93.4647 43.7083C99.2059 41.7056 102.082 34.9833 99.8876 28.6937C97.6936 22.404 91.2608 18.9287 85.5195 20.9314C79.7782 22.9341 76.9026 29.6564 79.0966 35.9461C81.2906 42.2357 87.7234 45.711 93.4647 43.7083Z" fill="#FFD008"/>
<path d="M92.9732 42.2995C98.0068 40.5437 100.529 34.6523 98.6062 29.1408C96.6837 23.6293 91.0446 20.5847 86.0111 22.3406C80.9775 24.0964 78.4555 29.9877 80.378 35.4992C82.3006 41.0107 87.9396 44.0553 92.9732 42.2995Z" stroke="#F7931E" stroke-width="0.587503" stroke-miterlimit="10"/>
<path d="M91.8025 26.6401C92.1223 26.7938 92.419 26.9915 92.6838 27.2276L92.9364 27.4979L91.5205 29.0019C91.4579 28.9314 91.3717 28.8433 91.262 28.7375C91.0479 28.569 90.8129 28.4288 90.5629 28.3204C90.2236 28.1508 89.8495 28.0623 89.4701 28.0619C89.0773 28.0452 88.6915 28.1703 88.3833 28.4144C88.2552 28.5138 88.1516 28.6412 88.0803 28.7868C88.009 28.9324 87.972 29.0924 87.972 29.2545C87.9771 29.4426 88.0348 29.6254 88.1387 29.7823C88.2425 29.9391 88.3884 30.0636 88.5595 30.1417C88.9847 30.3951 89.4408 30.5926 89.9166 30.7292C90.4493 30.8819 90.9839 31.0601 91.5205 31.2638C92.0504 31.4701 92.5151 31.8151 92.8659 32.2625C93.2633 32.7738 93.4709 33.4071 93.4534 34.0544C93.4725 34.851 93.1939 35.6261 92.672 36.2282C92.0921 36.8582 91.3152 37.2726 90.4689 37.4032V38.9366H88.4126V37.4972C88.0112 37.4376 87.6173 37.3352 87.2376 37.1917C86.9103 37.0744 86.5954 36.9248 86.2976 36.7452C86.0696 36.6032 85.8499 36.4482 85.6396 36.2811C85.4935 36.1681 85.356 36.0444 85.2284 35.9109L85.0991 35.7523L86.5209 34.3305C86.5914 34.4128 86.6932 34.5185 86.8264 34.6478C87.0927 34.8615 87.3873 35.0375 87.7018 35.1707C88.1439 35.3887 88.6305 35.5013 89.1235 35.4997C89.6019 35.526 90.0743 35.3824 90.4572 35.0943C90.6091 34.9727 90.731 34.8178 90.8136 34.6416C90.8961 34.4653 90.937 34.2725 90.933 34.0779C90.9277 33.8892 90.8699 33.7057 90.7662 33.5479C90.6624 33.3902 90.5167 33.2645 90.3455 33.1849C89.9197 32.9286 89.4612 32.731 88.9825 32.5974C88.4459 32.4486 87.9113 32.2723 87.3786 32.0687C86.8446 31.8697 86.3738 31.5309 86.0156 31.0875C85.6182 30.5763 85.4106 29.9429 85.4281 29.2957C85.4215 28.547 85.701 27.8241 86.2095 27.2746C86.7669 26.6633 87.518 26.2628 88.3363 26.1408V24.625H90.416V26.1584C90.9 26.2474 91.3676 26.4098 91.8025 26.6401Z" fill="#EA8B24"/>
<path d="M65.9817 58.2125V58.0715C65.9824 57.7276 65.8922 57.3897 65.7202 57.092C65.5481 56.7942 65.3005 56.5472 65.0022 56.3761C64.704 56.2049 64.3658 56.1156 64.022 56.1172C63.6781 56.1188 63.3408 56.2113 63.0442 56.3853L44.767 67.0603C44.472 67.232 44.2273 67.478 44.0572 67.7739C43.8871 68.0698 43.7976 68.4051 43.7976 68.7464C43.7959 69.0908 43.8854 69.4294 44.057 69.728C44.2286 70.0266 44.4762 70.2744 44.7746 70.4463C45.073 70.6181 45.4116 70.708 45.7559 70.7066C46.1003 70.7052 46.4381 70.6127 46.7351 70.4384L65.0065 59.8751C65.2991 59.7062 65.5429 59.4641 65.7139 59.1727C65.8848 58.8812 65.9771 58.5503 65.9817 58.2125Z" fill="#124577"/>
<path d="M55.4832 57.5898C56.8964 57.6292 58.2904 57.9279 59.5957 58.4711C61.6637 59.3582 55.5654 61.156 55.5654 61.156" fill="#F2AE16"/>
<path d="M54.9427 65.6621C53.1802 66.655 51.4823 67.8182 49.7315 68.8522C49.1134 67.937 48.7149 66.8915 48.5672 65.797C48.4194 64.7026 48.5264 63.5888 48.8797 62.5425C50.0547 58.8764 53.7442 56.7849 57.1047 57.8424C58.0836 58.1814 58.962 58.76 59.6598 59.5256C60.3576 60.2911 60.8526 61.2192 61.0997 62.2252C59.0376 63.3356 56.9989 64.5106 54.9427 65.6621Z" fill="#EA8B24"/>
<path d="M54.9425 65.6621C53.603 66.4141 52.3105 67.2601 51.0004 68.0767C50.3042 66.4404 50.229 64.6063 50.7889 62.9184C51.9639 59.2524 55.6534 57.1609 59.0139 58.2184C59.7906 58.4761 60.5071 58.8885 61.12 59.4308C61.7329 59.973 62.2296 60.6338 62.5801 61.3733C60.0009 62.8127 57.4806 64.2403 54.9425 65.6621Z" fill="#FFD008"/>
<path d="M54.7427 65.4507C53.6441 66.0382 52.5807 66.7491 51.5056 67.4247C50.915 66.0027 50.8566 64.4154 51.3411 62.9538C52.381 59.7402 55.6005 57.9072 58.5321 58.8413C59.2056 59.0643 59.8273 59.4206 60.3603 59.8889C60.8932 60.3573 61.3264 60.9281 61.6341 61.5673C59.3253 62.8481 57.0399 64.1641 54.7427 65.4507V65.4507Z" stroke="#F7931E" stroke-width="0.587503" stroke-miterlimit="10"/>
<path d="M54.9425 65.6621L54.5958 65.8618C54.5882 65.5166 54.6934 65.1783 54.8955 64.8983C55.0979 64.6354 55.368 64.4323 55.6769 64.3108C55.9863 64.1855 56.2937 64.0758 56.5992 63.9818C56.8712 63.9017 57.1318 63.7872 57.3747 63.6411C57.4694 63.5906 57.5485 63.5152 57.6034 63.4231C57.6583 63.3309 57.6869 63.2255 57.6861 63.1182C57.6866 63.024 57.6645 62.931 57.6215 62.8472C57.5786 62.7634 57.5161 62.6911 57.4394 62.6364C57.2574 62.4994 57.0321 62.4326 56.8049 62.4484C56.5854 62.4538 56.3702 62.5101 56.1762 62.6129C56.0327 62.6795 55.8984 62.7645 55.7767 62.8655L55.6299 63.0242L54.7956 62.1723L54.9425 62.0137C55.0909 61.8693 55.259 61.7466 55.4419 61.6494C55.6909 61.5072 55.9604 61.4042 56.2409 61.3439V60.4568H57.4159V61.3322C57.891 61.3921 58.331 61.6141 58.6614 61.9608C58.9674 62.2757 59.14 62.6967 59.1431 63.1358C59.1468 63.2082 59.1468 63.2808 59.1431 63.3532L54.9425 65.6621Z" fill="#EA8B24"/>
<path d="M84.6936 96.5588L68.8486 106.64L90.6861 119.325L108.999 107.152" fill="url(#paint1_linear_66_3717)"/>
<path d="M86.744 88.4631C86.744 88.4631 84.3118 86.7006 83.4011 86.9532C82.4905 87.2059 82.138 97.3638 82.7666 97.9807C83.3953 98.5976 85.5279 100.918 86.744 100.425C87.9602 99.9312 88.6652 97.9807 88.6652 97.9807" fill="#EF9841"/>
<path d="M109.087 82.2473L94.6049 83.1344L97.3368 93.3159L88.0014 86.2658C86.186 88.2046 86.4856 90.2726 86.3916 92.8224C86.2783 94.485 86.4431 96.1549 86.8792 97.7633C86.9321 97.9336 86.9909 98.104 87.0496 98.2744C87.9191 99.0734 88.9355 99.7784 89.6288 100.325C91.309 101.653 92.9305 103.033 94.5814 104.396C96.9314 106.311 99.1287 108.15 102.072 109.032C105.015 109.913 110.185 107.71 110.785 104.267C111.86 98.1099 109.95 88.3926 109.087 82.2473Z" fill="#FFF7E1"/>
<path d="M96.0443 57.6485C95.492 56.6791 93.7589 55.4042 92.7543 56.5205C92.5583 56.7621 92.4662 57.0716 92.4982 57.3811C92.5301 57.6906 92.6835 57.9748 92.9247 58.1713C93.4475 58.6648 94.2935 58.8 94.9515 58.9997C95.0322 59.0238 95.1174 59.0285 95.2002 59.0134C95.283 58.9983 95.3611 58.9639 95.4281 58.9129C95.4951 58.862 95.5491 58.7959 95.5857 58.7201C95.6223 58.6443 95.6406 58.561 95.6389 58.4768C95.7257 58.4581 95.807 58.4199 95.8769 58.3652C95.9467 58.3104 96.0033 58.2406 96.0423 58.1609C96.0813 58.0812 96.1018 57.9936 96.1021 57.9049C96.1025 57.8161 96.0827 57.7285 96.0443 57.6485Z" fill="#FBB5AD"/>
<path d="M108.405 76.049L93.5591 72.3948C93.5591 72.3948 94.0232 78.8573 94.599 83.1343C97.2545 84.3093 100.474 84.3093 103.312 83.8922C105.313 83.6603 107.264 83.1047 109.087 82.2472C109.679 81.9407 110.246 81.5891 110.785 81.1956C110.55 79.6387 108.587 77.6177 108.405 76.049Z" fill="#F47A63"/>
<path d="M111.807 79.1747C111.807 80.3497 111.496 83.2108 111.431 84.3741C105.18 82.7056 91.6321 78.1818 90.7274 68.864C90.5907 67.5973 90.7413 66.3162 91.168 65.1157C91.9552 63.8467 93.2419 62.8127 94.2876 61.8374C95.8798 60.3511 97.8597 58.8588 100.057 58.4652C102.759 57.9834 104.892 59.7342 106.831 61.5672C107.559 63.2533 105.456 64.9101 105.732 66.6315L109.51 77.982L111.813 79.157" fill="#F47A63"/>
<path d="M100.116 54.4937C100.116 54.4937 101.761 62.1312 99.2403 63.0829C96.7199 64.0347 94.1642 62.2957 93.7236 60.8563C93.4602 59.6627 93.4006 58.4332 93.5474 57.2197C93.5474 57.2197 95.4215 54.523 100.116 54.4937Z" fill="#FBB5AD"/>
<path d="M100.404 53.1365C100.486 51.2859 97.8949 50.1109 96.7023 51.6795C96.4025 51.4199 96.0489 51.23 95.6669 51.1233C95.285 51.0167 94.8842 50.9959 94.4933 51.0626C93.3946 51.2506 93.0127 52.0261 93.1067 53.0601C92.7909 53.0555 92.4783 53.1255 92.1946 53.2643C91.9108 53.4032 91.6637 53.6069 91.4735 53.8591C91.2601 54.1628 91.1456 54.5249 91.1456 54.8961C91.1456 55.2672 91.2601 55.6294 91.4735 55.933C91.0854 56.089 90.7617 56.3721 90.5557 56.7362C90.3497 57.1002 90.2735 57.5234 90.3396 57.9364C90.3757 58.3228 90.5113 58.6932 90.7332 59.0115C90.6847 59.1287 90.6492 59.2509 90.6275 59.3758C90.5765 59.7179 90.6273 60.0674 90.7736 60.3808C90.9199 60.6942 91.1551 60.9576 91.45 61.1383C91.7968 61.3716 92.207 61.4926 92.625 61.4849C92.7614 61.7481 92.9695 61.9672 93.2253 62.1169C93.4811 62.2667 93.774 62.3409 94.0702 62.3309C94.4414 62.3162 94.7943 62.1656 95.0618 61.9079C95.3293 61.6501 95.4929 61.3031 95.5214 60.9327C95.534 60.7333 95.5061 60.5334 95.4391 60.3452C95.7862 59.5775 95.8507 58.7118 95.6213 57.9012C95.7334 57.8648 95.8401 57.8134 95.9385 57.7484C96.2355 57.5364 96.4445 57.2229 96.526 56.8672C96.8738 56.9933 97.2486 57.0257 97.6129 56.9612C97.785 56.9246 97.9445 56.8436 98.0755 56.726C98.2064 56.6085 98.3042 56.4586 98.359 56.2914C98.8365 56.4178 99.3409 56.3981 99.807 56.2347C100.273 56.0713 100.679 55.7718 100.973 55.3749C101.164 54.9957 101.211 54.5605 101.106 54.1493C101.002 53.7382 100.752 53.3785 100.404 53.1365Z" fill="#D86212"/>
<path d="M96.0738 59.7283C96.0269 59.4894 95.9325 59.2623 95.7962 59.0605C95.66 58.8586 95.4847 58.6862 95.2807 58.5533C95.1831 58.47 95.0699 58.4072 94.9476 58.3685C94.8253 58.3299 94.6965 58.3162 94.5689 58.3282C94.4412 58.3403 94.3172 58.3778 94.2044 58.4387C94.0915 58.4996 93.992 58.5825 93.9118 58.6825C93.7884 58.8753 93.7283 59.1018 93.7399 59.3303C93.7515 59.5589 93.8342 59.7781 93.9764 59.9574C94.3113 60.398 94.8635 60.398 95.3394 60.5978C95.6214 60.7153 95.7977 60.4274 95.733 60.1865C95.7875 60.1838 95.8408 60.169 95.8889 60.1433C95.937 60.1176 95.9789 60.0815 96.0114 60.0377C96.044 59.9939 96.0665 59.9435 96.0773 59.89C96.088 59.8365 96.0869 59.7813 96.0738 59.7283Z" fill="#FBB5AD"/>
<path d="M99.5928 57.819C99.5576 57.6428 99.2873 57.7191 99.3226 57.8954L99.5576 59.0704C99.6089 59.251 99.6443 59.4358 99.6633 59.6227C99.6633 59.9517 99.4988 60.0163 99.2521 60.1632C99.2256 60.1843 99.2076 60.2143 99.2014 60.2476C99.1952 60.2809 99.2012 60.3154 99.2183 60.3447C99.2354 60.3739 99.2625 60.396 99.2946 60.4069C99.3267 60.4178 99.3617 60.4168 99.3931 60.404C99.7162 60.2102 99.9806 60.1103 99.9806 59.7049C99.8902 59.0689 99.7607 58.4391 99.5928 57.819Z" fill="#56403D"/>
<path d="M100.245 57.49C100.207 57.49 100.171 57.5048 100.145 57.5313C100.119 57.5577 100.104 57.5936 100.104 57.631C100.104 57.6684 100.119 57.7043 100.145 57.7307C100.171 57.7571 100.207 57.772 100.245 57.772C100.282 57.772 100.318 57.7571 100.344 57.7307C100.371 57.7043 100.386 57.6684 100.386 57.631C100.386 57.5936 100.371 57.5577 100.344 57.5313C100.318 57.5048 100.282 57.49 100.245 57.49Z" fill="#56403D"/>
<path d="M97.5365 58.4062C97.4991 58.4062 97.4632 58.4211 97.4368 58.4475C97.4104 58.474 97.3955 58.5099 97.3955 58.5472C97.3955 58.5846 97.4104 58.6205 97.4368 58.647C97.4632 58.6734 97.4991 58.6883 97.5365 58.6883C97.5739 58.6883 97.6098 58.6734 97.6362 58.647C97.6626 58.6205 97.6775 58.5846 97.6775 58.5472C97.6775 58.5099 97.6626 58.474 97.6362 58.4475C97.6098 58.4211 97.5739 58.4062 97.5365 58.4062Z" fill="#56403D"/>
<path d="M98.9701 60.9619C98.755 61.0546 98.5135 61.0658 98.2907 60.9933C98.068 60.9209 97.8792 60.7698 97.7598 60.5683C97.7387 60.5417 97.7087 60.5237 97.6754 60.5175C97.642 60.5113 97.6076 60.5173 97.5783 60.5345C97.5491 60.5516 97.5269 60.5787 97.516 60.6108C97.5051 60.6429 97.5062 60.6778 97.5189 60.7093C97.6764 60.9738 97.9259 61.1709 98.2196 61.263C98.5133 61.3552 98.8307 61.3358 99.1111 61.2086C99.2756 61.1323 99.1346 60.8914 98.9701 60.9619Z" fill="#56403D"/>
<path d="M116.213 77.5002C115.882 77.5008 115.559 77.5963 115.281 77.7754C115.003 77.9546 114.782 78.2098 114.645 78.5108C114.421 78.8985 114.269 79.3156 114.016 79.6858C113.599 80.2733 113.264 80.05 112.665 79.768C112.065 79.486 111.443 80.4319 112.077 80.7374C112.583 81.0592 113.156 81.2603 113.752 81.3249C113.936 81.285 114.111 81.2075 114.265 81.0974C114.418 80.9872 114.548 80.8467 114.645 80.6845C114.668 80.7763 114.716 80.8601 114.783 80.9265C114.85 80.993 114.935 81.0397 115.027 81.0616C115.119 81.0834 115.215 81.0795 115.305 81.0503C115.395 81.0211 115.476 80.9677 115.538 80.896C116.031 80.3085 116.742 79.6153 116.942 78.8515C116.997 78.7157 117.022 78.5691 117.015 78.4225C117.007 78.2759 116.967 78.1328 116.897 78.0036C116.827 77.8743 116.73 77.7622 116.612 77.6751C116.493 77.5881 116.357 77.5284 116.213 77.5002Z" fill="#FBB5AD"/>
<path d="M119.603 82.0181C117.014 81.1447 114.421 80.2811 111.825 79.4272C111.666 80.7433 111.584 82.0651 111.478 83.3811C112.585 84.7258 113.872 85.9119 115.303 86.9062C115.397 86.9588 115.504 86.9861 115.612 86.9855C115.72 86.9848 115.827 86.9562 115.921 86.9024C116.015 86.8487 116.093 86.7715 116.148 86.6785C116.204 86.5855 116.234 86.4798 116.237 86.3715C116.211 86.1261 116.142 85.8872 116.031 85.6665C116.561 86.0189 117.128 86.3106 117.723 86.536C117.853 86.5619 117.988 86.5461 118.108 86.4909C118.228 86.4358 118.328 86.344 118.393 86.2287C118.458 86.1135 118.486 85.9806 118.471 85.8491C118.456 85.7175 118.4 85.594 118.311 85.4962L117.794 85.0732C118.23 85.1486 118.674 85.1684 119.116 85.1319C119.774 85.0732 120.014 84.0744 119.28 83.9099C118.986 83.8453 118.693 83.7571 118.416 83.669C118.939 83.6024 119.436 83.3999 119.856 83.0815C120.267 82.7466 120.003 82.1533 119.603 82.0181Z" fill="#FBB5AD"/>
<path d="M116.807 61.1795C116.347 61.3421 115.926 61.5983 115.571 61.9319C115.215 62.2655 114.932 62.6692 114.741 63.1175C114.549 63.5659 114.453 64.0491 114.457 64.5366C114.462 65.0242 114.568 65.5055 114.768 65.95C114.803 66.0437 114.868 66.123 114.953 66.1751C115.039 66.2273 115.139 66.2494 115.238 66.2379C115.259 65.761 115.381 65.2941 115.596 64.8677C115.81 64.4414 116.113 64.0654 116.484 63.7645H116.519C117.071 63.3004 117.776 62.8774 117.982 62.3193C118.287 61.4498 117.612 60.9034 116.807 61.1795Z" fill="#FBB5AD"/>
<path d="M110.244 86.2189C110.162 85.7782 109.492 85.9662 109.574 86.4069C110.2 89.6955 110.645 93.0159 110.908 96.3533C110.943 96.7998 111.642 96.7998 111.607 96.3533C111.338 92.9528 110.883 89.5696 110.244 86.2189Z" fill="#18696D"/>
<path d="M100.18 103.074C99.1649 100.042 98.3466 96.9473 97.7305 93.8094C97.6423 93.3688 96.9726 93.5568 97.0607 93.9974C97.6768 97.1353 98.4952 100.23 99.5106 103.262C99.6516 103.679 100.327 103.497 100.18 103.074Z" fill="#18696D"/>
<path d="M106.608 83.058C101.615 81.5656 97.1109 78.769 93.5591 74.9564C93.33 74.7096 92.9716 75.0798 93.189 75.3265C96.8059 79.1986 101.389 82.0376 106.467 83.5515C106.529 83.5615 106.593 83.5482 106.646 83.5143C106.699 83.4803 106.738 83.428 106.756 83.3673C106.773 83.3065 106.768 83.2415 106.74 83.1846C106.713 83.1276 106.666 83.0826 106.608 83.058Z" fill="#AF3E2F"/>
<path d="M112.095 78.8691C108.631 77.458 105.358 75.6164 102.354 73.3877C102.084 73.1879 101.825 73.6403 102.09 73.8401C105.134 76.0815 108.448 77.931 111.954 79.345C112.271 79.4977 112.406 78.9925 112.095 78.8691Z" fill="#AF3E2F"/>
<path d="M108.84 74.2395L106.425 66.9251C106.32 66.6079 105.838 66.743 105.92 67.0661L108.335 74.3982C108.446 74.6978 108.946 74.5627 108.84 74.2395Z" fill="#AF3E2F"/>
<path d="M142.346 38.0849C143.168 44.6355 140.142 50.346 135.589 50.8395C131.036 51.333 126.683 46.4156 125.86 39.865C125.038 33.3143 128.063 27.6038 132.616 27.1103C137.17 26.6168 141.529 31.5342 142.346 38.0849Z" fill="#124577"/>
<path d="M128.386 39.7063L129.726 37.5971L132.123 41.2573L137.451 33.0264L139.561 34.7536L132.328 45.7223L128.386 39.7063Z" fill="white"/>
<defs>
<linearGradient id="paint0_linear_66_3717" x1="123.633" y1="107.128" x2="115.808" y2="116.628" gradientUnits="userSpaceOnUse">
<stop stop-color="#D46A00"/>
<stop offset="1" stop-color="white"/>
</linearGradient>
<linearGradient id="paint1_linear_66_3717" x1="96.9724" y1="97.4871" x2="86.2094" y2="110.066" gradientUnits="userSpaceOnUse">
<stop stop-color="#D46A00"/>
<stop offset="1" stop-color="white"/>
</linearGradient>
</defs>
</svg>
