<svg width="17" height="17" viewBox="0 0 17 17" fill="none" xmlns="http://www.w3.org/2000/svg">
<path d="M9.7151 5.95441C10.5805 5.95441 11.2821 5.25286 11.2821 4.38746C11.2821 3.52206 10.5805 2.82051 9.7151 2.82051C8.8497 2.82051 8.14815 3.52206 8.14815 4.38746C8.14815 5.25286 8.8497 5.95441 9.7151 5.95441Z" fill="#80D25B"/>
<path fill-rule="evenodd" clip-rule="evenodd" d="M1.25357 4.38746H10.9687V16.9231H1.25357V4.38746Z" fill="#5EA7FF"/>
<path d="M5.95442 14.416C6.9929 14.416 7.83476 13.5741 7.83476 12.5356C7.83476 11.4971 6.9929 10.6553 5.95442 10.6553C4.91593 10.6553 4.07407 11.4971 4.07407 12.5356C4.07407 13.5741 4.91593 14.416 5.95442 14.416Z" fill="#F3B156"/>
<path d="M2.82052 5.95441C3.68592 5.95441 4.38747 5.25286 4.38747 4.38746C4.38747 3.52206 3.68592 2.82051 2.82052 2.82051C1.95511 2.82051 1.25357 3.52206 1.25357 4.38746C1.25357 5.25286 1.95511 5.95441 2.82052 5.95441Z" fill="#22BA8E"/>
<path d="M13.4758 3.44729C14.3412 3.44729 15.0427 2.74574 15.0427 1.88034C15.0427 1.01493 14.3412 0.313386 13.4758 0.313386C12.6104 0.313386 11.9088 1.01493 11.9088 1.88034C11.9088 2.74574 12.6104 3.44729 13.4758 3.44729Z" fill="#80D25B"/>
<path d="M4.70085 4.70085C5.73933 4.70085 6.58119 3.859 6.58119 2.82051C6.58119 1.78203 5.73933 0.940169 4.70085 0.940169C3.66237 0.940169 2.82051 1.78203 2.82051 2.82051C2.82051 3.859 3.66237 4.70085 4.70085 4.70085Z" fill="#80D25B"/>
<path d="M10.9687 4.38746C12.0071 4.38746 12.849 3.5456 12.849 2.50712C12.849 1.46864 12.0071 0.626778 10.9687 0.626778C9.93018 0.626778 9.08832 1.46864 9.08832 2.50712C9.08832 3.5456 9.93018 4.38746 10.9687 4.38746Z" fill="#22BA8E"/>
<path d="M7.52138 3.76068C8.55986 3.76068 9.40172 2.91882 9.40172 1.88034C9.40172 0.841852 8.55986 -5.24521e-06 7.52138 -5.24521e-06C6.48289 -5.24521e-06 5.64104 0.841852 5.64104 1.88034C5.64104 2.91882 6.48289 3.76068 7.52138 3.76068Z" fill="#80D25B"/>
<path d="M6.89459 5.32763C7.76 5.32763 8.46154 4.62609 8.46154 3.76068C8.46154 2.89528 7.76 2.19373 6.89459 2.19373C6.02919 2.19373 5.32764 2.89528 5.32764 3.76068C5.32764 4.62609 6.02919 5.32763 6.89459 5.32763Z" fill="#22BA8E"/>
<path d="M9.08833 3.1339C9.95373 3.1339 10.6553 2.43235 10.6553 1.56695C10.6553 0.701543 9.95373 -5.24521e-06 9.08833 -5.24521e-06C8.22292 -5.24521e-06 7.52138 0.701543 7.52138 1.56695C7.52138 2.43235 8.22292 3.1339 9.08833 3.1339Z" fill="#80D25B"/>
<path fill-rule="evenodd" clip-rule="evenodd" d="M10.9687 4.38746L14.7293 1.56695V13.4758L10.9687 16.9231V4.38746Z" fill="#5B68C0"/>
<path fill-rule="evenodd" clip-rule="evenodd" d="M10.9687 4.38746L14.7293 0.940169L16.2963 3.76068L12.849 7.83476L10.9687 4.38746Z" fill="#5EA7FF"/>
<path fill-rule="evenodd" clip-rule="evenodd" d="M1.25356 4.38746H10.9687L9.7151 8.14814H0L1.25356 4.38746Z" fill="#B4DFFB"/>
</svg>
