<svg width="24" height="24" viewBox="0 0 24 24" fill="none" xmlns="http://www.w3.org/2000/svg">
<path d="M23.1429 1.71429H13.7143" stroke="black" stroke-width="1.42857" stroke-linecap="round" stroke-linejoin="round"/>
<path d="M23.1429 6.85714H13.7143" stroke="black" stroke-width="1.42857" stroke-linecap="round" stroke-linejoin="round"/>
<path d="M23.1429 12H13.7143" stroke="black" stroke-width="1.42857" stroke-linecap="round" stroke-linejoin="round"/>
<path d="M23.1429 22.2857H13.7143" stroke="black" stroke-width="1.42857" stroke-linecap="round" stroke-linejoin="round"/>
<path d="M23.1429 17.1429H13.7143" stroke="black" stroke-width="1.42857" stroke-linecap="round" stroke-linejoin="round"/>
<path d="M0.857142 2.57143L0.857142 9.42857C0.857142 9.90196 1.2409 10.2857 1.71429 10.2857H8.57143C9.04482 10.2857 9.42857 9.90196 9.42857 9.42857V2.57143C9.42857 2.09804 9.04482 1.71428 8.57143 1.71428H1.71429C1.2409 1.71428 0.857142 2.09804 0.857142 2.57143Z" stroke="black" stroke-width="1.42857" stroke-linecap="round" stroke-linejoin="round"/>
<path d="M0.857142 14.5714L0.857142 21.4286C0.857142 21.902 1.2409 22.2857 1.71429 22.2857H8.57143C9.04482 22.2857 9.42857 21.902 9.42857 21.4286V14.5714C9.42857 14.098 9.04482 13.7143 8.57143 13.7143H1.71429C1.2409 13.7143 0.857142 14.098 0.857142 14.5714Z" stroke="black" stroke-width="1.42857" stroke-linecap="round" stroke-linejoin="round"/>
</svg>
