<svg width="25" height="28" viewBox="0 0 25 28" fill="none" xmlns="http://www.w3.org/2000/svg">
<path d="M2.38095 3.57143C1.06595 3.57143 0 4.64286 0 5.95238V22.619C0 23.9286 1.06595 25 2.38095 25H9.52381H11.9048H19.0476C20.3631 25 21.4286 23.9286 21.4286 22.619V5.95238C21.4286 4.64286 20.3631 3.57143 19.0476 3.57143H11.9048H9.52381H2.38095Z" fill="#BDC3C7"/>
<path d="M2.38095 2.38096C1.06595 2.38096 0 3.44691 0 4.76191V21.4286C0 22.744 1.06595 23.8095 2.38095 23.8095H9.52381H11.9048H19.0476C20.3631 23.8095 21.4286 22.744 21.4286 21.4286V4.76191C21.4286 3.44691 20.3631 2.38096 19.0476 2.38096H11.9048H9.52381H2.38095Z" fill="#ECF0F1"/>
<path d="M2.38095 2.38096C1.06595 2.38096 0 3.44691 0 4.76191V8.33334V9.52381H21.4286V8.33334V4.76191C21.4286 3.44691 20.3631 2.38096 19.0476 2.38096H11.9048H9.52381H2.38095Z" fill="#E74C3C"/>
<path d="M5.35715 5.35715C5.35715 5.59165 5.31096 5.82386 5.22122 6.04051C5.13148 6.25716 4.99995 6.45402 4.83413 6.61984C4.66831 6.78566 4.47145 6.91719 4.2548 7.00693C4.03815 7.09667 3.80594 7.14286 3.57144 7.14286C3.33693 7.14286 3.10472 7.09667 2.88807 7.00693C2.67142 6.91719 2.47456 6.78566 2.30874 6.61984C2.14293 6.45402 2.01139 6.25716 1.92165 6.04051C1.83191 5.82386 1.78572 5.59165 1.78572 5.35715C1.78572 5.12264 1.83191 4.89044 1.92165 4.67378C2.01139 4.45713 2.14293 4.26028 2.30874 4.09446C2.47456 3.92864 2.67142 3.7971 2.88807 3.70736C3.10472 3.61762 3.33693 3.57143 3.57144 3.57143C3.80594 3.57143 4.03815 3.61762 4.2548 3.70736C4.47145 3.7971 4.66831 3.92864 4.83413 4.09446C4.99995 4.26028 5.13148 4.45713 5.22122 4.67378C5.31096 4.89044 5.35715 5.12264 5.35715 5.35715Z" fill="#C0392B"/>
<path d="M19.6429 5.35715C19.6429 5.59165 19.5967 5.82386 19.5069 6.04051C19.4172 6.25716 19.2857 6.45402 19.1198 6.61984C18.954 6.78566 18.7572 6.91719 18.5405 7.00693C18.3239 7.09667 18.0917 7.14286 17.8571 7.14286C17.6226 7.14286 17.3904 7.09667 17.1738 7.00693C16.9571 6.91719 16.7603 6.78566 16.5945 6.61984C16.4286 6.45402 16.2971 6.25716 16.2074 6.04051C16.1176 5.82386 16.0714 5.59165 16.0714 5.35715C16.0714 5.12264 16.1176 4.89044 16.2074 4.67378C16.2971 4.45713 16.4286 4.26028 16.5945 4.09446C16.7603 3.92864 16.9571 3.7971 17.1738 3.70736C17.3904 3.61762 17.6226 3.57143 17.8571 3.57143C18.0917 3.57143 18.3239 3.61762 18.5405 3.70736C18.7572 3.7971 18.954 3.92864 19.1198 4.09446C19.2857 4.26028 19.4172 4.45713 19.5069 4.67378C19.5967 4.89044 19.6429 5.12264 19.6429 5.35715Z" fill="#C0392B"/>
<path d="M2.38095 11.9048V14.2857H4.7619V11.9048H2.38095ZM5.95238 11.9048V14.2857H8.33333V11.9048H5.95238ZM9.52381 11.9048V14.2857H11.9048V11.9048H9.52381ZM13.0952 11.9048V14.2857H15.4762V11.9048H13.0952ZM16.6667 11.9048V14.2857H19.0476V11.9048H16.6667Z" fill="#BDC3C7"/>
<path d="M2.38096 15.4762V17.8571H4.76192V15.4762H2.38096ZM5.95239 15.4762V17.8571H8.33335V15.4762H5.95239ZM9.52382 15.4762V17.8571H11.9048V15.4762H9.52382ZM13.0953 15.4762V17.8571H15.4762V15.4762H13.0953ZM16.6667 15.4762V17.8571H19.0476V15.4762H16.6667Z" fill="#BDC3C7"/>
<path d="M2.38096 19.0476V21.4286H4.76192V19.0476H2.38096ZM5.95239 19.0476V21.4286H8.33335V19.0476H5.95239ZM9.52382 19.0476V21.4286H11.9048V19.0476H9.52382ZM13.0953 19.0476V21.4286H15.4762V19.0476H13.0953ZM16.6667 19.0476V21.4286H19.0476V19.0476H16.6667Z" fill="#BDC3C7"/>
<path d="M24.454 20.7639C24.454 22.3558 23.8217 23.8824 22.6961 25.008C21.5705 26.1336 20.0438 26.7659 18.452 26.7659C16.8602 26.7659 15.3335 26.1336 14.208 25.008C13.0824 23.8824 12.45 22.3558 12.45 20.7639C12.45 19.1721 13.0824 17.6455 14.208 16.5199C15.3335 15.3943 16.8602 14.7619 18.452 14.7619C20.0438 14.7619 21.5705 15.3943 22.6961 16.5199C23.8217 17.6455 24.454 19.1721 24.454 20.7639Z" fill="#34495E"/>
<path d="M18.4524 14.7619C14.8357 14.7619 11.9048 17.7381 11.9048 21.3096H12.9964C12.9964 18.3334 15.4393 15.8333 18.4524 15.8333C21.4655 15.8333 23.9083 18.3334 23.9083 21.3096H25C25 17.7381 22.069 14.7619 18.4524 14.7619Z" fill="#2C3E50"/>
<path d="M18.9976 20.2381V21.3096H19.5441H22.8179C23.1191 21.3096 23.3631 21.0714 23.3631 20.8333C23.3631 20.4762 23.1191 20.2381 22.8179 20.2381H19.5441H18.9976Z" fill="#BDC3C7"/>
<path d="M18.4524 17.0237C18.1512 17.0237 17.9071 17.2619 17.9071 17.4999V19.6429V20.2381H18.9976V19.6429V17.4999C18.9976 17.2619 18.7536 17.0237 18.4524 17.0237Z" fill="#BDC3C7"/>
<path d="M15.1922 23.7037L17.8929 21.003L18.2787 21.3888L15.578 24.0895L15.1922 23.7037Z" fill="#C0392B"/>
<path d="M18.4524 19.6429C17.85 19.6429 17.3607 20.2381 17.3607 20.8333C17.3607 21.4286 17.85 21.9048 18.4524 21.9048C19.0548 21.9048 19.5441 21.4286 19.5441 20.8333C19.5441 20.2381 19.0548 19.6429 18.4524 19.6429ZM18.4524 20.2381C18.7536 20.2381 18.9976 20.4762 18.9976 20.8333C18.9976 21.0714 18.7536 21.3096 18.4524 21.3096C18.1512 21.3096 17.9072 21.0714 17.9072 20.8333C17.9072 20.4762 18.1512 20.2381 18.4524 20.2381Z" fill="#BDC3C7"/>
<path d="M18.4524 14.2857C14.8357 14.2857 11.9048 17.1429 11.9048 20.8333C11.9048 24.4048 14.8357 27.381 18.4524 27.381C22.069 27.381 25 24.4048 25 20.8333C25 17.1429 22.069 14.2857 18.4524 14.2857ZM18.4524 15.3572C21.4655 15.3572 23.9083 17.7381 23.9083 20.8333C23.9083 23.8095 21.4655 26.1905 18.4524 26.1905C15.4393 26.1905 12.9964 23.8095 12.9964 20.8333C12.9964 17.7381 15.4393 15.3572 18.4524 15.3572Z" fill="#95A5A6"/>
<path d="M18.998 20.8333C18.998 20.978 18.9405 21.1168 18.8381 21.2191C18.7358 21.3214 18.597 21.3789 18.4523 21.3789C18.3076 21.3789 18.1688 21.3214 18.0665 21.2191C17.9642 21.1168 17.9067 20.978 17.9067 20.8333C17.9067 20.6886 17.9642 20.5498 18.0665 20.4475C18.1688 20.3451 18.3076 20.2877 18.4523 20.2877C18.597 20.2877 18.7358 20.3451 18.8381 20.4475C18.9405 20.5498 18.998 20.6886 18.998 20.8333Z" fill="#2C3E50"/>
<path d="M19.3964 20.2381C19.4892 20.3571 19.55 20.5952 19.55 20.8333C19.55 20.9524 19.4892 21.1905 19.3964 21.3096H19.55H19.9928C20.0547 21.1905 20.0952 20.9524 20.0952 20.8333C20.0952 20.5952 20.0547 20.3571 19.9928 20.2381H19.55H19.3964Z" fill="#95A5A6"/>
<path d="M3.57143 5.24521e-06C2.91393 5.24521e-06 2.38095 0.532981 2.38095 1.19048V4.76191C2.38095 5.41941 2.91393 5.95239 3.57143 5.95239C4.22893 5.95239 4.7619 5.41941 4.7619 4.76191V1.19048C4.7619 0.532981 4.22893 5.24521e-06 3.57143 5.24521e-06ZM17.8571 5.24521e-06C17.2 5.24521e-06 16.6667 0.532981 16.6667 1.19048V4.76191C16.6667 5.41941 17.2 5.95239 17.8571 5.95239C18.5143 5.95239 19.0476 5.41941 19.0476 4.76191V1.19048C19.0476 0.532981 18.5143 5.24521e-06 17.8571 5.24521e-06Z" fill="#95A5A6"/>
<path d="M3.57143 5.24521e-06C2.91393 5.24521e-06 2.38095 0.476196 2.38095 1.19048V3.57143H4.7619V1.19048C4.7619 0.476196 4.22893 5.24521e-06 3.57143 5.24521e-06ZM17.8571 5.24521e-06C17.2 5.24521e-06 16.6667 0.476196 16.6667 1.19048V3.57143H19.0476V1.19048C19.0476 0.476196 18.5143 5.24521e-06 17.8571 5.24521e-06Z" fill="#BDC3C7"/>
</svg>
