<svg width="102" height="95" viewBox="0 0 102 95" fill="none" xmlns="http://www.w3.org/2000/svg">
<path d="M9.62111 24.7904C10.0209 21.34 12.5301 18.6794 16.1911 18.0334C21.8898 17.0278 32.5433 15.8333 51 15.8333C69.4567 15.8333 80.1102 17.0278 85.809 18.0334C89.4699 18.6794 91.9791 21.34 92.3789 24.7904C92.9184 29.4478 93.5 37.6665 93.5 51.4583C93.5 65.2502 92.9184 73.4688 92.3789 78.1262C91.9791 81.5767 89.4699 84.2373 85.809 84.8833C80.1102 85.8889 69.4567 87.0833 51 87.0833C32.5433 87.0833 21.8898 85.8889 16.1911 84.8833C12.5301 84.2373 10.0209 81.5767 9.62111 78.1262C9.08151 73.4688 8.5 65.2502 8.5 51.4583C8.5 37.6665 9.08151 29.4478 9.62111 24.7904Z" fill="#A6CFFF"/>
<path d="M76.139 8.04039C77.4673 8.14239 78.3802 9.04865 78.4703 10.2873C78.5532 11.4252 78.625 13.178 78.625 15.8333C78.625 16.2599 78.6231 16.6632 78.6197 17.0443C81.5996 17.3625 83.9636 17.7079 85.8086 18.0334C89.4695 18.6794 91.9787 21.34 92.3784 24.7904C92.5816 26.5426 92.7905 28.7991 92.9721 31.6667H9.02711C9.20877 28.7991 9.41772 26.5426 9.62075 24.7904C10.0205 21.34 12.5297 18.6795 16.1907 18.0334C18.0357 17.7078 20.4 17.3625 23.3803 17.0442C23.3769 16.6631 23.375 16.2599 23.375 15.8333C23.375 13.178 23.4468 11.4252 23.5297 10.2873C23.6198 9.04865 24.5327 8.14239 25.861 8.04039C26.765 7.97098 28.0236 7.91667 29.75 7.91667C31.4763 7.91667 32.735 7.97098 33.639 8.04039C34.9673 8.14239 35.8802 9.04865 35.9703 10.2873C36.0532 11.4252 36.125 13.178 36.125 15.8333C36.125 15.9339 36.125 16.0331 36.1248 16.131C40.4024 15.9459 45.3333 15.8333 50.9996 15.8333C56.6663 15.8333 61.5974 15.9459 65.8752 16.1311L65.875 15.8333C65.875 13.178 65.9468 11.4252 66.0297 10.2873C66.1198 9.04865 67.0327 8.14239 68.361 8.04039C69.265 7.97098 70.5237 7.91667 72.25 7.91667C73.9763 7.91667 75.235 7.97098 76.139 8.04039Z" fill="#1575E5"/>
<path fill-rule="evenodd" clip-rule="evenodd" d="M23.4704 45.9149C23.5446 44.7781 24.3387 43.8975 25.5512 43.7503C26.4873 43.6365 27.8403 43.5417 29.75 43.5417C31.6597 43.5417 33.0127 43.6365 33.9488 43.7503C35.1613 43.8975 35.9554 44.7781 36.0296 45.9149C36.0827 46.7279 36.125 47.8782 36.125 49.4792C36.125 51.0801 36.0827 52.2304 36.0296 53.0434C35.9554 54.1803 35.1613 55.0608 33.9488 55.2081C33.0127 55.3219 31.6597 55.4167 29.75 55.4167C27.8403 55.4167 26.4873 55.3219 25.5512 55.2081C24.3387 55.0608 23.5446 54.1803 23.4704 53.0434C23.4173 52.2304 23.375 51.0801 23.375 49.4792C23.375 47.8782 23.4173 46.7279 23.4704 45.9149ZM23.4704 65.7066C23.5446 64.5697 24.3387 63.6892 25.5512 63.5419C26.4873 63.4281 27.8403 63.3333 29.75 63.3333C31.6597 63.3333 33.0127 63.4281 33.9488 63.5419C35.1613 63.6892 35.9554 64.5697 36.0296 65.7066C36.0827 66.5196 36.125 67.6699 36.125 69.2708C36.125 70.8718 36.0827 72.0221 36.0296 72.8351C35.9554 73.9719 35.1613 74.8525 33.9488 74.9997C33.0127 75.1135 31.6597 75.2083 29.75 75.2083C27.8403 75.2083 26.4873 75.1135 25.5512 74.9997C24.3387 74.8525 23.5446 73.9719 23.4704 72.8351C23.4173 72.0221 23.375 70.8718 23.375 69.2708C23.375 67.6699 23.4173 66.5196 23.4704 65.7066ZM46.8012 43.7503C45.5887 43.8975 44.7946 44.7781 44.7204 45.9149C44.6673 46.7279 44.625 47.8782 44.625 49.4792C44.625 51.0801 44.6673 52.2304 44.7204 53.0434C44.7946 54.1803 45.5887 55.0608 46.8012 55.2081C47.7373 55.3219 49.0903 55.4167 51 55.4167C52.9097 55.4167 54.2627 55.3219 55.1988 55.2081C56.4113 55.0608 57.2054 54.1803 57.2796 53.0434C57.3327 52.2304 57.375 51.0801 57.375 49.4792C57.375 47.8782 57.3327 46.7279 57.2796 45.9149C57.2054 44.7781 56.4113 43.8975 55.1988 43.7503C54.2627 43.6365 52.9097 43.5417 51 43.5417C49.0903 43.5417 47.7373 43.6365 46.8012 43.7503ZM44.7204 65.7066C44.7946 64.5697 45.5887 63.6892 46.8012 63.5419C47.7373 63.4281 49.0903 63.3333 51 63.3333C52.9097 63.3333 54.2627 63.4281 55.1988 63.5419C56.4113 63.6892 57.2054 64.5697 57.2796 65.7066C57.3327 66.5196 57.375 67.6699 57.375 69.2708C57.375 70.8718 57.3327 72.0221 57.2796 72.8351C57.2054 73.9719 56.4113 74.8525 55.1988 74.9997C54.2627 75.1135 52.9097 75.2083 51 75.2083C49.0903 75.2083 47.7373 75.1135 46.8012 74.9997C45.5887 74.8525 44.7946 73.9719 44.7204 72.8351C44.6673 72.0221 44.625 70.8718 44.625 69.2708C44.625 67.6699 44.6673 66.5196 44.7204 65.7066ZM68.0512 43.7503C66.8387 43.8975 66.0446 44.7781 65.9704 45.9149C65.9173 46.7279 65.875 47.8782 65.875 49.4792C65.875 51.0801 65.9173 52.2304 65.9704 53.0434C66.0446 54.1803 66.8387 55.0608 68.0512 55.2081C68.9873 55.3219 70.3403 55.4167 72.25 55.4167C74.1597 55.4167 75.5127 55.3219 76.4488 55.2081C77.6613 55.0608 78.4554 54.1803 78.5296 53.0434C78.5827 52.2304 78.625 51.0801 78.625 49.4792C78.625 47.8782 78.5827 46.7279 78.5296 45.9149C78.4554 44.7781 77.6613 43.8975 76.4488 43.7503C75.5127 43.6365 74.1597 43.5417 72.25 43.5417C70.3403 43.5417 68.9873 43.6365 68.0512 43.7503Z" fill="#1575E5"/>
</svg>
