<svg width="29" height="29" viewBox="0 0 29 29" fill="none" xmlns="http://www.w3.org/2000/svg">
<path d="M0 26.0257V8.1795H28.2564V26.0257C28.2564 27.6616 26.9179 29 25.2821 29H2.97436C1.33846 29 0 27.6616 0 26.0257Z" fill="#CFD8DC"/>
<path d="M28.2564 5.20513V9.66667H0V5.20513C0 3.56923 1.33846 2.23077 2.97436 2.23077H25.2821C26.9179 2.23077 28.2564 3.56923 28.2564 5.20513Z" fill="#F44336"/>
<path d="M20.8205 7.43588C22.0525 7.43588 23.0513 6.43713 23.0513 5.20511C23.0513 3.97309 22.0525 2.97434 20.8205 2.97434C19.5885 2.97434 18.5897 3.97309 18.5897 5.20511C18.5897 6.43713 19.5885 7.43588 20.8205 7.43588Z" fill="#B71C1C"/>
<path d="M7.43588 7.43589C8.6679 7.43589 9.66665 6.43714 9.66665 5.20512C9.66665 3.9731 8.6679 2.97435 7.43588 2.97435C6.20386 2.97435 5.20511 3.9731 5.20511 5.20512C5.20511 6.43714 6.20386 7.43589 7.43588 7.43589Z" fill="#B71C1C"/>
<path d="M20.8205 0C20.0026 0 19.3333 0.669231 19.3333 1.48718V5.20513C19.3333 6.02308 20.0026 6.69231 20.8205 6.69231C21.6385 6.69231 22.3077 6.02308 22.3077 5.20513V1.48718C22.3077 0.669231 21.6385 0 20.8205 0Z" fill="#B0BEC5"/>
<path d="M7.43591 0C6.61796 0 5.94873 0.669231 5.94873 1.48718V5.20513C5.94873 6.02308 6.61796 6.69231 7.43591 6.69231C8.25386 6.69231 8.92309 6.02308 8.92309 5.20513V1.48718C8.92309 0.669231 8.25386 0 7.43591 0Z" fill="#B0BEC5"/>
<path d="M5.94873 12.641H8.92309V15.6154H5.94873V12.641Z" fill="#90A4AE"/>
<path d="M10.4103 12.641H13.3846V15.6154H10.4103V12.641Z" fill="#90A4AE"/>
<path d="M14.8718 12.641H17.8462V15.6154H14.8718V12.641Z" fill="#90A4AE"/>
<path d="M19.3333 12.641H22.3077V15.6154H19.3333V12.641Z" fill="#90A4AE"/>
<path d="M5.94873 17.1026H8.92309V20.0769H5.94873V17.1026Z" fill="#90A4AE"/>
<path d="M10.4103 17.1026H13.3846V20.0769H10.4103V17.1026Z" fill="#90A4AE"/>
<path d="M14.8718 17.1026H17.8462V20.0769H14.8718V17.1026Z" fill="#90A4AE"/>
<path d="M19.3333 17.1026H22.3077V20.0769H19.3333V17.1026Z" fill="#90A4AE"/>
<path d="M5.94873 21.5641H8.92309V24.5384H5.94873V21.5641Z" fill="#90A4AE"/>
<path d="M10.4103 21.5641H13.3846V24.5384H10.4103V21.5641Z" fill="#90A4AE"/>
<path d="M14.8718 21.5641H17.8462V24.5384H14.8718V21.5641Z" fill="#90A4AE"/>
<path d="M19.3333 21.5641H22.3077V24.5384H19.3333V21.5641Z" fill="#90A4AE"/>
</svg>
