<svg width="11" height="11" viewBox="0 0 11 11" fill="none" xmlns="http://www.w3.org/2000/svg">
<path d="M9.16675 8.9375H1.83341C1.32925 8.9375 0.916748 8.525 0.916748 8.02083V2.97917C0.916748 2.475 1.32925 2.0625 1.83341 2.0625H9.16675C9.67091 2.0625 10.0834 2.475 10.0834 2.97917V8.02083C10.0834 8.525 9.67091 8.9375 9.16675 8.9375Z" fill="#607D8B"/>
<path d="M6.64575 8.25C8.16454 8.25 9.39575 7.01878 9.39575 5.5C9.39575 3.98122 8.16454 2.75 6.64575 2.75C5.12697 2.75 3.89575 3.98122 3.89575 5.5C3.89575 7.01878 5.12697 8.25 6.64575 8.25Z" fill="#455A64"/>
<path d="M6.64575 7.5625C7.78484 7.5625 8.70825 6.63909 8.70825 5.5C8.70825 4.36091 7.78484 3.4375 6.64575 3.4375C5.50666 3.4375 4.58325 4.36091 4.58325 5.5C4.58325 6.63909 5.50666 7.5625 6.64575 7.5625Z" fill="#42A5F5"/>
<path d="M7.74579 4.81252C7.47079 4.49168 7.05829 4.30835 6.64579 4.30835C6.23329 4.30835 5.82079 4.49168 5.54579 4.81252C5.43121 4.9271 5.45413 5.11043 5.56871 5.22502C5.68329 5.3396 5.86663 5.31668 5.98121 5.2021C6.32496 4.81252 6.96662 4.81252 7.31037 5.2021C7.37912 5.27085 7.44788 5.29377 7.53954 5.29377C7.60829 5.29377 7.67704 5.27085 7.74579 5.22502C7.83746 5.13335 7.86037 4.9271 7.74579 4.81252Z" fill="#90CAF9"/>
<path d="M1.83325 2.97925H3.20825V3.66675H1.83325V2.97925Z" fill="#ADD8FB"/>
</svg>
