<svg width="19" height="14" viewBox="0 0 19 14" fill="none" xmlns="http://www.w3.org/2000/svg">
<path fill-rule="evenodd" clip-rule="evenodd" d="M1.1831 7.8028H4.73238V13.1283C4.73238 13.2908 4.59758 13.4225 4.43588 13.4225H1.4796C1.31585 13.4225 1.1831 13.2891 1.1831 13.1283V7.8028Z" fill="#595959"/>
<path fill-rule="evenodd" clip-rule="evenodd" d="M14.1971 7.8028H17.7464V13.1283C17.7464 13.2908 17.6116 13.4225 17.4499 13.4225H14.4936C14.3299 13.4225 14.1971 13.2891 14.1971 13.1283V7.8028Z" fill="#595959"/>
<path fill-rule="evenodd" clip-rule="evenodd" d="M3.65904 2.4596C3.76178 1.98019 4.23423 1.50553 4.71545 1.41326C4.71545 1.41326 6.21125 1 9.46476 1C12.7183 1 14.2185 1.41406 14.2185 1.41406C14.6968 1.51209 15.1679 1.98111 15.2705 2.4596L15.9718 5.73238H2.95774L3.65904 2.4596Z" fill="#B4DFFB" stroke="#5B68C0" stroke-width="1.9725" stroke-linecap="round"/>
<path fill-rule="evenodd" clip-rule="evenodd" d="M1.09963 7.79469C0.982375 6.32901 2.08 5.14083 3.54895 5.14083H15.3806C16.8506 5.14083 17.9472 6.32886 17.8299 7.79469L17.5686 11.061C17.5035 11.8752 16.7948 12.4583 15.9803 12.3731C15.9803 12.3731 13.4577 12.0217 9.46477 12.0217C5.47182 12.0217 2.94571 12.3734 2.94571 12.3734C2.13559 12.4628 1.42585 11.8725 1.36094 11.061L1.09963 7.79469Z" fill="#5B68C0"/>
<path d="M11.2394 8.39435H7.69012C7.20006 8.39435 6.8028 8.79161 6.8028 9.28167V9.87321C6.8028 10.3633 7.20006 10.7605 7.69012 10.7605H11.2394C11.7295 10.7605 12.1267 10.3633 12.1267 9.87321V9.28167C12.1267 8.79161 11.7295 8.39435 11.2394 8.39435Z" fill="#0A3586"/>
<path fill-rule="evenodd" clip-rule="evenodd" d="M2.66196 10.4648H5.91547V11.0563H2.66196V10.4648Z" fill="#FCC24C"/>
<path fill-rule="evenodd" clip-rule="evenodd" d="M13.3098 10.4648H16.5633V11.0563H13.3098V10.4648Z" fill="#FCC24C"/>
<path fill-rule="evenodd" clip-rule="evenodd" d="M2.16726 8.38388C2.11378 8.06296 2.33117 7.85021 2.65208 7.90856L4.74227 8.28859C5.06351 8.347 5.32393 8.65691 5.32393 8.98589C5.32393 9.3126 5.06145 9.57744 4.73249 9.57744H2.95762C2.63098 9.57744 2.32255 9.31559 2.26934 8.99636L2.16726 8.38388Z" fill="#FCC24C"/>
<path fill-rule="evenodd" clip-rule="evenodd" d="M16.7623 8.38388C16.8157 8.06296 16.5984 7.85021 16.2774 7.90855L14.1873 8.28859C13.866 8.347 13.6056 8.65691 13.6056 8.98589C13.6056 9.3126 13.8681 9.57744 14.197 9.57744H15.9719C16.2985 9.57744 16.607 9.31559 16.6602 8.99636L16.7623 8.38388Z" fill="#FCC24C"/>
<path fill-rule="evenodd" clip-rule="evenodd" d="M16.2676 4.11538C16.2676 3.78902 16.5228 3.59535 16.8386 3.68308L18.9295 4.26389V4.70891C18.9295 5.03486 18.6646 5.29909 18.3387 5.29909H16.2676V4.11538Z" fill="#5B68C0"/>
<path fill-rule="evenodd" clip-rule="evenodd" d="M2.66196 4.11538C2.66196 3.78902 2.40672 3.59535 2.09091 3.68308L0 4.26389V4.70891C0 5.03486 0.264971 5.29909 0.590776 5.29909H2.66196V4.11538Z" fill="#5B68C0"/>
<path fill-rule="evenodd" clip-rule="evenodd" d="M7.98589 5.14022C7.98589 4.81385 8.24837 4.54929 8.57733 4.54929H10.3522C10.6788 4.54929 10.9436 4.81497 10.9436 5.14022V6.32393H7.98589V5.14022Z" fill="#5B68C0"/>
</svg>
