<svg width="10" height="13" viewBox="0 0 10 13" fill="none" xmlns="http://www.w3.org/2000/svg">
<path d="M6.42735 2.43933L4.76065 3.30142L3.1131 2.43933L3.2472 0.849258H6.38904L6.42735 2.43933Z" fill="url(#paint0_linear_7_100)"/>
<path opacity="0.2" d="M6.10167 1.13662L6.13041 2.2765L4.76065 2.98532L3.41004 2.2765L3.50583 1.13662H6.10167ZM6.38904 0.849258H3.2472L3.1131 2.43933L4.77023 3.30142L6.43693 2.43933C6.42735 2.43933 6.38904 0.849258 6.38904 0.849258V0.849258Z" fill="#424242"/>
<path d="M7.74922 5.744L7.93122 6.07926L9.57877 4.86276L8.49637 2.5447C8.13238 2.07534 6.49441 1.69218 6.49441 1.69218L5.48864 2.87037L4.79896 2.64048L4.09971 2.87037L3.09394 1.69218C3.09394 1.69218 1.44639 2.07534 1.0824 2.5447L0 4.86276L1.63797 6.08884L1.81997 5.75358C1.75291 6.48157 2.00196 7.19998 1.8966 7.91838C1.75291 8.8571 1.0824 10.725 1.0824 10.725C1.05366 11.1081 3.25678 12.2767 4.79896 12.2959C6.33157 12.2767 8.5251 11.1081 8.49637 10.725C8.49637 10.725 7.81628 8.86668 7.68217 7.91838C7.56723 7.1904 7.81628 6.47199 7.74922 5.744V5.744Z" fill="url(#paint1_linear_7_100)"/>
<path opacity="0.1" d="M7.8067 5.2076C7.46186 4.16352 7.4906 3.81868 7.4906 3.81868C7.35649 5.38002 5.84305 5.82064 4.81812 5.15013C3.79319 5.82064 2.27975 5.37044 2.15522 3.81868C2.15522 3.81868 2.17438 4.16352 1.83912 5.19802C1.50387 6.23253 1.34103 7.13293 1.34103 7.13293C1.34103 7.13293 2.20312 6.11758 4.81812 6.10801C7.43312 6.10801 8.29521 7.13293 8.29521 7.13293C8.29521 7.13293 8.15153 6.24211 7.8067 5.2076V5.2076Z" fill="#0D47A1"/>
<path opacity="0.2" d="M2.98858 2.00828L3.8794 3.06195C3.93687 3.129 4.0135 3.16732 4.09971 3.16732C4.12845 3.16732 4.15719 3.16731 4.18592 3.15774L4.79896 2.95658L5.40243 3.15774C5.43116 3.16731 5.4599 3.16732 5.48864 3.16732C5.57484 3.16732 5.65147 3.129 5.70895 3.06195L6.59977 2.00828C7.21281 2.16154 8.03659 2.44891 8.2569 2.68838L9.22436 4.76697L8.03659 5.6578L8.01743 5.6099C7.96954 5.51411 7.86417 5.45664 7.76838 5.45664C7.73965 5.45664 7.71091 5.45664 7.68217 5.46622C7.54807 5.50453 7.47144 5.62906 7.48102 5.76316C7.50976 6.06968 7.47144 6.38578 7.43313 6.72104C7.38523 7.11377 7.33734 7.52565 7.40439 7.94712C7.52891 8.79005 8.05575 10.2939 8.19943 10.7058C7.91206 11.0411 6.16873 11.9798 4.80854 11.9894C3.44836 11.9702 1.68586 11.0411 1.3985 10.7058C1.54218 10.2939 2.06901 8.79005 2.19354 7.94712C2.26059 7.52565 2.2127 7.11377 2.1648 6.72104C2.12649 6.38578 2.08817 6.07926 2.11691 5.76316C2.12649 5.62906 2.04028 5.50453 1.91575 5.46622C1.88702 5.45664 1.85828 5.45664 1.82954 5.45664C1.72418 5.45664 1.62839 5.51411 1.5805 5.6099L1.56134 5.6578L0.373572 4.76697L1.34103 2.68838C1.54218 2.44891 2.36596 2.17112 2.98858 2.00828M6.49441 1.69218L5.48864 2.87037L4.79896 2.64048L4.09971 2.87037L3.09394 1.69218C3.09394 1.69218 1.44639 2.07534 1.0824 2.5447L0 4.86276L1.63797 6.08884L1.81997 5.75358C1.75291 6.48157 2.00196 7.19998 1.8966 7.91838C1.75291 8.8571 1.0824 10.725 1.0824 10.725C1.05366 11.1081 3.25678 12.2767 4.79896 12.2959C6.33157 12.2767 8.5251 11.1081 8.49637 10.725C8.49637 10.725 7.81628 8.86668 7.68217 7.91838C7.57681 7.19998 7.82585 6.48157 7.7588 5.75358L7.9408 6.08884L9.57877 4.86276L8.49637 2.5447C8.13238 2.06576 6.49441 1.69218 6.49441 1.69218V1.69218Z" fill="#424242"/>
<path d="M4.78938 4.03899C4.94809 4.03899 5.07675 3.91033 5.07675 3.75163C5.07675 3.59292 4.94809 3.46426 4.78938 3.46426C4.63068 3.46426 4.50202 3.59292 4.50202 3.75163C4.50202 3.91033 4.63068 4.03899 4.78938 4.03899Z" fill="#3949AB"/>
<path d="M4.78938 5.8398C4.94809 5.8398 5.07675 5.71115 5.07675 5.55244C5.07675 5.39373 4.94809 5.26508 4.78938 5.26508C4.63068 5.26508 4.50202 5.39373 4.50202 5.55244C4.50202 5.71115 4.63068 5.8398 4.78938 5.8398Z" fill="#3949AB"/>
<path d="M4.78938 7.63103C4.94809 7.63103 5.07675 7.50237 5.07675 7.34367C5.07675 7.18496 4.94809 7.0563 4.78938 7.0563C4.63068 7.0563 4.50202 7.18496 4.50202 7.34367C4.50202 7.50237 4.63068 7.63103 4.78938 7.63103Z" fill="#3949AB"/>
<path d="M4.78938 9.43184C4.94809 9.43184 5.07675 9.30319 5.07675 9.14448C5.07675 8.98577 4.94809 8.85712 4.78938 8.85712C4.63068 8.85712 4.50202 8.98577 4.50202 9.14448C4.50202 9.30319 4.63068 9.43184 4.78938 9.43184Z" fill="#3949AB"/>
<path d="M4.78938 11.2231C4.94809 11.2231 5.07675 11.0944 5.07675 10.9357C5.07675 10.777 4.94809 10.6483 4.78938 10.6483C4.63068 10.6483 4.50202 10.777 4.50202 10.9357C4.50202 11.0944 4.63068 11.2231 4.78938 11.2231Z" fill="#3949AB"/>
<path d="M4.80854 2.63091L4.32003 3.11943C4.11887 3.32058 3.83151 3.28227 3.66867 3.03322L2.76826 1.69219L3.23762 0.849258L4.80854 2.63091Z" fill="#E1F5FE"/>
<path d="M4.79897 2.63091L5.28748 3.11943C5.48864 3.32058 5.776 3.28227 5.93884 3.03322L6.83924 1.69219L6.36031 0.849258L4.79897 2.63091Z" fill="#E1F5FE"/>
<path opacity="0.2" d="M3.27594 1.17494L4.54992 2.61175L4.18592 2.96617C4.13803 3.01406 4.08056 3.0428 4.02308 3.0428C3.94645 3.0428 3.86982 2.9949 3.82193 2.91827L2.98858 1.68261L3.27594 1.17494ZM3.23762 0.849258L2.75869 1.69219L3.65909 3.03322C3.75488 3.1769 3.88898 3.24395 4.02308 3.24395C4.12845 3.24395 4.23382 3.20564 4.32003 3.11943L4.80854 2.63091L3.23762 0.849258Z" fill="#424242"/>
<path opacity="0.2" d="M6.34115 1.17494L6.62851 1.68261L5.79516 2.91827C5.73769 2.9949 5.67063 3.0428 5.594 3.0428C5.53653 3.0428 5.47906 3.01406 5.43116 2.96617L5.06717 2.61175L6.34115 1.17494ZM6.36988 0.849258L4.79897 2.63091L5.28748 3.11943C5.37369 3.20564 5.47906 3.24395 5.58443 3.24395C5.71853 3.24395 5.85263 3.16732 5.94842 3.03322L6.84882 1.69219L6.36988 0.849258Z" fill="#424242"/>
<defs>
<linearGradient id="paint0_linear_7_100" x1="4.77023" y1="3.30526" x2="4.77023" y2="0.849258" gradientUnits="userSpaceOnUse">
<stop offset="0.0198" stop-color="#1E88E5"/>
<stop offset="1" stop-color="#42A5F5"/>
</linearGradient>
<linearGradient id="paint1_linear_7_100" x1="4.78938" y1="12.2834" x2="4.78938" y2="1.67973" gradientUnits="userSpaceOnUse">
<stop stop-color="#42A5F5"/>
<stop offset="1" stop-color="#90CAF9"/>
</linearGradient>
</defs>
</svg>
