<svg width="32" height="31" viewBox="0 0 32 31" fill="none" xmlns="http://www.w3.org/2000/svg">
<path fill-rule="evenodd" clip-rule="evenodd" d="M13.2645 24.4633C13.3929 24.5917 13.4947 24.7441 13.5642 24.9119C13.6337 25.0796 13.6694 25.2594 13.6694 25.4409C13.6694 25.6225 13.6337 25.8022 13.5642 25.97C13.4947 26.1377 13.3929 26.2901 13.2645 26.4185C13.1361 26.5469 12.9837 26.6487 12.816 26.7182C12.6483 26.7877 12.4685 26.8234 12.2869 26.8234C12.1054 26.8234 11.9256 26.7877 11.7579 26.7182C11.5901 26.6487 11.4377 26.5469 11.3094 26.4185C11.0501 26.1592 10.9044 25.8076 10.9044 25.4409C10.9044 25.0743 11.0501 24.7226 11.3094 24.4633C11.5686 24.2041 11.9203 24.0584 12.2869 24.0584C12.6536 24.0584 13.0052 24.2041 13.2645 24.4633ZM26.4185 11.3094C26.6777 11.5687 26.8234 11.9203 26.8234 12.287C26.8234 12.6536 26.6777 13.0053 26.4185 13.2645C26.1592 13.5238 25.8076 13.6695 25.4409 13.6695C25.0742 13.6695 24.7226 13.5238 24.4633 13.2645C24.204 13.0053 24.0584 12.6536 24.0584 12.287C24.0584 11.9203 24.204 11.5687 24.4633 11.3094C24.7226 11.0501 25.0742 10.9045 25.4409 10.9045C25.8076 10.9045 26.1592 11.0501 26.4185 11.3094Z" fill="#00A6ED"/>
<path fill-rule="evenodd" clip-rule="evenodd" d="M8.98297 16.0858L13.5924 16.7602L9.98529 21.3078L8.27144 16.9706C7.83215 17.1624 7.30005 17.0758 6.94119 16.7169C6.47097 16.2467 6.47097 15.4795 6.94119 15.0092C7.12413 14.8282 7.36001 14.7103 7.61457 14.6725C7.86913 14.6346 8.12911 14.679 8.35675 14.799C8.5844 14.919 8.76785 15.1085 8.88046 15.3399C8.99307 15.5713 9.02898 15.8326 8.98297 16.0858ZM16.9644 8.27759L21.3016 9.99144L16.7541 13.5986L16.0797 8.98911C15.7022 9.05717 15.2939 8.9458 15.0031 8.65501C14.5329 8.18478 14.5329 7.41757 15.0031 6.94734C15.4733 6.47712 16.2405 6.47712 16.7108 6.94734C17.0696 7.3062 17.1562 7.8383 16.9644 8.27759Z" fill="#E19747"/>
<path d="M21.0789 3.76717C20.6087 3.29695 19.8415 3.29695 19.3712 3.76717C18.901 4.2374 18.901 5.00461 19.3712 5.47484C19.5445 5.64808 19.7672 5.75945 19.9838 5.80275C19.8476 5.93887 19.7425 6.10593 19.6991 6.32248L18.8391 10.3256C18.7216 10.8515 18.2266 11.198 17.6883 11.1175L11.3155 10.1523C11.2667 10.1421 11.2168 10.1379 11.167 10.14C11.26 9.81906 11.2437 9.47633 11.1206 9.16573C10.9974 8.85513 10.7745 8.59431 10.4869 8.42431C10.1992 8.25432 9.8632 8.18481 9.53173 8.22674C9.20025 8.26866 8.89213 8.41964 8.65587 8.6559C8.41961 8.89215 8.26864 9.20027 8.22671 9.53175C8.18479 9.86323 8.25429 10.1992 8.42429 10.4869C8.59428 10.7745 8.85511 10.9975 9.16571 11.1206C9.47631 11.2437 9.81904 11.2601 10.1399 11.167C10.1399 11.2165 10.1399 11.266 10.1523 11.3155L11.1175 17.6883C11.2041 18.2204 10.8515 18.7216 10.3256 18.8392L6.32245 19.6992C6.1059 19.7425 5.93885 19.8477 5.80273 19.9838C5.75942 19.7549 5.64805 19.5445 5.47481 19.3713C5.00458 18.901 4.23737 18.901 3.76715 19.3713C3.29692 19.8415 3.29692 20.6087 3.76715 21.0789C4.23737 21.5491 5.00458 21.5491 5.47481 21.0789C5.50574 21.048 5.53668 21.017 5.55524 20.9861C5.61711 21.2088 5.75323 21.4068 5.96978 21.5491L15.6032 27.9652C16.2962 28.4231 17.2181 28.3303 17.8059 27.7425L27.7425 17.8059C28.3303 17.2181 28.4231 16.2962 27.9652 15.6033L21.5491 5.96981C21.4068 5.75326 21.1964 5.61714 20.9861 5.55527C21.017 5.52433 21.0541 5.49958 21.0789 5.47484C21.5491 5.00461 21.5491 4.2374 21.0789 3.76717Z" fill="#FFB02E"/>
<path d="M20.4107 20.4108C20.8209 20.0006 21.0514 19.4442 21.0514 18.864C21.0514 18.2839 20.8209 17.7275 20.4107 17.3172C20.0004 16.907 19.444 16.6765 18.8639 16.6765C18.2837 16.6765 17.7273 16.907 17.3171 17.3172C16.9068 17.7275 16.6764 18.2839 16.6764 18.864C16.6764 19.4442 16.9068 20.0006 17.3171 20.4108C17.7273 20.821 18.2837 21.0515 18.8639 21.0515C19.444 21.0515 20.0004 20.821 20.4107 20.4108Z" fill="#00A6ED"/>
<path fill-rule="evenodd" clip-rule="evenodd" d="M15.7764 21.9513C16.0226 22.1975 16.1608 22.5313 16.1608 22.8794C16.1608 23.2275 16.0226 23.5613 15.7764 23.8075C15.5303 24.0536 15.1964 24.1919 14.8483 24.1919C14.5002 24.1919 14.1664 24.0536 13.9203 23.8075C13.6741 23.5613 13.5358 23.2275 13.5358 22.8794C13.5358 22.5313 13.6741 22.1975 13.9203 21.9513C14.1664 21.7052 14.5002 21.5669 14.8483 21.5669C15.1964 21.5669 15.5303 21.7052 15.7764 21.9513ZM23.8198 13.908C24.0659 14.1541 24.2042 14.488 24.2042 14.8361C24.2042 15.1842 24.0659 15.518 23.8198 15.7641C23.5736 16.0103 23.2398 16.1486 22.8917 16.1486C22.5436 16.1486 22.2097 16.0103 21.9636 15.7641C21.7175 15.518 21.5792 15.1842 21.5792 14.8361C21.5792 14.488 21.7175 14.1541 21.9636 13.908C22.2097 13.6618 22.5436 13.5236 22.8917 13.5236C23.2398 13.5236 23.5736 13.6618 23.8198 13.908Z" fill="#F8312F"/>
</svg>
