<svg width="10" height="10" viewBox="0 0 10 10" fill="none" xmlns="http://www.w3.org/2000/svg">
<path fill-rule="evenodd" clip-rule="evenodd" d="M0 7.05772H9.57877V9.89588H0V7.05772Z" fill="#D8D8D8"/>
<path fill-rule="evenodd" clip-rule="evenodd" d="M2.66077 6.52557H6.918V7.05773H2.66077V6.52557Z" fill="#979797"/>
<path fill-rule="evenodd" clip-rule="evenodd" d="M3.72508 5.99341H5.85369V6.52556H3.72508V5.99341Z" fill="#D8D8D8"/>
<path fill-rule="evenodd" clip-rule="evenodd" d="M0.886925 0.849258H8.69185V5.99341H0.886925V0.849258Z" fill="#D8D8D8"/>
<path fill-rule="evenodd" clip-rule="evenodd" d="M1.41908 1.38141H8.15969V5.46126H1.41908V1.38141Z" fill="#595959"/>
<path d="M8.51446 8.83157C8.80836 8.83157 9.04662 8.59331 9.04662 8.29941C9.04662 8.00551 8.80836 7.76726 8.51446 7.76726C8.22056 7.76726 7.98231 8.00551 7.98231 8.29941C7.98231 8.59331 8.22056 8.83157 8.51446 8.83157Z" fill="#E43535"/>
<path fill-rule="evenodd" clip-rule="evenodd" d="M0.532154 7.94464H4.07985V8.65418H0.532154V7.94464Z" fill="#595959"/>
</svg>
