<svg width="380" height="342" viewBox="0 0 380 342" fill="none" xmlns="http://www.w3.org/2000/svg">
<path d="M227.597 0.688934H151.842C68.1693 0.688934 0.339111 68.5182 0.339111 152.191V190.07C0.339111 273.743 68.1693 341.574 151.842 341.574H227.597C311.269 341.574 379.1 273.743 379.1 190.07V152.191C379.1 68.5182 311.269 0.688934 227.597 0.688934Z" fill="#FDD583"/>
<path d="M104.498 152.194C120.187 152.194 132.905 139.475 132.905 123.786C132.905 108.098 120.187 95.379 104.498 95.379C88.8096 95.379 76.0913 108.098 76.0913 123.786C76.0913 139.475 88.8096 152.194 104.498 152.194Z" fill="#8F5315"/>
<path d="M274.94 152.194C290.629 152.194 303.348 139.475 303.348 123.786C303.348 108.098 290.629 95.379 274.94 95.379C259.252 95.379 246.533 108.098 246.533 123.786C246.533 139.475 259.252 152.194 274.94 152.194Z" fill="#8F5315"/>
<path d="M107.79 227.945C116.095 245.206 128.036 259.541 142.417 269.514C156.797 279.486 173.111 284.743 189.719 284.759C206.316 284.728 222.614 279.463 236.98 269.491C251.346 259.52 263.276 245.193 271.575 227.945H260.071C251.215 239.827 240.374 249.34 228.254 255.866C216.133 262.391 203.004 265.783 189.719 265.821C176.429 265.789 163.292 262.4 151.165 255.875C139.038 249.349 128.191 239.833 119.331 227.945H107.79Z" fill="#8F5315"/>
</svg>
