<svg width="157" height="125" viewBox="0 0 157 125" fill="none" xmlns="http://www.w3.org/2000/svg">
<path d="M149.877 0H111.185C108.908 0 106.769 1.21163 105.443 3.25436L102.062 8.45897C100.735 10.5017 98.5971 11.7133 96.3193 11.7133H30.1877C26.2859 11.7133 23.1228 15.2025 23.1228 19.5069V101.886C23.1228 106.19 26.2859 109.679 30.1877 109.679H132.108C131.91 110.565 131.802 111.485 131.802 112.43C131.802 119.372 137.43 125 144.372 125C150.992 125 156.413 119.881 156.902 113.387C156.926 113.229 156.942 113.069 156.942 112.905V101.886V81.0694V32.4776V11.7133V7.79352C156.942 3.48915 153.779 0 149.877 0Z" fill="#BC7520"/>
<path d="M50.8756 39.0997L55.1012 43.3006C56.7597 44.9495 59.0945 45.9272 61.3724 45.9272H127.504C131.406 45.9272 135.136 48.7435 135.835 52.2177L149.212 118.71C149.911 122.184 147.314 125 143.413 125H23.7235C19.8217 125 16.0922 122.184 15.3931 118.71L4.12227 62.6873L0.750205 45.9272L0.113719 42.7635C-0.585356 39.2893 2.01103 36.4731 5.91278 36.4731H44.6045C46.8823 36.4727 49.2175 37.4508 50.8756 39.0997Z" fill="#FFB636"/>
<path d="M64.6975 85.5875C66.8762 85.5875 68.6425 83.8212 68.6425 81.6425C68.6425 79.4638 66.8762 77.6975 64.6975 77.6975C62.5188 77.6975 60.7525 79.4638 60.7525 81.6425C60.7525 83.8212 62.5188 85.5875 64.6975 85.5875Z" fill="black" fill-opacity="0.5"/>
<path d="M88.3675 81.6425C88.3675 83.8212 86.6013 85.5875 84.4225 85.5875C82.2437 85.5875 80.4775 83.8212 80.4775 81.6425C80.4775 79.4638 82.2437 77.6975 84.4225 77.6975C86.6013 77.6975 88.3675 79.4638 88.3675 81.6425Z" fill="black" fill-opacity="0.5"/>
<path d="M88.6137 100.935C87.7667 101.612 86.5331 101.479 85.8506 100.639L85.8392 100.626C85.8238 100.608 85.7938 100.574 85.7488 100.525C85.6589 100.428 85.5094 100.275 85.2991 100.084C84.8782 99.7011 84.2162 99.1686 83.2994 98.6293C81.4776 97.557 78.6163 96.4362 74.5675 96.4362C70.5186 96.4362 67.653 97.5574 65.8267 98.6301C64.9079 99.1697 64.2436 99.7027 63.8211 100.086C63.6099 100.277 63.4599 100.431 63.3694 100.528C63.3242 100.576 63.294 100.61 63.2785 100.628L63.2672 100.642C62.583 101.481 61.3489 101.612 60.5035 100.933C59.6542 100.251 59.5186 99.0092 60.2009 98.1598L61.7387 99.395C60.2009 98.1598 60.2001 98.1606 60.2009 98.1598L60.2037 98.1563L60.2069 98.1523L60.2145 98.1429L60.2342 98.1192L60.2921 98.0505C60.339 97.9965 60.4026 97.9247 60.483 97.8383C60.6438 97.6659 60.8725 97.4339 61.1712 97.1633C61.7684 96.6217 62.6486 95.9214 63.8286 95.2287C66.1996 93.8357 69.7485 92.4912 74.5675 92.4912C79.3867 92.4912 82.9321 93.8357 85.3003 95.2295C86.4787 95.9226 87.3572 96.6232 87.9529 97.1649C88.2511 97.4359 88.4796 97.6683 88.6397 97.8407C88.7198 97.9271 88.7833 97.9989 88.8303 98.0533L88.8879 98.1219L88.9076 98.1456L88.9155 98.1551L88.9186 98.159C88.919 98.1598 88.9214 98.1626 87.3813 99.395L88.9214 98.1626C89.6019 99.0131 89.4642 100.255 88.6137 100.935Z" fill="black" fill-opacity="0.5"/>
<path d="M74.56 56C57.1299 56 43 70.1299 43 87.56C43 104.99 57.1299 119.12 74.56 119.12C91.9902 119.12 106.12 104.99 106.12 87.56C106.12 70.1299 91.9902 56 74.56 56ZM46.945 87.56C46.945 72.3087 59.3087 59.945 74.56 59.945C89.8114 59.945 102.175 72.3087 102.175 87.56C102.175 102.811 89.8114 115.175 74.56 115.175C59.3087 115.175 46.945 102.811 46.945 87.56Z" fill="black" fill-opacity="0.5"/>
</svg>
