<svg width="10" height="9" viewBox="0 0 10 9" fill="none" xmlns="http://www.w3.org/2000/svg">
<path d="M4.96061 7.02058C6.64056 7.02058 8.00243 5.65871 8.00243 3.97876C8.00243 2.2988 6.64056 0.936935 4.96061 0.936935C3.28065 0.936935 1.91879 2.2988 1.91879 3.97876C1.91879 5.65871 3.28065 7.02058 4.96061 7.02058Z" fill="#E8E8E8"/>
<path d="M4.9606 6.01224C6.08367 6.01224 6.9941 5.10182 6.9941 3.97875C6.9941 2.85568 6.08367 1.94525 4.9606 1.94525C3.83754 1.94525 2.92711 2.85568 2.92711 3.97875C2.92711 5.10182 3.83754 6.01224 4.9606 6.01224Z" fill="url(#paint0_linear_7_58)"/>
<path d="M4.91729 6.02509C5.9903 6.02509 6.86014 5.15525 6.86014 4.08224C6.86014 3.00923 5.9903 2.13939 4.91729 2.13939C3.84428 2.13939 2.97444 3.00923 2.97444 4.08224C2.97444 5.15525 3.84428 6.02509 4.91729 6.02509Z" fill="white"/>
<path d="M4.97104 5.9184C6.0148 5.9184 6.86094 5.07226 6.86094 4.02849C6.86094 2.98472 6.0148 2.13858 4.97104 2.13858C3.92727 2.13858 3.08113 2.98472 3.08113 4.02849C3.08113 5.07226 3.92727 5.9184 4.97104 5.9184Z" fill="#E8E8E8"/>
<path opacity="0.2" d="M4.96061 1.09737C6.5489 1.09737 7.84199 2.38966 7.84199 3.97876C7.84199 5.56785 6.5497 6.86014 4.96061 6.86014C3.37151 6.86014 2.08002 5.56705 2.08002 3.97876C2.08002 2.39046 3.37231 1.09737 4.96061 1.09737M4.96061 0.936935C3.28087 0.936935 1.91879 2.29902 1.91879 3.97876C1.91879 5.6585 3.28087 7.02058 4.96061 7.02058C6.64035 7.02058 8.00243 5.6585 8.00243 3.97876C8.00243 2.29902 6.64035 0.936935 4.96061 0.936935Z" fill="#424242"/>
<path d="M1.65969 0.247068C1.65166 0.0770081 1.61316 0 1.54337 0C1.46636 0 1.42786 0.0770081 1.41984 0.247068L1.32759 1.60594C1.32759 1.68295 1.28106 1.7375 1.2193 1.7375C1.16555 1.7375 1.11902 1.68375 1.11902 1.60594L1.01073 0.247068C0.99549 0.0697886 0.965008 0 0.895219 0C0.825431 0 0.786927 0.0697886 0.779707 0.247068L0.671415 1.60594C0.656173 1.68295 0.609648 1.7375 0.563122 1.7375C0.516596 1.7375 0.470873 1.68375 0.454829 1.60594L0.370602 0.247068C0.35536 0.0770081 0.324076 0 0.247068 0C0.17006 0 0.138775 0.0770081 0.123534 0.247068C0.0850298 0.918482 0 1.5899 0 2.67122C0 2.91829 0.0770081 3.11883 0.223805 3.23514L0.502157 3.45895C0.571946 3.51269 0.617669 3.60574 0.61045 3.75976L0.498146 7.5869C0.494938 7.8091 0.673821 7.992 0.896022 7.992C1.11902 7.992 1.29791 7.8083 1.2939 7.5853L1.17357 3.75976C1.16555 3.60494 1.21208 3.50467 1.28186 3.45093L1.55941 3.23514C1.70621 3.11963 1.79124 2.91107 1.79124 2.67122C1.79044 1.5907 1.70541 0.918482 1.65969 0.247068V0.247068Z" fill="url(#paint1_radial_7_58)"/>
<path opacity="0.2" d="M1.54257 0.807783C1.58428 1.31235 1.63001 1.8867 1.63001 2.67122C1.63001 2.86053 1.56583 3.02417 1.45995 3.1084L1.1824 3.32418C1.11341 3.37793 0.999501 3.50708 1.01234 3.76457L1.13266 7.58851C1.13346 7.65348 1.1094 7.71445 1.06367 7.76017C1.01875 7.8059 0.958591 7.83156 0.894417 7.83156C0.830244 7.83156 0.770081 7.8067 0.72516 7.76097C0.680238 7.71525 0.655371 7.65429 0.656173 7.59172L0.768477 3.76778C0.780509 3.52633 0.682645 3.39718 0.600824 3.33381L0.321669 3.1092C0.216585 3.02578 0.158829 2.87096 0.158829 2.67122C0.158829 1.90435 0.202146 1.33962 0.24065 0.842276C0.241453 0.831046 0.242255 0.820618 0.243057 0.809387L0.293593 1.61637C0.294396 1.62359 0.295198 1.63081 0.296802 1.63803C0.327284 1.79124 0.436379 1.89793 0.56232 1.89793C0.68826 1.89793 0.797355 1.79124 0.827837 1.63722C0.829442 1.63081 0.830244 1.62519 0.830244 1.61877L0.894417 0.815003L0.957788 1.61316C0.960997 1.77279 1.0741 1.89713 1.21849 1.89713C1.3693 1.89713 1.48401 1.7752 1.48722 1.61156L1.54257 0.807783ZM1.54337 0C1.46636 0 1.42786 0.0770081 1.41984 0.247068L1.32759 1.60594C1.32759 1.68295 1.28106 1.7375 1.2193 1.7375C1.16555 1.7375 1.11902 1.68375 1.11902 1.60594L1.01073 0.247068C0.99549 0.0697886 0.965008 0 0.895219 0C0.825431 0 0.786927 0.0697886 0.779707 0.247068L0.671415 1.60594C0.656173 1.68295 0.609648 1.7375 0.563122 1.7375C0.516596 1.7375 0.470873 1.68375 0.454829 1.60594L0.370602 0.247068C0.35536 0.0770081 0.324076 0 0.247068 0C0.17006 0 0.138775 0.0770081 0.123534 0.247068C0.0850298 0.918482 0 1.5899 0 2.67122C0 2.91829 0.0770081 3.11883 0.223805 3.23514L0.502157 3.45895C0.571946 3.51269 0.617669 3.60574 0.61045 3.75976L0.498146 7.5869C0.494938 7.8091 0.673821 7.992 0.896022 7.992C1.11902 7.992 1.29791 7.8083 1.2939 7.5853L1.17357 3.75976C1.16555 3.60494 1.21208 3.50467 1.28186 3.45093L1.55941 3.23514C1.70621 3.11963 1.79124 2.91107 1.79124 2.67122C1.79124 1.5907 1.70621 0.919284 1.65969 0.247068C1.65166 0.0770081 1.61316 0 1.54337 0V0Z" fill="#424242"/>
<path d="M9.46478 3.81592V0.32809C9.46478 0.0352983 9.37975 -0.0441163 9.2113 0.0665829C8.78294 0.348144 8.36822 1.71825 8.36822 3.39638C8.36822 4.01485 8.97947 3.93143 9.00674 4.11593L8.81743 7.60696C8.81422 7.82916 8.99551 8.01206 9.21771 8.01206C9.44072 8.01206 9.5827 7.82836 9.57869 7.60536L9.46478 3.81592Z" fill="url(#paint2_radial_7_58)"/>
<path opacity="0.2" d="M9.29633 0.202953C9.30114 0.229425 9.30435 0.269533 9.30435 0.328091V3.81592V3.82073L9.41826 7.60857C9.41986 7.68477 9.39579 7.75376 9.35248 7.79868C9.31798 7.83398 9.27226 7.85162 9.21852 7.85162C9.15354 7.85162 9.09258 7.82596 9.04685 7.77943C9.00193 7.73371 8.97786 7.67435 8.97786 7.61178L9.16718 4.12395C9.16798 4.11352 9.16718 4.10309 9.16557 4.09267C9.14311 3.93704 8.99551 3.87849 8.87759 3.83116C8.69791 3.75977 8.52865 3.69158 8.52865 3.39638C8.52865 1.64686 8.97305 0.421143 9.29633 0.202953M9.33483 0.0192566C9.30034 0.0192566 9.25943 0.0353 9.2113 0.0665845C8.78294 0.348145 8.36822 1.71825 8.36822 3.39638C8.36822 4.01486 8.97947 3.93143 9.00674 4.11593L8.81743 7.60696C8.81422 7.82916 8.99551 8.01206 9.21771 8.01206C9.44072 8.01206 9.5827 7.82836 9.57869 7.60536L9.46478 3.81592V0.328091C9.46478 0.119528 9.42146 0.0192566 9.33483 0.0192566V0.0192566Z" fill="#424242"/>
<defs>
<linearGradient id="paint0_linear_7_58" x1="5.95048" y1="2.76691" x2="3.74452" y2="5.46757" gradientUnits="userSpaceOnUse">
<stop offset="0.00022998" stop-color="#BDBDBD"/>
<stop offset="0.1211" stop-color="#C8C8C8"/>
<stop offset="0.4234" stop-color="#DDDDDD"/>
<stop offset="0.7183" stop-color="#EAEAEA"/>
<stop offset="0.9949" stop-color="#EEEEEE"/>
</linearGradient>
<radialGradient id="paint1_radial_7_58" cx="0" cy="0" r="1" gradientUnits="userSpaceOnUse" gradientTransform="translate(0.8953 3.99576) scale(2.89551)">
<stop stop-color="#A8A8A8"/>
<stop offset="0.1684" stop-color="#BFBFBF"/>
<stop offset="0.4001" stop-color="#D9D9D9"/>
<stop offset="0.6095" stop-color="#E9E9E9"/>
<stop offset="0.7755" stop-color="#EEEEEE"/>
</radialGradient>
<radialGradient id="paint2_radial_7_58" cx="0" cy="0" r="1" gradientUnits="userSpaceOnUse" gradientTransform="translate(8.97385 4.01533) scale(2.26909)">
<stop offset="0.0017339" stop-color="#A3A3A3"/>
<stop offset="0.1847" stop-color="#B7B7B7"/>
<stop offset="0.5159" stop-color="#D5D5D5"/>
<stop offset="0.7993" stop-color="#E7E7E7"/>
<stop offset="1" stop-color="#EEEEEE"/>
</radialGradient>
</defs>
</svg>
