<svg width="10" height="14" viewBox="0 0 10 14" fill="none" xmlns="http://www.w3.org/2000/svg">
<path d="M9.03328 0H9.57877V13.0918C9.57877 13.4935 9.25315 13.8191 8.85145 13.8191H8.48779C8.08609 13.8191 7.76047 13.4935 7.76047 13.0918V9.45518H7.03314C7.03314 1.09098 9.03328 0 9.03328 0ZM2.66921 13.8191H2.30555C1.90385 13.8191 1.57823 13.4935 1.57823 13.0918V5.81857C1.33578 5.81857 1.09336 5.81857 0.790287 5.48521C0.487249 5.15187 0.214503 4.48517 0.0326727 3.66694C-0.149158 2.18197 0.487249 0 0.487249 0L0.941789 3.45481H1.12366L1.76006 3.60687e-05L2.39647 3.45481H2.5783L3.21471 0L3.85111 3.45481H4.03294L4.48752 0C4.48752 0 5.12392 2.18196 4.94209 3.6669C4.76026 4.48514 4.48752 5.15187 4.18448 5.48521C3.8814 5.81857 3.63899 5.81857 3.39654 5.81857V13.0918C3.39654 13.4935 3.07091 13.8191 2.66921 13.8191Z" fill="black"/>
</svg>
