<svg width="21" height="21" viewBox="0 0 21 21" fill="none" xmlns="http://www.w3.org/2000/svg">
<path d="M2.38764 1V1.69383" stroke="#4C241D" stroke-width="0.5" stroke-linecap="round" stroke-linejoin="round"/>
<path d="M2.38764 3.08149V3.77532" stroke="#4C241D" stroke-width="0.5" stroke-linecap="round" stroke-linejoin="round"/>
<path d="M1 2.38766H1.69383" stroke="#4C241D" stroke-width="0.5" stroke-linecap="round" stroke-linejoin="round"/>
<path d="M3.0815 2.38766H3.77533" stroke="#4C241D" stroke-width="0.5" stroke-linecap="round" stroke-linejoin="round"/>
<path d="M15.7439 3.77532C16.2229 3.77532 16.6112 3.38702 16.6112 2.90803C16.6112 2.42904 16.2229 2.04074 15.7439 2.04074C15.2649 2.04074 14.8766 2.42904 14.8766 2.90803C14.8766 3.38702 15.2649 3.77532 15.7439 3.77532Z" stroke="#4C241D" stroke-width="0.5" stroke-linecap="round" stroke-linejoin="round"/>
<path d="M7.12341 4.15693C7.12341 4.23027 7.10166 4.30197 7.06091 4.36296C7.02016 4.42395 6.96224 4.47148 6.89448 4.49955C6.82671 4.52762 6.75214 4.53496 6.68021 4.52065C6.60827 4.50634 6.54219 4.47102 6.49032 4.41916C6.43846 4.36729 6.40314 4.30121 6.38883 4.22928C6.37452 4.15734 6.38186 4.08277 6.40993 4.01501C6.438 3.94724 6.48554 3.88932 6.54652 3.84857C6.60751 3.80782 6.67921 3.78607 6.75256 3.78607C6.85091 3.78607 6.94524 3.82515 7.01479 3.89469C7.08434 3.96424 7.12341 4.05857 7.12341 4.15693Z" fill="#4C241D"/>
<path d="M21 4.85076C21 4.9241 20.9783 4.9958 20.9375 5.05679C20.8968 5.11778 20.8388 5.16531 20.7711 5.19338C20.7033 5.22145 20.6287 5.22879 20.5568 5.21448C20.4849 5.20017 20.4188 5.16485 20.3669 5.11299C20.3151 5.06112 20.2797 4.99504 20.2654 4.92311C20.2511 4.85117 20.2585 4.7766 20.2865 4.70884C20.3146 4.64107 20.3621 4.58315 20.4231 4.5424C20.4841 4.50165 20.5558 4.4799 20.6292 4.4799C20.7275 4.4799 20.8218 4.51898 20.8914 4.58852C20.9609 4.65807 21 4.7524 21 4.85076Z" fill="#4C241D"/>
<path d="M8.04236 19.2824C7.68456 18.9246 7.48355 18.4393 7.48355 17.9333C7.48355 17.4273 7.68456 16.942 8.04236 16.5841L15.8913 8.73622C16.2491 8.37841 16.7344 8.1774 17.2405 8.1774C17.7465 8.1774 18.2318 8.37841 18.5896 8.73622C18.9474 9.09404 19.1484 9.57934 19.1484 10.0854C19.1484 10.5914 18.9474 11.0767 18.5896 11.4345L10.7396 19.2824C10.3819 19.6399 9.89677 19.8407 9.391 19.8407C8.88523 19.8407 8.40015 19.6399 8.04236 19.2824Z" fill="#BF7E68" stroke="#4C241D" stroke-width="0.5" stroke-linecap="round" stroke-linejoin="round"/>
<path d="M4.81609 15.9174V19.7334" stroke="#4C241D" stroke-width="0.5" stroke-linecap="round" stroke-linejoin="round"/>
<path d="M3.42841 20.0803H6.20373" stroke="#4C241D" stroke-width="0.5" stroke-linecap="round" stroke-linejoin="round"/>
<path d="M1.46976 11.3492C0.719728 13.5236 2.19273 15.9024 4.48792 16.052C4.57095 16.0575 4.65479 16.0603 4.73944 16.0603C5.23017 16.0616 5.71646 15.9673 6.17115 15.7828C6.95582 15.4441 7.5901 14.831 7.95519 14.0583C8.32028 13.2856 8.39113 12.4063 8.15447 11.5851L7.36315 8.63214H2.37833L1.46976 11.3492Z" fill="white" stroke="#4C241D" stroke-width="0.5" stroke-linecap="round" stroke-linejoin="round"/>
<path d="M1.2987 12.936C1.38121 13.7467 1.74571 14.5027 2.32861 15.0722C2.91151 15.6416 3.67582 15.9884 4.48824 16.052C4.57127 16.0575 4.6551 16.0603 4.73975 16.0603C5.23048 16.0616 5.71677 15.9673 6.17147 15.7828C6.95613 15.4441 7.59041 14.831 7.9555 14.0583C8.32059 13.2856 8.39145 12.4063 8.15478 11.5851L8.09685 11.3769C7.09876 11.6709 6.1457 12.1003 5.26429 12.6532C3.49779 13.6791 2.14691 13.389 1.2987 12.936Z" fill="#F53E28" stroke="#4C241D" stroke-width="0.5" stroke-linecap="round" stroke-linejoin="round"/>
<path d="M14.6584 9.96811L16.9581 10.0198" stroke="#4C241D" stroke-width="0.5" stroke-linecap="round" stroke-linejoin="round"/>
<path d="M12.23 12.3965L14.5297 12.4482" stroke="#4C241D" stroke-width="0.5" stroke-linecap="round" stroke-linejoin="round"/>
<path d="M9.80162 14.8249L11.7544 14.8506" stroke="#4C241D" stroke-width="0.5" stroke-linecap="round" stroke-linejoin="round"/>
<path d="M7.93969 16.9113L10.0198 16.9581" stroke="#4C241D" stroke-width="0.5" stroke-linecap="round" stroke-linejoin="round"/>
<path d="M12.4482 15.9174H19.7334V19.7334H12.4482V15.9174Z" fill="#D9BE6F" stroke="#4C241D" stroke-width="0.5" stroke-linecap="round" stroke-linejoin="round"/>
<path d="M14.5297 13.8359L12.4482 15.9174H15.5704V17.8254C15.5704 17.9634 15.6253 18.0958 15.7229 18.1934C15.8204 18.2909 15.9528 18.3458 16.0908 18.3458C16.2288 18.3458 16.3612 18.2909 16.4588 18.1934C16.5564 18.0958 16.6112 17.9634 16.6112 17.8254V16.7846C16.6112 16.9227 16.666 17.055 16.7636 17.1526C16.8612 17.2502 16.9936 17.305 17.1316 17.305C17.2696 17.305 17.4019 17.2502 17.4995 17.1526C17.5971 17.055 17.6519 16.9227 17.6519 16.7846V15.9174H19.7334L14.5297 13.8359Z" fill="#FFCE56" stroke="#4C241D" stroke-width="0.5" stroke-linecap="round" stroke-linejoin="round"/>
</svg>
