<svg width="20" height="14" viewBox="0 0 20 14" fill="none" xmlns="http://www.w3.org/2000/svg">
<path d="M0.718956 11.0958H10.0213C10.085 11.0958 10.1481 11.1083 10.2069 11.1327C10.2658 11.1571 10.3193 11.1928 10.3643 11.2379C10.4094 11.2829 10.4451 11.3364 10.4695 11.3953C10.4939 11.4541 10.5064 11.5172 10.5064 11.5809V11.7461C10.5064 11.9004 10.4761 12.0531 10.417 12.1956C10.358 12.3381 10.2715 12.4675 10.1625 12.5766C10.0534 12.6857 9.92392 12.7722 9.78143 12.8312C9.63894 12.8902 9.48621 12.9206 9.33198 12.9206H1.40824C1.09735 12.9197 0.799512 12.7955 0.580005 12.5754C0.360498 12.3552 0.237235 12.057 0.237236 11.7461V11.5809C0.237233 11.4529 0.287875 11.33 0.378117 11.2391C0.468359 11.1482 0.590879 11.0967 0.718956 11.0958V11.0958Z" fill="#68E1FD"/>
<path d="M9.33198 13.0071H1.40824C1.07456 13.0057 0.754984 12.8723 0.519356 12.636C0.283728 12.3998 0.151207 12.0798 0.150753 11.7461V11.5818C0.150753 11.4301 0.210954 11.2846 0.318137 11.1773C0.42532 11.0699 0.570723 11.0095 0.722418 11.0093H10.0213C10.1729 11.0097 10.3182 11.0702 10.4253 11.1775C10.5324 11.2848 10.5927 11.4302 10.5929 11.5818V11.7461C10.5925 12.0804 10.4595 12.4009 10.2231 12.6372C9.98673 12.8736 9.66627 13.0066 9.33198 13.0071ZM0.718958 11.1822C0.61374 11.1834 0.513217 11.226 0.439218 11.3008C0.365219 11.3756 0.323716 11.4766 0.323723 11.5818V11.7461C0.323952 12.0346 0.438651 12.3112 0.642637 12.5152C0.846623 12.7192 1.12322 12.8339 1.4117 12.8341H9.33544C9.62385 12.8336 9.90032 12.7189 10.1043 12.5149C10.3082 12.311 10.423 12.0345 10.4234 11.7461V11.5818C10.4234 11.476 10.3814 11.3745 10.3067 11.2996C10.232 11.2247 10.1305 11.1825 10.0247 11.1822H0.718958Z" fill="#093F68"/>
<path d="M10.0913 8.13539H0.804577C0.408134 8.13539 0.0867538 8.45677 0.0867538 8.85322V8.89732C0.0867538 9.29377 0.408134 9.61515 0.804577 9.61515H10.0913C10.4878 9.61515 10.8091 9.29377 10.8091 8.89732V8.85322C10.8091 8.45677 10.4878 8.13539 10.0913 8.13539Z" fill="#AD7972"/>
<path d="M10.0913 9.7025H0.804575C0.59133 9.70227 0.386884 9.61745 0.236096 9.46667C0.0853088 9.31588 0.000495956 9.11143 0.000267029 8.89819V8.85321C0.000495956 8.63997 0.0853088 8.43552 0.236096 8.28473C0.386884 8.13395 0.59133 8.04913 0.804575 8.0489H10.0913C10.3046 8.04913 10.509 8.13395 10.6598 8.28473C10.8106 8.43552 10.8954 8.63997 10.8956 8.85321V8.89819C10.8954 9.11143 10.8106 9.31588 10.6598 9.46667C10.509 9.61745 10.3046 9.70227 10.0913 9.7025V9.7025ZM0.804575 8.22187C0.637204 8.2221 0.476753 8.28869 0.358404 8.40704C0.240054 8.52539 0.173465 8.68584 0.173237 8.85321V8.89819C0.173237 8.98109 0.189567 9.06319 0.221294 9.13979C0.253022 9.21639 0.299526 9.28599 0.358151 9.34461C0.416776 9.40324 0.486375 9.44974 0.562973 9.48147C0.63957 9.5132 0.721667 9.52953 0.804575 9.52953H10.0913C10.1742 9.52953 10.2563 9.5132 10.3329 9.48147C10.4095 9.44974 10.4791 9.40324 10.5377 9.34461C10.5964 9.28599 10.6429 9.21639 10.6746 9.13979C10.7063 9.06319 10.7227 8.98109 10.7227 8.89819V8.85321C10.7224 8.68584 10.6558 8.52539 10.5375 8.40704C10.4191 8.28869 10.2587 8.2221 10.0913 8.22187H0.804575Z" fill="#093F68"/>
<path d="M10.0913 9.61601H0.80544C0.408997 9.61601 0.087616 9.93739 0.087616 10.3338V10.3788C0.087616 10.7753 0.408997 11.0966 0.80544 11.0966H10.0913C10.4878 11.0966 10.8091 10.7753 10.8091 10.3788V10.3338C10.8091 9.93739 10.4878 9.61601 10.0913 9.61601Z" fill="#AD7972"/>
<path d="M10.0913 11.1831H0.803713C0.590697 11.1827 0.386561 11.0977 0.236098 10.9469C0.0856347 10.7961 0.00113247 10.5918 0.00113297 10.3788V10.3338C0.00113247 10.1208 0.0856347 9.9165 0.236098 9.76571C0.386561 9.61492 0.590697 9.52998 0.803713 9.52953H10.0913C10.3046 9.52975 10.509 9.61457 10.6598 9.76535C10.8106 9.91614 10.8954 10.1206 10.8956 10.3338V10.3788C10.8954 10.5921 10.8106 10.7965 10.6598 10.9473C10.509 11.0981 10.3046 11.1829 10.0913 11.1831V11.1831ZM0.803713 9.7025C0.636571 9.70295 0.476431 9.76967 0.358406 9.88802C0.240381 10.0064 0.174102 10.1667 0.174103 10.3338V10.3788C0.174102 10.5459 0.240381 10.7063 0.358406 10.8246C0.476431 10.943 0.636571 11.0097 0.803713 11.0101H10.0913C10.2586 11.0097 10.4189 10.943 10.5372 10.8247C10.6555 10.7064 10.7222 10.5461 10.7227 10.3788V10.3338C10.7224 10.1665 10.6558 10.006 10.5375 9.88766C10.4191 9.76931 10.2587 9.70272 10.0913 9.7025H0.803713Z" fill="#093F68"/>
<path d="M9.91057 9.61602C9.91595 9.69408 9.90954 9.77251 9.89154 9.84866C9.74279 10.4956 8.86669 10.8458 7.93439 10.627C7.26154 10.4731 6.74436 10.0675 6.5636 9.61169L9.91057 9.61602Z" fill="#F56132"/>
<path d="M8.47492 10.7844C8.2866 10.784 8.09891 10.7625 7.91536 10.7204C7.23127 10.5639 6.68295 10.1548 6.48317 9.65233C6.47807 9.63916 6.47627 9.62495 6.47793 9.61093C6.47959 9.59691 6.48466 9.58351 6.49269 9.5719C6.50054 9.56028 6.51109 9.55075 6.52345 9.54412C6.5358 9.53749 6.54958 9.53396 6.5636 9.53384H9.91057C9.93249 9.53379 9.95362 9.54207 9.96967 9.557C9.98573 9.57193 9.99552 9.5924 9.99705 9.61428C10.0031 9.70131 9.99612 9.78877 9.97629 9.87373C9.8483 10.4255 9.22388 10.7844 8.47492 10.7844ZM6.70025 9.70681C6.91387 10.0977 7.39213 10.4229 7.95341 10.5518C8.83815 10.755 9.67014 10.4324 9.80765 9.83395C9.81723 9.79218 9.82301 9.74963 9.82495 9.70681H6.70025Z" fill="#093F68"/>
<path d="M1.21711 9.61601L3.0281 11.8534L6.27561 9.61601H1.21711Z" fill="#FFBC0E"/>
<path d="M3.0281 11.9399C3.01518 11.9399 3.00242 11.937 2.99074 11.9315C2.97907 11.926 2.96878 11.9179 2.96064 11.9079L1.14965 9.6705C1.13945 9.65775 1.13305 9.64238 1.13122 9.62616C1.12938 9.60993 1.13217 9.59352 1.13927 9.57882C1.14628 9.5641 1.15731 9.55167 1.17108 9.54295C1.18485 9.53422 1.20081 9.52957 1.21711 9.52953H6.27561C6.29392 9.52975 6.31169 9.53578 6.32635 9.54675C6.34102 9.55772 6.35182 9.57307 6.35721 9.59057C6.36259 9.60807 6.36228 9.62684 6.35632 9.64415C6.35036 9.66147 6.33906 9.67645 6.32404 9.68693L3.0774 11.9252C3.06284 11.9349 3.04564 11.9401 3.0281 11.9399V11.9399ZM1.39873 9.7025L3.04194 11.7366L5.99453 9.7025H1.39873Z" fill="#093F68"/>
<path d="M2.42271 8.88955C2.56289 9.16399 2.77558 9.39478 3.0377 9.55685C3.29981 9.71891 3.60132 9.80606 3.90948 9.80882C4.21764 9.81159 4.52066 9.72986 4.78564 9.57252C5.05062 9.41518 5.26742 9.18824 5.41249 8.91636C5.49116 9.03808 5.60179 9.13584 5.73227 9.19893C5.86275 9.26203 6.00807 9.28803 6.15234 9.27411C6.2966 9.26018 6.43426 9.20686 6.55026 9.11997C6.66627 9.03308 6.75615 8.91597 6.81008 8.78144C7.20446 8.98641 7.64293 9.13862 8.0866 9.10316C8.53027 9.06771 8.97566 8.80912 9.12442 8.39658C9.27577 8.65085 9.66149 8.70274 9.91403 8.54534C10.1666 8.38793 10.2911 8.07832 10.2885 7.78341C10.2807 6.99726 9.52484 6.41608 8.77416 6.1523C7.73028 5.78561 6.59128 5.78907 5.48773 5.88074C4.15154 5.99144 2.76865 6.24484 1.60802 6.94277C1.1116 7.24115 0.345345 7.68135 0.684365 8.33777C1.00003 8.9423 1.82251 9.23808 2.42271 8.88955V8.88955Z" fill="#70CC40"/>
<path d="M3.92322 9.89535H3.90852C3.60014 9.88934 3.29844 9.80448 3.03215 9.64885C2.76586 9.49322 2.54384 9.27201 2.38725 9.00629C2.09951 9.14064 1.77201 9.16284 1.46878 9.06856C1.28656 9.01695 1.11663 8.92906 0.969208 8.81017C0.821783 8.69128 0.699893 8.54383 0.61085 8.37668C0.242425 7.66318 1.05106 7.178 1.53451 6.8926L1.56737 6.87271C2.86464 6.09434 4.42137 5.88678 5.48513 5.79857C6.43647 5.719 7.67925 5.67922 8.80702 6.07532C9.52744 6.32785 10.3715 6.92806 10.3793 7.78685C10.3793 8.1423 10.2236 8.4623 9.96418 8.62316C9.80112 8.72041 9.60634 8.74961 9.42192 8.70446C9.32057 8.68102 9.22682 8.63221 9.1495 8.56262C8.95837 8.90856 8.55275 9.15677 8.09438 9.19396C7.71644 9.22423 7.3091 9.1291 6.85159 8.90337C6.78544 9.02821 6.69007 9.13519 6.57362 9.2152C6.45718 9.29521 6.32311 9.34587 6.18285 9.36286C6.04259 9.37985 5.9003 9.36267 5.76812 9.31278C5.63594 9.26289 5.51778 9.18177 5.42373 9.07634C5.26005 9.32553 5.03755 9.53059 4.77586 9.67343C4.51417 9.81626 4.22134 9.89248 3.92322 9.89535V9.89535ZM2.42271 8.80305C2.43105 8.80221 2.43945 8.80221 2.44779 8.80305C2.45897 8.80651 2.46934 8.8122 2.47826 8.81978C2.48718 8.82736 2.49447 8.83668 2.49968 8.84716C2.6351 9.10554 2.83747 9.32277 3.08562 9.47614C3.33377 9.6295 3.61858 9.71335 3.91025 9.71892H3.92322C4.21304 9.71722 4.49714 9.63817 4.74618 9.48993C4.99523 9.34169 5.20017 9.12964 5.33984 8.8757C5.34698 8.86227 5.35754 8.85096 5.37044 8.84291C5.38335 8.83486 5.39815 8.83036 5.41335 8.82986C5.4284 8.82929 5.44334 8.83266 5.45669 8.83964C5.47004 8.84661 5.48134 8.85696 5.48946 8.86964C5.56093 8.97686 5.65986 9.06294 5.77592 9.11892C5.89198 9.17489 6.02094 9.19872 6.14934 9.18791C6.27729 9.1744 6.39921 9.12651 6.50214 9.04931C6.60507 8.97211 6.68519 8.86849 6.73398 8.74943C6.73842 8.73816 6.74518 8.72794 6.75382 8.71945C6.76246 8.71096 6.77279 8.70438 6.78414 8.70013C6.79517 8.69524 6.8071 8.69272 6.81916 8.69272C6.83123 8.69272 6.84316 8.69524 6.85419 8.70013C7.31515 8.93969 7.71904 9.04607 8.084 9.01234C8.53199 8.97688 8.92118 8.7157 9.05177 8.36198C9.05755 8.34685 9.06747 8.33364 9.08039 8.32387C9.09331 8.3141 9.10872 8.30816 9.12485 8.30672C9.14099 8.30527 9.1572 8.30839 9.17165 8.31572C9.1861 8.32304 9.1982 8.33427 9.20658 8.34814C9.23571 8.39385 9.27366 8.4333 9.31821 8.46418C9.36276 8.49507 9.41301 8.51677 9.46603 8.52803C9.60504 8.56248 9.75203 8.54073 9.8751 8.46749C9.9844 8.39051 10.0724 8.28705 10.1308 8.16679C10.1891 8.04654 10.216 7.91342 10.2089 7.77993C10.202 7.01108 9.41933 6.4645 8.75253 6.22926C7.65504 5.8444 6.43906 5.88332 5.50157 5.96202C4.45769 6.04851 2.92345 6.25261 1.65905 7.01195L1.62618 7.03184C1.02079 7.39681 0.49669 7.76782 0.768253 8.29365C0.847122 8.43952 0.954289 8.56819 1.08348 8.67214C1.21268 8.77609 1.36131 8.85323 1.52067 8.89905C1.66308 8.94453 1.8133 8.96033 1.96206 8.94545C2.11081 8.93058 2.25494 8.88535 2.38552 8.81256C2.39705 8.80664 2.40975 8.80339 2.42271 8.80305V8.80305Z" fill="#093F68"/>
<path d="M0.680039 8.13539C0.589934 8.13527 0.501036 8.11467 0.420072 8.07512C0.339107 8.03558 0.268196 7.97814 0.212704 7.90715C0.157212 7.83617 0.118593 7.75348 0.0997692 7.66537C0.080945 7.57725 0.0824085 7.48601 0.104049 7.39854C0.568473 5.50971 2.78508 4.07925 5.44795 4.07925C8.11081 4.07925 10.3274 5.50885 10.7884 7.39854C10.81 7.48601 10.8115 7.57725 10.7927 7.66537C10.7738 7.75348 10.7352 7.83617 10.6797 7.90715C10.6242 7.97814 10.5533 8.03558 10.4724 8.07512C10.3914 8.11467 10.3025 8.13527 10.2124 8.13539H0.680039Z" fill="#68E1FD"/>
<path d="M10.2159 8.22187H0.680039C0.576761 8.22191 0.474832 8.19842 0.38199 8.15318C0.289149 8.10793 0.207837 8.04213 0.144228 7.96077C0.0806197 7.8794 0.0363872 7.78461 0.0148896 7.6836C-0.00660809 7.58258 -0.00480586 7.47799 0.0201596 7.37778C0.502745 5.4163 2.78767 3.9919 5.44795 3.9919C8.10822 3.9919 10.3931 5.4163 10.8757 7.37778C10.9007 7.47799 10.9025 7.58258 10.881 7.6836C10.8595 7.78461 10.8153 7.8794 10.7517 7.96077C10.6881 8.04213 10.6067 8.10793 10.5139 8.15318C10.4211 8.19842 10.3191 8.22191 10.2159 8.22187V8.22187ZM5.44795 4.16487C2.86378 4.16487 0.651499 5.53392 0.18794 7.41929C0.169861 7.4938 0.168952 7.57145 0.185283 7.64636C0.201613 7.72127 0.234757 7.79149 0.282208 7.85171C0.329203 7.91237 0.389532 7.9614 0.458521 7.99499C0.52751 8.02859 0.603307 8.04585 0.680039 8.04544H10.2159C10.2926 8.04585 10.3684 8.02859 10.4374 7.99499C10.5064 7.9614 10.5667 7.91237 10.6137 7.85171C10.6611 7.79149 10.6943 7.72127 10.7106 7.64636C10.7269 7.57145 10.726 7.4938 10.708 7.41929C10.2444 5.53392 8.03211 4.16487 5.44795 4.16487Z" fill="#093F68"/>
<path d="M3.74593 5.91533C3.72922 5.91529 3.71287 5.91041 3.69888 5.90128C3.68488 5.89215 3.67383 5.87916 3.66706 5.86388C3.66029 5.8486 3.65809 5.83169 3.66073 5.81519C3.66337 5.79868 3.67073 5.7833 3.68193 5.7709L4.2804 5.10323C4.29577 5.08614 4.3173 5.07586 4.34025 5.07465C4.3632 5.07343 4.38569 5.08138 4.40278 5.09675C4.41987 5.11211 4.43015 5.13364 4.43137 5.15659C4.43258 5.17954 4.42463 5.20203 4.40927 5.21912L3.81079 5.88679C3.80261 5.89585 3.79259 5.90308 3.78141 5.908C3.77023 5.91292 3.75814 5.91542 3.74593 5.91533V5.91533Z" fill="#093F68"/>
<path d="M7.30045 6.19381C7.28024 6.19385 7.26066 6.18681 7.2451 6.17392L6.50825 5.5616C6.49059 5.54692 6.47948 5.52583 6.47737 5.50296C6.47527 5.48009 6.48233 5.45732 6.49701 5.43966C6.51169 5.422 6.53278 5.41089 6.55565 5.40878C6.57852 5.40667 6.60129 5.41374 6.61895 5.42842L7.3558 6.04073C7.36456 6.04799 7.3718 6.05691 7.37711 6.06697C7.38241 6.07703 7.38568 6.08804 7.38672 6.09937C7.38777 6.1107 7.38657 6.12212 7.38319 6.13298C7.37981 6.14384 7.37433 6.15393 7.36705 6.16267C7.35891 6.17243 7.34873 6.18029 7.33722 6.18567C7.32571 6.19105 7.31316 6.19383 7.30045 6.19381Z" fill="#093F68"/>
<path d="M4.63585 7.07941C4.61808 7.0794 4.60074 7.07391 4.58619 7.0637C4.57165 7.05349 4.5606 7.03904 4.55456 7.02233C4.55072 7.01159 4.54904 7.00021 4.54962 6.98883C4.5502 6.97745 4.55302 6.9663 4.55792 6.95601C4.56283 6.94572 4.56971 6.9365 4.57819 6.92889C4.58666 6.92127 4.59656 6.9154 4.60731 6.91163L5.41854 6.62017C5.43992 6.61312 5.46321 6.61467 5.48346 6.62452C5.5037 6.63436 5.51932 6.65171 5.52697 6.67288C5.53463 6.69405 5.53373 6.71738 5.52447 6.7379C5.5152 6.75841 5.4983 6.77451 5.47735 6.78276L4.66526 7.07422C4.65583 7.07764 4.64588 7.07939 4.63585 7.07941V7.07941Z" fill="#093F68"/>
<path d="M3.0748 7.49799C3.05939 7.49788 3.04429 7.49365 3.03106 7.48574C3.01784 7.47784 3.00696 7.46654 2.99956 7.45302L2.68735 6.89087C2.67588 6.8708 2.67286 6.84699 2.67894 6.82469C2.68502 6.80239 2.69971 6.78342 2.71978 6.77195C2.73985 6.76048 2.76366 6.75746 2.78596 6.76354C2.80826 6.76962 2.82723 6.78431 2.8387 6.80438L3.15091 7.36653C3.15642 7.37647 3.15993 7.3874 3.16121 7.39869C3.1625 7.40998 3.16155 7.42141 3.15842 7.43233C3.15529 7.44326 3.15003 7.45346 3.14296 7.46235C3.13588 7.47124 3.12712 7.47865 3.11718 7.48415C3.10451 7.49239 3.0899 7.49716 3.0748 7.49799V7.49799Z" fill="#093F68"/>
<path d="M8.44551 6.93412C8.42705 6.93426 8.40903 6.92849 8.39409 6.91765C8.37914 6.90682 8.36805 6.89148 8.36245 6.87389C8.35684 6.8563 8.35701 6.83738 8.36293 6.8199C8.36885 6.80241 8.38021 6.78728 8.39535 6.77671L8.97826 6.36072C8.99687 6.3475 9.01995 6.34218 9.04246 6.3459C9.06498 6.34963 9.08512 6.36211 9.09847 6.38061C9.10515 6.38986 9.10994 6.40033 9.11256 6.41143C9.11517 6.42253 9.11557 6.43404 9.11372 6.44529C9.11187 6.45654 9.10781 6.46732 9.10178 6.477C9.09575 6.48668 9.08787 6.49507 9.07858 6.50169L8.49567 6.91768C8.48108 6.92825 8.46354 6.934 8.44551 6.93412V6.93412Z" fill="#093F68"/>
<path d="M1.82596 6.05975C1.80625 6.05966 1.78715 6.05284 1.77185 6.04041C1.75654 6.02798 1.74594 6.0107 1.7418 5.99142C1.73766 5.97214 1.74024 5.95203 1.74909 5.93442C1.75795 5.9168 1.77256 5.90274 1.79051 5.89457L2.43568 5.60311C2.44613 5.59761 2.45759 5.5943 2.46936 5.5934C2.48113 5.59249 2.49296 5.594 2.50413 5.59784C2.51529 5.60168 2.52555 5.60777 2.53428 5.61572C2.543 5.62368 2.55 5.63333 2.55485 5.6441C2.5597 5.65486 2.5623 5.66651 2.56248 5.67831C2.56266 5.69012 2.56042 5.70183 2.5559 5.71274C2.55138 5.72365 2.54467 5.73351 2.53619 5.74173C2.52771 5.74994 2.51764 5.75634 2.5066 5.76052L1.86142 6.05197C1.85029 6.05704 1.8382 6.0597 1.82596 6.05975Z" fill="#093F68"/>
<path d="M7.48812 7.37086H6.82219C6.79925 7.37086 6.77726 7.36175 6.76104 7.34553C6.74482 7.32931 6.73571 7.30731 6.73571 7.28438C6.73571 7.26144 6.74482 7.23944 6.76104 7.22322C6.77726 7.207 6.79925 7.19789 6.82219 7.19789H7.48812C7.51106 7.19789 7.53306 7.207 7.54928 7.22322C7.5655 7.23944 7.57461 7.26144 7.57461 7.28438C7.57461 7.30731 7.5655 7.32931 7.54928 7.34553C7.53306 7.36175 7.51106 7.37086 7.48812 7.37086Z" fill="#093F68"/>
<path d="M8.09265 5.42237C8.07713 5.42236 8.0619 5.41818 8.04855 5.41026L7.44315 5.05654C7.43331 5.05082 7.4247 5.04321 7.41781 5.03415C7.41092 5.02509 7.40588 5.01477 7.40299 5.00376C7.4001 4.99275 7.39941 4.98128 7.40096 4.97001C7.4025 4.95873 7.40626 4.94787 7.41202 4.93805C7.41774 4.92821 7.42535 4.9196 7.4344 4.91271C7.44346 4.90582 7.45379 4.90078 7.4648 4.89789C7.4758 4.895 7.48727 4.89431 7.49855 4.89585C7.50982 4.8974 7.52068 4.90116 7.5305 4.90692L8.1359 5.26064C8.15256 5.27008 8.16561 5.28479 8.17302 5.30245C8.18042 5.32011 8.18175 5.33972 8.17681 5.35822C8.17186 5.37672 8.16092 5.39306 8.14568 5.40467C8.13045 5.41628 8.1118 5.4225 8.09265 5.42237Z" fill="#093F68"/>
<path d="M5.44795 5.30994C5.42776 5.30952 5.40836 5.30206 5.3931 5.28884C5.37784 5.27561 5.36768 5.25747 5.3644 5.23755C5.36111 5.21763 5.3649 5.19718 5.3751 5.17976C5.38531 5.16234 5.40129 5.14903 5.42027 5.14216L5.93918 4.96919C5.96075 4.96201 5.98427 4.96362 6.00466 4.97365C6.02505 4.98369 6.04068 5.00135 6.04815 5.02281C6.05559 5.04449 6.05412 5.06823 6.04407 5.08882C6.03401 5.10942 6.0162 5.12518 5.99453 5.13264L5.47562 5.30994C5.46648 5.31167 5.45709 5.31167 5.44795 5.30994V5.30994Z" fill="#093F68"/>
<path d="M1.21711 7.2152C1.20072 7.21507 1.1847 7.21029 1.17091 7.20141C1.15713 7.19253 1.14616 7.17991 1.13927 7.16503C1.12947 7.14438 1.12825 7.12069 1.13586 7.09914C1.14348 7.07758 1.15932 7.05992 1.17992 7.05001L1.57429 6.86407C1.59505 6.8542 1.61888 6.85299 1.64053 6.8607C1.66218 6.8684 1.67989 6.88439 1.68975 6.90515C1.69961 6.92591 1.70083 6.94973 1.69312 6.97138C1.68542 6.99304 1.66943 7.01074 1.64867 7.02061L1.2543 7.20655C1.2427 7.21217 1.23 7.21512 1.21711 7.2152V7.2152Z" fill="#093F68"/>
<path d="M9.35101 7.37086C9.3309 7.37131 9.31126 7.36473 9.29547 7.35226C9.27969 7.33979 9.26874 7.32221 9.26452 7.30254C9.26211 7.2914 9.26192 7.27991 9.26397 7.2687C9.26601 7.2575 9.27025 7.2468 9.27644 7.23724C9.28262 7.22768 9.29064 7.21943 9.30002 7.21298C9.30941 7.20652 9.31997 7.20198 9.33112 7.19962L10.0801 7.04395C10.1024 7.03933 10.1257 7.04374 10.1448 7.05622C10.1639 7.06869 10.1773 7.08822 10.1821 7.11054C10.1845 7.12167 10.1847 7.13317 10.1827 7.14437C10.1806 7.15558 10.1764 7.16627 10.1702 7.17583C10.164 7.1854 10.156 7.19364 10.1466 7.2001C10.1372 7.20656 10.1267 7.2111 10.1155 7.21346L9.36657 7.36913L9.35101 7.37086Z" fill="#093F68"/>
<path d="M5.44795 4.51514C5.42501 4.51514 5.40301 4.50603 5.38679 4.48981C5.37057 4.47359 5.36146 4.45159 5.36146 4.42865V1.57898C5.36146 1.55604 5.37057 1.53404 5.38679 1.51782C5.40301 1.5016 5.42501 1.49249 5.44795 1.49249C5.47088 1.49249 5.49288 1.5016 5.5091 1.51782C5.52532 1.53404 5.53443 1.55604 5.53443 1.57898V4.43298C5.53332 4.45516 5.52372 4.47606 5.50762 4.49135C5.49152 4.50665 5.47015 4.51517 5.44795 4.51514Z" fill="#093F68"/>
<path d="M5.44795 2.93505V1.92232H3.82463L5.44795 2.93505Z" fill="#68E1FD"/>
<path d="M5.44795 3.02154C5.43167 3.02133 5.41578 3.01654 5.40211 3.0077L3.78311 1.99583C3.76711 1.98591 3.75478 1.97104 3.74799 1.95347C3.74121 1.9359 3.74035 1.9166 3.74553 1.8985C3.75072 1.88039 3.76167 1.86448 3.77673 1.85317C3.79178 1.84186 3.81012 1.83577 3.82895 1.83583H5.45227C5.47521 1.83583 5.49721 1.84494 5.51343 1.86116C5.52964 1.87738 5.53876 1.89938 5.53876 1.92232V2.93505C5.53873 2.95038 5.53463 2.96542 5.52688 2.97864C5.51913 2.99186 5.50801 3.00279 5.49465 3.0103C5.48037 3.01817 5.46424 3.02205 5.44795 3.02154V3.02154ZM4.12905 2.0088L5.36406 2.77852V2.0088H4.12905Z" fill="#093F68"/>
<path d="M13.05 3.18068C13.0161 3.18041 12.983 3.17019 12.9548 3.15127C12.8874 3.1063 12.8294 3.06479 12.1289 0.416621L10.4788 1.17855C10.4375 1.19526 10.3915 1.19543 10.3501 1.17904C10.3087 1.16265 10.2753 1.13095 10.2567 1.09053C10.2381 1.05011 10.2358 1.00409 10.2502 0.962012C10.2647 0.919939 10.2948 0.885056 10.3343 0.864613L12.1721 0.0161961C12.195 0.00552796 12.22 0 12.2452 0C12.2705 0 12.2954 0.00552796 12.3183 0.0161961C12.3413 0.0268819 12.3617 0.0424919 12.378 0.0619208C12.3942 0.0813497 12.4061 0.104123 12.4126 0.128627C12.672 1.10936 13.1045 2.71193 13.1909 2.90652C13.2096 2.9324 13.2207 2.96293 13.2231 2.99475C13.2255 3.02657 13.2191 3.05843 13.2045 3.0868C13.1899 3.11518 13.1677 3.13897 13.1405 3.15553C13.1132 3.1721 13.0819 3.1808 13.05 3.18068V3.18068Z" fill="#093F68"/>
<path d="M11.1179 2.65485H18.6369C18.7516 2.65485 18.8616 2.7004 18.9427 2.7815C19.0237 2.8626 19.0693 2.97258 19.0693 3.08727V4.02477H10.6872V3.08727C10.6872 2.97288 10.7325 2.86316 10.8132 2.78211C10.894 2.70106 11.0035 2.6553 11.1179 2.65485V2.65485Z" fill="white"/>
<path d="M19.0684 4.11211H10.6872C10.6643 4.11211 10.6423 4.103 10.626 4.08678C10.6098 4.07056 10.6007 4.04857 10.6007 4.02563V3.08727C10.6007 2.94965 10.6554 2.81766 10.7527 2.72034C10.85 2.62303 10.982 2.56836 11.1196 2.56836H18.6386C18.7762 2.56836 18.9082 2.62303 19.0055 2.72034C19.1029 2.81766 19.1575 2.94965 19.1575 3.08727V4.0239C19.1578 4.03562 19.1556 4.04727 19.1512 4.05814C19.1468 4.06901 19.1402 4.07887 19.1319 4.08712C19.1236 4.09537 19.1137 4.10184 19.1027 4.10614C19.0918 4.11043 19.0802 4.11247 19.0684 4.11211ZM10.7737 3.93914H18.982V3.08727C18.982 2.99552 18.9455 2.90753 18.8806 2.84265C18.8158 2.77778 18.7278 2.74133 18.636 2.74133H11.1179C11.0261 2.74133 10.9382 2.77778 10.8733 2.84265C10.8084 2.90753 10.772 2.99552 10.772 3.08727L10.7737 3.93914Z" fill="#093F68"/>
<path d="M17.4953 12.9206H12.2595L11.2001 4.02563H18.5556L17.4953 12.9206Z" fill="#68E1FD"/>
<path d="M17.4953 13.0071H12.2586C12.2374 13.0072 12.2168 12.9996 12.2009 12.9855C12.1849 12.9715 12.1747 12.9521 12.1721 12.931L11.1144 4.03861C11.113 4.02654 11.114 4.01429 11.1176 4.00266C11.1212 3.99104 11.1272 3.9803 11.1352 3.97115C11.1433 3.96192 11.1533 3.95453 11.1645 3.94946C11.1756 3.94439 11.1878 3.94176 11.2001 3.94174H18.5556C18.5679 3.94166 18.58 3.94419 18.5913 3.94917C18.6025 3.95415 18.6125 3.96146 18.6207 3.97063C18.6289 3.97979 18.635 3.99059 18.6387 4.00232C18.6424 4.01404 18.6435 4.02641 18.6421 4.03861L17.5818 12.931C17.5792 12.9521 17.569 12.9715 17.553 12.9855C17.5371 12.9996 17.5165 13.0072 17.4953 13.0071ZM12.3365 12.8341H17.4192L18.457 4.11212H11.2978L12.3365 12.8341Z" fill="#093F68"/>
<path d="M12.0588 2.02177H17.6959C17.7429 2.02177 17.7895 2.03104 17.8329 2.04903C17.8764 2.06702 17.9159 2.0934 17.9491 2.12664C17.9824 2.15989 18.0087 2.19936 18.0267 2.2428C18.0447 2.28624 18.054 2.3328 18.054 2.37982V2.65484H11.7008V2.37809C11.7013 2.28343 11.7392 2.1928 11.8063 2.12603C11.8734 2.05926 11.9642 2.02177 12.0588 2.02177Z" fill="white"/>
<path d="M18.0531 2.74133H11.7008C11.6779 2.74133 11.6559 2.73221 11.6396 2.716C11.6234 2.69978 11.6143 2.67778 11.6143 2.65484V2.37809C11.6143 2.26011 11.6611 2.14696 11.7445 2.06345C11.8278 1.97995 11.9409 1.93292 12.0588 1.93269H17.6959C17.8139 1.93292 17.927 1.97995 18.0103 2.06345C18.0937 2.14696 18.1405 2.26011 18.1405 2.37809V2.65484C18.1405 2.66627 18.1382 2.67759 18.1338 2.68814C18.1294 2.69869 18.1229 2.70826 18.1148 2.7163C18.1067 2.72435 18.0971 2.7307 18.0865 2.73499C18.0759 2.73929 18.0645 2.74144 18.0531 2.74133ZM11.7864 2.56836H17.9666V2.37809C17.9666 2.30599 17.938 2.23683 17.8871 2.18576C17.8362 2.13469 17.7672 2.10589 17.6951 2.10566H12.0588C11.9867 2.10589 11.9177 2.13469 11.8668 2.18576C11.8159 2.23683 11.7873 2.30599 11.7873 2.37809L11.7864 2.56836Z" fill="#093F68"/>
<path d="M14.8774 9.5892C15.8866 9.5892 16.7048 8.77104 16.7048 7.76178C16.7048 6.75252 15.8866 5.93436 14.8774 5.93436C13.8681 5.93436 13.05 6.75252 13.05 7.76178C13.05 8.77104 13.8681 9.5892 14.8774 9.5892Z" fill="white"/>
<path d="M14.8774 9.67482C14.4988 9.67482 14.1287 9.56255 13.814 9.35221C13.4992 9.14187 13.2539 8.8429 13.1091 8.49313C12.9642 8.14336 12.9264 7.75849 13.0003 7.38721C13.0742 7.01592 13.2566 6.6749 13.5244 6.40727C13.7921 6.13964 14.1332 5.95742 14.5045 5.88367C14.8759 5.80992 15.2607 5.84794 15.6104 5.99294C15.9601 6.13793 16.259 6.38337 16.4692 6.69823C16.6794 7.01308 16.7915 7.3832 16.7913 7.76178C16.7908 8.26916 16.589 8.75561 16.2302 9.1143C15.8713 9.47299 15.3848 9.67459 14.8774 9.67482V9.67482ZM14.8774 6.02084C14.5331 6.02084 14.1965 6.12294 13.9102 6.31424C13.6239 6.50553 13.4007 6.77743 13.269 7.09555C13.1372 7.41366 13.1027 7.76371 13.1699 8.10142C13.2371 8.43913 13.4029 8.74933 13.6464 8.99281C13.8898 9.23628 14.2 9.40209 14.5377 9.46926C14.8755 9.53644 15.2255 9.50196 15.5436 9.37019C15.8617 9.23843 16.1336 9.01529 16.3249 8.72899C16.5162 8.44269 16.6183 8.1061 16.6183 7.76178C16.6181 7.30012 16.4346 6.85744 16.1082 6.531C15.7817 6.20456 15.339 6.02106 14.8774 6.02084V6.02084Z" fill="#093F68"/>
</svg>
