<svg width="10" height="10" viewBox="0 0 10 10" fill="none" xmlns="http://www.w3.org/2000/svg">
<path d="M7.38527 5.23056C7.38527 7.26995 5.73202 8.92321 3.69263 8.92321C1.65324 8.92321 0 7.26995 0 5.23056C0 3.30313 1.4768 1.7209 3.36056 1.55294C3.36128 1.32912 3.43207 1.07159 3.8455 0.866886C3.92945 0.825365 4.03113 0.859694 4.07269 0.943606C4.11423 1.02754 4.07988 1.12924 3.99597 1.1708C3.75797 1.28862 3.70372 1.39587 3.69974 1.53801C5.73584 1.54185 7.38527 3.19355 7.38527 5.23056Z" fill="#ACE075"/>
<path d="M4.78526 1.97365C4.78526 1.97365 4.81596 1.98094 4.8726 1.99636C4.88677 2.00036 4.90252 2.00427 4.91998 2.00959C4.93753 2.01567 4.95668 2.02231 4.97736 2.02946C4.99826 2.03686 5.02072 2.04481 5.04468 2.05329C5.06777 2.06296 5.09231 2.07323 5.11824 2.0841C5.22253 2.12745 5.34556 2.19019 5.47947 2.27609C5.61317 2.36202 5.75802 2.47128 5.90123 2.60795C6.04458 2.74434 6.1868 2.90743 6.3174 3.09531C6.35135 3.14157 6.38102 3.19126 6.41306 3.24069C6.42924 3.26535 6.4433 3.2913 6.45867 3.31687C6.46611 3.32977 6.47356 3.34274 6.48104 3.35572L6.49226 3.37525L6.49788 3.38505C6.50363 3.39745 6.50017 3.3898 6.50178 3.39315L6.50299 3.39544L6.50543 3.40002C6.51845 3.42443 6.53155 3.44898 6.54472 3.47366C6.55793 3.49881 6.57053 3.52152 6.58433 3.55202C6.59784 3.58094 6.61139 3.61001 6.62502 3.63919C6.63164 3.65376 6.639 3.66865 6.64504 3.68309L6.66292 3.72626C6.76012 3.95652 6.83762 4.20452 6.88949 4.46207C6.94049 4.71973 6.96714 4.98647 6.96784 5.2534C6.96854 5.28677 6.96659 5.32013 6.96606 5.35348C6.96496 5.38682 6.96477 5.42018 6.96282 5.45345L6.95641 5.55321L6.95283 5.603L6.9476 5.65264C6.94408 5.6857 6.94057 5.71872 6.93706 5.75171C6.93337 5.78467 6.9276 5.81737 6.92293 5.85011L6.91551 5.89915L6.91178 5.92362L6.90979 5.93609L6.90873 5.94165L6.90663 5.9528C6.90092 5.98249 6.89522 6.01211 6.88953 6.04169L6.88513 6.06383C6.88375 6.071 6.88222 6.07857 6.88018 6.08726L6.86882 6.13716C6.86116 6.17032 6.85351 6.20338 6.84587 6.23638C6.83718 6.26776 6.82853 6.29906 6.81988 6.33027C6.81129 6.36146 6.80277 6.39255 6.79271 6.42317C6.77338 6.48458 6.75374 6.54537 6.7313 6.60483C6.7203 6.63461 6.71003 6.66446 6.6981 6.69366C6.68605 6.72277 6.67403 6.75178 6.66207 6.78066C6.56531 7.01106 6.44712 7.22319 6.31675 7.411C6.18663 7.59901 6.04441 7.76265 5.90075 7.89921C5.88281 7.91623 5.86504 7.93307 5.84748 7.94972C5.82912 7.96558 5.81096 7.98125 5.79301 7.99675C5.77506 8.01208 5.7573 8.02726 5.73978 8.04223L5.73323 8.04781C5.73403 8.0469 5.73032 8.05063 5.73013 8.05069L5.72854 8.05194L5.72538 8.05443L5.71268 8.06429C5.7042 8.0708 5.69578 8.07728 5.68741 8.08371C5.61461 8.13978 5.54639 8.18887 5.47885 8.23136C5.34469 8.31698 5.22125 8.37901 5.11729 8.4229C5.09152 8.43421 5.06644 8.44366 5.04333 8.45306C5.01998 8.46209 4.99763 8.4696 4.97721 8.477C4.93599 8.4912 4.90068 8.50211 4.87176 8.51008C4.84321 8.51871 4.82057 8.52354 4.8057 8.5274C4.79069 8.53094 4.78293 8.53277 4.78293 8.53277C4.76382 8.53728 4.74465 8.52545 4.74014 8.50632C4.73698 8.4929 4.74187 8.47948 4.75165 8.4711L4.75241 8.47045C4.75241 8.47045 4.77593 8.45041 4.82004 8.41283C4.84196 8.39421 4.86836 8.37055 4.89922 8.3433C4.92962 8.31522 4.96446 8.28354 5.00206 8.2469C5.07723 8.17362 5.16489 8.0829 5.25646 7.97351C5.30184 7.91865 5.35027 7.86 5.39541 7.79746C5.40167 7.78896 5.40797 7.78041 5.41433 7.7718L5.42395 7.75891L5.42637 7.75569L5.42758 7.75408C5.42834 7.75321 5.42552 7.75594 5.42722 7.75404L5.43154 7.7478C5.443 7.7312 5.45462 7.7144 5.46636 7.6974C5.47811 7.68056 5.48997 7.66353 5.50199 7.64629C5.51331 7.62855 5.52476 7.61063 5.53632 7.59252C5.62903 7.44843 5.71843 7.2871 5.7992 7.11123C5.88018 6.93552 5.95257 6.74519 6.0112 6.54387C6.01848 6.51872 6.02581 6.49348 6.03315 6.46814C6.04021 6.44272 6.0463 6.41685 6.05321 6.39123C6.05961 6.36541 6.06733 6.33998 6.07276 6.31371C6.07864 6.28761 6.08453 6.26144 6.09045 6.23519C6.09696 6.20913 6.10196 6.18258 6.10707 6.15601C6.11227 6.1295 6.11748 6.10289 6.1227 6.07624C6.12696 6.05075 6.13124 6.0252 6.13551 5.9996L6.14206 5.96126C6.1432 5.95526 6.14422 5.94801 6.14522 5.94033L6.14827 5.91796C6.15249 5.88813 6.15673 5.85825 6.16097 5.82833L6.16259 5.81711L6.16341 5.81149C6.16447 5.80473 6.16242 5.81753 6.16273 5.81529L6.16299 5.81272L6.16515 5.79219L6.1695 5.7511C6.17228 5.72368 6.17571 5.69631 6.17805 5.66878C6.18025 5.64122 6.18245 5.61365 6.18464 5.58604L6.18801 5.54463L6.18981 5.50306L6.19405 5.41988C6.19569 5.36436 6.19673 5.30874 6.19698 5.25316C6.19673 5.03072 6.18103 4.80828 6.15039 4.59115C6.11867 4.37424 6.07217 4.16291 6.01343 3.96176L6.00259 3.92402L5.99134 3.88839C5.98391 3.86477 5.97649 3.84125 5.96913 3.81786C5.96296 3.79566 5.95157 3.76765 5.94237 3.74172C5.93285 3.71544 5.92339 3.68926 5.91396 3.66326L5.9122 3.65838L5.91131 3.65594C5.9122 3.65774 5.90808 3.64848 5.91307 3.65934L5.90957 3.6506L5.90259 3.63315C5.89795 3.62151 5.89332 3.60989 5.8887 3.59833C5.87939 3.57521 5.87132 3.55153 5.86116 3.52907C5.85134 3.50638 5.84159 3.48382 5.83189 3.46141C5.82256 3.43874 5.81251 3.41662 5.80204 3.39487C5.72099 3.21931 5.63113 3.05779 5.53819 2.91343C5.44522 2.76909 5.34967 2.64145 5.25771 2.53261C5.23498 2.50509 5.21284 2.47828 5.18994 2.45409C5.16716 2.42976 5.14608 2.40479 5.12469 2.38205C5.0813 2.33748 5.04148 2.29518 5.00335 2.25938C4.98438 2.2411 4.96643 2.22378 4.94954 2.2075C4.93236 2.19191 4.91626 2.17728 4.90127 2.16368C4.88607 2.14984 4.87203 2.13703 4.85914 2.12531C4.8458 2.11352 4.83284 2.10321 4.82169 2.09377C4.77663 2.05615 4.75311 2.03512 4.75311 2.03512C4.73836 2.02195 4.73708 1.99933 4.75025 1.98459C4.75935 1.9745 4.77292 1.97076 4.78526 1.97365V1.97365ZM4.10405 1.9454C4.08728 1.95772 4.08369 1.9813 4.09601 1.99807C4.09601 1.99807 4.10021 2.0038 4.10836 2.01489C4.11249 2.02038 4.1176 2.02721 4.12367 2.03531C4.1299 2.04347 4.13696 2.05274 4.14347 2.06307C4.15023 2.07329 4.15778 2.08468 4.16608 2.09723C4.17417 2.11021 4.183 2.12439 4.19254 2.1397C4.21092 2.17068 4.23109 2.20639 4.25181 2.24694C4.29322 2.32809 4.33561 2.42962 4.37564 2.54847C4.39526 2.60816 4.41455 2.67227 4.43319 2.74038C4.44242 2.77447 4.45152 2.80967 4.46055 2.84572C4.46931 2.88253 4.47826 2.92019 4.48741 2.95866C4.49619 2.99838 4.50393 3.03343 4.51229 3.0744C4.52052 3.1142 4.52868 3.15479 4.53657 3.19611C4.55237 3.27873 4.56702 3.36444 4.58087 3.45267C4.60841 3.6292 4.63191 3.81613 4.65114 4.01051L4.65485 4.047C4.6536 4.03943 4.65462 4.04628 4.65442 4.04522L4.65462 4.04762L4.65504 4.05245L4.65589 4.0621L4.65759 4.08144C4.65996 4.10723 4.66233 4.13314 4.66471 4.15912C4.6706 4.2127 4.67289 4.25941 4.67659 4.30844C4.67843 4.33295 4.68078 4.35677 4.68225 4.38196C4.68373 4.40715 4.68522 4.43243 4.6867 4.45775C4.68838 4.48304 4.69007 4.5084 4.69175 4.53379C4.69295 4.55925 4.69414 4.58476 4.69533 4.61032C4.70566 4.81467 4.71079 5.02239 4.71066 5.23016C4.71119 5.64571 4.68979 6.06139 4.6522 6.45099C4.64806 6.49981 4.64194 6.54785 4.6374 6.59584L4.63371 6.6317L4.63278 6.64063L4.63233 6.6451C4.63218 6.64624 4.63286 6.64302 4.63244 6.6455L4.63216 6.64782L4.62983 6.66647C4.62703 6.69048 4.62427 6.71436 4.62151 6.73811C4.61897 6.76043 4.61615 6.78306 4.61297 6.80611C4.60996 6.82897 4.60699 6.85172 4.60402 6.87431C4.59794 6.91951 4.59104 6.96388 4.58451 7.00779C4.55729 7.18314 4.52501 7.34769 4.48873 7.49871C4.47982 7.53652 4.47032 7.57339 4.46089 7.60942C4.45853 7.61845 4.45618 7.62742 4.45385 7.63633L4.45298 7.63968L4.45255 7.64135C4.45226 7.64222 4.45351 7.6397 4.45274 7.64159L4.45069 7.64863L4.44662 7.66266C4.44148 7.68077 4.43638 7.69867 4.43135 7.71635C4.4126 7.78334 4.39203 7.84923 4.37238 7.90904C4.35274 7.96939 4.33101 8.0241 4.31135 8.07554C4.29074 8.12616 4.26996 8.17218 4.25013 8.21342C4.23016 8.25466 4.21027 8.29041 4.19269 8.32207C4.17422 8.35272 4.15819 8.37946 4.14406 8.40028C4.13035 8.42169 4.11874 8.43722 4.11113 8.44816C4.10348 8.45916 4.09955 8.46481 4.09955 8.46481L4.09803 8.46699C4.09095 8.47723 4.08916 8.4908 4.09445 8.50306C4.10263 8.52197 4.1246 8.53067 4.14351 8.5225C4.14351 8.5225 4.15023 8.51958 4.16323 8.51396C4.17598 8.50794 4.19614 8.50015 4.22013 8.48669C4.26939 8.46135 4.34017 8.41896 4.42064 8.35225C4.46171 8.31955 4.50349 8.27985 4.54819 8.23532C4.59263 8.19073 4.6367 8.13929 4.68259 8.08345C4.69382 8.06933 4.70521 8.05498 4.71677 8.04041C4.72786 8.02557 4.73912 8.01053 4.75053 7.99524C4.77319 7.96454 4.79542 7.93284 4.81834 7.89848C4.82916 7.88226 4.84012 7.86583 4.85121 7.8492L4.85924 7.83701L4.86327 7.83088C4.863 7.83169 4.86476 7.82808 4.86495 7.82783L4.86597 7.82618L4.86804 7.82287C4.87354 7.81403 4.87907 7.80514 4.88465 7.79621C4.90727 7.76052 4.92867 7.72314 4.95047 7.68484C5.03713 7.53138 5.11799 7.35803 5.18822 7.16997C5.20605 7.12304 5.22274 7.07505 5.239 7.02632C5.25561 6.97721 5.27077 6.92904 5.28593 6.87672C5.2931 6.8521 5.30031 6.82736 5.30756 6.80248L5.31261 6.78438L5.31795 6.76359L5.32783 6.72526C5.3407 6.67398 5.35523 6.62231 5.36634 6.56967C5.41501 6.35964 5.45375 6.13979 5.47853 5.91478C5.50368 5.6898 5.51637 5.45983 5.51637 5.2298C5.516 4.99977 5.50258 4.76973 5.47678 4.54464C5.47349 4.51652 5.47018 4.48845 5.46691 4.46044C5.46297 4.43251 5.45903 4.40463 5.45512 4.37681C5.45095 4.34905 5.44681 4.32136 5.44268 4.29375C5.43854 4.26614 5.43324 4.23755 5.42856 4.20965C5.41852 4.15398 5.40856 4.09641 5.39766 4.04713C5.39217 4.02162 5.3867 3.99618 5.38125 3.97086L5.37709 3.9519L5.37501 3.94244L5.37397 3.93771L5.37346 3.93534C5.37298 3.93269 5.37378 3.93795 5.37226 3.92879L5.36303 3.88926C5.31343 3.67903 5.25258 3.47784 5.18256 3.29098C5.1477 3.19751 5.1104 3.10767 5.07119 3.02208C5.05142 2.97933 5.03206 2.93737 5.0113 2.89683C4.99148 2.85719 4.96936 2.81391 4.94884 2.77696C4.93864 2.75893 4.92856 2.74106 4.91856 2.72341C4.91892 2.72456 4.91701 2.71998 4.91684 2.71979L4.91584 2.71805L4.91381 2.71455L4.90978 2.70757L4.90167 2.69373C4.89625 2.68456 4.89088 2.67543 4.88552 2.66637C4.86365 2.63019 4.84222 2.59499 4.81972 2.5613C4.77519 2.49378 4.73057 2.43104 4.68451 2.37461C4.59308 2.26134 4.50228 2.17098 4.41967 2.10613C4.37872 2.0734 4.34053 2.04651 4.30613 2.02511C4.2887 2.01453 4.27316 2.00467 4.25817 1.99615C4.24271 1.988 4.22865 1.98058 4.21606 1.97394C4.20352 1.96707 4.19284 1.96224 4.18349 1.95857C4.17415 1.95465 4.16629 1.95134 4.15997 1.94867C4.14722 1.94347 4.14065 1.94078 4.14065 1.94078C4.12888 1.93614 4.11497 1.93737 4.10405 1.9454V1.9454ZM2.62908 8.48646C2.64226 8.47172 2.64097 8.44909 2.62623 8.43594C2.62623 8.43594 2.6027 8.41491 2.55764 8.37729C2.54648 8.36784 2.53353 8.35753 2.52019 8.34574C2.50732 8.33401 2.49326 8.32121 2.47807 8.30738C2.46308 8.29377 2.44697 8.27916 2.42979 8.26355C2.41289 8.24728 2.39495 8.22996 2.37599 8.21168C2.33785 8.17587 2.29804 8.13358 2.25464 8.08901C2.23326 8.06628 2.21217 8.04132 2.18941 8.01696C2.16651 7.99276 2.14437 7.96596 2.12164 7.93845C2.0297 7.82961 1.93415 7.70196 1.84116 7.55763C1.74822 7.41327 1.65836 7.25175 1.57731 7.07618C1.56686 7.05444 1.5568 7.03232 1.54747 7.00964C1.53778 6.98724 1.52801 6.96468 1.51819 6.94199C1.50803 6.91954 1.49995 6.89585 1.49065 6.87272C1.48604 6.86114 1.48142 6.84954 1.47676 6.8379L1.46978 6.82045L1.46628 6.81171C1.47128 6.82256 1.46715 6.81332 1.46804 6.81512L1.46715 6.81268L1.46539 6.80779C1.45597 6.78177 1.4465 6.75562 1.43698 6.72933C1.42777 6.70341 1.41639 6.6754 1.41023 6.6532C1.40284 6.62979 1.39545 6.60628 1.38801 6.58267L1.37677 6.54703L1.36592 6.5093C1.30718 6.30815 1.26068 6.09682 1.22897 5.8799C1.19835 5.66278 1.18264 5.44034 1.18237 5.2179C1.18262 5.16232 1.18366 5.10668 1.18531 5.05117L1.18955 4.96802L1.19134 4.92644L1.19471 4.88503C1.19691 4.85742 1.1991 4.82985 1.2013 4.8023C1.20364 4.77476 1.20707 4.7474 1.20985 4.71997L1.2142 4.67889L1.21636 4.65836L1.21663 4.65578C1.21693 4.65355 1.21487 4.66634 1.21595 4.65959L1.21676 4.65397L1.21839 4.64274C1.22263 4.6128 1.22685 4.58294 1.23108 4.55312L1.23413 4.53075C1.23513 4.52308 1.23616 4.51583 1.23729 4.50982L1.24384 4.47147C1.24812 4.44587 1.25239 4.42032 1.25665 4.39483C1.26188 4.36817 1.2671 4.34158 1.27228 4.31506C1.27739 4.28849 1.28239 4.26194 1.2889 4.23588C1.29482 4.20963 1.30071 4.18346 1.30659 4.15736C1.31203 4.1311 1.31975 4.10566 1.32614 4.07985C1.33303 4.05421 1.33914 4.02836 1.3462 4.00294C1.35355 3.9776 1.36087 3.95233 1.36816 3.9272C1.42678 3.72588 1.49917 3.53556 1.58015 3.35984C1.66094 3.184 1.75032 3.02264 1.84303 2.87855C1.85459 2.86044 1.86604 2.84252 1.87736 2.82479C1.88938 2.80757 1.90126 2.79051 1.913 2.77367C1.92475 2.75668 1.93635 2.73987 1.94782 2.72328L1.95213 2.71703C1.95383 2.71514 1.95102 2.71786 1.95177 2.71699L1.95298 2.71538L1.95541 2.71217L1.96502 2.69928C1.97136 2.69067 1.97768 2.68211 1.98394 2.67362C2.02908 2.61107 2.07751 2.55242 2.12289 2.49756C2.21445 2.38818 2.30212 2.29745 2.37729 2.22418C2.4149 2.18752 2.44974 2.15584 2.48013 2.12778C2.51099 2.10052 2.53739 2.07685 2.55931 2.05825C2.60342 2.02066 2.62695 2.00062 2.62695 2.00062L2.6277 1.99998C2.63751 1.99159 2.64239 1.97816 2.63921 1.96476C2.6347 1.94564 2.61553 1.9338 2.59642 1.9383C2.59642 1.9383 2.58868 1.94014 2.57365 1.94368C2.55876 1.94754 2.53615 1.95234 2.50759 1.96099C2.47867 1.96896 2.44338 1.97988 2.40214 1.99407C2.38172 2.00149 2.35937 2.00899 2.33602 2.01801C2.31291 2.02742 2.28784 2.03686 2.26206 2.04818C2.15813 2.09206 2.03466 2.1541 1.90051 2.23971C1.83296 2.2822 1.76474 2.33129 1.69194 2.38736C1.68357 2.3938 1.67515 2.40027 1.66667 2.40678L1.65397 2.41664L1.65081 2.41914L1.64922 2.42039C1.64904 2.42044 1.64533 2.42417 1.64612 2.42326L1.63957 2.42885C1.62205 2.44382 1.6043 2.45899 1.58634 2.47432C1.56838 2.48982 1.55023 2.50549 1.53187 2.52135C1.51431 2.538 1.49654 2.55485 1.4786 2.57186C1.33494 2.70842 1.19272 2.87206 1.0626 3.06008C0.932227 3.24789 0.814043 3.45999 0.717282 3.69042C0.705321 3.7193 0.693304 3.74829 0.681249 3.77741C0.669346 3.8066 0.659069 3.83646 0.648055 3.86625C0.625611 3.92571 0.605948 3.98649 0.586645 4.0479C0.576577 4.07851 0.568061 4.1096 0.559469 4.1408C0.55084 4.17201 0.542172 4.20331 0.533486 4.23469C0.525859 4.26768 0.518195 4.30076 0.51053 4.33391L0.499175 4.38382C0.497132 4.3925 0.495599 4.40005 0.494217 4.40724L0.489827 4.42939C0.48413 4.45897 0.478434 4.4886 0.472719 4.51828L0.470618 4.52942L0.469558 4.53499L0.467571 4.54746L0.463843 4.57193L0.456425 4.62096C0.45175 4.6537 0.445978 4.6864 0.442288 4.71937C0.438768 4.75235 0.435267 4.78538 0.431747 4.81844L0.426524 4.86808L0.422947 4.91787L0.416532 5.01762C0.414582 5.05091 0.414412 5.08427 0.413295 5.1176C0.412747 5.15094 0.410816 5.18431 0.411517 5.21767C0.412217 5.4846 0.438863 5.75135 0.489864 6.00901C0.541737 6.26655 0.619233 6.51456 0.71643 6.74481L0.734314 6.78798C0.740351 6.80244 0.747712 6.81733 0.754336 6.83189C0.767962 6.86107 0.781531 6.89014 0.795024 6.91905C0.80882 6.94956 0.821424 6.97227 0.834633 6.99742C0.847786 7.0221 0.860882 7.04664 0.873921 7.07105L0.876362 7.07563L0.877573 7.07792C0.879182 7.08127 0.875718 7.07365 0.881471 7.08602L0.887092 7.09583L0.898314 7.11536C0.90579 7.12834 0.913246 7.14128 0.920683 7.15421C0.93605 7.17978 0.950111 7.20572 0.966292 7.23038C0.998331 7.27981 1.028 7.32951 1.06196 7.37576C1.19255 7.56364 1.33477 7.72674 1.47813 7.86313C1.62133 7.9998 1.76618 8.10905 1.89988 8.19499C2.03379 8.28089 2.1568 8.34362 2.26109 8.38698C2.28702 8.39784 2.31157 8.40812 2.33465 8.41779C2.35861 8.42627 2.38108 8.43421 2.40197 8.44161C2.42267 8.44879 2.44181 8.45541 2.45935 8.46148C2.47682 8.46678 2.49256 8.47072 2.50674 8.47471C2.56336 8.49015 2.59407 8.49742 2.59407 8.49742C2.60649 8.50034 2.62004 8.49659 2.62908 8.48646V8.48646ZM3.27536 8.52569C3.29213 8.51338 3.29572 8.4898 3.2834 8.47303C3.2834 8.47303 3.2792 8.46729 3.27104 8.4562C3.26692 8.45072 3.26181 8.44388 3.25573 8.43578C3.24951 8.42763 3.24245 8.41835 3.23594 8.40802C3.22918 8.3978 3.22163 8.38641 3.21332 8.37386C3.20524 8.36088 3.19641 8.34671 3.18687 8.3314C3.16849 8.30042 3.14832 8.26471 3.1276 8.22415C3.08619 8.143 3.0438 8.04147 3.00377 7.92262C2.98415 7.86294 2.96486 7.79882 2.94622 7.73071C2.93699 7.69663 2.92788 7.66143 2.91886 7.62538C2.9101 7.58857 2.90114 7.55091 2.892 7.51243C2.88322 7.47271 2.87548 7.43766 2.86712 7.39669C2.85889 7.35689 2.85073 7.3163 2.84284 7.27499C2.82704 7.19236 2.81239 7.10665 2.79853 7.01843C2.771 6.8419 2.7475 6.65496 2.72827 6.46058L2.72456 6.4241C2.72581 6.43167 2.72479 6.42482 2.72499 6.42588L2.72479 6.42347L2.72437 6.41865L2.72352 6.409L2.72181 6.38965C2.71945 6.36386 2.71708 6.33795 2.7147 6.31197C2.70881 6.25839 2.70652 6.21169 2.70281 6.16265C2.70098 6.13815 2.69863 6.11432 2.69716 6.08913C2.69568 6.06394 2.69418 6.03866 2.69271 6.01334C2.69102 5.98806 2.68934 5.9627 2.68766 5.9373C2.68646 5.91185 2.68527 5.88634 2.68408 5.86077C2.67375 5.65642 2.66862 5.4487 2.66875 5.24093C2.66822 4.82538 2.68962 4.40971 2.72721 4.0201C2.73135 3.97128 2.73747 3.92325 2.74201 3.87525L2.7457 3.83939L2.74662 3.83046L2.74708 3.82599C2.74723 3.82486 2.74655 3.82808 2.74697 3.8256L2.74725 3.82327L2.74958 3.80463C2.75238 3.78061 2.75514 3.75673 2.7579 3.73298C2.76044 3.71067 2.76326 3.68803 2.76644 3.66498C2.76945 3.64212 2.77242 3.61938 2.77539 3.59678C2.78147 3.55159 2.78837 3.50721 2.7949 3.4633C2.82212 3.28795 2.8544 3.1234 2.89068 2.97238C2.89959 2.93457 2.90909 2.8977 2.91852 2.86167C2.92088 2.85264 2.92323 2.84367 2.92556 2.83476L2.92643 2.83141L2.92686 2.82975C2.92715 2.82888 2.9259 2.83139 2.92667 2.8295L2.92872 2.82246L2.93279 2.80844C2.93793 2.79033 2.94302 2.77242 2.94806 2.75475C2.96681 2.68775 2.98738 2.62186 3.00703 2.56206C3.02667 2.50171 3.0484 2.447 3.06806 2.39556C3.08867 2.34493 3.10945 2.29891 3.12928 2.25767C3.14925 2.21644 3.16914 2.18069 3.18672 2.14903C3.20519 2.11837 3.22122 2.09163 3.23535 2.07081C3.24905 2.04941 3.26067 2.03387 3.26828 2.02293C3.27593 2.01194 3.27986 2.00628 3.27986 2.00628L3.28138 2.0041C3.28846 1.99386 3.29025 1.9803 3.28495 1.96803C3.27678 1.94913 3.25481 1.94042 3.2359 1.9486C3.2359 1.9486 3.22918 1.95151 3.21618 1.95713C3.20343 1.96315 3.18327 1.97095 3.15928 1.9844C3.11002 2.00974 3.03924 2.05213 2.95877 2.11884C2.9177 2.15154 2.87592 2.19125 2.83122 2.23578C2.78678 2.28036 2.74271 2.3318 2.69682 2.38765C2.68559 2.40177 2.6742 2.41611 2.66264 2.43068C2.65155 2.44552 2.64029 2.46056 2.62888 2.47586C2.60622 2.50655 2.58399 2.53825 2.56107 2.57262C2.55024 2.58884 2.53929 2.60526 2.5282 2.6219L2.52017 2.63408L2.51614 2.64022C2.51641 2.6394 2.51465 2.64302 2.51446 2.64326L2.51344 2.64491L2.51137 2.64822C2.50587 2.65706 2.50034 2.66595 2.49476 2.67489C2.47214 2.71058 2.45074 2.74795 2.42894 2.78626C2.34228 2.93972 2.26142 3.11307 2.19119 3.30112C2.17336 3.34805 2.15667 3.39605 2.14041 3.44478C2.1238 3.49389 2.10864 3.54205 2.09348 3.59438C2.08631 3.619 2.0791 3.64373 2.07185 3.66862L2.0668 3.68671L2.06146 3.70751L2.05158 3.74583C2.03871 3.79712 2.02418 3.84878 2.01307 3.90143C1.96439 4.11145 1.92566 4.3313 1.90088 4.55631C1.87573 4.78129 1.86303 5.01126 1.86303 5.24129C1.86341 5.47132 1.87683 5.70137 1.90262 5.92646C1.90592 5.95458 1.90923 5.98264 1.9125 6.01065C1.91644 6.03858 1.92038 6.06646 1.92429 6.09428C1.92846 6.12204 1.9326 6.14973 1.93673 6.17734C1.94087 6.20495 1.94617 6.23355 1.95084 6.26144C1.96089 6.31712 1.97085 6.37469 1.98175 6.42397C1.98724 6.44948 1.99271 6.47491 1.99816 6.50023L2.00232 6.51919L2.0044 6.52866L2.00544 6.53339L2.00595 6.53575C2.00643 6.5384 2.00563 6.53314 2.00715 6.5423L2.01638 6.58183C2.06598 6.79207 2.12682 6.99326 2.19685 7.18012C2.2317 7.27359 2.26901 7.36342 2.30822 7.44902C2.32799 7.49177 2.34735 7.53372 2.36811 7.57426C2.38793 7.61391 2.41005 7.65719 2.43056 7.69413C2.44077 7.71216 2.45085 7.73003 2.46084 7.74769C2.46048 7.74653 2.4624 7.75111 2.46257 7.7513L2.46357 7.75306L2.46559 7.75656L2.46963 7.76354L2.47774 7.77738C2.48316 7.78656 2.48853 7.79568 2.49389 7.80474C2.51576 7.84093 2.53719 7.87613 2.55969 7.90981C2.6042 7.97734 2.64884 8.04007 2.6949 8.0965C2.78633 8.20977 2.87713 8.30013 2.95973 8.36499C3.00069 8.39771 3.03888 8.4246 3.07328 8.446C3.09071 8.45658 3.10625 8.46644 3.12124 8.47496C3.1367 8.48311 3.15076 8.49053 3.16334 8.49718C3.17589 8.50405 3.18657 8.50887 3.19591 8.51254C3.20526 8.51646 3.21312 8.51977 3.21944 8.52244C3.23219 8.52764 3.23876 8.53033 3.23876 8.53033C3.25053 8.53495 3.26442 8.53372 3.27536 8.52569V8.52569ZM3.70345 1.93217C3.68481 1.92619 3.66487 1.93645 3.65889 1.95509C3.65889 1.95509 3.65063 1.98083 3.63746 2.02906C3.62389 2.0773 3.6059 2.14806 3.58499 2.23812C3.57405 2.28315 3.56415 2.33301 3.55213 2.38729C3.54074 2.44156 3.52973 2.50027 3.51724 2.56298C3.49367 2.68842 3.47006 2.82993 3.44776 2.98432C3.40306 3.2931 3.36472 3.65333 3.34035 4.03929C3.31569 4.42526 3.306 4.83695 3.30969 5.24865C3.31169 5.4545 3.31631 5.66036 3.32386 5.86298C3.33185 6.06561 3.34266 6.26504 3.35615 6.45801C3.38287 6.84398 3.42129 7.20421 3.46411 7.51298C3.48559 7.66737 3.50743 7.80889 3.52993 7.93432C3.5408 7.99704 3.55119 8.05574 3.56205 8.11002C3.56729 8.13715 3.57232 8.16319 3.57713 8.18806C3.58235 8.21295 3.58733 8.23666 3.59206 8.25918C3.6107 8.34924 3.62774 8.42 3.6396 8.46824C3.65154 8.51648 3.65887 8.54222 3.65887 8.54222C3.6621 8.55348 3.67092 8.56292 3.68301 8.56636C3.70166 8.57166 3.72105 8.56086 3.72635 8.54222C3.72635 8.54222 3.73368 8.51648 3.74562 8.46824C3.75748 8.42 3.77452 8.34924 3.79316 8.25918C3.79789 8.23666 3.80286 8.21295 3.80809 8.18806C3.81289 8.16317 3.81793 8.13715 3.82317 8.11002C3.83403 8.05574 3.84444 7.99704 3.85529 7.93432C3.87779 7.80889 3.89963 7.66737 3.92111 7.51298C3.96393 7.20421 4.00235 6.84398 4.02907 6.45801C4.04256 6.26504 4.05337 6.06561 4.06136 5.86298C4.06893 5.66036 4.07354 5.4545 4.07553 5.24865C4.07922 4.83695 4.06951 4.42526 4.04487 4.03929C4.0205 3.65333 3.98216 3.2931 3.93746 2.98432C3.91516 2.82993 3.89154 2.68842 3.86798 2.56298C3.85549 2.50027 3.8445 2.44156 3.83309 2.38729C3.82109 2.33301 3.81117 2.28317 3.80023 2.23812C3.77932 2.14806 3.76132 2.0773 3.74776 2.02906C3.73458 1.98083 3.72633 1.95509 3.72633 1.95509C3.72296 1.94468 3.71469 1.93578 3.70345 1.93217V1.93217Z" fill="#F0F3CD"/>
<path d="M5.96527 5.69425C6.23632 5.96531 5.92386 6.56539 6.66328 7.30483C7.4027 8.04427 7.80338 7.6394 8.21429 8.05031C8.6252 8.46122 7.20068 9.18232 5.99324 7.97488C4.78579 6.76743 5.96527 5.69425 5.96527 5.69425V5.69425Z" fill="#F9BE78"/>
<path d="M5.63384 5.35802C6.11774 5.85414 4.63449 6.61611 5.99324 7.97486C7.35199 9.33361 8.16771 8.01113 8.71876 8.58379C9.00384 8.88004 9.29021 9.17502 9.57877 9.46789C8.17513 10.0926 6.47233 9.82981 5.32103 8.67853C4.13741 7.49491 3.89283 5.72831 4.58632 4.30322C4.93921 4.6512 5.28788 5.00329 5.63384 5.35802Z" fill="#83C449"/>
<path d="M9.36076 9.23437C8.08193 9.80351 6.53053 9.56411 5.48161 8.5152C4.40323 7.43681 4.18041 5.82731 4.81223 4.52892C5.20137 4.91269 5.5849 5.30195 5.96527 5.69427C5.65477 6.34187 5.76749 7.14161 6.30417 7.67829C6.82062 8.19475 7.58062 8.31842 8.21431 8.05033C8.59386 8.44752 8.97517 8.84303 9.36076 9.23437Z" fill="#FECF79"/>
</svg>
