<svg width="10" height="12" viewBox="0 0 10 12" fill="none" xmlns="http://www.w3.org/2000/svg">
<path d="M9.02032 6.51768V11.1909C9.02064 11.2417 9.01095 11.2921 8.9918 11.3391C8.97266 11.3862 8.94443 11.429 8.90873 11.4652C8.87302 11.5013 8.83055 11.5301 8.78373 11.5498C8.73691 11.5696 8.68667 11.5799 8.63586 11.5802H0.94413C0.893219 11.58 0.84284 11.5698 0.795881 11.5502C0.748921 11.5305 0.706305 11.5018 0.670476 11.4656C0.634646 11.4294 0.606307 11.3865 0.587083 11.3394C0.567859 11.2923 0.558128 11.2418 0.558449 11.1909V6.51768H9.02032Z" fill="white"/>
<path d="M9.36099 6.10646C9.36196 6.20854 9.32242 6.30684 9.25104 6.37982C9.17966 6.4528 9.08225 6.4945 8.98017 6.49579H0.599815C0.497737 6.4945 0.400331 6.4528 0.328947 6.37982C0.257564 6.30684 0.218026 6.20854 0.219 6.10646V4.35446C0.218026 4.25238 0.257564 4.15408 0.328947 4.0811C0.400331 4.00812 0.497737 3.96642 0.599815 3.96513H8.97896C9.08103 3.96642 9.17844 4.00812 9.24982 4.0811C9.32121 4.15408 9.36074 4.25238 9.35977 4.35446L9.36099 6.10646Z" fill="#FF8898"/>
<path d="M3.99065 6.51768H5.59056V11.5802H3.99065V6.51768Z" fill="#E6D488"/>
<path d="M3.99065 3.96513H5.59056V6.51769H3.99065V3.96513Z" fill="#FFEB97"/>
<path d="M8.63586 11.7992H0.94413C0.782791 11.7992 0.62806 11.7351 0.513976 11.621C0.399892 11.5069 0.3358 11.3522 0.3358 11.1909V6.51767C0.3358 6.48891 0.341465 6.46044 0.35247 6.43387C0.363476 6.4073 0.379607 6.38315 0.399943 6.36282C0.420279 6.34248 0.444422 6.32635 0.470992 6.31535C0.497562 6.30434 0.52604 6.29868 0.554799 6.29868H9.02032C9.0784 6.29868 9.13411 6.32175 9.17518 6.36282C9.21625 6.40389 9.23932 6.45959 9.23932 6.51767V11.1909C9.23933 11.3514 9.1759 11.5054 9.06287 11.6193C8.94984 11.7333 8.79635 11.7979 8.63586 11.7992V11.7992ZM0.775015 6.73667V11.1909C0.774693 11.2129 0.778718 11.2348 0.786859 11.2553C0.795001 11.2758 0.8071 11.2945 0.822465 11.3103C0.837831 11.3261 0.856161 11.3388 0.876411 11.3475C0.89666 11.3562 0.918431 11.3609 0.94048 11.3612H8.63586C8.65822 11.3614 8.68038 11.3571 8.70105 11.3485C8.72172 11.34 8.74049 11.3275 8.75624 11.3116C8.77199 11.2957 8.78442 11.2769 8.79279 11.2562C8.80115 11.2354 8.8053 11.2132 8.80497 11.1909V6.73667H0.775015Z" fill="#576065"/>
<path d="M8.97895 6.71599H0.599814C0.439955 6.71375 0.287403 6.64868 0.175154 6.53483C0.0629057 6.42099 -1.56655e-05 6.26754 2.92558e-09 6.10766V4.35445C-1.56655e-05 4.19458 0.0629057 4.04113 0.175154 3.92728C0.287403 3.81344 0.439955 3.74836 0.599814 3.74612H8.97895C9.13881 3.74836 9.29137 3.81344 9.40361 3.92728C9.51586 4.04113 9.57878 4.19458 9.57877 4.35445V6.10645C9.5791 6.26653 9.51632 6.4203 9.40404 6.5344C9.29176 6.64851 9.13902 6.71375 8.97895 6.71599V6.71599ZM0.599814 4.18412C0.555817 4.1854 0.51411 4.20402 0.483794 4.23593C0.453479 4.26784 0.437015 4.31045 0.437998 4.35445V6.10645C0.437015 6.15045 0.453479 6.19306 0.483794 6.22497C0.51411 6.25688 0.555817 6.2755 0.599814 6.27678H8.97895C9.02295 6.2755 9.06466 6.25688 9.09497 6.22497C9.12529 6.19306 9.14175 6.15045 9.14077 6.10645V4.35445C9.14175 4.31045 9.12529 4.26784 9.09497 4.23593C9.06466 4.20402 9.02295 4.1854 8.97895 4.18412H0.599814Z" fill="#576065"/>
<path d="M5.08199 4.10626C5.00998 4.11012 4.93795 4.09915 4.87035 4.07404C4.80276 4.04892 4.74103 4.0102 4.68901 3.96026C4.11961 3.37748 5.51999 1.42717 5.74872 1.19479C5.85503 1.08519 5.98232 0.99812 6.12299 0.938756C6.26366 0.879393 6.41485 0.848957 6.56754 0.849261C6.72282 0.849285 6.87651 0.880533 7.01947 0.941146C7.16244 1.00176 7.29175 1.0905 7.39973 1.20209C7.61821 1.426 7.74112 1.72606 7.74248 2.03889C7.74384 2.35173 7.62356 2.65285 7.40703 2.87865C7.11868 3.1743 5.79617 4.10626 5.08199 4.10626V4.10626ZM6.56754 1.28726C6.47312 1.28715 6.37964 1.30605 6.29269 1.34284C6.20573 1.37963 6.12707 1.43355 6.0614 1.50139C5.59421 1.97954 4.82406 3.45778 5.00291 3.65488C5.19758 3.82886 6.63323 3.04655 7.09435 2.57205C7.2312 2.42843 7.30692 2.23727 7.30556 2.0389C7.3042 1.84052 7.22586 1.65042 7.08705 1.50869C7.01975 1.4388 6.93907 1.38317 6.84982 1.34513C6.76056 1.30709 6.66456 1.2874 6.56754 1.28726V1.28726Z" fill="#576065"/>
<path d="M4.49191 4.11721C3.7826 4.11721 2.45279 3.17551 2.16079 2.87621C1.94396 2.65223 1.82273 2.35271 1.82273 2.04098C1.82273 1.72924 1.94396 1.42972 2.16079 1.20574C2.26669 1.0961 2.39351 1.00882 2.53373 0.949056C2.67395 0.889288 2.82474 0.858249 2.97717 0.857773C3.13177 0.858531 3.28463 0.890496 3.42659 0.951751C3.56854 1.01301 3.69666 1.10229 3.80328 1.21425C4.13771 1.60634 4.42366 2.03731 4.65494 2.49783C5.04306 3.25094 5.11606 3.73639 4.87759 3.97972C4.82601 4.02763 4.76521 4.06453 4.6989 4.08817C4.63259 4.1118 4.56217 4.12168 4.49191 4.11721V4.11721ZM2.97717 1.29577C2.88248 1.29579 2.78876 1.31487 2.7016 1.35186C2.61444 1.38886 2.53561 1.44302 2.46982 1.51112C2.33231 1.65298 2.25542 1.8428 2.25542 2.04037C2.25542 2.23794 2.33231 2.42775 2.46982 2.56961C2.93702 3.04776 4.352 3.82764 4.56248 3.66461C4.72794 3.45291 3.96266 1.99778 3.48817 1.51234C3.42167 1.44323 3.34194 1.38822 3.25373 1.3506C3.16552 1.31297 3.07064 1.2935 2.97474 1.29334L2.97717 1.29577Z" fill="#576065"/>
<path d="M4.10379 11.7664C4.04571 11.7664 3.99001 11.7433 3.94894 11.7022C3.90787 11.6611 3.8848 11.6054 3.8848 11.5474V4.14763C3.8848 4.08955 3.90787 4.03385 3.94894 3.99278C3.99001 3.95171 4.04571 3.92863 4.10379 3.92863C4.16188 3.92863 4.21758 3.95171 4.25865 3.99278C4.29972 4.03385 4.32279 4.08955 4.32279 4.14763V11.5474C4.32279 11.6054 4.29972 11.6611 4.25865 11.7022C4.21758 11.7433 4.16188 11.7664 4.10379 11.7664V11.7664Z" fill="#576065"/>
<path d="M5.47619 11.7664C5.41811 11.7664 5.3624 11.7433 5.32133 11.7022C5.28026 11.6611 5.25719 11.6054 5.25719 11.5474V4.14763C5.25719 4.08955 5.28026 4.03385 5.32133 3.99278C5.3624 3.95171 5.41811 3.92863 5.47619 3.92863C5.53427 3.92863 5.58997 3.95171 5.63105 3.99278C5.67212 4.03385 5.69519 4.08955 5.69519 4.14763V11.5474C5.69519 11.6054 5.67212 11.6611 5.63105 11.7022C5.58997 11.7433 5.53427 11.7664 5.47619 11.7664V11.7664Z" fill="#576065"/>
<path d="M2.819 5.62951C2.77986 5.62946 2.74146 5.61891 2.70777 5.59898C2.67409 5.57904 2.64637 5.55045 2.62749 5.51616C2.60861 5.48188 2.59926 5.44316 2.60042 5.40404C2.60158 5.36492 2.6132 5.32682 2.63407 5.29372C2.66814 5.23897 3.49425 3.95539 4.76079 3.60986C4.816 3.59685 4.87411 3.60577 4.92288 3.63474C4.97165 3.66371 5.00727 3.71048 5.02225 3.76519C5.03723 3.8199 5.03039 3.87829 5.00319 3.92806C4.97598 3.97784 4.93052 4.01511 4.87637 4.03204C3.77165 4.33377 3.01123 5.51515 3.00393 5.52732C2.98423 5.55857 2.95694 5.58432 2.92461 5.60219C2.89227 5.62006 2.85595 5.62946 2.819 5.62951V5.62951Z" fill="#576065"/>
<path d="M6.76098 5.62951C6.72207 5.62951 6.68386 5.61914 6.65029 5.59946C6.61672 5.57979 6.58899 5.55153 6.56997 5.51758C6.26702 4.97373 5.12458 4.23644 4.70969 3.99797C4.66184 3.96786 4.62749 3.92041 4.61382 3.86555C4.60015 3.81069 4.60823 3.75267 4.63637 3.70363C4.6645 3.65459 4.71051 3.61833 4.76477 3.60244C4.81903 3.58655 4.87733 3.59226 4.92748 3.61837C4.99318 3.65609 6.52738 4.54304 6.952 5.30467C6.97068 5.33799 6.98031 5.37562 6.97995 5.41382C6.97958 5.45203 6.96923 5.48947 6.94992 5.52243C6.93061 5.55539 6.90301 5.58273 6.86987 5.60173C6.83672 5.62073 6.79919 5.63073 6.76098 5.63073V5.62951Z" fill="#576065"/>
</svg>
