<svg width="10" height="11" viewBox="0 0 10 11" fill="none" xmlns="http://www.w3.org/2000/svg">
<path d="M4.79153 3.60225C4.79153 3.60225 5.30852 3.78392 6.10801 3.91196C7.12838 4.07522 8.66014 4.07522 8.91543 3.52142C9.12511 3.06686 8.14955 0.850052 7.53173 0.850052C7.08356 0.850052 6.88269 1.15496 6.27367 1.83601C5.66465 2.51706 4.79153 3.60225 4.79153 3.60225V3.60225Z" fill="url(#paint0_radial_7_138)"/>
<path d="M5.92874 3.01084C5.92874 3.01084 6.83307 1.74318 7.35086 1.35904C7.60535 1.17097 7.85584 1.42387 7.67818 1.70637C7.50852 1.97847 5.92874 3.01084 5.92874 3.01084Z" fill="#FBC02D"/>
<path d="M4.78193 3.60226C4.78193 3.60226 4.26494 3.78392 3.46545 3.91197C2.44508 4.07523 0.91332 4.07523 0.658027 3.52143C0.449952 3.06606 1.42471 0.849258 2.04253 0.849258C2.49069 0.849258 2.69157 1.15417 3.30059 1.83522C3.90961 2.51626 4.78193 3.60226 4.78193 3.60226V3.60226Z" fill="url(#paint1_radial_7_138)"/>
<path d="M3.64551 3.01084C3.64551 3.01084 2.74118 1.74318 2.2234 1.35904C1.9689 1.17097 1.71841 1.42387 1.89608 1.70637C2.06574 1.97847 3.64551 3.01084 3.64551 3.01084Z" fill="#FBC02D"/>
<path opacity="0.2" d="M7.53173 1.08935C7.57254 1.08935 7.7318 1.16697 7.97589 1.5207C8.47527 2.24657 8.76577 3.23973 8.69695 3.41979C8.62332 3.57905 8.21277 3.76552 7.29644 3.76552C6.9235 3.76552 6.51536 3.73271 6.14562 3.67429C5.75188 3.61106 5.42696 3.53423 5.20368 3.47421C5.50299 3.10768 6.04078 2.45464 6.45213 1.99527C6.53296 1.90484 6.60659 1.82161 6.67461 1.74478C7.12198 1.2358 7.26283 1.08935 7.53173 1.08935M7.53173 0.849258C7.08356 0.849258 6.88269 1.15417 6.27367 1.83522C5.66465 2.51626 4.79153 3.60226 4.79153 3.60226C4.79153 3.60226 5.30852 3.78393 6.10801 3.91197C6.46654 3.96959 6.88909 4.00641 7.29644 4.00641C8.04791 4.00641 8.74977 3.87996 8.91543 3.52143C9.1243 3.06606 8.14955 0.849258 7.53173 0.849258V0.849258Z" fill="#424242"/>
<path opacity="0.2" d="M2.04253 1.08935C2.31143 1.08935 2.45228 1.2358 2.89964 1.74398C2.96767 1.82081 3.04129 1.90484 3.12212 1.99447C3.53347 2.45384 4.07127 3.10688 4.37058 3.47341C4.14729 3.53343 3.82238 3.61026 3.42863 3.67348C3.0589 3.73271 2.65075 3.76472 2.27782 3.76472C1.36148 3.76472 0.950933 3.57825 0.877306 3.41979C0.808481 3.23893 1.09819 2.24497 1.59837 1.5199C1.84166 1.16697 2.00172 1.08935 2.04253 1.08935M2.04253 0.849258C1.42471 0.849258 0.449951 3.06606 0.658827 3.52063C0.824487 3.87996 1.52634 4.00561 2.27782 4.00561C2.68516 4.00561 3.10692 3.96879 3.46625 3.91117C4.26574 3.78392 4.78273 3.60146 4.78273 3.60146C4.78273 3.60146 3.91041 2.51546 3.30139 1.83442C2.69237 1.15337 2.49069 0.849258 2.04253 0.849258V0.849258Z" fill="#424242"/>
<path d="M4.79153 2.46104C4.10008 2.46104 3.53828 3.09087 3.50626 3.7215H6.0776C6.04479 3.09087 5.48218 2.46104 4.79153 2.46104V2.46104Z" fill="#FBC02D"/>
<path opacity="0.2" d="M4.79153 2.70113C5.2629 2.70113 5.65424 3.07567 5.78869 3.48142H3.79437C3.92882 3.07567 4.32016 2.70113 4.79153 2.70113M4.79153 2.46104C4.10008 2.46104 3.53828 3.09087 3.50626 3.7215H6.0776C6.04479 3.09087 5.48218 2.46104 4.79153 2.46104Z" fill="#424242"/>
<path d="M8.63373 10.4447H0.936529L0.616413 4.61302H8.95384L8.63373 10.4447Z" fill="url(#paint2_linear_7_138)"/>
<path opacity="0.2" d="M8.70015 4.85311L8.40644 10.2055H1.16381L0.870105 4.85311H8.70015ZM8.95384 4.61302H0.616413L0.936529 10.4455H8.63453L8.95384 4.61302Z" fill="#424242"/>
<path d="M9.41801 5.27567H0.215468C0.185858 5.27567 0.159448 5.25726 0.150645 5.23085C-0.05503 4.63304 -0.049428 3.9864 0.16585 3.39178H9.41801C9.62689 3.9872 9.63249 4.63144 9.43322 5.23085L9.41801 5.27567Z" fill="#2196F3"/>
<path opacity="0.2" d="M9.24195 3.63187C9.37159 4.09364 9.37159 4.57381 9.24195 5.03558H0.340313C0.207464 4.57782 0.207464 4.08884 0.340313 3.63187H9.24195ZM9.41801 3.39178H0.165849C-0.0502293 3.9864 -0.0550311 4.63304 0.150644 5.23085C0.160247 5.25806 0.185856 5.27567 0.215467 5.27567H9.41801L9.43322 5.23005C9.63249 4.63143 9.62689 3.9872 9.41801 3.39178Z" fill="#424242"/>
<path d="M3.76155 3.39178H5.84231V10.4712H3.76155V3.39178Z" fill="url(#paint3_linear_7_138)"/>
<path opacity="0.2" d="M5.60222 3.63187V10.2311H4.00164V3.63187H5.60222ZM5.84231 3.39178H3.76155V10.4712H5.84231V3.39178Z" fill="#424242"/>
<defs>
<radialGradient id="paint0_radial_7_138" cx="0" cy="0" r="1" gradientUnits="userSpaceOnUse" gradientTransform="translate(7.80943 1.59125) rotate(180) scale(2.74692 3.03562)">
<stop offset="0.2562" stop-color="#FFEB3B"/>
<stop offset="1" stop-color="#FBC02D"/>
</radialGradient>
<radialGradient id="paint1_radial_7_138" cx="0" cy="0" r="1" gradientUnits="userSpaceOnUse" gradientTransform="translate(1.76403 1.59126) scale(2.74692 3.03562)">
<stop offset="0.2562" stop-color="#FFEB3B"/>
<stop offset="1" stop-color="#FBC02D"/>
</radialGradient>
<linearGradient id="paint2_linear_7_138" x1="4.78513" y1="8.44513" x2="4.78513" y2="3.78224" gradientUnits="userSpaceOnUse">
<stop offset="0.3754" stop-color="#2196F3"/>
<stop offset="0.8273" stop-color="#1976D2"/>
</linearGradient>
<linearGradient id="paint3_linear_7_138" x1="3.73362" y1="5.18316" x2="6.31496" y2="9.40677" gradientUnits="userSpaceOnUse">
<stop offset="0.252" stop-color="#FFEB3B"/>
<stop offset="1" stop-color="#FBC02D"/>
</linearGradient>
</defs>
</svg>
