<svg width="10" height="18" viewBox="0 0 10 18" fill="none" xmlns="http://www.w3.org/2000/svg">
<path d="M7.86301 1.05208H1.72766C1.72766 1.05208 0 3.8452 0 7.01481C0 11.3347 4.53567 11.3927 4.77822 11.3927H4.78864C4.78864 11.3927 4.79162 11.3927 4.79906 11.3927C5.0431 11.3927 9.57877 11.3347 9.57877 7.01481C9.57728 3.8452 7.86301 1.05208 7.86301 1.05208V1.05208Z" fill="url(#paint0_linear_7_69)"/>
<path d="M6.14726 16.1516C5.7053 15.9626 5.21125 15.7022 5.20977 15.1531C5.20977 15.0013 5.20977 11.5311 5.23209 11.3853C5.23358 11.3794 5.23358 11.3734 5.23358 11.3674C4.99846 11.3898 4.83775 11.3913 4.79757 11.3913H4.78715C4.78715 11.3913 4.78418 11.3913 4.77674 11.3913C4.72168 11.3913 4.43745 11.3868 4.03716 11.3302C4.04162 11.3585 4.0446 11.3853 4.0446 11.4091V15.0475C4.0446 15.2186 3.98359 15.3704 3.88686 15.5058C3.62199 15.8734 3.15473 16.0236 2.76039 16.2022C2.49402 16.3228 1.83778 16.6025 1.87647 16.9745C1.9226 17.4254 2.70979 17.6144 3.04908 17.6918C3.46574 17.787 3.89133 17.8198 4.31841 17.8198C4.69936 17.8198 5.07882 17.793 5.4553 17.7647C5.79458 17.7379 6.14279 17.6858 6.47166 17.5995C6.71124 17.5385 7.28861 17.3912 7.36748 17.1085C7.51331 16.5891 6.47017 16.2915 6.14726 16.1516V16.1516Z" fill="url(#paint1_linear_7_69)"/>
<path d="M8.17551 6.04309C7.3526 6.34666 6.53267 6.29904 5.70827 6.03267C4.91215 5.77374 4.14876 5.43297 3.31246 5.34369C2.77527 5.28565 2.22617 5.34369 1.72022 5.55202C1.34969 5.7038 0.976178 5.79755 0.767847 6.16809C0.59523 6.47463 0.678563 7.0282 0.721717 7.36599C0.806537 8.01479 1.03719 8.63979 1.43748 9.14871C2.05504 9.92995 2.98806 10.3541 3.92406 10.5311C4.20829 10.5847 4.49697 10.6189 4.78566 10.6204C5.02971 10.6249 5.27822 10.5921 5.51631 10.552C6.42404 10.4032 7.33623 10.0297 7.98057 9.32728C8.39574 8.8749 8.66657 8.30497 8.79604 7.69634C8.87937 7.29456 8.90615 6.8779 8.8883 6.46719C8.88235 6.27969 8.85556 6.17255 8.71866 6.03565C8.60705 5.93297 8.36598 5.97315 8.17551 6.04309V6.04309Z" fill="url(#paint2_linear_7_69)"/>
<path d="M7.78415 6.16362C4.88834 6.6904 2.48658 7.56837 1.14136 6.88683C0.175594 6.39725 1.03422 5.63386 1.90772 5.38535C4.01782 4.78119 7.05499 6.22314 7.78415 6.16362V6.16362Z" fill="#8F261B"/>
<path d="M4.79459 0C3.07437 0 1.68302 0.467257 1.68302 1.30207C1.68302 2.13837 3.07586 2.60265 4.79459 2.60265C6.51332 2.60265 7.90765 2.13837 7.90765 1.30207C7.90765 0.465769 6.51481 0 4.79459 0V0Z" fill="#B8D0D0"/>
<path d="M4.78269 0.325882C3.33628 0.325882 2.16516 0.675581 2.16516 1.30206C2.16516 1.92854 3.33776 2.27675 4.78269 2.27675C6.22762 2.27675 7.40171 1.92854 7.40171 1.30206C7.40171 0.675581 6.2291 0.325882 4.78269 0.325882V0.325882Z" fill="url(#paint3_linear_7_69)"/>
<path opacity="0.6" d="M2.90473 16.9864C2.90473 16.9864 3.74401 17.3614 4.994 17.2409" stroke="white" stroke-width="0.446424" stroke-miterlimit="10" stroke-linecap="round"/>
<path opacity="0.6" d="M2.15772 2.04164C1.80653 2.74997 1.14136 4.29013 1.08183 5.89428C1.0729 6.12493 1.22618 6.33029 1.4479 6.39279L1.87944 6.5029C2.16813 6.58326 2.46277 6.39427 2.5089 6.09815C2.64134 5.21869 2.95681 3.51186 3.50889 2.50295C2.94937 2.41069 2.48063 2.25592 2.15772 2.04164V2.04164Z" fill="white"/>
<defs>
<linearGradient id="paint0_linear_7_69" x1="-0.000297616" y1="6.22316" x2="9.57743" y2="6.22316" gradientUnits="userSpaceOnUse">
<stop stop-color="#BDD4D6"/>
<stop offset="0.5074" stop-color="#D4E9EC"/>
<stop offset="1" stop-color="#B8D0D2"/>
</linearGradient>
<linearGradient id="paint1_linear_7_69" x1="4.62882" y1="17.8242" x2="4.62882" y2="11.3329" gradientUnits="userSpaceOnUse">
<stop stop-color="#D4E9EC"/>
<stop offset="1" stop-color="#B8D0D2"/>
</linearGradient>
<linearGradient id="paint2_linear_7_69" x1="4.77897" y1="10.6225" x2="4.77897" y2="5.32301" gradientUnits="userSpaceOnUse">
<stop stop-color="#94271D"/>
<stop offset="0.0083422" stop-color="#95281E"/>
<stop offset="0.1701" stop-color="#A93127"/>
<stop offset="0.356" stop-color="#B7372D"/>
<stop offset="0.5874" stop-color="#BF3B31"/>
<stop offset="1" stop-color="#C13C32"/>
</linearGradient>
<linearGradient id="paint3_linear_7_69" x1="4.78328" y1="2.27616" x2="4.78328" y2="0.32554" gradientUnits="userSpaceOnUse">
<stop stop-color="#D4E9EC"/>
<stop offset="1" stop-color="#B8D0D2"/>
</linearGradient>
</defs>
</svg>
