<svg width="10" height="11" viewBox="0 0 10 11" fill="none" xmlns="http://www.w3.org/2000/svg">
<path d="M4.78939 10.0812C2.48553 10.0812 0 8.63614 0 5.46523C0 2.29433 2.48553 0.849258 4.78939 0.849258C6.06931 0.849258 7.25014 1.27039 8.12544 2.03835C9.07506 2.88062 9.57877 4.06971 9.57877 5.46523C9.57877 6.86076 9.07506 8.04159 8.12544 8.88386C7.25014 9.65182 6.06105 10.0812 4.78939 10.0812Z" fill="url(#paint0_radial_7_127)"/>
<path d="M8.74393 2.72125C9.18406 3.4314 9.41362 4.27698 9.41362 5.21751C9.41362 6.61304 8.90991 7.79387 7.96029 8.63614C7.08499 9.4041 5.8959 9.83349 4.62423 9.83349C3.13292 9.83349 1.56894 9.22656 0.645741 7.9392C1.53425 9.39749 3.20558 10.0812 4.78938 10.0812C6.06105 10.0812 7.25014 9.65182 8.12544 8.88387C9.07506 8.0416 9.57877 6.86077 9.57877 5.46524C9.57877 4.41323 9.29223 3.47847 8.74393 2.72125V2.72125Z" fill="#EB8F00"/>
<path d="M3.58378 4.96895L3.57139 4.95244L3.53589 4.90702L3.49212 4.85995C3.47396 4.83931 3.45249 4.81949 3.43184 4.79802C3.4112 4.77655 3.3856 4.75591 3.36248 4.73857C3.34101 4.72205 3.31789 4.70636 3.29312 4.69398C3.2766 4.68489 3.25843 4.67746 3.23944 4.67333C3.23366 4.67251 3.22788 4.67251 3.2221 4.67333C3.2221 4.67333 3.21715 4.67333 3.21467 4.67333H3.20806H3.23036H3.18494C3.17255 4.67333 3.18081 4.67333 3.18494 4.67333H3.19155H3.18246C3.16347 4.67746 3.1453 4.68407 3.12796 4.69398C3.10402 4.70719 3.08007 4.72205 3.0586 4.73857C3.03465 4.75673 3.01153 4.77655 2.99006 4.79802C2.9463 4.84013 2.90749 4.8806 2.88271 4.9128L2.83978 4.96235L2.82078 4.98464C2.70187 5.11759 2.50122 5.13906 2.35671 5.03501C2.26422 4.9706 2.21715 4.85913 2.23532 4.74765C2.23532 4.74765 2.2411 4.71462 2.25679 4.65599C2.28156 4.57259 2.31625 4.49167 2.36001 4.4157C2.4302 4.29183 2.52516 4.18366 2.63912 4.09778C2.71426 4.03998 2.79766 3.99373 2.88684 3.96153C2.91162 3.95162 2.93721 3.94419 2.96281 3.93758C2.99006 3.92933 3.01731 3.92354 3.04539 3.91859L3.09576 3.91116L3.13787 3.9062H3.18329H3.24852H3.29064C3.31871 3.9062 3.34596 3.91364 3.37321 3.91776C3.42606 3.92685 3.47891 3.94089 3.52928 3.95988C3.61846 3.99208 3.70186 4.03833 3.77701 4.09613C3.89096 4.18201 3.98592 4.29018 4.05611 4.41404C4.08171 4.45698 4.10401 4.5024 4.12217 4.54864C4.13786 4.5858 4.15108 4.62296 4.16181 4.66177C4.16759 4.68159 4.17255 4.70141 4.17502 4.72123V4.74187C4.1998 4.91032 4.08254 5.06722 3.91408 5.09199C3.90995 5.09282 3.90583 5.09282 3.9017 5.09364C3.78114 5.11098 3.66058 5.06309 3.58378 4.96895V4.96895Z" fill="#422B0D"/>
<path d="M6.84221 4.96895L6.829 4.95244L6.79349 4.90702L6.74973 4.85995C6.73156 4.83931 6.71009 4.81949 6.68945 4.79802C6.6688 4.77655 6.64321 4.75591 6.62008 4.73857C6.59861 4.72205 6.57549 4.70636 6.55072 4.69398C6.53421 4.68489 6.51604 4.67746 6.49705 4.67333C6.49127 4.67251 6.48549 4.67251 6.47971 4.67333C6.47971 4.67333 6.47475 4.67333 6.47227 4.67333H6.46567H6.48796H6.44255C6.43016 4.67333 6.43842 4.67333 6.44255 4.67333H6.44915H6.44007C6.42108 4.67746 6.40291 4.68407 6.38557 4.69398C6.36162 4.70636 6.3385 4.72205 6.31703 4.73857C6.29226 4.75673 6.26914 4.77655 6.24767 4.79802C6.2039 4.84013 6.16509 4.8806 6.14032 4.9128L6.09738 4.96235L6.07921 4.98464C5.95948 5.11759 5.75965 5.13906 5.61431 5.03501C5.52183 4.9706 5.47476 4.85913 5.49293 4.74765C5.49293 4.74765 5.49871 4.71462 5.51522 4.65599C5.54 4.57176 5.57385 4.49084 5.61844 4.4157C5.68863 4.29183 5.78277 4.18366 5.89672 4.09778C5.97187 4.03998 6.05527 3.99373 6.14445 3.96153C6.16922 3.95162 6.19482 3.94419 6.22042 3.93758C6.24767 3.92933 6.27492 3.92354 6.30299 3.91859L6.35419 3.91116L6.39548 3.9062H6.4409H6.50613H6.54824C6.57632 3.9062 6.60357 3.91364 6.63082 3.91776C6.68449 3.92685 6.73652 3.94089 6.78689 3.95988C6.87607 3.99208 6.95947 4.03833 7.03461 4.09613C7.14857 4.18201 7.24353 4.29018 7.31372 4.41404C7.33932 4.45698 7.36161 4.5024 7.37978 4.54864C7.39547 4.58498 7.40868 4.62213 7.41942 4.66012C7.4252 4.67994 7.43015 4.69976 7.43263 4.71957V4.74022C7.45905 4.90867 7.34345 5.06639 7.17499 5.09282C7.17252 5.09282 7.17004 5.09364 7.16756 5.09364C7.04452 5.11429 6.91983 5.06639 6.84221 4.96895V4.96895Z" fill="#422B0D"/>
<path d="M7.96607 6.1853C7.85046 5.97638 7.59943 5.88472 7.37648 5.96895C6.52925 6.21585 5.65065 6.33889 4.76791 6.33476C3.88518 6.33889 3.00658 6.21585 2.15935 5.96895C1.93722 5.88472 1.68619 5.97555 1.57059 6.18364C1.45828 6.39091 1.53921 6.6312 1.63417 6.83847C2.16431 8.00279 3.33275 8.69972 4.76131 8.70385H4.77452C6.20308 8.70385 7.37152 8.00279 7.90248 6.83847C7.99662 6.62955 8.07837 6.39256 7.96607 6.1853V6.1853Z" fill="#422B0D"/>
<path d="M6.08995 8.3752C6.0594 8.34712 6.02802 8.32152 5.99664 8.29262C5.65973 7.99618 5.22373 7.8368 4.77452 7.84589C4.3121 7.83846 3.86206 7.99205 3.5012 8.28106C3.46982 8.30666 3.43679 8.33143 3.40624 8.36364C3.37569 8.39584 3.35917 8.41896 3.33936 8.44621C3.79352 8.62375 4.27741 8.71458 4.76544 8.71211H4.77865C5.24603 8.71211 5.70928 8.6287 6.14693 8.46438C6.13041 8.433 6.11142 8.40327 6.08995 8.3752Z" fill="#ED7770"/>
<path d="M7.37648 5.96895C6.52925 6.21585 5.65065 6.33889 4.76792 6.33476C3.88518 6.33889 3.00658 6.21585 2.15935 5.96895C1.93722 5.88472 1.68619 5.97555 1.57059 6.18364C1.55407 6.21502 1.54086 6.24805 1.5326 6.28191C1.55985 6.29595 1.59123 6.30998 1.62839 6.32485C2.6226 6.82278 3.72168 7.07546 4.83315 7.06225C5.8992 7.07463 6.95287 6.8426 7.9157 6.38513C7.95451 6.36861 7.98671 6.35292 8.01561 6.33806C8.00901 6.28439 7.99167 6.23154 7.96607 6.18364C7.85046 5.97555 7.59943 5.88389 7.37648 5.96895V5.96895Z" fill="white"/>
<path d="M7.96937 6.18612C7.85211 5.97721 7.60026 5.88472 7.37565 5.96895C6.52843 6.21585 5.64982 6.33889 4.76791 6.33476C3.88518 6.33889 3.00658 6.21585 2.15935 5.96895C1.93722 5.88472 1.68619 5.97555 1.57059 6.18364C1.45828 6.39091 1.53921 6.6312 1.63417 6.83847C1.67628 6.93178 1.72335 7.02344 1.77537 7.11179C1.77537 7.11179 1.60197 6.46936 1.75225 6.28274C1.80345 6.20346 1.88933 6.15392 1.98346 6.14896C2.02228 6.14896 2.06026 6.15557 2.09742 6.16713C2.95951 6.42064 3.8538 6.54863 4.75305 6.54698H4.78195C5.6812 6.54863 6.57549 6.42064 7.43758 6.16713C7.47474 6.15557 7.51273 6.14896 7.55154 6.14896C7.64567 6.15392 7.73238 6.20346 7.78358 6.28274C7.93634 6.46936 7.76045 7.11427 7.76045 7.11427C7.81165 7.02592 7.86285 6.93508 7.90579 6.84095C7.99992 6.63368 8.08167 6.39421 7.96937 6.18612V6.18612Z" fill="#EB8F00"/>
<defs>
<radialGradient id="paint0_radial_7_127" cx="0" cy="0" r="1" gradientUnits="userSpaceOnUse" gradientTransform="translate(4.78938 5.46523) scale(4.70348)">
<stop offset="0.5" stop-color="#FDE030"/>
<stop offset="0.92" stop-color="#F7C02B"/>
<stop offset="1" stop-color="#F4A223"/>
</radialGradient>
</defs>
</svg>
