<svg width="10" height="9" viewBox="0 0 10 9" fill="none" xmlns="http://www.w3.org/2000/svg">
<path d="M4.52422 8.89937C3.62116 8.44895 2.08765 7.02047 1.11561 5.72421L1.06278 5.65375H1.73453C2.18999 5.65375 2.42972 5.64677 2.47906 5.63194C2.60978 5.59278 2.68541 5.50634 2.83294 5.22753C3.10336 4.71643 3.14066 4.64973 3.14601 4.66779C3.149 4.67792 3.20705 5.25633 3.27502 5.95325C3.39452 7.17849 3.40027 7.22344 3.44902 7.313C3.53397 7.4691 3.65078 7.53606 3.83944 7.53685C3.97849 7.53685 4.08064 7.49013 4.17008 7.38372C4.20478 7.34245 4.41918 6.94507 4.64652 6.50067L5.05987 5.69267L6.47844 5.68733C7.89095 5.68199 7.89731 5.68172 7.97215 5.64141C8.13365 5.55426 8.21516 5.4197 8.21507 5.24041C8.21498 5.05266 8.12286 4.90915 7.95336 4.83275C7.88323 4.80114 7.77525 4.79853 6.33836 4.79365C5.28499 4.79009 4.76749 4.79501 4.70034 4.80881C4.52627 4.84493 4.45772 4.91647 4.28837 5.2387L4.13922 5.5225L4.12495 5.45191C4.11709 5.41309 4.05972 4.8529 3.99744 4.20703C3.93516 3.56116 3.87625 3.00295 3.86653 2.96655C3.81658 2.7796 3.64365 2.65649 3.43317 2.65806C3.28973 2.65943 3.16665 2.7182 3.09297 2.82133C3.06904 2.85481 2.82895 3.305 2.55944 3.82176L2.06942 4.7613L1.28015 4.76622L0.490888 4.77115L0.377192 4.54079C0.0948669 3.96875 -0.018886 3.49949 0.00252805 2.99521C0.0195304 2.5948 0.0974829 2.3093 0.282129 1.97121C0.433763 1.69356 0.701565 1.37514 0.924283 1.20771C1.16831 1.02425 1.49246 0.900353 1.83374 0.860095C2.12211 0.82609 2.46409 0.872273 2.84278 0.996441C3.00909 1.05096 3.41957 1.25743 3.61313 1.38394C3.94841 1.60305 4.39108 1.9947 4.68605 2.33319L4.79683 2.46031L4.92547 2.29067C5.18339 1.95053 5.58063 1.59176 5.95891 1.35732C6.66957 0.91687 7.47206 0.771766 8.10322 0.969581C8.61632 1.1304 9.03023 1.51617 9.33219 2.11501C9.633 2.71158 9.65978 3.46392 9.40594 4.18681C9.26 4.60242 9.07779 4.96125 8.7946 5.39072C8.44451 5.92166 8.12745 6.3003 7.55091 6.876C6.82333 7.60252 6.04434 8.23124 5.29474 8.6969C5.07501 8.83341 4.76893 8.99845 4.73618 8.99808C4.7282 8.99808 4.63282 8.95361 4.52422 8.89945V8.89937Z" fill="#00BCF2"/>
</svg>
