<svg width="20" height="24" viewBox="0 0 20 24" fill="none" xmlns="http://www.w3.org/2000/svg">
<path d="M16.3115 3.24603H0.915799C0.480111 3.24603 0.126915 3.59923 0.126915 4.03492V22.5426C0.126915 22.9782 0.480111 23.3314 0.915799 23.3314H16.3115C16.7471 23.3314 17.1003 22.9782 17.1003 22.5426V4.03492C17.1003 3.59923 16.7471 3.24603 16.3115 3.24603Z" fill="#68E1FD"/>
<path d="M16.3102 23.4559H0.913312C0.793374 23.4559 0.67461 23.4322 0.563802 23.3863C0.452994 23.3404 0.352311 23.2732 0.267502 23.1884C0.182693 23.1035 0.115419 23.0029 0.0695207 22.8921C0.0236225 22.7812 0 22.6625 0 22.5425V4.03615C-2.24295e-07 3.79381 0.096184 3.56138 0.267428 3.3899C0.438671 3.21843 0.670972 3.12193 0.913312 3.1216H16.3102C16.5526 3.12193 16.7849 3.21843 16.9561 3.3899C17.1273 3.56138 17.2235 3.79381 17.2235 4.03615V22.5425C17.2235 22.6625 17.1999 22.7812 17.154 22.8921C17.1081 23.0029 17.0408 23.1035 16.956 23.1884C16.8712 23.2732 16.7705 23.3404 16.6597 23.3863C16.5489 23.4322 16.4301 23.4559 16.3102 23.4559ZM0.913312 3.37046C0.736973 3.37079 0.567969 3.44107 0.443396 3.56587C0.318822 3.69068 0.248859 3.85982 0.248859 4.03615V22.5425C0.249188 22.7187 0.319298 22.8875 0.443836 23.012C0.568374 23.1366 0.737189 23.2067 0.913312 23.207H16.3102C16.4863 23.2067 16.6552 23.1366 16.7797 23.012C16.9042 22.8875 16.9743 22.7187 16.9747 22.5425V4.03615C16.9747 3.85982 16.9047 3.69068 16.7801 3.56587C16.6556 3.44107 16.4865 3.37079 16.3102 3.37046H0.913312Z" fill="#093F68"/>
<path d="M1.46702 4.46295H15.7577V22.1158H1.46702V4.46295Z" fill="white"/>
<path d="M15.759 22.2402H1.46702C1.43402 22.2402 1.40237 22.2271 1.37904 22.2037C1.3557 22.1804 1.34259 22.1488 1.34259 22.1158V4.46295C1.34259 4.42994 1.3557 4.3983 1.37904 4.37496C1.40237 4.35163 1.43402 4.33852 1.46702 4.33852H15.759C15.792 4.33852 15.8236 4.35163 15.847 4.37496C15.8703 4.3983 15.8834 4.42994 15.8834 4.46295V22.1158C15.8834 22.1488 15.8703 22.1804 15.847 22.2037C15.8236 22.2271 15.792 22.2402 15.759 22.2402ZM1.59145 21.9913H15.6346V4.58738H1.59145V21.9913Z" fill="#093F68"/>
<path d="M11.3181 2.33894H10.0427C10.0427 1.95944 9.89194 1.59547 9.62359 1.32712C9.35523 1.05876 8.99127 0.908005 8.61176 0.908005C8.23225 0.908005 7.86829 1.05876 7.59993 1.32712C7.33158 1.59547 7.18082 1.95944 7.18082 2.33894H5.90791C5.78602 2.33927 5.66924 2.38792 5.58317 2.47423C5.4971 2.56053 5.44876 2.67745 5.44876 2.79933V4.41692C5.44876 4.5388 5.4971 4.65572 5.58317 4.74202C5.66924 4.82832 5.78602 4.87697 5.90791 4.8773H11.3181C11.4402 4.8773 11.5573 4.8288 11.6436 4.74246C11.73 4.65612 11.7785 4.53902 11.7785 4.41692V2.79933C11.7785 2.67723 11.73 2.56013 11.6436 2.47379C11.5573 2.38745 11.4402 2.33894 11.3181 2.33894V2.33894ZM8.66153 2.70103C8.54587 2.70103 8.4328 2.66673 8.33663 2.60247C8.24045 2.53821 8.1655 2.44688 8.12123 2.34001C8.07697 2.23315 8.06539 2.11557 8.08795 2.00212C8.11052 1.88868 8.16622 1.78447 8.248 1.70269C8.32979 1.6209 8.434 1.5652 8.54744 1.54263C8.66088 1.52007 8.77847 1.53165 8.88533 1.57591C8.9922 1.62018 9.08353 1.69513 9.14779 1.79131C9.21205 1.88748 9.24635 2.00055 9.24635 2.11622C9.24602 2.27122 9.1843 2.41978 9.0747 2.52938C8.9651 2.63898 8.81654 2.7007 8.66153 2.70103V2.70103Z" fill="#68E1FD"/>
<path d="M11.3181 5.00671H5.90791C5.75302 5.00638 5.60459 4.94462 5.49519 4.83498C5.38578 4.72534 5.32434 4.57678 5.32434 4.42189V2.80431C5.32434 2.64942 5.38578 2.50086 5.49519 2.39122C5.60459 2.28158 5.75302 2.21982 5.90791 2.21949H7.06759C7.11316 1.84166 7.29556 1.49362 7.58031 1.24115C7.86507 0.988672 8.23245 0.849258 8.61301 0.849258C8.99357 0.849258 9.36095 0.988672 9.6457 1.24115C9.93046 1.49362 10.1129 1.84166 10.1584 2.21949H11.3181C11.4731 2.21982 11.6217 2.28154 11.7313 2.39114C11.8409 2.50074 11.9026 2.6493 11.9029 2.80431V4.42189C11.9026 4.57689 11.8409 4.72545 11.7313 4.83506C11.6217 4.94466 11.4731 5.00638 11.3181 5.00671V5.00671ZM5.90791 2.46337C5.86385 2.46337 5.82022 2.47207 5.77953 2.48897C5.73884 2.50587 5.70189 2.53063 5.67079 2.56185C5.63969 2.59306 5.61506 2.6301 5.59832 2.67086C5.58157 2.71161 5.57303 2.75527 5.5732 2.79933V4.41691C5.57303 4.46097 5.58157 4.50463 5.59832 4.54538C5.61506 4.58614 5.63969 4.62318 5.67079 4.6544C5.70189 4.68561 5.73884 4.71038 5.77953 4.72728C5.82022 4.74417 5.86385 4.75287 5.90791 4.75287H11.3181C11.4072 4.75287 11.4927 4.71748 11.5557 4.65447C11.6187 4.59147 11.6541 4.50601 11.6541 4.41691V2.79933C11.6541 2.71023 11.6187 2.62478 11.5557 2.56177C11.4927 2.49877 11.4072 2.46337 11.3181 2.46337H10.0427C10.0097 2.46337 9.97805 2.45026 9.95472 2.42693C9.93138 2.40359 9.91827 2.37194 9.91827 2.33894C9.91827 1.99243 9.78062 1.66012 9.5356 1.4151C9.29059 1.17008 8.95827 1.03243 8.61176 1.03243C8.26526 1.03243 7.93294 1.17008 7.68792 1.4151C7.4429 1.66012 7.30525 1.99243 7.30525 2.33894C7.30525 2.37194 7.29214 2.40359 7.26881 2.42693C7.24547 2.45026 7.21383 2.46337 7.18082 2.46337H5.90791ZM8.66154 2.82546C8.52126 2.82546 8.38413 2.78386 8.2675 2.70593C8.15086 2.628 8.05996 2.51723 8.00628 2.38763C7.9526 2.25803 7.93855 2.11543 7.96591 1.97784C7.99328 1.84026 8.06083 1.71389 8.16002 1.6147C8.25921 1.51551 8.38559 1.44796 8.52317 1.42059C8.66075 1.39323 8.80335 1.40727 8.93295 1.46095C9.06255 1.51463 9.17332 1.60554 9.25125 1.72217C9.32919 1.83881 9.37078 1.97594 9.37078 2.11621C9.37045 2.30422 9.29563 2.48442 9.16269 2.61736C9.02975 2.7503 8.84954 2.82513 8.66154 2.82546V2.82546ZM8.66154 1.65582C8.57048 1.65582 8.48147 1.68282 8.40576 1.73341C8.33005 1.784 8.27104 1.8559 8.23619 1.94003C8.20134 2.02415 8.19223 2.11672 8.20999 2.20603C8.22776 2.29534 8.2716 2.37737 8.33599 2.44176C8.40038 2.50614 8.48241 2.54999 8.57172 2.56776C8.66103 2.58552 8.75359 2.5764 8.83772 2.54156C8.92184 2.50671 8.99375 2.4477 9.04433 2.37199C9.09492 2.29628 9.12192 2.20727 9.12192 2.11621C9.1216 1.99421 9.07299 1.8773 8.98672 1.79103C8.90045 1.70476 8.78354 1.65615 8.66154 1.65582V1.65582Z" fill="#093F68"/>
<path d="M8.61425 15.8545C8.36539 15.628 8.13395 15.4015 7.88883 15.185C7.20944 14.5828 6.52798 13.9826 5.84445 13.3845C5.38316 12.9938 4.94328 12.5784 4.52674 12.1402C4.15274 11.7512 3.85105 11.2987 3.63583 10.8039C3.49882 10.4661 3.40678 10.1117 3.36208 9.74995C3.31779 9.42595 3.30197 9.0987 3.3148 8.77194C3.32637 8.2294 3.50483 7.70361 3.82588 7.26611C4.14693 6.82862 4.59499 6.50067 5.10907 6.3269C6.2364 5.95361 7.22437 6.21616 8.07796 7.0349C8.26942 7.22507 8.4366 7.43823 8.57568 7.66949L8.60678 7.71926L8.64536 7.65829C8.95149 7.15467 9.38894 6.74388 9.9108 6.46999C10.3696 6.23231 10.8868 6.13044 11.4015 6.17634C11.9753 6.21064 12.5228 6.42878 12.9631 6.79848C13.4524 7.20973 13.776 7.78444 13.8739 8.41607C13.9213 8.74115 13.9297 9.07075 13.8988 9.39782C13.8793 9.7494 13.8196 10.0976 13.7208 10.4356C13.5632 10.9496 13.3043 11.4268 12.9593 11.8391C12.6026 12.2647 12.2114 12.66 11.7897 13.0212C11.1675 13.5712 10.5354 14.1137 9.91329 14.6662C9.4865 15.0394 9.07091 15.4339 8.65158 15.8196L8.61425 15.8545Z" fill="#F56132"/>
<path d="M8.61425 15.9789C8.58281 15.9788 8.55259 15.9668 8.52964 15.9453L8.29944 15.7313C8.13893 15.5807 7.97344 15.4252 7.80172 15.2784C7.23516 14.7806 6.66776 14.2808 6.09953 13.779L5.76606 13.4779C5.30196 13.0841 4.8588 12.6662 4.4384 12.2261C4.05424 11.8284 3.74486 11.3648 3.52509 10.8574C3.38311 10.5094 3.28812 10.1441 3.24263 9.77111C3.1976 9.44133 3.18136 9.10826 3.1941 8.77567C3.20671 8.20808 3.39381 7.65813 3.72999 7.20063C4.06616 6.74312 4.53508 6.40025 5.07299 6.21865C6.2252 5.84536 7.26668 6.08675 8.16879 6.95527C8.33789 7.11973 8.48813 7.30253 8.61674 7.50027C8.92892 7.02387 9.3571 6.63465 9.86103 6.36921C10.3375 6.1193 10.875 6.0093 11.4114 6.05191C12.044 6.09209 12.6442 6.34572 13.1139 6.77134C13.5836 7.19695 13.895 7.76935 13.9971 8.39492C14.0458 8.73031 14.0546 9.07031 14.0232 9.40777C14.0024 9.76815 13.9411 10.125 13.8403 10.4716C13.6787 11.0017 13.4121 11.4939 13.0564 11.9188C12.695 12.3491 12.2992 12.7494 11.8731 13.1158L11.017 13.8623C10.676 14.161 10.3339 14.4584 9.99542 14.7595C9.70176 15.0195 9.40811 15.2908 9.12441 15.5521C8.99998 15.6765 8.8656 15.7922 8.73495 15.9105L8.69762 15.9453C8.67498 15.9665 8.64525 15.9785 8.61425 15.9789V15.9789ZM6.07838 6.28833C5.76167 6.29077 5.44741 6.34412 5.14764 6.44635C4.65791 6.61258 4.23123 6.92555 3.92558 7.34274C3.61992 7.75993 3.45011 8.2611 3.43923 8.77816C3.42663 9.09785 3.44204 9.41802 3.48527 9.73502C3.5277 10.0864 3.61726 10.4304 3.75155 10.7578C3.96111 11.2399 4.2562 11.68 4.62255 12.0569C5.03624 12.49 5.47234 12.9012 5.92906 13.2887L6.26378 13.5923C6.83283 14.0901 7.40065 14.5898 7.96722 15.0917C8.1352 15.241 8.30318 15.3978 8.46493 15.5496L8.60927 15.6852L8.95145 15.3704C9.23515 15.1079 9.53005 14.8366 9.82246 14.5741C10.1617 14.273 10.5031 13.9735 10.8465 13.6757C11.1319 13.4268 11.4164 13.178 11.7001 12.9291C12.1168 12.5725 12.5035 12.1821 12.856 11.762C13.1942 11.3652 13.449 10.9043 13.6051 10.4069C13.7015 10.0784 13.7595 9.73974 13.7781 9.39782C13.8084 9.08034 13.8009 8.76039 13.7557 8.44469C13.6596 7.84403 13.3504 7.29806 12.8847 6.90674C12.4641 6.55182 11.9407 6.34117 11.3915 6.30575C10.9015 6.26456 10.4099 6.36246 9.97302 6.5882C9.46976 6.85052 9.04866 7.24665 8.7561 7.73295L8.71753 7.79392C8.70628 7.81145 8.69082 7.82587 8.67256 7.83587C8.6543 7.84587 8.63382 7.85113 8.61301 7.85116C8.59135 7.85198 8.56986 7.84713 8.55065 7.83709C8.53144 7.82705 8.51519 7.81217 8.50351 7.79392L8.47116 7.74291C8.33568 7.52004 8.1731 7.31482 7.98713 7.13196C7.41351 6.56829 6.77145 6.28833 6.07838 6.28833Z" fill="#093F68"/>
<path d="M9.82619 12.8594H9.81748C9.79121 12.8576 9.76621 12.8474 9.74609 12.8304C9.72596 12.8134 9.71175 12.7905 9.7055 12.7649L8.75237 8.87397L7.42346 11.9847C7.41437 12.0063 7.39939 12.0248 7.38025 12.0382C7.3611 12.0516 7.33856 12.0594 7.31521 12.0606C7.29211 12.0617 7.26917 12.0564 7.24895 12.0451C7.22873 12.0339 7.21203 12.0173 7.20073 11.9971L6.38821 10.5787H3.80007C3.76707 10.5787 3.73542 10.5655 3.71209 10.5422C3.68875 10.5189 3.67564 10.4872 3.67564 10.4542C3.67564 10.4212 3.68875 10.3896 3.71209 10.3662C3.73542 10.3429 3.76707 10.3298 3.80007 10.3298H6.46038C6.4823 10.3297 6.50386 10.3354 6.52287 10.3463C6.54188 10.3573 6.55767 10.373 6.56863 10.392L7.28659 11.6512L8.66278 8.431C8.6729 8.40687 8.69038 8.38655 8.71271 8.37292C8.73505 8.3593 8.76112 8.35306 8.78721 8.3551C8.81326 8.35723 8.83798 8.36751 8.85786 8.38449C8.87773 8.40146 8.89176 8.42427 8.89795 8.44967L9.85357 12.3244L10.9336 9.61184C10.9428 9.58868 10.9588 9.56884 10.9794 9.55486C11.0001 9.54088 11.0244 9.53342 11.0493 9.53345H13.5753C13.6083 9.53345 13.6399 9.54655 13.6632 9.56989C13.6866 9.59322 13.6997 9.62487 13.6997 9.65787C13.6997 9.69088 13.6866 9.72252 13.6632 9.74586C13.6399 9.76919 13.6083 9.7823 13.5753 9.7823H11.1327L9.94191 12.7773C9.93329 12.8012 9.91759 12.8218 9.89691 12.8365C9.87622 12.8512 9.85155 12.8592 9.82619 12.8594V12.8594Z" fill="white"/>
<path d="M13.9087 17.4447H3.31729C3.28429 17.4447 3.25264 17.4316 3.2293 17.4082C3.20597 17.3849 3.19286 17.3532 3.19286 17.3202C3.19286 17.2872 3.20597 17.2556 3.2293 17.2323C3.25264 17.2089 3.28429 17.1958 3.31729 17.1958H13.9087C13.9417 17.1958 13.9734 17.2089 13.9967 17.2323C14.02 17.2556 14.0332 17.2872 14.0332 17.3202C14.0332 17.3532 14.02 17.3849 13.9967 17.4082C13.9734 17.4316 13.9417 17.4447 13.9087 17.4447Z" fill="#DFEAEF"/>
<path d="M13.9087 18.954H3.31729C3.28429 18.954 3.25264 18.9409 3.2293 18.9176C3.20597 18.8942 3.19286 18.8626 3.19286 18.8296C3.19286 18.7966 3.20597 18.7649 3.2293 18.7416C3.25264 18.7182 3.28429 18.7051 3.31729 18.7051H13.9087C13.9417 18.7051 13.9734 18.7182 13.9967 18.7416C14.02 18.7649 14.0332 18.7966 14.0332 18.8296C14.0332 18.8626 14.02 18.8942 13.9967 18.9176C13.9734 18.9409 13.9417 18.954 13.9087 18.954Z" fill="#DFEAEF"/>
<path d="M12.0137 20.4621H3.31729C3.28429 20.4621 3.25264 20.449 3.2293 20.4256C3.20597 20.4023 3.19286 20.3707 3.19286 20.3377C3.19286 20.3047 3.20597 20.273 3.2293 20.2497C3.25264 20.2263 3.28429 20.2132 3.31729 20.2132H12.0137C12.0467 20.2132 12.0783 20.2263 12.1016 20.2497C12.125 20.273 12.1381 20.3047 12.1381 20.3377C12.1381 20.3707 12.125 20.4023 12.1016 20.4256C12.0783 20.449 12.0467 20.4621 12.0137 20.4621V20.4621Z" fill="#DFEAEF"/>
<path d="M17.9606 11.0918L18.8437 11.6602C18.9269 11.7138 18.9855 11.7982 19.0064 11.895C19.0274 11.9918 19.0091 12.0929 18.9555 12.1761L16.9781 15.248L15.4715 14.2781L17.4509 11.2032C17.5045 11.1217 17.5878 11.0644 17.6831 11.0436C17.7783 11.0228 17.8779 11.0401 17.9606 11.0918Z" fill="#FFBC0E"/>
<path d="M16.9747 15.3692C16.9508 15.3691 16.9275 15.3622 16.9075 15.3493L15.4006 14.38C15.3729 14.3621 15.3535 14.334 15.3465 14.3018C15.3395 14.2696 15.3455 14.236 15.3633 14.2083L17.338 11.1373C17.3728 11.0824 17.4183 11.0349 17.4717 10.9977C17.5251 10.9606 17.5854 10.9344 17.6491 10.9208C17.7775 10.8931 17.9117 10.9172 18.0224 10.988L18.9058 11.5567C19.0164 11.628 19.0943 11.7403 19.1223 11.869C19.1363 11.9326 19.1374 11.9984 19.1257 12.0625C19.1139 12.1266 19.0895 12.1877 19.0539 12.2423L17.0767 15.3144C17.0587 15.3419 17.0305 15.3612 16.9983 15.3679C16.9905 15.3694 16.9826 15.3698 16.9747 15.3692V15.3692ZM15.6408 14.2381L16.9373 15.073L18.8473 12.1066C18.8818 12.0516 18.8935 11.9853 18.8797 11.9219C18.866 11.8584 18.828 11.8028 18.7739 11.767L17.8905 11.1983C17.8355 11.1638 17.7691 11.1522 17.7057 11.1659C17.6422 11.1796 17.5866 11.2176 17.5508 11.2717L15.6408 14.2381Z" fill="#093F68"/>
<path d="M12.9979 20.0739L13.6823 19.662C13.8974 19.5335 14.0797 19.3567 14.2148 19.1456L16.7992 15.1353L15.6445 14.3887L13.0601 18.4028C12.9247 18.6133 12.8396 18.8521 12.8113 19.1008L12.7204 19.8947L12.9979 20.0739Z" fill="#FFBC0E"/>
<path d="M12.9979 20.1983C12.9736 20.1985 12.9498 20.1916 12.9295 20.1784L12.652 19.9992C12.6315 19.9862 12.6154 19.9675 12.6054 19.9454C12.5955 19.9233 12.5922 19.8987 12.596 19.8748L12.6868 19.0809C12.7185 18.8149 12.8104 18.5596 12.9556 18.3343L15.5387 14.3215C15.5476 14.3076 15.5591 14.2956 15.5726 14.2862C15.5861 14.2768 15.6014 14.2702 15.6174 14.2667C15.6335 14.2633 15.6501 14.263 15.6663 14.266C15.6825 14.269 15.6979 14.2752 15.7117 14.2842L16.8664 15.0307C16.8803 15.0396 16.8922 15.051 16.9016 15.0645C16.911 15.0779 16.9177 15.0931 16.9212 15.1091C16.9247 15.1253 16.9249 15.1419 16.922 15.1582C16.919 15.1744 16.9128 15.1899 16.9037 15.2037L14.3193 19.2178C14.1732 19.4443 13.9769 19.6342 13.7457 19.7728L13.0614 20.1846C13.0417 20.1944 13.0199 20.1991 12.9979 20.1983V20.1983ZM12.8585 19.8325L13.0054 19.927L13.6275 19.5538C13.8254 19.4338 13.9935 19.2704 14.119 19.0759L16.6362 15.1664L15.6906 14.5579L13.1646 18.47C13.0396 18.6654 12.9604 18.8866 12.9332 19.117L12.8585 19.8325Z" fill="#093F68"/>
<path d="M12.722 19.8939L12.9721 20.0549L12.7821 20.3499C12.7612 20.3824 12.7283 20.4052 12.6906 20.4134C12.6528 20.4216 12.6134 20.4144 12.5809 20.3935C12.5485 20.3726 12.5256 20.3397 12.5175 20.302C12.5093 20.2642 12.5164 20.2248 12.5373 20.1923L12.7272 19.8973L12.722 19.8939Z" fill="#093F68"/>
<path d="M12.6507 20.5392C12.599 20.5395 12.5483 20.5243 12.5052 20.4957C12.4753 20.4768 12.4496 20.452 12.4295 20.4229C12.4094 20.3939 12.3954 20.3611 12.3882 20.3265C12.3803 20.2918 12.3795 20.2558 12.3857 20.2208C12.3919 20.1858 12.405 20.1523 12.4243 20.1224L12.6147 19.8275C12.6325 19.7998 12.6606 19.7803 12.6928 19.7733C12.725 19.7664 12.7586 19.7724 12.7864 19.7902L13.0352 19.9482C13.0491 19.957 13.061 19.9685 13.0704 19.9819C13.0798 19.9954 13.0865 20.0106 13.09 20.0266C13.0967 20.0588 13.0905 20.0923 13.0726 20.1199L12.8822 20.4148C12.8576 20.4537 12.8233 20.4856 12.7828 20.5074C12.7422 20.5292 12.6968 20.5402 12.6507 20.5392V20.5392ZM12.6395 20.2904C12.6444 20.2933 12.6502 20.2943 12.6557 20.2931C12.6612 20.292 12.6661 20.2888 12.6694 20.2842L12.7938 20.0938L12.7577 20.0701L12.6333 20.2618C12.6312 20.2666 12.6307 20.2719 12.6318 20.2771C12.6329 20.2822 12.6356 20.2869 12.6395 20.2904V20.2904Z" fill="#093F68"/>
<path d="M14.9079 14.487C14.8846 14.487 14.8617 14.4805 14.8419 14.4682C14.8221 14.4559 14.8062 14.4382 14.7959 14.4173C14.7887 14.4026 14.7844 14.3866 14.7834 14.3703C14.7824 14.3539 14.7846 14.3375 14.7899 14.3221C14.7952 14.3066 14.8035 14.2923 14.8144 14.28C14.8253 14.2677 14.8384 14.2577 14.8531 14.2506C15.2339 14.0639 15.698 13.0486 16.0365 12.3057C16.3525 11.6114 16.5255 11.2456 16.6922 11.1585C16.7436 11.128 16.8015 11.1101 16.8611 11.1059C16.9208 11.1018 16.9805 11.1117 17.0356 11.1349C17.2459 11.2282 17.3243 11.5081 17.333 11.5343C17.3373 11.5501 17.3385 11.5667 17.3364 11.583C17.3343 11.5993 17.329 11.615 17.3207 11.6292C17.3125 11.6434 17.3016 11.6559 17.2885 11.6659C17.2755 11.6758 17.2606 11.6831 17.2447 11.6873C17.2128 11.6957 17.179 11.6911 17.1505 11.6745C17.1221 11.6579 17.1013 11.6308 17.0929 11.599C17.0792 11.5492 17.022 11.4011 16.9349 11.3626C16.9143 11.3551 16.8923 11.3527 16.8707 11.3555C16.849 11.3584 16.8284 11.3663 16.8104 11.3787C16.7084 11.4372 16.462 11.976 16.2654 12.409C15.8722 13.2713 15.4268 14.2493 14.9651 14.4745C14.9473 14.4832 14.9277 14.4874 14.9079 14.487V14.487Z" fill="#093F68"/>
<path d="M13.3463 17.9561L14.5022 18.7002Z" fill="#093F68"/>
<path d="M14.5022 18.8246C14.4784 18.8245 14.4551 18.8176 14.4351 18.8047L13.2791 18.0581C13.2654 18.0492 13.2535 18.0377 13.2443 18.0242C13.235 18.0107 13.2285 17.9955 13.2251 17.9795C13.2217 17.9635 13.2214 17.947 13.2244 17.9309C13.2274 17.9148 13.2335 17.8995 13.2424 17.8858C13.2513 17.872 13.2628 17.8602 13.2763 17.8509C13.2898 17.8417 13.305 17.8351 13.321 17.8317C13.337 17.8283 13.3535 17.8281 13.3696 17.8311C13.3857 17.834 13.401 17.8402 13.4147 17.8491L14.5694 18.5956C14.592 18.6102 14.6092 18.6317 14.6186 18.6568C14.6279 18.682 14.6289 18.7095 14.6213 18.7352C14.6138 18.761 14.5981 18.7836 14.5766 18.7997C14.5552 18.8158 14.5291 18.8245 14.5022 18.8246V18.8246Z" fill="#093F68"/>
</svg>
