<svg width="17" height="16" viewBox="0 0 17 16" fill="none" xmlns="http://www.w3.org/2000/svg">
<path d="M17 14.8751C17 15.2661 16.6827 15.5835 16.2917 15.5835H0.708333C0.317333 15.5835 0 15.2661 0 14.8751C0 14.4841 0.317333 14.1668 0.708333 14.1668H16.2917C16.6827 14.1668 17 14.4841 17 14.8751Z" fill="#5C913B"/>
<path d="M5.82911 5.99829H4.88466C4.75433 5.99829 4.64855 5.89251 4.64855 5.76217V2.45662C4.64855 2.32629 4.75433 2.22051 4.88466 2.22051H5.82911C5.95944 2.22051 6.06522 2.32629 6.06522 2.45662V5.76217C6.06522 5.89251 5.95944 5.99829 5.82911 5.99829Z" fill="#A0041E"/>
<path d="M2.80593 14.1668C2.74124 11.9676 2.56699 10.389 2.3611 10.389C2.15568 10.389 1.98143 11.9676 1.91674 14.1668H2.80593Z" fill="#FFCC4D"/>
<path d="M4.72222 7.90087C4.72222 10.5335 3.66539 11.3335 2.36111 11.3335C1.05731 11.3335 0 10.5335 0 7.90087C0 5.26729 1.88889 1.41679 2.36111 1.41679C2.83333 1.41679 4.72222 5.26729 4.72222 7.90087Z" fill="#77B255"/>
<path d="M3.77778 6.61123L9.91667 0.472342L16.0556 6.61123V14.1668H3.77778V6.61123Z" fill="#FFE8B6"/>
<path d="M9.91666 6.61123H10.3889V14.1668H9.91666V6.61123Z" fill="#FFCC4D"/>
<path d="M16.0555 7.08345C15.9347 7.08345 15.8138 7.03717 15.7217 6.94509L9.91665 1.14006L4.11163 6.94509C3.92699 7.12973 3.62854 7.12973 3.4439 6.94509C3.25927 6.76045 3.25927 6.46201 3.4439 6.27737L9.58279 0.138479C9.76743 -0.0461597 10.0659 -0.0461597 10.2505 0.138479L16.3894 6.27737C16.574 6.46201 16.574 6.76045 16.3894 6.94509C16.2973 7.03717 16.1764 7.08345 16.0555 7.08345Z" fill="#66757F"/>
<path d="M9.91667 7.08345C9.79578 7.08345 9.67489 7.03717 9.58281 6.94509C9.39817 6.76045 9.39817 6.46201 9.58281 6.27737L12.6523 3.20792C12.8369 3.02328 13.1353 3.02328 13.32 3.20792C13.5046 3.39256 13.5046 3.69101 13.32 3.87565L10.2505 6.94509C10.1584 7.03717 10.0376 7.08345 9.91667 7.08345Z" fill="#66757F"/>
<path d="M6.13888 11.3335H8.02777V14.1668H6.13888V11.3335Z" fill="#C1694F"/>
<path d="M6.13888 7.08345H8.02777V8.97234H6.13888V7.08345ZM12.0417 7.08345H13.9305V8.97234H12.0417V7.08345ZM12.0417 11.3335H13.9305V13.2223H12.0417V11.3335Z" fill="#55ACEE"/>
<path d="M5.01735 13.2181C5.01735 13.9798 4.61219 14.2112 4.1121 14.2112C3.61249 14.2112 3.20685 13.9798 3.20685 13.2181C3.20685 12.4564 3.93077 11.342 4.1121 11.342C4.29344 11.342 5.01735 12.4559 5.01735 13.2181ZM16.941 13.2181C16.941 13.9798 16.5358 14.2112 16.0357 14.2112C15.5361 14.2112 15.1305 13.9798 15.1305 13.2181C15.1305 12.4564 15.8544 11.342 16.0357 11.342C16.217 11.342 16.941 12.4559 16.941 13.2181Z" fill="#77B255"/>
</svg>
