<svg width="10" height="10" viewBox="0 0 10 10" fill="none" xmlns="http://www.w3.org/2000/svg">
<path d="M6.90596 1.69589H8.1759V4.23573H6.90596V1.69589Z" fill="#C0392B"/>
<path d="M4.78938 1.70906L0.979549 5.50569V6.27273V8.54848V9.31552H1.40286H4.78938H8.1759H8.59922V8.54848V6.27273V5.50569L4.78938 1.70906Z" fill="#BDC3C7"/>
<path d="M4.78938 1.94986L0.979549 5.71737V6.52168V6.564L4.78938 2.75417L8.59922 6.564V6.52168V5.71737L4.78938 1.94986Z" fill="#95A5A6"/>
<path d="M4.78939 0.849258L0 5.63269L0.598779 6.22534L4.78939 2.03451L8.97978 6.22534L9.57877 5.63269L4.78939 0.849258Z" fill="#E74C3C"/>
<path d="M5.63602 4.6591C5.63602 4.88364 5.54682 5.09898 5.38804 5.25776C5.22927 5.41653 5.01393 5.50573 4.78939 5.50573C4.56485 5.50573 4.3495 5.41653 4.19073 5.25776C4.03196 5.09898 3.94276 4.88364 3.94276 4.6591C3.94276 4.43456 4.03196 4.21922 4.19073 4.06044C4.3495 3.90167 4.56485 3.81247 4.78939 3.81247C5.01393 3.81247 5.22927 3.90167 5.38804 4.06044C5.54682 4.21922 5.63602 4.43456 5.63602 4.6591V4.6591Z" fill="#3498DB"/>
<path d="M3.94276 6.77567H5.63602V9.31555H3.94276V6.77567Z" fill="#E67E22"/>
<path d="M5.42436 8.25727C5.42436 8.3134 5.40206 8.36724 5.36236 8.40693C5.32267 8.44662 5.26883 8.46892 5.2127 8.46892C5.15656 8.46892 5.10273 8.44662 5.06303 8.40693C5.02334 8.36724 5.00104 8.3134 5.00104 8.25727C5.00104 8.20113 5.02334 8.14729 5.06303 8.1076C5.10273 8.06791 5.15656 8.04561 5.2127 8.04561C5.26883 8.04561 5.32267 8.06791 5.36236 8.1076C5.40206 8.14729 5.42436 8.20113 5.42436 8.25727Z" fill="#D35400"/>
<path d="M4.78939 3.81247C4.32162 3.81247 3.94276 4.19345 3.94276 4.6591C3.94276 4.70143 3.95165 4.78609 3.969 4.87076C4.06298 4.48977 4.39486 4.23578 4.78939 4.23578C5.18392 4.23578 5.51579 4.48977 5.60977 4.87076C5.62713 4.78609 5.63602 4.70143 5.63602 4.6591C5.63602 4.19345 5.25715 3.81247 4.78939 3.81247Z" fill="#2980B9"/>
<path d="M5.42436 8.04561C5.42436 8.10175 5.40206 8.15558 5.36236 8.19528C5.32267 8.23497 5.26883 8.25727 5.2127 8.25727C5.15656 8.25727 5.10273 8.23497 5.06303 8.19528C5.02334 8.15558 5.00104 8.10175 5.00104 8.04561C5.00104 7.98948 5.02334 7.93564 5.06303 7.89595C5.10273 7.85625 5.15656 7.83395 5.2127 7.83395C5.26883 7.83395 5.32267 7.85625 5.36236 7.89595C5.40206 7.93564 5.42436 7.98948 5.42436 8.04561Z" fill="#F1C40F"/>
<path d="M3.94276 6.35236H5.63602V6.77567H3.94276V6.35236Z" fill="#D35400"/>
</svg>
