<svg width="996" height="795" viewBox="0 0 996 795" fill="none" xmlns="http://www.w3.org/2000/svg">
<path d="M42.588 705.793C41.4619 705.793 40.3819 705.313 39.5856 704.459C38.7893 703.604 38.3419 702.445 38.3419 701.237V123.817C38.3419 122.608 38.7893 121.449 39.5856 120.595C40.3819 119.74 41.4619 119.26 42.588 119.26C43.7141 119.26 44.7941 119.74 45.5904 120.595C46.3867 121.449 46.8341 122.608 46.8341 123.817V701.146C46.8453 701.752 46.7439 702.354 46.5356 702.917C46.3272 703.481 46.0163 703.994 45.6209 704.427C45.2254 704.86 44.7535 705.203 44.2327 705.438C43.712 705.673 43.1528 705.794 42.588 705.793Z" fill="#DFEAEF"/>
<path d="M267.375 705.794C266.249 705.794 265.169 705.313 264.373 704.459C263.576 703.604 263.129 702.445 263.129 701.237V123.817C263.129 122.608 263.576 121.449 264.373 120.595C265.169 119.74 266.249 119.26 267.375 119.26C268.501 119.26 269.581 119.74 270.377 120.595C271.174 121.449 271.621 122.608 271.621 123.817V701.146C271.632 701.752 271.531 702.354 271.322 702.917C271.114 703.481 270.803 703.994 270.408 704.427C270.012 704.86 269.54 705.204 269.02 705.438C268.499 705.673 267.94 705.794 267.375 705.794Z" fill="#DFEAEF"/>
<path d="M492.119 705.794C490.993 705.794 489.913 705.313 489.117 704.459C488.321 703.604 487.873 702.445 487.873 701.237V123.817C487.873 122.608 488.321 121.449 489.117 120.595C489.913 119.74 490.993 119.26 492.119 119.26C493.245 119.26 494.325 119.74 495.122 120.595C495.918 121.449 496.365 122.608 496.365 123.817V701.146C496.377 701.752 496.275 702.354 496.067 702.917C495.859 703.481 495.548 703.994 495.152 704.427C494.757 704.86 494.285 705.204 493.764 705.438C493.243 705.673 492.684 705.794 492.119 705.794Z" fill="#DFEAEF"/>
<path d="M716.863 705.794C715.737 705.794 714.657 705.313 713.861 704.459C713.065 703.604 712.617 702.445 712.617 701.237V123.817C712.617 122.608 713.065 121.449 713.861 120.595C714.657 119.74 715.737 119.26 716.863 119.26C717.989 119.26 719.069 119.74 719.866 120.595C720.662 121.449 721.109 122.608 721.109 123.817V701.146C721.121 701.752 721.019 702.354 720.811 702.917C720.603 703.481 720.292 703.994 719.896 704.427C719.501 704.86 719.029 705.204 718.508 705.438C717.987 705.673 717.428 705.794 716.863 705.794Z" fill="#DFEAEF"/>
<path d="M941.65 705.794C940.524 705.794 939.444 705.313 938.648 704.459C937.852 703.604 937.404 702.445 937.404 701.237V123.817C937.404 122.608 937.852 121.449 938.648 120.595C939.444 119.74 940.524 119.26 941.65 119.26C942.776 119.26 943.857 119.74 944.653 120.595C945.449 121.449 945.896 122.608 945.896 123.817V701.146C945.908 701.752 945.806 702.354 945.598 702.917C945.39 703.481 945.079 703.994 944.683 704.427C944.288 704.86 943.816 705.204 943.295 705.438C942.774 705.673 942.215 705.794 941.65 705.794Z" fill="#DFEAEF"/>
<path d="M991.754 705.793H4.24607C3.11994 705.793 2.03993 705.313 1.24364 704.459C0.447349 703.604 0 702.445 0 701.237C0 700.028 0.447349 698.869 1.24364 698.015C2.03993 697.16 3.11994 696.68 4.24607 696.68H991.754C992.88 696.68 993.96 697.16 994.756 698.015C995.553 698.869 996 700.028 996 701.237C996 702.445 995.553 703.604 994.756 704.459C993.96 705.313 992.88 705.793 991.754 705.793Z" fill="#093F68"/>
<path d="M941.65 527.446H42.588C41.4619 527.446 40.3819 526.966 39.5856 526.111C38.7893 525.257 38.3419 524.097 38.3419 522.889C38.3419 521.68 38.7893 520.521 39.5856 519.667C40.3819 518.812 41.4619 518.332 42.588 518.332H941.65C942.776 518.332 943.856 518.812 944.653 519.667C945.449 520.521 945.896 521.68 945.896 522.889C945.896 524.097 945.449 525.257 944.653 526.111C943.856 526.966 942.776 527.446 941.65 527.446Z" fill="#DFEAEF"/>
<path d="M941.65 306.766H42.588C41.4619 306.766 40.3819 306.286 39.5856 305.432C38.7893 304.577 38.3419 303.418 38.3419 302.21C38.3419 301.001 38.7893 299.842 39.5856 298.988C40.3819 298.133 41.4619 297.653 42.588 297.653H941.65C942.776 297.653 943.856 298.133 944.653 298.988C945.449 299.842 945.896 301.001 945.896 302.21C945.896 303.418 945.449 304.577 944.653 305.432C943.856 306.286 942.776 306.766 941.65 306.766Z" fill="#DFEAEF"/>
<path d="M941.65 128.374H42.588C41.4619 128.374 40.3819 127.894 39.5856 127.039C38.7893 126.184 38.3419 125.025 38.3419 123.817C38.3419 122.608 38.7893 121.449 39.5856 120.595C40.3819 119.74 41.4619 119.26 42.588 119.26H941.65C942.776 119.26 943.856 119.74 944.653 120.595C945.449 121.449 945.896 122.608 945.896 123.817C945.896 125.025 945.449 126.184 944.653 127.039C943.856 127.894 942.776 128.374 941.65 128.374Z" fill="#DFEAEF"/>
<path d="M627.993 677.633V739.831C627.993 767.49 671.091 789.955 724.252 789.955C777.413 789.955 820.51 767.536 820.51 739.831V677.633H627.993Z" fill="#FFBC0E"/>
<path d="M724.252 794.466C667.906 794.466 623.747 770.452 623.747 739.786V677.633C623.747 676.425 624.195 675.266 624.991 674.411C625.787 673.556 626.867 673.076 627.993 673.076H820.51C821.636 673.076 822.716 673.556 823.513 674.411C824.309 675.266 824.756 676.425 824.756 677.633V739.831C824.756 770.452 780.597 794.466 724.252 794.466V794.466ZM632.239 682.19V739.831C632.239 764.483 674.403 785.398 724.252 785.398C774.101 785.398 816.264 764.529 816.264 739.831V682.19H632.239Z" fill="#093F68"/>
<path d="M724.252 727.665C777.414 727.665 820.51 705.265 820.51 677.633C820.51 650.001 777.414 627.601 724.252 627.601C671.09 627.601 627.993 650.001 627.993 677.633C627.993 705.265 671.09 727.665 724.252 727.665Z" fill="#FFBC0E"/>
<path d="M724.252 732.222C667.906 732.222 623.747 708.254 623.747 677.542C623.747 646.83 667.906 622.862 724.252 622.862C780.597 622.862 824.756 646.83 824.756 677.542C824.756 708.254 780.597 732.222 724.252 732.222V732.222ZM724.252 631.975C674.403 631.975 632.239 652.799 632.239 677.542C632.239 702.284 674.403 723.108 724.252 723.108C774.101 723.108 816.264 702.284 816.264 677.542C816.264 652.799 774.101 632.157 724.252 632.157V631.975Z" fill="#093F68"/>
<path d="M627.993 615.936V678.18C627.993 705.794 671.091 728.303 724.252 728.303C777.413 728.303 820.51 705.885 820.51 678.18V615.936H627.993Z" fill="#FFBC0E"/>
<path d="M724.252 732.86C667.906 732.86 623.747 708.892 623.747 678.18V615.936C623.747 614.728 624.195 613.569 624.991 612.714C625.787 611.86 626.867 611.38 627.993 611.38H820.51C821.636 611.38 822.716 611.86 823.513 612.714C824.309 613.569 824.756 614.728 824.756 615.936V678.18C824.756 708.892 780.597 732.86 724.252 732.86V732.86ZM632.239 620.493V678.18C632.239 702.832 674.403 723.747 724.252 723.747C774.101 723.747 816.264 702.923 816.264 678.18V620.493H632.239Z" fill="#093F68"/>
<path d="M724.252 666.059C777.414 666.059 820.51 643.659 820.51 616.027C820.51 588.395 777.414 565.995 724.252 565.995C671.09 565.995 627.993 588.395 627.993 616.027C627.993 643.659 671.09 666.059 724.252 666.059Z" fill="#FFBC0E"/>
<path d="M724.252 670.616C667.906 670.616 623.747 646.648 623.747 615.936C623.747 585.224 667.906 561.256 724.252 561.256C780.597 561.256 824.756 585.27 824.756 615.936C824.756 646.603 780.597 670.616 724.252 670.616V670.616ZM724.252 570.37C674.403 570.37 632.239 591.194 632.239 615.936C632.239 640.679 674.403 661.503 724.252 661.503C774.101 661.503 816.264 640.679 816.264 615.936C816.264 591.194 774.101 570.37 724.252 570.37V570.37Z" fill="#093F68"/>
<path d="M627.993 554.466V616.71C627.993 644.324 671.091 666.834 724.252 666.834C777.413 666.834 820.51 644.415 820.51 616.71V554.466H627.993Z" fill="#FFBC0E"/>
<path d="M724.252 671.299C667.906 671.299 623.747 647.285 623.747 616.619V554.466C623.747 553.258 624.195 552.099 624.991 551.244C625.787 550.39 626.867 549.91 627.993 549.91H820.51C821.636 549.91 822.716 550.39 823.513 551.244C824.309 552.099 824.756 553.258 824.756 554.466V616.71C824.756 647.286 780.597 671.299 724.252 671.299V671.299ZM632.239 559.023V616.71C632.239 641.362 674.403 662.277 724.252 662.277C774.101 662.277 816.264 641.453 816.264 616.71V559.023H632.239Z" fill="#093F68"/>
<path d="M724.252 604.499C777.414 604.499 820.51 582.098 820.51 554.466C820.51 526.834 777.414 504.434 724.252 504.434C671.09 504.434 627.993 526.834 627.993 554.466C627.993 582.098 671.09 604.499 724.252 604.499Z" fill="#FFBC0E"/>
<path d="M724.252 609.056C667.906 609.056 623.747 585.088 623.747 554.376C623.747 523.664 667.906 499.696 724.252 499.696C780.597 499.696 824.756 523.664 824.756 554.376C824.756 585.088 780.597 609.056 724.252 609.056V609.056ZM724.252 508.809C674.403 508.809 632.239 529.633 632.239 554.376C632.239 579.118 674.403 599.942 724.252 599.942C774.101 599.942 816.264 579.118 816.264 554.376C816.264 529.633 774.101 508.991 724.252 508.991V508.809Z" fill="#093F68"/>
<path d="M627.993 492.906V555.15C627.993 582.764 671.091 605.274 724.252 605.274C777.413 605.274 820.51 582.855 820.51 555.15V492.906H627.993Z" fill="#FFBC0E"/>
<path d="M724.252 609.694C667.906 609.694 623.747 585.726 623.747 555.014V492.906C623.747 491.698 624.195 490.539 624.991 489.684C625.787 488.83 626.867 488.35 627.993 488.35H820.51C821.636 488.35 822.716 488.83 823.513 489.684C824.309 490.539 824.756 491.698 824.756 492.906V555.15C824.756 585.726 780.597 609.694 724.252 609.694V609.694ZM632.239 497.463V555.15C632.239 579.802 674.403 600.717 724.252 600.717C774.101 600.717 816.264 579.893 816.264 555.15V497.463H632.239Z" fill="#093F68"/>
<path d="M724.252 542.892C777.414 542.892 820.51 520.492 820.51 492.86C820.51 465.228 777.414 442.828 724.252 442.828C671.09 442.828 627.993 465.228 627.993 492.86C627.993 520.492 671.09 542.892 724.252 542.892Z" fill="#FFBC0E"/>
<path d="M724.252 547.586C667.906 547.586 623.747 523.482 623.747 492.906C623.747 462.331 667.906 438.226 724.252 438.226C780.597 438.226 824.756 462.24 824.756 492.906C824.756 523.573 780.597 547.586 724.252 547.586V547.586ZM724.252 447.34C674.403 447.34 632.239 468.164 632.239 492.906C632.239 517.649 674.403 538.473 724.252 538.473C774.101 538.473 816.264 517.603 816.264 492.906C816.264 468.209 774.101 447.34 724.252 447.34V447.34Z" fill="#093F68"/>
<path d="M627.993 431.3V493.544C627.993 521.158 671.091 543.667 724.252 543.667C777.413 543.667 820.51 521.249 820.51 493.544V431.3H627.993Z" fill="#FFBC0E"/>
<path d="M724.252 548.133C667.906 548.133 623.747 524.119 623.747 493.453V431.3C623.747 430.092 624.195 428.933 624.991 428.078C625.787 427.224 626.867 426.744 627.993 426.744H820.51C821.636 426.744 822.716 427.224 823.513 428.078C824.309 428.933 824.756 430.092 824.756 431.3V493.544C824.756 524.119 780.597 548.133 724.252 548.133V548.133ZM632.239 435.857V493.544C632.239 518.196 674.403 539.111 724.252 539.111C774.101 539.111 816.264 518.287 816.264 493.544V435.857H632.239Z" fill="#093F68"/>
<path d="M724.252 481.332C777.414 481.332 820.51 458.932 820.51 431.3C820.51 403.668 777.414 381.268 724.252 381.268C671.09 381.268 627.993 403.668 627.993 431.3C627.993 458.932 671.09 481.332 724.252 481.332Z" fill="#FFBC0E"/>
<path d="M724.252 485.889C667.906 485.889 623.747 461.921 623.747 431.209C623.747 400.497 667.906 376.529 724.252 376.529C780.597 376.529 824.756 400.497 824.756 431.209C824.756 461.921 780.597 485.889 724.252 485.889V485.889ZM724.252 385.642C674.403 385.642 632.239 406.466 632.239 431.209C632.239 455.952 674.403 476.776 724.252 476.776C774.101 476.776 816.264 455.952 816.264 431.209C816.264 406.466 774.101 385.825 724.252 385.825V385.642Z" fill="#093F68"/>
<path d="M392.677 677.633V739.831C392.677 767.49 435.732 789.955 488.892 789.955C542.053 789.955 585.151 767.536 585.151 739.831V677.633H392.677Z" fill="#FFBC0E"/>
<path d="M488.892 794.466C432.547 794.466 388.43 770.452 388.43 739.786V677.633C388.43 676.425 388.878 675.266 389.674 674.411C390.47 673.556 391.55 673.076 392.676 673.076H585.15C586.277 673.076 587.357 673.556 588.153 674.411C588.949 675.266 589.397 676.425 589.397 677.633V739.831C589.397 770.452 545.237 794.466 488.892 794.466V794.466ZM396.922 682.19V739.831C396.922 764.483 439.043 785.398 488.892 785.398C538.741 785.398 580.904 764.529 580.904 739.831V682.19H396.922Z" fill="#093F68"/>
<path d="M488.892 727.665C542.054 727.665 585.15 705.265 585.15 677.633C585.15 650.001 542.054 627.601 488.892 627.601C435.73 627.601 392.634 650.001 392.634 677.633C392.634 705.265 435.73 727.665 488.892 727.665Z" fill="#FFBC0E"/>
<path d="M488.892 732.222C432.547 732.222 388.43 708.254 388.43 677.542C388.43 646.83 432.547 622.862 488.892 622.862C545.237 622.862 589.397 646.83 589.397 677.542C589.397 708.254 545.237 732.222 488.892 732.222ZM488.892 631.975C439.043 631.975 396.922 652.799 396.922 677.542C396.922 702.284 439.043 723.108 488.892 723.108C538.741 723.108 580.904 702.284 580.904 677.542C580.904 652.799 538.826 632.157 488.892 632.157V631.975Z" fill="#093F68"/>
<path d="M392.677 615.936V678.18C392.677 705.794 435.732 728.303 488.892 728.303C542.053 728.303 585.151 705.885 585.151 678.18V615.936H392.677Z" fill="#FFBC0E"/>
<path d="M488.892 732.86C432.547 732.86 388.43 708.892 388.43 678.18V615.936C388.43 614.728 388.878 613.569 389.674 612.714C390.47 611.86 391.55 611.38 392.676 611.38H585.15C586.277 611.38 587.357 611.86 588.153 612.714C588.949 613.569 589.397 614.728 589.397 615.936V678.18C589.397 708.892 545.237 732.86 488.892 732.86ZM396.922 620.493V678.18C396.922 702.832 439.043 723.747 488.892 723.747C538.741 723.747 580.904 702.923 580.904 678.18V620.493H396.922Z" fill="#093F68"/>
<path d="M488.892 666.059C542.054 666.059 585.15 643.659 585.15 616.027C585.15 588.395 542.054 565.995 488.892 565.995C435.73 565.995 392.634 588.395 392.634 616.027C392.634 643.659 435.73 666.059 488.892 666.059Z" fill="#FFBC0E"/>
<path d="M488.892 670.616C432.547 670.616 388.43 646.648 388.43 615.936C388.43 585.224 432.547 561.256 488.892 561.256C545.237 561.256 589.397 585.27 589.397 615.936C589.397 646.603 545.237 670.616 488.892 670.616ZM488.892 570.37C439.043 570.37 396.922 591.194 396.922 615.936C396.922 640.679 439.043 661.503 488.892 661.503C538.741 661.503 580.904 640.679 580.904 615.936C580.904 591.194 538.826 570.37 488.892 570.37Z" fill="#093F68"/>
<path d="M392.677 554.466V616.71C392.677 644.324 435.732 666.834 488.892 666.834C542.053 666.834 585.151 644.415 585.151 616.71V554.466H392.677Z" fill="#FFBC0E"/>
<path d="M488.892 671.299C432.547 671.299 388.43 647.285 388.43 616.619V554.466C388.43 553.258 388.878 552.099 389.674 551.244C390.47 550.39 391.55 549.91 392.676 549.91H585.15C586.277 549.91 587.357 550.39 588.153 551.244C588.949 552.099 589.397 553.258 589.397 554.466V616.71C589.397 647.286 545.237 671.299 488.892 671.299V671.299ZM396.922 559.023V616.71C396.922 641.362 439.043 662.277 488.892 662.277C538.741 662.277 580.904 641.453 580.904 616.71V559.023H396.922Z" fill="#093F68"/>
<path d="M488.892 604.499C542.054 604.499 585.15 582.098 585.15 554.466C585.15 526.834 542.054 504.434 488.892 504.434C435.73 504.434 392.634 526.834 392.634 554.466C392.634 582.098 435.73 604.499 488.892 604.499Z" fill="#FFBC0E"/>
<path d="M488.892 609.056C432.547 609.056 388.43 585.088 388.43 554.376C388.43 523.664 432.547 499.696 488.892 499.696C545.237 499.696 589.397 523.664 589.397 554.376C589.397 585.088 545.237 609.056 488.892 609.056ZM488.892 508.809C439.043 508.809 396.922 529.633 396.922 554.376C396.922 579.118 439.043 599.942 488.892 599.942C538.741 599.942 580.904 579.118 580.904 554.376C580.904 529.633 538.826 508.991 488.892 508.991V508.809Z" fill="#093F68"/>
<path d="M157.317 677.633V739.831C157.317 767.49 200.414 789.955 253.533 789.955C306.651 789.955 349.791 767.536 349.791 739.831V677.633H157.317Z" fill="#FFBC0E"/>
<path d="M253.533 794.466C197.187 794.466 153.071 770.452 153.071 739.786V677.633C153.071 676.425 153.518 675.266 154.314 674.411C155.111 673.556 156.191 673.076 157.317 673.076H349.791C350.917 673.076 351.997 673.556 352.793 674.411C353.59 675.266 354.037 676.425 354.037 677.633V739.831C354.037 770.452 309.878 794.466 253.533 794.466V794.466ZM161.563 682.19V739.831C161.563 764.483 203.684 785.398 253.533 785.398C303.381 785.398 345.545 764.529 345.545 739.831V682.19H161.563Z" fill="#093F68"/>
<path d="M253.533 727.665C306.695 727.665 349.791 705.265 349.791 677.633C349.791 650.001 306.695 627.601 253.533 627.601C200.371 627.601 157.274 650.001 157.274 677.633C157.274 705.265 200.371 727.665 253.533 727.665Z" fill="#FFBC0E"/>
<path d="M253.533 732.222C197.187 732.222 153.071 708.254 153.071 677.542C153.071 646.83 197.187 622.862 253.533 622.862C309.878 622.862 354.037 646.83 354.037 677.542C354.037 708.254 309.878 732.222 253.533 732.222ZM253.533 631.975C203.684 631.975 161.563 652.799 161.563 677.542C161.563 702.284 203.684 723.108 253.533 723.108C303.381 723.108 345.545 702.284 345.545 677.542C345.545 652.799 303.424 632.157 253.533 632.157V631.975Z" fill="#093F68"/>
<path d="M864.457 26.4864C864.416 25.2627 864.288 24.044 864.075 22.8411V22.1576C863.804 20.9608 863.45 19.7879 863.013 18.649C862.918 18.3674 862.804 18.0934 862.673 17.8288C862.196 16.7081 861.643 15.6267 861.018 14.5935L860.635 14.0923C859.952 13.0374 859.169 12.0602 858.3 11.176C857.416 10.3012 856.464 9.50852 855.455 8.80659L854.861 8.39647C853.867 7.76812 852.831 7.21981 851.761 6.75607L850.997 6.4371C849.909 6.00687 848.786 5.68652 847.642 5.48021H847.218C846.123 5.28842 845.014 5.21212 843.906 5.25238H843.354C842.462 5.25238 841.528 5.25239 840.636 5.52579L702.852 29.8583C700.047 30.2211 697.339 31.1895 694.893 32.705C692.446 34.2204 690.31 36.2517 688.614 38.6765C686.919 41.1012 685.698 43.8692 685.025 46.8138C684.353 49.7583 684.243 52.8185 684.702 55.81C685.16 58.8014 686.179 61.6622 687.695 64.2201C689.212 66.778 691.195 68.98 693.526 70.6935C695.856 72.407 698.486 73.5965 701.256 74.1903C704.026 74.7842 706.88 74.7702 709.645 74.1491L785.098 60.0234L485.241 396.761L344.696 300.023C340.869 297.397 336.35 296.181 331.821 296.56C327.293 296.938 323.003 298.89 319.601 302.119L126.957 484.932C122.802 488.872 120.275 494.422 119.933 500.361C119.59 506.3 121.46 512.141 125.132 516.601C128.803 521.06 133.974 523.772 139.509 524.139C145.043 524.507 150.486 522.5 154.642 518.56L335.567 347.093L477.3 444.651C481.382 447.469 486.251 448.674 491.07 448.058C495.89 447.443 500.359 445.046 503.711 441.279L816.689 89.7784L809.47 166.923C808.913 172.838 810.568 178.749 814.072 183.355C817.575 187.961 822.641 190.885 828.153 191.483H830.276C835.459 191.476 840.454 189.401 844.291 185.662C848.129 181.923 850.534 176.787 851.039 171.252L864.329 29.2204C864.417 28.3121 864.459 27.3995 864.457 26.4864V26.4864Z" fill="#68E1FD"/>
<path d="M140.715 528.722C135.604 528.735 130.61 527.076 126.4 523.966C122.19 520.856 118.964 516.442 117.151 511.314C115.339 506.186 115.026 500.586 116.254 495.262C117.483 489.938 120.194 485.142 124.028 481.515L316.884 298.656C320.989 294.777 326.157 292.435 331.61 291.983C337.063 291.531 342.505 292.993 347.116 296.15L484.731 390.883L773.464 66.6762L709.772 77.9311C706.505 78.4897 703.166 78.3516 699.948 77.5247C696.73 76.6977 693.696 75.1982 691.018 73.1119C688.341 71.0256 686.073 68.3933 684.344 65.3656C682.615 62.3379 681.459 58.9742 680.942 55.4668C679.874 48.4111 681.455 41.189 685.339 35.3816C689.222 29.5742 695.092 25.6548 701.663 24.4815L839.447 0.331206C840.539 0.111998 841.648 0.00519237 842.759 0.0122415H843.354C844.776 -0.0384604 846.199 0.0684264 847.6 0.331206H848.067C849.509 0.606251 850.929 1.00237 852.313 1.51593L853.205 1.88047C854.494 2.43213 855.743 3.08709 856.941 3.83982L857.493 4.24992C858.768 5.13188 859.975 6.12236 861.102 7.21177C861.279 7.35516 861.436 7.52377 861.569 7.71297C862.525 8.74823 863.405 9.86027 864.202 11.0394L864.627 11.6773C865.425 12.9084 866.107 14.221 866.665 15.596L867.089 16.5529C867.589 17.9182 868.001 19.3189 868.321 20.745V21.4741C868.608 22.9752 868.778 24.4994 868.83 26.0308V26.3497V29.585L855.54 171.616C854.876 178.74 851.601 185.289 846.437 189.823C841.273 194.356 834.643 196.502 828.004 195.789C821.366 195.076 815.263 191.562 811.039 186.021C806.814 180.479 804.814 173.363 805.479 166.239L811.466 102.446L507.023 444.195C502.987 448.715 497.617 451.593 491.826 452.341C486.035 453.089 480.182 451.659 475.262 448.296L336.204 352.607L157.614 521.978C152.952 526.391 146.931 528.794 140.715 528.722V528.722ZM333.571 300.889C329.494 300.897 325.563 302.52 322.531 305.445L129.675 488.349C127.137 490.751 125.342 493.926 124.528 497.45C123.714 500.974 123.921 504.681 125.12 508.077C126.319 511.472 128.454 514.394 131.24 516.455C134.026 518.515 137.331 519.615 140.715 519.608C144.779 519.601 148.697 517.978 151.712 515.052L332.764 343.402C333.457 342.75 334.329 342.357 335.248 342.283C336.167 342.209 337.084 342.458 337.859 342.992L479.593 440.55C482.884 442.78 486.787 443.729 490.652 443.24C494.517 442.751 498.107 440.852 500.824 437.862L813.759 86.3609C814.368 85.6741 815.162 85.2083 816.029 85.0286C816.897 84.8489 817.796 84.9642 818.599 85.3585C819.399 85.7509 820.065 86.4 820.506 87.2162C820.947 88.0324 821.142 88.9755 821.062 89.9151L813.844 167.059C813.437 171.783 814.762 176.491 817.538 180.183C819.623 182.927 822.42 184.944 825.575 185.978C828.73 187.013 832.101 187.017 835.259 185.992C838.416 184.967 841.219 182.957 843.311 180.219C845.402 177.481 846.688 174.138 847.005 170.614L860.296 28.5825C860.296 27.9446 860.296 27.2611 860.296 26.5776C860.277 26.4569 860.277 26.3338 860.296 26.213C860.283 25.2631 860.184 24.3169 859.998 23.3879L864.032 21.8386L859.786 22.7955C859.601 21.8433 859.331 20.9124 858.979 20.016L858.725 19.378C858.317 18.4856 857.864 17.6185 857.366 16.7808L857.069 16.3706C856.526 15.5255 855.9 14.7463 855.2 14.0468H854.988C854.293 13.3509 853.54 12.7255 852.738 12.1785L854.478 7.94082L852.271 11.814C851.476 11.3193 850.653 10.8779 849.808 10.4925H849.298C848.398 10.1484 847.475 9.8743 846.538 9.67234C845.55 9.57154 844.555 9.57154 843.566 9.67234H843.099C842.374 9.70307 841.651 9.77916 840.934 9.90019L703.149 34.2327C700.776 34.3192 698.448 34.9492 696.321 36.0806C694.194 37.2119 692.318 38.8185 690.817 40.7923C689.316 42.7662 688.226 45.0617 687.62 47.5248C687.014 49.9879 686.906 52.5616 687.303 55.0733C687.701 57.5849 688.594 59.9763 689.923 62.0869C691.252 64.1975 692.987 65.9786 695.011 67.3106C697.034 68.6426 699.3 69.4947 701.655 69.8096C704.011 70.1246 706.402 69.8952 708.669 69.1368L784.758 55.4668C785.637 55.3151 786.538 55.4637 787.334 55.8916C788.13 56.3195 788.78 57.0051 789.194 57.8513C789.607 58.6976 789.761 59.6618 789.636 60.6076C789.51 61.5534 789.111 62.433 788.495 63.122L488.68 399.905C487.997 400.677 487.084 401.168 486.099 401.292C485.114 401.417 484.119 401.168 483.287 400.588L342.742 303.805C340.003 301.939 336.815 300.973 333.571 301.025V300.889Z" fill="#093F68"/>
</svg>
