<svg width="50" height="50" viewBox="0 0 50 50" fill="none" xmlns="http://www.w3.org/2000/svg">
<path d="M18.7656 19.4375H14.5781V19.3906H11.9375C11.1937 19.392 10.4777 19.1076 9.93768 18.596C9.39764 18.0845 9.07482 17.385 9.03594 16.6422C8.40826 16.4954 7.84738 16.1437 7.4419 15.6425C7.03642 15.1414 6.80947 14.5195 6.79688 13.875C6.18854 13.7024 5.65325 13.3357 5.27248 12.8308C4.89171 12.3259 4.6863 11.7105 4.68751 11.0781H18.7656C21.0781 11.0781 22.9531 12.9531 22.9531 15.2656C22.9531 17.5781 21.0781 19.4375 18.7656 19.4375Z" fill="#E6E6E6"/>
<path d="M14.8312 11.0781H14.8062V13.4469H8.08437C6.42187 13.4469 5.04531 12.4297 4.75312 11.0781H4.69531C4.69531 12.4078 5.58125 13.525 6.79687 13.8719C6.80877 14.5169 7.03542 15.1396 7.44095 15.6413C7.84648 16.1431 8.40775 16.4953 9.03594 16.6422C9.07481 17.385 9.39764 18.0845 9.93767 18.596C10.4777 19.1076 11.1937 19.392 11.9375 19.3906H17.7031V18.8531H11.9375C11.2905 18.8543 10.6617 18.6392 10.151 18.242C9.64024 17.8448 9.27693 17.2883 9.11875 16.6609C9.30625 16.6984 9.50312 16.7187 9.70312 16.7187H15.4687V16.1812H9.70312C9.03838 16.1832 8.39315 15.9567 7.87546 15.5397C7.35777 15.1227 6.99905 14.5405 6.85937 13.8906C7.09531 13.9516 7.34375 13.9844 7.6 13.9844H14.8297V11.0781H14.8312Z" fill="#D3D3D3"/>
<path d="M45.6875 22.5L25.7187 42.4687C24.6562 43.5312 22.9218 43.5312 21.8593 42.4687L18.75 39.3593C18.2395 38.8469 17.9529 38.153 17.9529 37.4296C17.9529 36.7063 18.2395 36.0124 18.75 35.5L38.7343 15.5468C39.2468 15.0364 39.9407 14.7498 40.664 14.7498C41.3874 14.7498 42.0812 15.0364 42.5937 15.5468L45.7031 18.6562C46.75 19.7031 46.75 21.4375 45.6875 22.5Z" fill="#008463"/>
<path d="M42.6562 19.4687L22.6875 39.4375C21.625 40.5 19.8906 40.5 18.8281 39.4375L7.12496 27.7343C6.61449 27.2219 6.32788 26.528 6.32788 25.8046C6.32788 25.0813 6.61449 24.3874 7.12496 23.875L27.1093 3.92184C27.6218 3.41137 28.3157 3.12476 29.039 3.12476C29.7624 3.12476 30.4562 3.41137 30.9687 3.92184L42.6562 15.625C43.7187 16.6875 43.7187 18.4062 42.6562 19.4687Z" fill="#00F397"/>
<path d="M27.8266 6.70147C28.1749 6.35738 28.6448 6.16443 29.1344 6.16443C29.624 6.16443 30.0939 6.35738 30.4422 6.70147V6.70459L39.7203 15.9827C40.0644 16.3314 40.2561 16.8024 40.2531 17.2922C40.2502 17.7821 40.053 18.2507 39.7047 18.5952L21.861 36.439C21.5125 36.7822 21.043 36.9746 20.5539 36.9746C20.0648 36.9746 19.5953 36.7822 19.2469 36.439L19.2438 36.4358L9.96722 27.1577C9.62351 26.8092 9.43081 26.3394 9.43081 25.8499C9.43081 25.3604 9.62351 24.8906 9.96722 24.5421H9.97034L27.825 6.70147H27.8266ZM31.2453 5.88897C30.6823 5.33233 29.9224 5.02041 29.1306 5.021C28.3389 5.02158 27.5794 5.33463 27.0172 5.89209L9.15784 23.7358L9.15472 23.739C8.59808 24.302 8.28616 25.0619 8.28674 25.8537C8.28733 26.6454 8.60037 27.4049 9.15784 27.9671L18.4391 37.2483L18.4422 37.2515C19.0052 37.8081 19.7652 38.12 20.5569 38.1194C21.3486 38.1189 22.1081 37.8058 22.6703 37.2483L40.5141 19.4046C40.7931 19.1279 41.0149 18.7989 41.1667 18.4364C41.3185 18.074 41.3973 17.6852 41.3988 17.2922C41.4002 16.8992 41.3242 16.5099 41.1751 16.1463C41.026 15.7827 40.8067 15.4521 40.5297 15.1733L31.2485 5.89209L31.2453 5.88897ZM34.5782 17.328C34.5782 18.7411 34.0168 20.0964 33.0176 21.0956C32.0184 22.0948 30.6631 22.6562 29.25 22.6562C27.8369 22.6562 26.4817 22.0948 25.4825 21.0956C24.4833 20.0964 23.9219 18.7411 23.9219 17.328C23.9219 15.9149 24.4833 14.5597 25.4825 13.5605C26.4817 12.5613 27.8369 11.9999 29.25 11.9999C30.6631 11.9999 32.0184 12.5613 33.0176 13.5605C34.0168 14.5597 34.5782 15.9149 34.5782 17.328Z" fill="#008463"/>
<path d="M19.775 11.25L14.9031 16.125L33.475 34.6969L38.3468 29.825L19.775 11.25Z" fill="#FFF478"/>
<path d="M35.3281 26.8157L30.4531 31.6875L33.4812 34.7157L38.3531 29.8422L35.3266 26.8157H35.3281Z" fill="#FFB02E"/>
<path d="M15.0781 22.886C14.9689 22.7741 14.8198 22.7102 14.6634 22.7083C14.5071 22.7064 14.3564 22.7667 14.2445 22.8759C14.1326 22.9851 14.0687 23.1342 14.0668 23.2906C14.0649 23.4469 14.1252 23.5976 14.2344 23.7095L15.0422 24.5376C14.3672 25.4282 14.3141 26.3032 14.5031 27.0032C14.6203 27.4294 14.827 27.8257 15.1094 28.1657C15.1729 28.242 15.2435 28.3121 15.3203 28.3751C15.6551 28.6468 16.0456 28.8415 16.4641 28.9454C17.2656 29.1423 18.2969 29.0063 19.3234 27.9798C19.6984 27.6048 20.0391 27.4376 20.3234 27.3704C20.5873 27.3092 20.8627 27.3183 21.1219 27.397C21.3672 27.4673 21.575 27.5829 21.725 27.6845C21.8375 27.761 21.9359 27.8563 22.0016 27.9751C22.0734 28.1063 22.1563 28.2923 22.1984 28.5126C22.2766 28.922 22.2359 29.5235 21.5516 30.2079C20.8688 30.8907 20.2656 30.9282 19.8516 30.8485C19.6035 30.7979 19.3681 30.698 19.1594 30.5548L19.1281 30.5313L19.1234 30.5282C19.0024 30.429 18.847 30.3818 18.6912 30.3972C18.5355 30.4126 18.3922 30.4892 18.293 30.6102C18.1937 30.7312 18.1466 30.8867 18.162 31.0425C18.1774 31.1982 18.254 31.3415 18.375 31.4407L18.3781 31.4423L18.3859 31.4485L18.4094 31.4673L18.4813 31.5204C18.8255 31.7582 19.2147 31.923 19.625 32.0048C20.2891 32.1345 21.1156 32.0516 21.9469 31.4266L22.8625 32.3516C22.9169 32.4067 22.9816 32.4506 23.0529 32.4807C23.1242 32.5108 23.2008 32.5265 23.2782 32.527C23.3556 32.5275 23.4323 32.5128 23.504 32.4836C23.5757 32.4545 23.641 32.4115 23.6961 32.3571C23.7512 32.3027 23.795 32.238 23.8251 32.1667C23.8552 32.0954 23.871 32.0189 23.8715 31.9414C23.872 31.864 23.8572 31.7873 23.8281 31.7156C23.7989 31.6439 23.7559 31.5786 23.7016 31.5235L22.7797 30.5907C23.3953 29.7673 23.4828 28.9501 23.3578 28.2923C23.2971 27.9813 23.188 27.6818 23.0344 27.4048C22.8783 27.123 22.6557 26.8838 22.3859 26.7079C22.0993 26.5126 21.7841 26.3629 21.4516 26.2641C20.997 26.1287 20.515 26.1141 20.0531 26.222C19.5281 26.347 18.9984 26.636 18.4906 27.1454C17.75 27.8845 17.1406 27.897 16.7438 27.8016C16.5544 27.7536 16.3743 27.6744 16.2109 27.5673C16.0869 27.4875 15.9814 27.382 15.9016 27.2579C15.7853 27.0856 15.6977 26.8957 15.6422 26.6954C15.5297 26.2798 15.5313 25.6626 16.2609 24.9329C16.9906 24.2032 17.6156 24.1954 18.0453 24.3079C18.3266 24.3831 18.588 24.5191 18.8109 24.7063L18.8156 24.711C18.931 24.8082 19.0793 24.8576 19.2299 24.849C19.3805 24.8403 19.5222 24.7744 19.6257 24.6646C19.7293 24.5549 19.7869 24.4097 19.7868 24.2588C19.7866 24.1079 19.7288 23.9628 19.625 23.8532H19.6234L19.6203 23.8501L19.6125 23.8423L19.5906 23.822C19.4869 23.7324 19.3773 23.6499 19.2625 23.5751C18.979 23.3903 18.6678 23.2521 18.3406 23.1657C17.6422 22.9845 16.7656 23.0376 15.8781 23.7048L15.0781 22.886Z" fill="white"/>
<path d="M31.375 37.0938V32.9062C31.375 30.5938 33.2344 28.7188 35.5469 28.7188C37.8594 28.7188 39.7344 30.5938 39.7344 32.9062V46.9844C38.4016 46.9844 37.2812 46.0937 36.9375 44.875C36.293 44.8624 35.6711 44.6355 35.17 44.23C34.6688 43.8245 34.3171 43.2636 34.1703 42.6359C33.4275 42.5971 32.728 42.2742 32.2165 41.7342C31.7049 41.1942 31.4205 40.4782 31.4219 39.7344V37.0938H31.375Z" fill="#E6E6E6"/>
<path d="M31.9594 39.7344C31.9594 41.0969 32.8891 42.2359 34.1516 42.5531C34.1128 42.3608 34.0935 42.165 34.0938 41.9688V36.2031H34.6313V41.9688C34.6313 43.3672 35.6094 44.5297 36.9219 44.8109C36.8595 44.569 36.828 44.3202 36.8281 44.0703V36.8406H39.7344V36.8656H37.3656V43.5875C37.3656 45.25 38.3828 46.6266 39.7344 46.9187V46.9766C39.1036 46.9776 38.4896 46.773 37.9855 46.3938C37.4814 46.0145 37.1146 45.4814 36.9406 44.875C36.2956 44.8631 35.6729 44.6365 35.1712 44.2309C34.6694 43.8254 34.3172 43.2641 34.1703 42.6359C33.4275 42.5971 32.728 42.2742 32.2165 41.7342C31.7049 41.1942 31.4205 40.4782 31.4219 39.7344V33.9688H31.9594V39.7344Z" fill="#D3D3D3"/>
</svg>
