<svg width="19" height="17" viewBox="0 0 19 17" fill="none" xmlns="http://www.w3.org/2000/svg">
<path d="M14.1176 0.37819L0.74953 8.8913C0.480756 9.06246 0.401626 9.4191 0.572788 9.68788L3.9692 15.0212C4.14036 15.29 4.497 15.3691 4.76577 15.198L18.1338 6.68486C18.4026 6.5137 18.4817 6.15706 18.3106 5.88829L14.9142 0.554932C14.743 0.286159 14.3864 0.207029 14.1176 0.37819Z" fill="#91CD86"/>
<path d="M15.8146 1.97117L17.4104 4.4747C17.1721 4.62641 16.9661 4.82357 16.8041 5.0549C16.642 5.28624 16.5272 5.54724 16.466 5.82298C16.4048 6.09872 16.3986 6.3838 16.4476 6.66196C16.4966 6.94012 16.5999 7.20589 16.7517 7.44412C16.77 7.47296 16.7892 7.50133 16.8084 7.52922L6.09188 14.3542C6.07457 14.3253 6.05678 14.2955 6.03851 14.2667C5.88691 14.0283 5.68984 13.8222 5.45855 13.66C5.22726 13.4978 4.96629 13.3828 4.69055 13.3215C4.4148 13.2602 4.12967 13.2538 3.85146 13.3027C3.57325 13.3516 3.30739 13.4549 3.06909 13.6065L1.47331 11.102C1.71155 10.9503 1.91757 10.7532 2.07961 10.5218C2.24165 10.2905 2.35653 10.0295 2.4177 9.75376C2.47886 9.47802 2.48511 9.19293 2.4361 8.91478C2.38708 8.63662 2.28375 8.37084 2.13201 8.13262C2.11374 8.10377 2.09451 8.07541 2.07527 8.04752L12.7899 1.22257C12.8072 1.25142 12.825 1.28123 12.8433 1.31007C12.9948 1.54877 13.1919 1.75524 13.4233 1.91768C13.6547 2.08012 13.9159 2.19534 14.1919 2.25674C14.4678 2.31815 14.7532 2.32453 15.0317 2.27553C15.3101 2.22653 15.5762 2.1231 15.8146 1.97117Z" fill="#A9EA9C"/>
<path d="M4.45764 15.5778C4.31188 15.578 4.16842 15.5414 4.04058 15.4714C3.91274 15.4014 3.80465 15.3002 3.72634 15.1773L0.329493 9.84331C0.206206 9.64973 0.164856 9.41511 0.214537 9.19105C0.264217 8.96699 0.400861 8.77184 0.594414 8.64852L13.9606 0.13548C14.1542 0.0121934 14.3888 -0.029157 14.6129 0.0205239C14.837 0.0702048 15.0321 0.206848 15.1554 0.400401L18.5518 5.73391C18.6751 5.92749 18.7164 6.16211 18.6668 6.38617C18.6171 6.61023 18.4804 6.80538 18.2869 6.9287L4.92065 15.4417C4.78245 15.5303 4.62179 15.5775 4.45764 15.5778ZM14.4246 0.576854C14.3703 0.576785 14.317 0.592303 14.2712 0.621569L0.904529 9.13509C0.840347 9.17648 0.795194 9.24162 0.778971 9.31625C0.762748 9.39088 0.776778 9.46889 0.817985 9.53319L4.21291 14.8667C4.25438 14.9308 4.31956 14.9759 4.39418 14.992C4.4688 15.0081 4.54677 14.994 4.61101 14.9528L17.9792 6.44261C18.0437 6.40153 18.0892 6.33652 18.1058 6.26187C18.1224 6.18722 18.1087 6.10904 18.0676 6.04451L14.6708 0.710036C14.6296 0.64578 14.5646 0.600482 14.49 0.584066C14.4685 0.579238 14.4466 0.576819 14.4246 0.576854Z" fill="#1D6855"/>
<path d="M1.64495 9.47165L4.02059 7.95857C4.09847 7.91049 4.02635 7.78404 3.94798 7.83404L1.57187 9.3452C1.49398 9.39328 1.5661 9.51973 1.64447 9.46972L1.64495 9.47165Z" fill="white"/>
<path d="M4.36629 7.73644L5.53271 6.99361C5.6106 6.94553 5.53848 6.81908 5.46011 6.86908L4.29321 7.61192C4.21532 7.66 4.28744 7.78645 4.36581 7.73644H4.36629Z" fill="white"/>
<path d="M4.76294 14.5571L10.2767 11.0472L11.046 10.5558C11.1239 10.5078 11.0518 10.3813 10.9734 10.4313L5.46202 13.9431L4.69274 14.4345C4.61485 14.4825 4.68697 14.609 4.76534 14.559L4.76294 14.5571Z" fill="white"/>
<path d="M12.7014 9.53175L16.7671 6.94264L17.3469 6.57339C17.4248 6.52531 17.3527 6.39886 17.2743 6.44886L13.2091 9.03893L12.6293 9.40818C12.5514 9.45626 12.6235 9.58271 12.7019 9.53271L12.7014 9.53175Z" fill="white"/>
<path d="M9.97529 7.92059C9.82769 7.68884 9.59546 7.61913 9.24015 7.69702C8.97571 7.7451 8.85551 7.76289 8.79012 7.65759C8.74204 7.58018 8.76897 7.45373 8.93052 7.35084C9.04568 7.27449 9.17769 7.2273 9.31516 7.21333L9.2113 6.86427C9.05951 6.88209 8.91388 6.93474 8.7858 7.01813L8.60694 6.73638L8.32567 6.91524L8.52472 7.22824C8.32759 7.45037 8.30019 7.71336 8.43818 7.9302C8.59011 8.1706 8.85984 8.20474 9.19688 8.12878C9.43391 8.06675 9.55171 8.0807 9.61421 8.17686C9.68585 8.28936 9.63921 8.41725 9.46997 8.52495C9.32691 8.6124 9.16639 8.66739 8.99975 8.68602L9.10793 9.04181C9.27365 9.01957 9.43321 8.96431 9.57719 8.8793L9.75701 9.16201L10.0383 8.98316L9.99356 8.91296L9.845 8.67929C10.1017 8.42879 10.1176 8.14416 9.97529 7.92059Z" fill="#34B67A"/>
<path d="M9.18726 10.7794C8.69618 10.7802 8.21337 10.653 7.78642 10.4103C7.35947 10.1677 7.00312 9.81799 6.75248 9.39569C6.50184 8.97338 6.36557 8.49305 6.3571 8.00204C6.34863 7.51103 6.46825 7.02628 6.70417 6.59558C6.94009 6.16488 7.28417 5.80309 7.70249 5.54586C8.12082 5.28863 8.59895 5.14485 9.08977 5.12868C9.58059 5.11251 10.0671 5.22451 10.5015 5.45365C10.9358 5.68279 11.303 6.02116 11.5667 6.4354C11.8387 6.86228 11.9911 7.3544 12.0078 7.86029C12.0246 8.36619 11.9051 8.8673 11.6619 9.31124C11.4188 9.75517 11.0608 10.1256 10.6255 10.3839C10.1901 10.6422 9.69344 10.7788 9.18726 10.7794ZM9.17813 5.60698C8.65733 5.60777 8.15159 5.78178 7.74055 6.1016C7.32952 6.42141 7.03655 6.86887 6.90777 7.3735C6.779 7.87813 6.82175 8.41126 7.02928 8.88892C7.23682 9.36659 7.59734 9.76165 8.05409 10.0119C8.51083 10.2621 9.03783 10.3533 9.55211 10.2711C10.0664 10.1889 10.5387 9.93799 10.8947 9.55784C11.2507 9.17769 11.4701 8.68993 11.5184 8.17138C11.5667 7.65282 11.4411 7.13293 11.1614 6.69359C10.9966 6.43325 10.7818 6.20818 10.5294 6.0314C10.2771 5.85463 9.99213 5.72965 9.69114 5.66371C9.52272 5.62616 9.35069 5.60713 9.17813 5.60698Z" fill="#91CD86"/>
<path d="M16.3374 4.27646L1.03596 8.4051C0.728319 8.4881 0.546216 8.80479 0.629224 9.11243L2.27639 15.2171C2.3594 15.5248 2.67609 15.7069 2.98373 15.6239L18.2851 11.4952C18.5928 11.4122 18.7749 11.0955 18.6919 10.7879L17.0447 4.6832C16.9617 4.37556 16.645 4.19346 16.3374 4.27646Z" fill="#91CD86"/>
<path d="M17.4811 6.3027L18.2547 9.17067C17.9819 9.2442 17.7264 9.37074 17.5026 9.54305C17.2788 9.71536 17.0911 9.93007 16.9503 10.1749C16.8095 10.4198 16.7183 10.69 16.6819 10.9701C16.6455 11.2501 16.6646 11.5347 16.7382 11.8074C16.7474 11.8405 16.757 11.8732 16.7671 11.9035L4.50042 15.2148C4.49273 15.1821 4.48456 15.1484 4.4759 15.1153C4.40237 14.8426 4.27583 14.587 4.10352 14.3632C3.93121 14.1394 3.7165 13.9517 3.47165 13.8109C3.22681 13.6701 2.95662 13.5789 2.67652 13.5425C2.39642 13.5061 2.1119 13.5252 1.8392 13.5988L1.06559 10.7309C1.3383 10.6573 1.59386 10.5308 1.81766 10.3585C2.04147 10.1862 2.22914 9.97146 2.36996 9.72661C2.51077 9.48176 2.60198 9.21158 2.63837 8.93148C2.67476 8.65138 2.65562 8.36686 2.58203 8.09416C2.5729 8.06098 2.56328 8.02829 2.55319 7.998L14.8198 4.68673C14.8275 4.71942 14.8357 4.75308 14.8443 4.78625C14.9179 5.05897 15.0444 5.31452 15.2167 5.53833C15.389 5.76213 15.6038 5.9498 15.8486 6.09062C16.0934 6.23144 16.3636 6.32264 16.6437 6.35903C16.9238 6.39542 17.2084 6.37628 17.4811 6.3027Z" fill="#A9EA9C"/>
<path d="M2.83254 15.9326C2.64244 15.932 2.45781 15.8689 2.30696 15.7533C2.1561 15.6376 2.04736 15.4756 1.99739 15.2922L0.350648 9.18605C0.321121 9.07625 0.31352 8.96171 0.328279 8.84897C0.343038 8.73623 0.379868 8.62751 0.436664 8.52901C0.493459 8.43051 0.569108 8.34417 0.659286 8.27492C0.749464 8.20566 0.852405 8.15486 0.962225 8.12541L16.2622 3.99919C16.372 3.96956 16.4865 3.96185 16.5992 3.97648C16.7119 3.99111 16.8206 4.0278 16.9192 4.08446C17.0177 4.14112 17.1041 4.21663 17.1735 4.30669C17.2428 4.39674 17.2938 4.49958 17.3234 4.60932L18.9701 10.7155C18.9997 10.8252 19.0074 10.9397 18.9928 11.0524C18.9782 11.1651 18.9415 11.2739 18.8848 11.3724C18.8282 11.471 18.7527 11.5574 18.6626 11.6267C18.5725 11.6961 18.4697 11.747 18.36 11.7766L3.05803 15.9028C2.9845 15.9226 2.90868 15.9327 2.83254 15.9326ZM16.4872 4.54586C16.4621 4.54592 16.437 4.54932 16.4127 4.55595L1.11079 8.68362C1.07404 8.69347 1.03959 8.71051 1.00945 8.73373C0.979306 8.75696 0.954054 8.78592 0.93515 8.81894C0.916246 8.85197 0.904063 8.88841 0.899303 8.92616C0.894542 8.96392 0.897299 9.00224 0.907414 9.03893L2.55415 15.1451C2.57408 15.2189 2.6225 15.2818 2.68876 15.3199C2.75502 15.358 2.83371 15.3683 2.90754 15.3485L18.2095 11.2208C18.2464 11.2112 18.281 11.1944 18.3114 11.1713C18.3418 11.1482 18.3673 11.1193 18.3864 11.0863C18.4056 11.0533 18.418 11.0169 18.4229 10.979C18.4279 10.9412 18.4253 10.9028 18.4153 10.866L16.7661 4.75981C16.7492 4.69862 16.7128 4.64464 16.6623 4.6061C16.6119 4.56755 16.5502 4.54657 16.4868 4.54634L16.4872 4.54586Z" fill="#1D6855"/>
<path d="M3.1739 15.0105L9.48488 13.3079L10.3681 13.0675C10.386 13.062 10.4011 13.0497 10.4101 13.0333C10.4191 13.0168 10.4213 12.9975 10.4163 12.9794C10.4113 12.9613 10.3995 12.9459 10.3833 12.9364C10.3671 12.9269 10.3479 12.9241 10.3296 12.9286L4.01963 14.6335L3.1364 14.8739C3.11848 14.8794 3.10342 14.8918 3.09441 14.9082C3.08541 14.9247 3.08318 14.944 3.08818 14.9621C3.09319 14.9801 3.10504 14.9956 3.12122 15.005C3.1374 15.0145 3.15664 15.0173 3.17486 15.0129L3.1739 15.0105Z" fill="white"/>
<path d="M12.2528 12.5882L16.9065 11.3328L17.57 11.1544C17.5879 11.1489 17.603 11.1366 17.612 11.1201C17.621 11.1037 17.6232 11.0844 17.6182 11.0663C17.6132 11.0482 17.6014 11.0328 17.5852 11.0233C17.569 11.0138 17.5498 11.011 17.5315 11.0155L12.8779 12.2709L12.2129 12.4492C12.195 12.4548 12.1799 12.4671 12.1709 12.4835C12.1619 12.5 12.1597 12.5193 12.1647 12.5374C12.1697 12.5555 12.1816 12.5709 12.1978 12.5804C12.2139 12.5898 12.2332 12.5927 12.2514 12.5882H12.2528Z" fill="white"/>
<path d="M10.1296 10.2366C10.058 9.9712 9.8575 9.83561 9.49498 9.80388C9.22765 9.77263 9.11034 9.75243 9.07764 9.63175C9.0536 9.54329 9.11851 9.43078 9.30362 9.38078C9.43699 9.34215 9.57778 9.3367 9.71374 9.36491L9.71903 9.00094C9.56887 8.97261 9.4142 8.97936 9.26708 9.02066L9.18005 8.69756L8.8584 8.78458L8.95456 9.14278C8.70021 9.29567 8.5954 9.53848 8.66223 9.78657C8.73579 10.0601 8.98292 10.1746 9.3267 10.2029C9.57142 10.2145 9.6796 10.263 9.71134 10.3756C9.74595 10.5044 9.66326 10.6131 9.47094 10.664C9.3082 10.7049 9.13849 10.7095 8.97379 10.6775L8.97042 11.0496C9.13531 11.0779 9.3042 11.0729 9.46709 11.0347L9.5546 11.3583L9.87625 11.2713L9.85461 11.191L9.78249 10.9237C10.0974 10.7592 10.1989 10.4924 10.1296 10.2366Z" fill="#34B67A"/>
<path d="M9.35891 12.8589C8.83167 12.858 8.31517 12.7098 7.86776 12.4309C7.42034 12.1519 7.05984 11.7534 6.82698 11.2804C6.59412 10.8074 6.49818 10.2786 6.54999 9.75395C6.60181 9.22926 6.79931 8.72952 7.1202 8.31117C7.44108 7.89282 7.87256 7.57254 8.36589 7.38651C8.85922 7.20048 9.39475 7.15611 9.91197 7.25841C10.4292 7.36072 10.9075 7.60562 11.2929 7.96545C11.6782 8.32528 11.9553 8.78571 12.0927 9.29471C12.2052 9.71413 12.2197 10.1538 12.135 10.5797C12.0504 11.0056 11.8689 11.4063 11.6047 11.7509C11.3404 12.0954 11.0004 12.3746 10.611 12.5667C10.2215 12.7588 9.79314 12.8588 9.35891 12.8589ZM9.36276 7.685C8.87248 7.68512 8.39457 7.83884 7.99617 8.12458C7.59777 8.41031 7.2989 8.81369 7.14157 9.27804C6.98424 9.74238 6.97635 10.2443 7.11901 10.7134C7.26167 11.1825 7.54771 11.595 7.93694 11.8932C8.32616 12.1913 8.79901 12.3599 9.28904 12.3755C9.77906 12.391 10.2616 12.2526 10.669 11.9797C11.0763 11.7068 11.3879 11.3132 11.5599 10.8541C11.732 10.395 11.7559 9.89357 11.6283 9.4202C11.4947 8.9217 11.2002 8.4813 10.7905 8.16749C10.3808 7.85368 9.87884 7.68406 9.36276 7.685Z" fill="#91CD86"/>
<path d="M16.9681 8.85219L1.13105 8.24656C0.812642 8.23438 0.544646 8.48263 0.532469 8.80105L0.290846 15.1194C0.278669 15.4378 0.526923 15.7058 0.845337 15.718L16.6824 16.3236C17.0008 16.3358 17.2688 16.0876 17.2809 15.7691L17.5226 9.45077C17.5347 9.13236 17.2865 8.86436 16.9681 8.85219Z" fill="#91CD86"/>
<path d="M17.4575 11.1275L17.3435 14.0955C17.0612 14.0846 16.7795 14.1295 16.5146 14.2275C16.2496 14.3255 16.0065 14.4748 15.7993 14.6668C15.592 14.8588 15.4246 15.0897 15.3066 15.3465C15.1886 15.6032 15.1224 15.8806 15.1117 16.1629V16.2653L2.41856 15.7788C2.41856 15.7451 2.42337 15.711 2.42433 15.6764C2.43521 15.3941 2.39035 15.1124 2.29233 14.8474C2.1943 14.5824 2.04503 14.3393 1.85303 14.1321C1.66104 13.9248 1.43009 13.7574 1.17337 13.6394C0.91666 13.5215 0.639216 13.4552 0.356894 13.4445L0.470843 10.4765C0.753159 10.4874 1.03485 10.4425 1.29983 10.3445C1.5648 10.2465 1.80787 10.0972 2.01513 9.90522C2.2224 9.71323 2.3898 9.48227 2.50778 9.22556C2.62576 8.96885 2.692 8.6914 2.70271 8.40908C2.70271 8.37494 2.70271 8.34033 2.70271 8.30667L15.3958 8.79324C15.3958 8.8269 15.391 8.86103 15.3901 8.89565C15.3792 9.17797 15.424 9.45966 15.5221 9.72463C15.6201 9.98961 15.7694 10.2327 15.9614 10.4399C16.1533 10.6472 16.3843 10.8146 16.641 10.9326C16.8977 11.0506 17.1752 11.1168 17.4575 11.1275Z" fill="#A9EA9C"/>
<path d="M16.7036 16.6139H16.6699L0.832887 16.0062C0.719293 16.0019 0.607655 15.9753 0.504348 15.9279C0.401041 15.8804 0.30809 15.8131 0.230803 15.7298C0.153517 15.6464 0.0934098 15.5486 0.0539149 15.4421C0.01442 15.3355 -0.00368885 15.2221 0.000622798 15.1085L0.241023 8.78987C0.245359 8.67628 0.272032 8.56465 0.319519 8.46137C0.367005 8.35808 0.434374 8.26517 0.517778 8.18793C0.601181 8.11068 0.698986 8.05063 0.805603 8.01119C0.912221 7.97176 1.02556 7.95371 1.13916 7.95809L16.9762 8.56486C17.0898 8.5692 17.2014 8.59587 17.3047 8.64336C17.408 8.69084 17.5009 8.75821 17.5782 8.84162C17.6554 8.92502 17.7155 9.02282 17.7549 9.12944C17.7943 9.23606 17.8124 9.3494 17.808 9.46299L17.5676 15.7817C17.559 16.0051 17.4643 16.2166 17.3032 16.3718C17.1421 16.5269 16.9272 16.6137 16.7036 16.6139ZM16.6921 16.037C16.73 16.0384 16.7678 16.0324 16.8033 16.0193C16.8389 16.0062 16.8715 15.9861 16.8993 15.9604C16.9272 15.9346 16.9496 15.9036 16.9655 15.8691C16.9813 15.8347 16.9902 15.7974 16.9916 15.7595L17.232 9.44088C17.2335 9.40299 17.2275 9.36518 17.2143 9.32961C17.2012 9.29404 17.1812 9.26141 17.1554 9.23359C17.1296 9.20577 17.0986 9.1833 17.0642 9.16747C17.0297 9.15164 16.9925 9.14276 16.9546 9.14134L1.11944 8.53505C1.08143 8.53331 1.04346 8.5391 1.0077 8.5521C0.971936 8.5651 0.9391 8.58504 0.91108 8.61079C0.88306 8.63653 0.860409 8.66756 0.844431 8.70209C0.828453 8.73662 0.819464 8.77397 0.817982 8.81199L0.577582 15.1307C0.576102 15.1686 0.582106 15.2064 0.595252 15.2419C0.608397 15.2775 0.628426 15.3101 0.654192 15.3379C0.679959 15.3658 0.710957 15.3882 0.745414 15.4041C0.779871 15.4199 0.817111 15.4288 0.855004 15.4302L16.6921 16.037Z" fill="#1D6855"/>
<path d="M11.6716 9.80436L14.4862 9.91206C14.6717 9.91927 14.6717 9.63079 14.4862 9.62358L11.6716 9.51588C11.486 9.50867 11.486 9.79715 11.6716 9.80436Z" fill="white"/>
<path d="M15.2271 9.92793L16.6089 9.98082C16.7945 9.98803 16.7945 9.69955 16.6089 9.69234L15.2271 9.63945C15.0415 9.63224 15.0415 9.92072 15.2271 9.92793Z" fill="white"/>
<path d="M11.7802 6.60897L14.5174 5.9445C14.6977 5.90075 14.6213 5.62237 14.4405 5.66612L11.7033 6.33059C11.523 6.37434 11.5994 6.65272 11.7802 6.60897Z" fill="white"/>
<path d="M15.2338 5.75795L16.5776 5.43293C16.7579 5.38918 16.6815 5.1108 16.5007 5.15455L15.1569 5.48101C14.9766 5.52477 15.053 5.80315 15.2338 5.7594V5.75795Z" fill="white"/>
<path d="M1.39495 14.8316L4.20955 14.9393C4.39514 14.9465 4.39514 14.658 4.20955 14.6508L1.39495 14.5431C1.20936 14.5359 1.20936 14.8244 1.39495 14.8316Z" fill="white"/>
<path d="M4.95286 14.9528L6.33468 15.0057C6.52027 15.0129 6.52027 14.7244 6.33468 14.7172L4.95286 14.6643C4.76727 14.6571 4.76727 14.9456 4.95286 14.9528Z" fill="white"/>
<path d="M9.269 12.6983C9.27957 12.4238 9.12812 12.2343 8.79156 12.0963C8.54539 11.9867 8.43914 11.9329 8.44394 11.8079C8.44731 11.7165 8.54251 11.628 8.73242 11.6357C8.87121 11.6385 9.00721 11.6751 9.1286 11.7425L9.24207 11.3968C9.10711 11.3249 8.95737 11.2853 8.80454 11.2809L8.81753 10.9443L8.48433 10.9314L8.46991 11.3021C8.18143 11.3722 8.0093 11.5732 7.9992 11.8309C7.98815 12.1141 8.19152 12.2968 8.50981 12.4257C8.74012 12.5093 8.82858 12.5882 8.82426 12.7045C8.81897 12.8377 8.7079 12.9171 8.50789 12.9094C8.33964 12.9002 8.17547 12.8541 8.02709 12.7743L7.91362 13.1286C8.06331 13.2049 8.22683 13.2502 8.39442 13.2618L8.38144 13.5984L8.71463 13.6113L8.718 13.5282L8.72858 13.2517C9.08389 13.1882 9.2589 12.9632 9.269 12.6983Z" fill="#91CD86"/>
<path d="M8.59972 14.6681C8.56767 14.6681 8.53673 14.6681 8.50693 14.6681C8.03381 14.65 7.57669 14.492 7.19338 14.2141C6.81007 13.9361 6.51778 13.5508 6.35347 13.1068C6.18915 12.6627 6.1602 12.1799 6.27027 11.7195C6.38034 11.259 6.62449 10.8415 6.97184 10.5197C7.3192 10.198 7.75415 9.98647 8.22171 9.91193C8.68927 9.8374 9.16843 9.90318 9.59861 10.101C10.0288 10.2987 10.3906 10.6196 10.6384 11.0231C10.8862 11.4265 11.0088 11.8944 10.9907 12.3675C10.9659 12.9854 10.7033 13.5697 10.2577 13.9985C9.81212 14.4272 9.21807 14.6671 8.59972 14.6681ZM8.59972 10.3611C8.10582 10.3714 7.63505 10.5724 7.28597 10.922C6.9369 11.2716 6.73658 11.7426 6.72695 12.2365C6.71732 12.7304 6.89913 13.2089 7.23431 13.5718C7.56949 13.9347 8.03207 14.1539 8.5252 14.1835H8.59924C9.09362 14.1826 9.56852 13.9907 9.92463 13.6477C10.2807 13.3048 10.4905 12.8375 10.5099 12.3435C10.5196 12.0924 10.4797 11.8419 10.3925 11.6062C10.3053 11.3705 10.1726 11.1544 10.0019 10.97C9.83113 10.7857 9.62575 10.6368 9.39746 10.5318C9.16917 10.4268 8.92244 10.3678 8.67136 10.3582L8.59972 10.3611Z" fill="#91CD86"/>
</svg>
