<svg width="110" height="105" viewBox="0 0 110 105" fill="none" xmlns="http://www.w3.org/2000/svg">
<path d="M43.3167 80.6198C65.5793 80.6198 83.6266 62.5724 83.6266 40.3099C83.6266 18.0474 65.5793 0 43.3167 0C21.0542 0 3.00685 18.0474 3.00685 40.3099C3.00685 62.5724 21.0542 80.6198 43.3167 80.6198Z" fill="#EAEAEA"/>
<path d="M8.63147 8.3676V11.0205" stroke="#4C241D" stroke-width="2.23287" stroke-linecap="round" stroke-linejoin="round"/>
<path d="M8.63147 18.9775V21.6304" stroke="#4C241D" stroke-width="2.23287" stroke-linecap="round" stroke-linejoin="round"/>
<path d="M2 14.9991H4.65295" stroke="#4C241D" stroke-width="2.23287" stroke-linecap="round" stroke-linejoin="round"/>
<path d="M12.61 14.9991H15.2629" stroke="#4C241D" stroke-width="2.23287" stroke-linecap="round" stroke-linejoin="round"/>
<path d="M30.1926 4.81659C31.2995 4.81659 32.1968 3.91926 32.1968 2.81235C32.1968 1.70543 31.2995 0.808102 30.1926 0.808102C29.0857 0.808102 28.1884 1.70543 28.1884 2.81235C28.1884 3.91926 29.0857 4.81659 30.1926 4.81659Z" fill="#4C241D"/>
<path d="M44.2541 91.8691H100.5C101.992 91.8691 103.423 92.4617 104.478 93.5165C105.533 94.5714 106.125 96.002 106.125 97.4937C106.125 98.9855 105.533 100.416 104.478 101.471C103.423 102.526 101.992 103.118 100.5 103.118H44.2541V91.8691Z" fill="#FFCE56" stroke="#4C241D" stroke-width="2.23287" stroke-linecap="round" stroke-linejoin="round"/>
<path d="M40.5044 80.6199H96.7508C98.2425 80.6199 99.6732 81.2125 100.728 82.2673C101.783 83.3221 102.375 84.7527 102.375 86.2445C102.375 87.7362 101.783 89.1669 100.728 90.2217C99.6732 91.2765 98.2425 91.8691 96.7508 91.8691H40.5044V80.6199Z" fill="#FFCE56" stroke="#4C241D" stroke-width="2.23287" stroke-linecap="round" stroke-linejoin="round"/>
<path d="M44.2541 69.3706H100.5C101.992 69.3706 103.423 69.9632 104.478 71.018C105.533 72.0729 106.125 73.5035 106.125 74.9952C106.125 76.487 105.533 77.9176 104.478 78.9725C103.423 80.0273 101.992 80.6199 100.5 80.6199H44.2541V69.3706Z" fill="#FFCE56" stroke="#4C241D" stroke-width="2.23287" stroke-linecap="round" stroke-linejoin="round"/>
<path d="M42.3792 58.1212H98.6256C100.117 58.1212 101.548 58.7138 102.603 59.7686C103.658 60.8234 104.25 62.254 104.25 63.7458C104.25 65.2375 103.658 66.6682 102.603 67.723C101.548 68.7778 100.117 69.3704 98.6256 69.3704H42.3792V58.1212Z" fill="#FFCE56" stroke="#4C241D" stroke-width="2.23287" stroke-linecap="round" stroke-linejoin="round"/>
<path d="M36.7546 46.8719H93.0009C94.4927 46.8719 95.9233 47.4645 96.9782 48.5193C98.033 49.5742 98.6256 51.0048 98.6256 52.4965C98.6256 53.9883 98.033 55.4189 96.9782 56.4738C95.9233 57.5286 94.4927 58.1212 93.0009 58.1212H36.7546V46.8719Z" fill="#FFCE56" stroke="#4C241D" stroke-width="2.23287" stroke-linecap="round" stroke-linejoin="round"/>
<path d="M40.5044 35.6227H96.7508C98.2425 35.6227 99.6732 36.2153 100.728 37.2701C101.783 38.3249 102.375 39.7556 102.375 41.2473C102.375 42.739 101.783 44.1697 100.728 45.2245C99.6732 46.2793 98.2425 46.8719 96.7508 46.8719H40.5044V35.6227Z" fill="#FFCE56" stroke="#4C241D" stroke-width="2.23287" stroke-linecap="round" stroke-linejoin="round"/>
<path d="M51.7537 24.3734H102.375C103.867 24.3734 105.298 24.966 106.353 26.0208C107.407 27.0757 108 28.5063 108 29.9981C108 31.4898 107.407 32.9204 106.353 33.9753C105.298 35.0301 103.867 35.6227 102.375 35.6227H46.129V29.9981C46.129 28.5063 46.7216 27.0757 47.7764 26.0208C48.8313 24.966 50.2619 24.3734 51.7537 24.3734Z" fill="#FFCE56" stroke="#4C241D" stroke-width="2.23287" stroke-linecap="round" stroke-linejoin="round"/>
<path d="M91.1261 13.1242H40.5044C37.398 13.1242 34.8798 15.6424 34.8798 18.7488C34.8798 21.8552 37.398 24.3734 40.5044 24.3734H91.1261C94.2325 24.3734 96.7508 21.8552 96.7508 18.7488C96.7508 15.6424 94.2325 13.1242 91.1261 13.1242Z" fill="#FFCE56" stroke="#4C241D" stroke-width="2.23287" stroke-linecap="round" stroke-linejoin="round"/>
<path d="M44.2542 103.118C63.928 103.118 79.8768 87.1696 79.8768 67.4957C79.8768 47.8219 63.928 31.8731 44.2542 31.8731C24.5803 31.8731 8.63147 47.8219 8.63147 67.4957C8.63147 87.1696 24.5803 103.118 44.2542 103.118Z" fill="#FFCE56" stroke="#4C241D" stroke-width="2.23287" stroke-linecap="round" stroke-linejoin="round"/>
<path d="M44.2542 93.744C58.7507 93.744 70.5025 81.9922 70.5025 67.4957C70.5025 52.9992 58.7507 41.2474 44.2542 41.2474C29.7577 41.2474 18.0059 52.9992 18.0059 67.4957C18.0059 81.9922 29.7577 93.744 44.2542 93.744Z" stroke="#4C241D" stroke-width="2.23287" stroke-linecap="round" stroke-linejoin="round" stroke-dasharray="4.46 4.46"/>
<path d="M49.3856 56.2595C49.0574 55.6857 48.5833 55.2088 48.0114 54.8773C47.4395 54.5457 46.7901 54.3712 46.129 54.3715H44.8053C43.1674 54.3715 41.5965 55.0222 40.4383 56.1804C39.2801 57.3386 38.6295 58.9095 38.6295 60.5474L39.4807 65.4052C42.3792 71.2454 37.9845 73.1784 36.7546 76.8701H51.7536V73.1203" stroke="#4C241D" stroke-width="2.23287" stroke-linecap="round" stroke-linejoin="round"/>
<path d="M36.7546 65.6208H44.2541" stroke="#4C241D" stroke-width="2.23287" stroke-linecap="round" stroke-linejoin="round"/>
</svg>
