<svg width="29" height="29" viewBox="0 0 29 29" fill="none" xmlns="http://www.w3.org/2000/svg">
<path d="M14.5 28C21.9558 28 28 21.9558 28 14.5C28 7.04416 21.9558 1 14.5 1C7.04416 1 1 7.04416 1 14.5C1 21.9558 7.04416 28 14.5 28Z" fill="#FFAF40"/>
<path d="M14.5 25.6724C20.6704 25.6724 25.6724 20.6704 25.6724 14.5C25.6724 8.32965 20.6704 3.32759 14.5 3.32759C8.32965 3.32759 3.32759 8.32965 3.32759 14.5C3.32759 20.6704 8.32965 25.6724 14.5 25.6724Z" stroke="#FFDD95" stroke-width="2.17655" stroke-linecap="round"/>
<path d="M14.4617 1.93098V1.46547M20.3017 3.3701L20.5202 2.95907M24.8067 7.36125L25.188 7.09424M26.9391 12.9852L27.4011 12.9285M26.2142 18.9561L26.6488 19.1229M22.7951 23.9092L23.1066 24.2552M17.4691 26.7038L17.5817 27.1555M11.4544 26.7038L11.3418 27.1555M6.12835 23.9092L5.81686 24.2552M2.70919 18.9561L2.2746 19.1229M1.98435 12.9852L1.52231 12.9285M4.11677 7.36125L3.73544 7.09424M8.62173 3.3701L8.40318 2.95907" stroke="#FFDD95" stroke-width="2.17655" stroke-linecap="round"/>
<path d="M13.7955 23.8182V5.63636H14.9602V23.8182H13.7955ZM17.7159 11.0909C17.6307 10.3712 17.285 9.8125 16.679 9.41477C16.0729 9.01705 15.3295 8.81818 14.4489 8.81818C13.8049 8.81818 13.2415 8.92235 12.7585 9.13068C12.2803 9.33901 11.9063 9.62547 11.6364 9.99006C11.3712 10.3546 11.2386 10.7689 11.2386 11.233C11.2386 11.6212 11.331 11.955 11.5156 12.2344C11.705 12.509 11.9465 12.7386 12.2401 12.9233C12.5336 13.1032 12.8414 13.2524 13.1634 13.3707C13.4853 13.4844 13.7812 13.5767 14.0511 13.6477L15.5284 14.0455C15.9072 14.1449 16.3286 14.2822 16.7926 14.4574C17.2614 14.6326 17.7088 14.8717 18.1349 15.1747C18.5658 15.473 18.9209 15.8565 19.2003 16.3253C19.4796 16.794 19.6193 17.3693 19.6193 18.0511C19.6193 18.8371 19.4134 19.5473 19.0014 20.1818C18.5942 20.8163 17.9976 21.3205 17.2116 21.6946C16.4304 22.0687 15.4811 22.2557 14.3636 22.2557C13.322 22.2557 12.42 22.0876 11.6577 21.7514C10.9001 21.4152 10.3035 20.9465 9.8679 20.3452C9.43703 19.7438 9.19318 19.0455 9.13636 18.25H10.9545C11.0019 18.7992 11.1866 19.2538 11.5085 19.6136C11.8352 19.9687 12.2472 20.2339 12.7443 20.4091C13.2462 20.5795 13.786 20.6648 14.3636 20.6648C15.036 20.6648 15.6397 20.5559 16.1747 20.3381C16.7098 20.1155 17.1335 19.8078 17.446 19.4148C17.7585 19.017 17.9148 18.553 17.9148 18.0227C17.9148 17.5398 17.7798 17.1468 17.5099 16.8438C17.2401 16.5407 16.8849 16.2945 16.4446 16.1051C16.0043 15.9157 15.5284 15.75 15.017 15.608L13.2273 15.0966C12.0909 14.7699 11.1913 14.3035 10.5284 13.6974C9.86553 13.0914 9.53409 12.2983 9.53409 11.3182C9.53409 10.5038 9.75426 9.79356 10.1946 9.1875C10.6397 8.5767 11.2363 8.10322 11.9844 7.76705C12.7372 7.42614 13.5777 7.25568 14.5057 7.25568C15.4432 7.25568 16.2765 7.42377 17.0057 7.75994C17.7348 8.09138 18.3125 8.54593 18.7386 9.12358C19.1695 9.70123 19.3968 10.357 19.4205 11.0909H17.7159Z" fill="#FFDD95"/>
</svg>
