<svg width="29" height="25" viewBox="0 0 29 25" fill="none" xmlns="http://www.w3.org/2000/svg">
<path d="M18.6707 24.8289L0.170683 21.3096L3.61986 3.1877L25.8411 7.41534L23.0899 21.869L18.6707 24.8289Z" fill="#68E1FD"/>
<path d="M18.6707 25H18.6399L0.139883 21.4773C0.117729 21.4731 0.0966054 21.4647 0.0777243 21.4524C0.0588432 21.4401 0.0425761 21.4242 0.0298584 21.4056C0.0171407 21.387 0.00822239 21.3661 0.00361506 21.344C-0.000992264 21.322 -0.00119773 21.2992 0.0030107 21.2771L3.45048 3.1552C3.45459 3.13304 3.46304 3.11192 3.47533 3.09304C3.48763 3.07416 3.50353 3.05789 3.52213 3.04517C3.54073 3.03245 3.56166 3.02354 3.58371 3.01893C3.60577 3.01432 3.62852 3.01412 3.65066 3.01832L25.8736 7.24768C25.9176 7.25639 25.9565 7.28208 25.9818 7.31921C26.0071 7.35635 26.0168 7.40194 26.0087 7.44614L23.2593 21.9016C23.2551 21.9241 23.2464 21.9455 23.2338 21.9646C23.2212 21.9837 23.2048 22.0001 23.1857 22.0128L18.7665 24.9709C18.7382 24.9899 18.7048 25.0001 18.6707 25ZM0.364011 21.1727L18.6279 24.6476L22.9291 21.7681L25.634 7.5505L3.75502 3.38788L0.364011 21.1727Z" fill="#093F68"/>
<path d="M24.6982 23.6467L5.9039 24.8289L4.74391 6.41789L27.321 4.99613L28.2449 19.6808L24.6982 23.6467Z" fill="white"/>
<path d="M5.90391 25C5.86054 25.0001 5.81874 24.9837 5.78698 24.9542C5.75522 24.9247 5.73586 24.8842 5.73282 24.8409L4.57967 6.42986C4.57794 6.40737 4.58068 6.38475 4.58773 6.36331C4.59478 6.34188 4.60599 6.32205 4.62074 6.30497C4.6356 6.28796 4.65368 6.27406 4.67394 6.26408C4.69421 6.25409 4.71624 6.24822 4.73879 6.2468L27.3227 4.82504C27.3682 4.8231 27.4128 4.83837 27.4476 4.86781C27.4813 4.89812 27.5016 4.94058 27.5041 4.98586L28.4297 19.6705C28.4316 19.7161 28.4163 19.7607 28.3869 19.7954L24.8402 23.7596C24.8103 23.7929 24.7685 23.8132 24.7238 23.8161L5.91418 25H5.90391ZM4.92185 6.57871L6.0596 24.6476L24.6126 23.479L28.0704 19.6209L27.1636 5.17748L4.92185 6.57871Z" fill="#093F68"/>
<path d="M24.6982 23.6467L24.5356 19.9152L28.2449 19.6808L24.6982 23.6467Z" fill="#68E1FD"/>
<path d="M24.6982 23.8178C24.6789 23.8175 24.6598 23.8141 24.6417 23.8075C24.6094 23.7962 24.5812 23.7755 24.5608 23.7481C24.5403 23.7206 24.5286 23.6877 24.5271 23.6535L24.3646 19.922C24.3644 19.8787 24.3808 19.8369 24.4104 19.8051C24.4399 19.7733 24.4804 19.754 24.5237 19.7509L28.2346 19.5183C28.2695 19.5148 28.3046 19.5221 28.3352 19.5392C28.3658 19.5564 28.3904 19.5825 28.4057 19.6141C28.4205 19.6445 28.4259 19.6786 28.4214 19.7121C28.4168 19.7456 28.4024 19.7769 28.38 19.8023L24.8333 23.7664C24.8159 23.7843 24.7948 23.7982 24.7714 23.8071C24.7481 23.8159 24.7231 23.8196 24.6982 23.8178ZM24.7136 20.076L24.8504 23.2189L27.8479 19.8793L24.7136 20.076Z" fill="#093F68"/>
<path d="M8.25983 9.9988C8.21446 10.0002 8.1704 9.98345 8.13735 9.95232C8.10431 9.9212 8.08497 9.87822 8.08361 9.83285C8.08225 9.78747 8.09897 9.74341 8.13009 9.71037C8.16122 9.67732 8.20419 9.65798 8.24957 9.65662L23.7555 8.6797C23.8009 8.67675 23.8455 8.69195 23.8797 8.72195C23.9139 8.75195 23.9347 8.79429 23.9377 8.83967C23.9406 8.88504 23.9254 8.92973 23.8954 8.9639C23.8654 8.99808 23.8231 9.01893 23.7777 9.02188L8.2701 9.9988H8.25983Z" fill="#DFEAEF"/>
<path d="M8.44632 12.957C8.40095 12.9583 8.35689 12.9416 8.32384 12.9105C8.29079 12.8794 8.27146 12.8364 8.2701 12.791C8.26874 12.7456 8.28546 12.7016 8.31658 12.6685C8.3477 12.6355 8.39068 12.6161 8.43605 12.6148L23.942 11.6378C23.9873 11.6349 24.032 11.6501 24.0662 11.6801C24.1004 11.7101 24.1212 11.7524 24.1242 11.7978C24.1271 11.8432 24.1119 11.8879 24.0819 11.9221C24.0519 11.9562 24.0096 11.9771 23.9642 11.98L8.45659 12.9552L8.44632 12.957Z" fill="#DFEAEF"/>
<path d="M8.63279 15.9168C8.58742 15.9182 8.54336 15.9015 8.51031 15.8703C8.47726 15.8392 8.45793 15.7962 8.45657 15.7509C8.45521 15.7055 8.47193 15.6614 8.50305 15.6284C8.53418 15.5953 8.57715 15.576 8.62253 15.5746L24.1284 14.5977C24.1738 14.5948 24.2185 14.61 24.2527 14.64C24.2868 14.67 24.3077 14.7123 24.3106 14.7577C24.3136 14.8031 24.2984 14.8477 24.2684 14.8819C24.2384 14.9161 24.1961 14.9369 24.1507 14.9399L8.64306 15.9168H8.63279Z" fill="#DFEAEF"/>
<path d="M8.81929 18.875C8.77391 18.8763 8.72985 18.8596 8.6968 18.8285C8.66376 18.7974 8.64443 18.7544 8.64306 18.709C8.6417 18.6636 8.65842 18.6196 8.68955 18.5865C8.72067 18.5535 8.76365 18.5341 8.80902 18.5328L24.3149 17.5559C24.3374 17.5544 24.3599 17.5574 24.3813 17.5646C24.4026 17.5719 24.4222 17.5833 24.4392 17.5981C24.4561 17.613 24.4699 17.631 24.4799 17.6512C24.4898 17.6714 24.4957 17.6934 24.4971 17.7158C24.4986 17.7383 24.4956 17.7608 24.4884 17.7821C24.4811 17.8035 24.4697 17.8231 24.4549 17.8401C24.44 17.857 24.422 17.8708 24.4018 17.8808C24.3816 17.8907 24.3596 17.8966 24.3372 17.898L8.82955 18.875H8.81929Z" fill="#DFEAEF"/>
<path d="M9.00579 21.8348C8.96041 21.8364 8.91627 21.8199 8.88306 21.7889C8.84985 21.758 8.8303 21.7151 8.82871 21.6697C8.82712 21.6243 8.84363 21.5802 8.87459 21.547C8.90555 21.5138 8.94844 21.4942 8.99381 21.4926L19.8444 20.8083C19.8668 20.8069 19.8893 20.81 19.9106 20.8174C19.9319 20.8247 19.9515 20.8362 19.9683 20.8511C19.9852 20.8661 19.9989 20.8842 20.0088 20.9044C20.0186 20.9247 20.0244 20.9466 20.0257 20.9691C20.0271 20.9916 20.024 21.0141 20.0166 21.0354C20.0093 21.0566 19.9978 21.0763 19.9829 21.0931C19.9679 21.1099 19.9498 21.1237 19.9296 21.1335C19.9093 21.1434 19.8874 21.1491 19.8649 21.1505L9.01605 21.8348H9.00579Z" fill="#DFEAEF"/>
<path d="M15.822 8.03298C15.7137 8.03264 15.6082 7.99804 15.5208 7.93413C15.4333 7.87021 15.3683 7.78026 15.3351 7.67716C15.3018 7.57405 15.3021 7.46307 15.3358 7.36011C15.3695 7.25715 15.4349 7.16749 15.5226 7.10396L17.4046 5.75235C17.4592 5.71057 17.5215 5.68018 17.5881 5.66296C17.6546 5.64575 17.7239 5.64207 17.7919 5.65214C17.8598 5.66221 17.9251 5.68583 17.9838 5.72159C18.0424 5.75735 18.0933 5.80452 18.1334 5.86032C18.1735 5.91612 18.202 5.9794 18.2172 6.04642C18.2324 6.11343 18.234 6.18281 18.2219 6.25045C18.2097 6.31808 18.1842 6.3826 18.1466 6.44016C18.1091 6.49772 18.0604 6.54716 18.0034 6.58556L16.1214 7.93717C16.0341 7.99964 15.9294 8.03314 15.822 8.03298Z" fill="#093F68"/>
<path d="M20.6865 7.59343C21.5335 6.8843 21.3634 5.28635 20.3066 4.02432C19.2499 2.76228 17.7067 2.31406 16.8598 3.0232C16.0129 3.73233 16.183 5.33028 17.2397 6.59231C18.2964 7.85435 19.8396 8.30256 20.6865 7.59343Z" fill="#FFBC0E"/>
<path d="M19.6955 8.0997C19.4584 8.09816 19.2227 8.06243 18.9957 7.99363C18.2557 7.75523 17.6015 7.30564 17.1138 6.70019C15.9982 5.36739 15.8374 3.6582 16.7562 2.89001C17.2096 2.50848 17.8511 2.41267 18.5578 2.61797C19.2978 2.85637 19.952 3.30596 20.4397 3.91142C20.9504 4.49932 21.278 5.22364 21.3825 5.99529C21.4594 6.72756 21.2524 7.34177 20.7973 7.72159C20.4873 7.9758 20.0963 8.11001 19.6955 8.0997ZM17.8546 2.85408C17.5337 2.84514 17.2202 2.95067 16.97 3.15177C16.1967 3.7985 16.3764 5.29211 17.3721 6.47948C17.8149 7.03278 18.4095 7.44484 19.083 7.66514C19.6784 7.83623 20.2071 7.76608 20.5715 7.45983C20.9359 7.15357 21.1002 6.64715 21.0351 6.03122C20.938 5.3273 20.6371 4.66716 20.1694 4.13212C19.7268 3.57867 19.1321 3.16658 18.4585 2.94647C18.2626 2.88709 18.0593 2.85597 17.8546 2.85408Z" fill="#093F68"/>
<path d="M20.9889 2.12352L18.361 3.6736C18.361 3.6736 18.154 4.33914 18.7802 5.22368C19.4371 6.15099 20.2652 5.97819 20.2652 5.97819L22.5441 3.64452L20.9889 2.12352Z" fill="#FFBC0E"/>
<path d="M20.0993 6.16125C19.7845 6.16125 19.16 6.05689 18.6416 5.3212C17.9743 4.3802 18.1882 3.65478 18.1967 3.62398C18.2101 3.58342 18.2374 3.54889 18.2737 3.52646L20.9017 1.97638C20.9342 1.95724 20.9721 1.94937 21.0096 1.95402C21.047 1.95866 21.0819 1.97554 21.1087 2.00205L22.6588 3.52304C22.6906 3.5551 22.7085 3.59846 22.7085 3.64366C22.7085 3.68886 22.6906 3.73222 22.6588 3.76428L20.3884 6.10479C20.3647 6.12906 20.3343 6.14573 20.3012 6.1527C20.2343 6.16266 20.1667 6.16552 20.0993 6.16125ZM18.5116 3.78481C18.4842 3.9559 18.4534 4.46917 18.9205 5.12444C19.42 5.82934 20.012 5.83276 20.1831 5.80881L22.2978 3.64109L20.9633 2.34081L18.5116 3.78481Z" fill="#093F68"/>
<path d="M23.5609 3.97572C24.0965 3.54861 23.9591 2.48549 23.2539 1.60118C22.5487 0.716874 21.5429 0.346243 21.0073 0.773355C20.4716 1.20047 20.6091 2.26358 21.3143 3.14789C22.0195 4.0322 23.0253 4.40283 23.5609 3.97572Z" fill="#FFBC0E"/>
<path d="M23.0095 4.32545C22.4261 4.32545 21.7263 3.93708 21.1823 3.25443C20.4055 2.28264 20.2823 1.13291 20.9017 0.64017C21.2096 0.3938 21.6442 0.357871 22.1267 0.535804C22.6252 0.736508 23.0607 1.0674 23.3876 1.49391C24.1644 2.46741 24.2876 3.61543 23.6682 4.10988C23.4796 4.25467 23.2472 4.33073 23.0095 4.32545ZM21.5569 0.766777C21.3981 0.761665 21.2423 0.811184 21.1155 0.907071C20.6621 1.26807 20.8144 2.24671 21.4492 3.04057C22.0839 3.83442 23.001 4.20227 23.4543 3.84127C23.9077 3.48027 23.7555 2.50334 23.1207 1.70777C22.8328 1.32867 22.4489 1.03334 22.0086 0.852322C21.864 0.798547 21.7113 0.769624 21.5569 0.766777Z" fill="#093F68"/>
</svg>
