<svg width="18" height="19" viewBox="0 0 18 19" fill="none" xmlns="http://www.w3.org/2000/svg">
<path d="M10.2326 18.1409H11.5384C12.1154 18.1409 12.5927 17.7241 12.6285 17.1894C12.8057 14.5432 12.6515 11.8172 11.6495 9.33736C11.1748 8.16231 10.5119 7.04929 9.56207 6.14644C8.86417 5.48306 8.71606 5.20981 8.01284 5.68444C6.87154 6.45481 7.64797 6.56115 8.03807 7.26298C8.62771 8.32378 9.12993 9.03077 9.40042 10.2582C9.8793 12.4314 9.64272 14.74 9.16192 16.928C9.0241 17.5551 9.54345 18.1409 10.2326 18.1409V18.1409Z" fill="#E5AA6E"/>
<path d="M17.9671 3.7637C17.9671 3.7637 17.9606 3.75411 17.9479 3.73552C17.9351 3.71707 17.9169 3.68892 17.8913 3.65402C17.866 3.61883 17.8348 3.57547 17.798 3.52444C17.7814 3.49916 17.7549 3.47091 17.7299 3.44164C17.7034 3.41251 17.6753 3.38157 17.6456 3.34888C17.6152 3.3159 17.5832 3.28115 17.5497 3.24472C17.5153 3.2112 17.4792 3.17616 17.4416 3.13962C17.3666 3.06542 17.2818 2.98803 17.1853 2.91227C17.1378 2.87319 17.0877 2.83375 17.0358 2.79319C16.9834 2.75331 16.927 2.71634 16.8699 2.67603C16.8124 2.63655 16.7535 2.59471 16.6905 2.55672C16.6269 2.51917 16.5619 2.48071 16.4954 2.44145C16.4619 2.42199 16.4283 2.40136 16.3933 2.38291C16.3579 2.36519 16.3222 2.34732 16.2861 2.32927C16.2132 2.29324 16.139 2.25652 16.0635 2.21919C15.9865 2.18523 15.9069 2.15298 15.8259 2.1195C15.7853 2.10319 15.7447 2.08522 15.7029 2.06996C15.6609 2.05514 15.6186 2.04022 15.576 2.02522C15.235 1.90218 14.8595 1.80869 14.4619 1.74659C14.4121 1.73911 14.3621 1.73163 14.3118 1.72411C14.2615 1.71659 14.2109 1.70835 14.1598 1.7053C14.0573 1.69687 13.954 1.68841 13.8502 1.67988C13.6418 1.67098 13.4291 1.66157 13.2148 1.67512C13.1075 1.6794 12.9995 1.6826 12.8917 1.69498C12.8376 1.70025 12.7835 1.70548 12.7293 1.71075L12.648 1.71986L12.6277 1.72215L12.6175 1.72331L12.6124 1.72389C12.6362 1.71924 12.5742 1.73087 12.5791 1.72996L12.5443 1.73562C12.4516 1.7507 12.3585 1.7658 12.2655 1.78091L12.2302 1.78676L12.1871 1.79627L12.1008 1.81552L11.9279 1.85507C11.8091 1.88206 11.7079 1.91547 11.602 1.94754C11.5492 1.96333 11.4971 1.98091 11.4448 1.99784C11.3927 2.01527 11.3421 2.03662 11.2908 2.05594C11.2396 2.07548 11.1887 2.09589 11.1383 2.11685L11.0625 2.14797C11.0374 2.15865 11.0131 2.17103 10.9884 2.18251C10.8896 2.2286 10.7931 2.27828 10.6968 2.32676C10.3177 2.53399 9.97551 2.78814 9.68386 3.06909C9.64819 3.10497 9.61272 3.14071 9.57736 3.1763C9.54239 3.21211 9.5068 3.24654 9.47501 3.28496C9.41059 3.35978 9.34676 3.43386 9.28364 3.50715C9.22106 3.59101 9.15977 3.67327 9.10177 3.75596C9.07224 3.6838 9.03602 3.60989 8.99781 3.53163C8.9774 3.48812 8.95307 3.44541 8.92753 3.40187C8.90258 3.35796 8.87563 3.31373 8.84817 3.26833C8.79217 3.17833 8.7265 3.08881 8.6586 2.99555C8.58531 2.90661 8.51182 2.81171 8.42566 2.72288C8.38263 2.67842 8.33946 2.63285 8.29432 2.58792C8.24833 2.54383 8.20049 2.50036 8.15145 2.457C8.05523 2.36831 7.94686 2.28823 7.83829 2.20528C7.61496 2.04654 7.36919 1.90105 7.1062 1.77891C6.84185 1.65921 6.56495 1.55669 6.2817 1.47792C5.99725 1.40205 5.70833 1.34757 5.42267 1.31765C5.13645 1.28954 4.85454 1.28536 4.58542 1.30054C4.51799 1.30566 4.45138 1.31231 4.38579 1.31834C4.35298 1.32175 4.32052 1.32382 4.28813 1.32847C4.25587 1.33319 4.22376 1.33791 4.19184 1.3426C4.12817 1.35229 4.06555 1.36079 4.00407 1.37263C3.94259 1.38531 3.88224 1.39725 3.82314 1.41058C3.70479 1.43495 3.59192 1.47065 3.48393 1.50021C3.37665 1.53646 3.27414 1.56994 3.1782 1.60829C3.13025 1.62769 3.0839 1.64813 3.03885 1.66735C2.99375 1.6866 2.95006 1.70537 2.90837 1.72644C2.86644 1.74637 2.82628 1.76755 2.78744 1.78752C2.74864 1.80771 2.71098 1.82642 2.67566 1.84763C2.60448 1.88827 2.53987 1.9293 2.48042 1.96544C2.42183 2.00412 2.36997 2.04276 2.32307 2.07577C2.27598 2.10842 2.23593 2.14085 2.20171 2.16965C2.16729 2.19798 2.13894 2.22333 2.11582 2.24312C2.07065 2.28416 2.04656 2.30603 2.04656 2.30603C2.00076 2.34775 1.97061 2.40532 1.96701 2.46953C1.95938 2.60554 2.07194 2.7215 2.21841 2.72858L2.24141 2.7297C2.24141 2.7297 2.2725 2.73119 2.33082 2.73403C2.35925 2.73486 2.39433 2.73592 2.43556 2.73715C2.45578 2.73759 2.47756 2.73802 2.50076 2.73853C2.52422 2.74009 2.54902 2.74169 2.57479 2.74267C2.62638 2.74478 2.68333 2.74859 2.74356 2.75037C2.80461 2.75465 2.87036 2.76123 2.93841 2.76508C3.07585 2.77724 3.22697 2.79282 3.38682 2.81654C3.42644 2.82039 3.46739 2.82987 3.50822 2.83611C3.54878 2.8428 3.59008 2.84962 3.63208 2.85656C3.6735 2.86495 3.71562 2.87349 3.75841 2.88217C3.80077 2.8903 3.84336 2.89811 3.88634 2.90948C3.92929 2.92015 3.97239 2.92941 4.01565 2.93937C4.05855 2.95081 4.10192 2.96239 4.14585 2.97412C4.23295 2.99533 4.31997 3.02566 4.4073 3.05035C4.58127 3.10868 4.75473 3.17132 4.92392 3.24331C4.96718 3.26245 5.01016 3.28191 5.05291 3.30167C5.02608 3.30283 4.99917 3.30381 4.97254 3.30581C4.89244 3.31104 4.81101 3.31249 4.73189 3.32121L4.4937 3.34587C4.17901 3.38669 3.86906 3.43978 3.57479 3.51681C3.53783 3.526 3.50075 3.53454 3.46426 3.5442C3.428 3.55451 3.39178 3.56482 3.35569 3.5751C3.28372 3.59613 3.21183 3.61585 3.14132 3.63768C3.00157 3.68474 2.86261 3.72753 2.73046 3.77986C2.66389 3.80463 2.59822 3.82987 2.53365 3.85569C2.46962 3.88282 2.40607 3.90875 2.34396 3.93632C2.2188 3.98879 2.10022 4.0481 1.98453 4.10374C1.86966 4.16141 1.75991 4.22061 1.65467 4.27857C1.60237 4.30835 1.55145 4.33831 1.50174 4.36806C1.45207 4.39791 1.40295 4.42577 1.35637 4.45645C1.26273 4.51663 1.17372 4.57427 1.09092 4.63216C1.00847 4.69081 0.931071 4.74674 0.859616 4.80092C0.788824 4.85664 0.723353 4.90915 0.663591 4.95843C0.604025 5.00866 0.549934 5.05783 0.501475 5.10033C0.403854 5.18738 0.337756 5.25896 0.290002 5.30868C0.243303 5.35876 0.219015 5.38662 0.219015 5.38662C0.198912 5.40979 0.187531 5.43997 0.189721 5.472C0.194375 5.53998 0.2575 5.59159 0.330716 5.58727C0.330716 5.58727 0.369241 5.58502 0.440227 5.57859C0.475466 5.57489 0.51888 5.57031 0.569959 5.5649C0.620764 5.55767 0.67814 5.55324 0.741265 5.5467C0.865756 5.5317 1.01931 5.51732 1.19128 5.49517C1.36149 5.47494 1.55352 5.45213 1.763 5.42726C1.86653 5.41502 1.97436 5.40405 2.08403 5.38956C2.19381 5.37739 2.30727 5.36483 2.42394 5.3519C2.48179 5.34576 2.54041 5.33955 2.59975 5.33323C2.65861 5.32586 2.71837 5.32005 2.77872 5.31456C2.83915 5.30926 2.89942 5.30189 2.96043 5.29546C3.02172 5.29048 3.08324 5.28518 3.14488 5.27883C3.20652 5.27229 3.26882 5.2672 3.33116 5.26234C3.39331 5.25707 3.45593 5.25173 3.51893 5.24639C3.58151 5.24189 3.64444 5.23735 3.70772 5.23278C3.77089 5.22827 3.83394 5.22297 3.8971 5.22006C3.96023 5.21621 4.02362 5.21356 4.08667 5.20859C4.14952 5.20605 4.21253 5.20347 4.2757 5.20092L4.36999 5.19646L4.46378 5.19439C4.52616 5.19352 4.58894 5.19054 4.65069 5.18988C4.89873 5.18698 5.1404 5.19192 5.37296 5.20339C5.48716 5.21353 5.60238 5.21705 5.71037 5.23212C5.8214 5.24058 5.92454 5.25696 6.02975 5.26481C6.08044 5.27174 6.13038 5.27861 6.18087 5.28355C6.20567 5.28674 6.23199 5.28751 6.25566 5.29161C6.27959 5.2955 6.30368 5.29869 6.32778 5.30185C6.35179 5.30519 6.376 5.3077 6.40013 5.31042C6.41218 5.31187 6.4243 5.31296 6.43647 5.31394L6.47108 5.31932C6.51688 5.32706 6.56303 5.33348 6.60973 5.33842C6.6337 5.3402 6.65451 5.34598 6.67684 5.34925C6.69918 5.3528 6.72131 5.35629 6.74333 5.35981C6.76543 5.36341 6.78768 5.36671 6.81033 5.36922C6.83333 5.37144 6.85296 5.37735 6.87447 5.38117C6.91671 5.38959 6.96012 5.39609 7.00299 5.4035C7.04578 5.41048 7.08465 5.42184 7.12658 5.42951C7.29304 5.46158 7.44686 5.50537 7.59564 5.54874C7.63514 5.55745 7.6669 5.57278 7.70273 5.58389C7.73742 5.59599 7.77184 5.60783 7.80621 5.61898C7.82354 5.62468 7.84048 5.63027 7.85706 5.63572C7.8729 5.64222 7.88839 5.64854 7.90356 5.65475C7.93532 5.66717 7.96563 5.67901 7.99438 5.69023C8.11433 5.73428 8.20718 5.77993 8.27754 5.80862C8.31243 5.82322 8.34008 5.83466 8.35983 5.84193C8.36406 5.8436 8.36765 5.84498 8.37098 5.84629C8.3725 6.03285 8.39398 6.19733 8.42558 6.33425C8.43539 6.37699 8.44451 6.41709 8.4546 6.45457C8.46551 6.49208 8.47693 6.52691 8.48773 6.55912C8.50838 6.62352 8.53098 6.67723 8.55003 6.72023C8.56775 6.76334 8.58609 6.79555 8.59677 6.81731C8.6085 6.83888 8.61456 6.84999 8.61456 6.84999C8.62524 6.86942 8.63998 6.88812 8.65821 6.90381C8.7412 6.97521 8.87082 6.9706 8.94771 6.89354L9.02828 6.81277C9.02828 6.81277 9.03113 6.80993 9.03673 6.8043C9.04209 6.79871 9.05128 6.79032 9.0609 6.77957C9.08006 6.75807 9.11229 6.72626 9.14796 6.68682C9.21331 6.61469 9.30921 6.5089 9.4312 6.37427C9.53094 6.26314 9.65202 6.12818 9.79091 5.9734C9.80612 5.95575 9.82227 5.93817 9.83878 5.92059C9.84672 5.91198 9.85407 5.90225 9.8617 5.89433L9.88415 5.87305L9.89467 5.8623C9.89842 5.85802 9.901 5.85689 9.90601 5.84926C9.91497 5.83663 9.924 5.82391 9.93311 5.81109L9.94622 5.79166L9.95279 5.7819C9.94665 5.80289 9.95197 5.78676 9.95103 5.79101L9.95259 5.78934L9.95572 5.78604C9.96397 5.77717 9.97269 5.76846 9.9806 5.75949C10.0125 5.72368 10.0439 5.68743 10.075 5.65097L10.0986 5.62362L10.126 5.59718C10.144 5.57972 10.1623 5.56203 10.1807 5.54416C10.2489 5.472 10.3368 5.40546 10.4182 5.33799C10.4624 5.30545 10.5102 5.2744 10.5553 5.24265C10.5789 5.22722 10.599 5.21037 10.625 5.19609C10.6501 5.18142 10.6756 5.16719 10.6998 5.15219C10.8937 5.03227 11.1134 4.93243 11.3346 4.83699C11.5561 4.74173 11.7781 4.6485 12.0026 4.54939C12.2276 4.45398 12.4563 4.35709 12.6849 4.26019C12.708 4.24999 12.7311 4.23938 12.7543 4.22834L12.7891 4.21149L12.8066 4.20285L12.8397 4.1929C12.9302 4.16689 13.0198 4.13759 13.1096 4.10995L13.1432 4.09945C13.1559 4.09684 13.0484 4.11721 13.0953 4.10821L13.0983 4.10737L13.1043 4.10566L13.1164 4.10225L13.1647 4.08845L13.2612 4.0582C13.2936 4.04875 13.3253 4.03561 13.3585 4.02878C13.3914 4.02097 13.4244 4.01244 13.4573 4.00321C13.5233 3.98513 13.5894 3.96533 13.6568 3.95291C13.724 3.9382 13.7913 3.92008 13.8592 3.9069C13.9271 3.89499 13.9953 3.88126 14.0638 3.86797C14.1322 3.85482 14.2008 3.84668 14.2696 3.83535C14.3042 3.82987 14.3387 3.82439 14.373 3.81894C14.4076 3.81505 14.442 3.8112 14.4761 3.80735C14.5108 3.80332 14.5452 3.79929 14.5795 3.79526C14.614 3.7905 14.6488 3.78542 14.6828 3.78378C14.7512 3.77902 14.8197 3.7735 14.8886 3.76657C14.9232 3.76235 14.9567 3.76243 14.9906 3.76097C15.0243 3.75996 15.0585 3.75713 15.0925 3.75527C15.2303 3.7422 15.3597 3.75168 15.4938 3.74507C15.5598 3.74648 15.6246 3.74786 15.6883 3.74921C15.7207 3.74997 15.7528 3.7507 15.7847 3.75146C15.816 3.75353 15.8472 3.75553 15.8786 3.75691C15.942 3.76025 16.0041 3.76352 16.0648 3.76675C16.1262 3.77034 16.1832 3.7799 16.2431 3.78353C16.3017 3.78905 16.3612 3.79257 16.417 3.79994C16.4721 3.80826 16.5264 3.81629 16.581 3.82246C16.6346 3.82991 16.6897 3.83423 16.7388 3.84436C16.7883 3.85409 16.8376 3.86234 16.8858 3.87007C16.9342 3.87832 16.9807 3.88623 17.025 3.89379C17.0657 3.90279 17.107 3.90948 17.146 3.91718C17.1858 3.92495 17.2234 3.93232 17.2588 3.93929C17.2953 3.94717 17.3294 3.94983 17.3638 3.96181C17.431 3.98208 17.4896 3.99784 17.5372 4.01051C17.5844 4.02373 17.6224 4.03198 17.6472 4.03826C17.6723 4.04432 17.6852 4.04748 17.6852 4.04748L17.735 4.05954C17.7896 4.07258 17.8497 4.06546 17.9011 4.03524C18.0003 3.97717 18.0297 3.85558 17.9671 3.7637V3.7637Z" fill="#1B871B"/>
<path d="M16.292 7.24104C16.2881 7.08738 16.2676 6.90176 16.2189 6.6958C16.1705 6.48977 16.095 6.26312 15.9869 6.02651C15.878 5.79081 15.7376 5.54436 15.5598 5.299C15.4709 5.17628 15.3721 5.05433 15.2647 4.93281C15.1553 4.81296 15.0387 4.69224 14.909 4.57664C14.6502 4.34505 14.3491 4.12315 13.9884 3.93593C13.943 3.91243 13.897 3.88963 13.8506 3.86726C13.8025 3.84586 13.7544 3.8244 13.7062 3.80294C13.6579 3.78158 13.6062 3.7623 13.5559 3.74221L13.5178 3.72765L13.5082 3.72406C13.5216 3.72801 13.4845 3.71657 13.4872 3.71734L13.4839 3.71607L13.4705 3.71098L13.4438 3.70078C13.4342 3.69722 13.4289 3.69475 13.4099 3.68872L13.3136 3.65807L13.232 3.63355C13.178 3.61765 13.1233 3.60403 13.0695 3.59139C12.9614 3.56611 12.8542 3.54319 12.7471 3.52798C12.3195 3.46166 11.8965 3.46188 11.4831 3.51944C11.2812 3.54744 11.0817 3.59019 10.887 3.64706C10.9795 3.53466 11.0769 3.42128 11.1789 3.308C11.3321 3.1368 11.4951 2.96622 11.6623 2.79785C11.8298 2.62985 12.001 2.4633 12.1742 2.3039C12.3467 2.1437 12.5193 1.98768 12.6892 1.84027C12.8591 1.69289 13.0258 1.55322 13.1847 1.42273C13.3436 1.29231 13.4952 1.17199 13.6342 1.06406C13.7732 0.956339 13.8991 0.859699 14.0062 0.780563C14.0331 0.761496 14.0584 0.741558 14.0825 0.723072C14.1062 0.705313 14.1284 0.688643 14.1491 0.673136C14.17 0.657992 14.1893 0.642302 14.2073 0.628465C14.2252 0.614483 14.2441 0.602317 14.2596 0.591167C14.3229 0.545625 14.3563 0.519186 14.3563 0.519186C14.3791 0.501028 14.3985 0.477276 14.411 0.449856C14.4541 0.355068 14.4063 0.245789 14.3042 0.205803C14.3042 0.205803 14.2638 0.189969 14.1886 0.164292C14.1168 0.138725 13.9916 0.107782 13.8453 0.0782562C13.7708 0.0638382 13.6881 0.0497107 13.5972 0.0370359C13.5069 0.0258865 13.4081 0.0151002 13.3029 0.0091078C13.0922 -0.00407543 12.8534 -0.00411175 12.5946 0.0167345C12.3358 0.0373991 12.0575 0.0797452 11.7685 0.146896C11.4796 0.214156 11.181 0.307456 10.8808 0.426795C10.732 0.48828 10.5808 0.553179 10.4328 0.62803C10.2828 0.700229 10.1363 0.782379 9.99022 0.868814C9.84441 0.955686 9.70185 1.05051 9.56137 1.1502C9.42182 1.2512 9.28485 1.35739 9.15285 1.47074C8.88928 1.69747 8.6421 1.94759 8.42366 2.22051C8.31333 2.3559 8.21113 2.49772 8.12012 2.64579C8.02833 2.79298 7.94749 2.94639 7.87849 3.10357C7.73957 3.41692 7.64985 3.74755 7.61524 4.07238C7.59666 4.23421 7.59576 4.3964 7.60362 4.55148C7.60616 4.58812 7.60941 4.62433 7.61309 4.66025C7.55258 4.63188 7.49078 4.60348 7.42656 4.57486C7.40521 4.56542 7.3837 4.55594 7.36207 4.54639C7.34021 4.53815 7.31823 4.52987 7.29613 4.52151C7.25146 4.50499 7.20625 4.48832 7.16061 4.47143C6.97647 4.39949 6.78053 4.34821 6.57175 4.29028C6.46791 4.26511 6.36157 4.24412 6.25178 4.2215C6.19715 4.21122 6.14087 4.19778 6.08545 4.19044C6.02983 4.18256 5.97343 4.17403 5.91637 4.16724C5.68667 4.13462 5.45228 4.12373 5.20693 4.1145C5.08682 4.11683 4.96421 4.11988 4.8396 4.12478C4.77694 4.12703 4.71636 4.13441 4.65453 4.14069C4.59289 4.14741 4.53039 4.15344 4.46804 4.16168C3.97126 4.22879 3.47138 4.37181 3.00912 4.59248C2.95194 4.62059 2.89574 4.65055 2.8395 4.68073C2.78302 4.71055 2.72709 4.74152 2.67148 4.77308C2.64379 4.78899 2.61535 4.80406 2.58833 4.82081L2.50846 4.87274C2.45511 4.90728 2.40216 4.94247 2.34987 4.9786C2.29773 5.01481 2.24407 5.04953 2.19436 5.0885C2.14485 5.12765 2.09467 5.16604 2.04652 5.20679L1.90154 5.32798L1.86548 5.35838C1.85359 5.36836 1.83954 5.38173 1.82672 5.39324L1.74838 5.46529L1.59639 5.61318L1.52153 5.68756L1.48438 5.72482L1.46165 5.75133C1.40232 5.82001 1.34612 5.89144 1.28855 5.96139L1.26708 5.98772C1.2756 5.97955 1.18396 6.06969 1.22104 6.0337L1.21756 6.03817L1.21056 6.04714L1.1966 6.06508L1.14106 6.1368C1.10508 6.18514 1.06913 6.23341 1.03327 6.2816C0.960601 6.37719 0.895169 6.47594 0.833217 6.57606C0.703329 6.77247 0.598472 6.97861 0.497565 7.18024C0.451219 7.28324 0.407649 7.38616 0.36447 7.48749C0.341747 7.53757 0.324303 7.58983 0.306468 7.64147C0.288829 7.69293 0.271229 7.74421 0.253747 7.79528C0.120065 8.20483 0.0383227 8.60828 0.0131352 8.99321C0.00957609 9.04093 0.00605602 9.08832 0.00253602 9.13539C-0.0007102 9.18231 0.000815196 9.23014 0.000111197 9.27667C-6.13645e-06 9.37007 -0.00051459 9.46109 0.00230141 9.55035C0.00848096 9.6406 0.014817 9.72856 0.0238907 9.81442C0.0282712 9.85709 0.0326516 9.89936 0.0369538 9.94124C0.0420774 9.98311 0.0504863 10.025 0.0578392 10.066C0.073288 10.1471 0.088424 10.2266 0.103247 10.3042C0.119087 10.3812 0.139581 10.4565 0.161014 10.5289C0.182838 10.6013 0.201729 10.6708 0.225117 10.7381C0.249171 10.8055 0.273067 10.8702 0.299194 10.9322C0.347926 11.0559 0.401039 11.1695 0.457594 11.2716C0.484971 11.3221 0.511254 11.3706 0.536363 11.4169C0.563976 11.4653 0.593896 11.5103 0.620765 11.5523C0.647986 11.5935 0.673722 11.6326 0.69797 11.6693C0.710017 11.6874 0.722884 11.7045 0.734617 11.7211C0.740641 11.7291 0.746312 11.7378 0.752335 11.7449C0.758436 11.7517 0.76442 11.7584 0.770326 11.7649C0.816712 11.8174 0.8586 11.8617 0.892822 11.8975C0.926105 11.9335 0.954852 11.9605 0.972961 11.9789C0.991421 11.9973 1.00096 12.0068 1.00096 12.0068L1.04837 12.0539C1.08767 12.0929 1.14145 12.1198 1.20305 12.1268C1.34225 12.1425 1.46881 12.0504 1.48575 11.9212C1.48575 11.9212 1.48723 11.9098 1.49013 11.8876C1.49275 11.8656 1.49807 11.8325 1.50178 11.79C1.50601 11.7474 1.51125 11.6949 1.51739 11.6331C1.51891 11.6008 1.52818 11.5731 1.5337 11.5408C1.53948 11.5095 1.54566 11.4763 1.5522 11.4413C1.55849 11.4066 1.56596 11.3704 1.57179 11.3331C1.58071 11.2938 1.59002 11.2527 1.59972 11.2098C1.60969 11.1672 1.61962 11.1232 1.6287 11.0779C1.63699 11.0328 1.65357 10.9857 1.66617 10.9379C1.68021 10.8899 1.69307 10.8409 1.70602 10.7907C1.72006 10.7405 1.73938 10.6893 1.75632 10.6372C1.77521 10.5851 1.78858 10.5318 1.80912 10.4779C1.82981 10.4245 1.85097 10.3699 1.87259 10.3141C1.88315 10.2865 1.89379 10.2586 1.90459 10.2304C1.91679 10.2026 1.92911 10.1745 1.94151 10.1461C1.96607 10.09 1.99106 10.0329 2.01648 9.97476C2.04656 9.91789 2.07386 9.85982 2.10233 9.80142C2.11688 9.77229 2.12975 9.74266 2.14571 9.7136C2.16202 9.68477 2.17848 9.65567 2.19503 9.62644C2.31881 9.39085 2.47373 9.15624 2.64144 8.92573C2.68524 8.86893 2.72658 8.81064 2.77203 8.75442C2.81744 8.6986 2.86316 8.64234 2.90916 8.5858C2.95628 8.53038 3.00795 8.47772 3.05672 8.42328C3.10338 8.36731 3.1563 8.31592 3.20796 8.26363C3.25955 8.21129 3.30973 8.15776 3.36652 8.11L3.44873 8.03595L3.48862 7.998L3.4986 7.98849L3.50357 7.98373L3.50607 7.98137C3.52813 7.95979 3.47873 8.00817 3.48511 8.0021L3.51111 7.97988C3.58046 7.92064 3.64992 7.86127 3.7195 7.80185L3.74531 7.77995L3.76541 7.76619L3.80535 7.73851L3.88408 7.68266C3.93003 7.64445 3.99558 7.60279 4.05542 7.5619C4.08593 7.54171 4.11491 7.51981 4.14444 7.49853C4.17405 7.47743 4.20596 7.45963 4.23643 7.43987C4.29936 7.40338 4.35529 7.35671 4.419 7.32257C4.48205 7.28738 4.54173 7.24736 4.60282 7.20966C4.6372 7.18972 4.67166 7.17051 4.70607 7.151C4.69215 7.1656 4.6778 7.17984 4.66411 7.19462C4.39178 7.48908 4.16658 7.82161 3.99965 8.19321C3.95655 8.28553 3.92049 8.38195 3.88603 8.48044C3.86898 8.52943 3.85232 8.5797 3.83808 8.63061L3.817 8.7079L3.79381 8.79985C3.78915 8.81805 3.78861 8.8235 3.78677 8.83294L3.78184 8.85938L3.77938 8.8726L3.77875 8.8759C3.77949 8.87336 3.77022 8.90862 3.77371 8.89599L3.77191 8.90543L3.76491 8.94316C3.7565 8.99339 3.7466 9.04423 3.74038 9.09359C3.73432 9.14294 3.72826 9.19219 3.72224 9.2414C3.71797 9.28978 3.7143 9.33811 3.71156 9.38631C3.69048 9.76949 3.73272 10.1243 3.80636 10.451C3.84278 10.6145 3.89088 10.7703 3.942 10.9201C3.99574 11.0692 4.05441 11.2117 4.11906 11.3469C4.24828 11.6171 4.39839 11.8587 4.55538 12.0697C4.71366 12.2805 4.8802 12.4604 5.04239 12.608C5.20431 12.7558 5.36267 12.8707 5.50077 12.9554C5.56793 12.999 5.63477 13.0324 5.69023 13.0617C5.74772 13.0922 5.80373 13.1168 5.8439 13.1349C5.91914 13.1595 5.96088 13.1711 5.96088 13.1711C6.02318 13.1884 6.09155 13.1889 6.15807 13.1686C6.33118 13.1159 6.42548 12.9429 6.36873 12.7821L6.36865 12.7819C6.36865 12.7819 6.35508 12.7435 6.32664 12.6742C6.31773 12.643 6.31162 12.608 6.2997 12.5654C6.28714 12.5205 6.27502 12.4691 6.26094 12.4124C6.20767 12.1843 6.15299 11.8623 6.1235 11.4855C6.10966 11.2968 6.10046 11.0952 6.10121 10.8872C6.10136 10.8352 6.10144 10.783 6.10375 10.7302C6.10363 10.6779 6.10711 10.625 6.10919 10.5721C6.1147 10.4666 6.12268 10.3606 6.13363 10.2562C6.13594 10.23 6.14044 10.2042 6.14349 10.1782C6.14599 10.1522 6.14912 10.1265 6.1533 10.101C6.15964 10.0496 6.17032 9.99942 6.17771 9.94945C6.18745 9.90031 6.19629 9.85081 6.20849 9.80396C6.21788 9.75598 6.23102 9.71077 6.24334 9.66599C6.25057 9.64423 6.25691 9.62241 6.26266 9.60058L6.28358 9.53862C6.29019 9.51789 6.29907 9.49969 6.30623 9.48012L6.31147 9.46563L6.31272 9.46199C6.31671 9.44718 6.30791 9.48026 6.30932 9.47558L6.31049 9.47242L6.31514 9.4597L6.32449 9.43428C6.32746 9.42644 6.33138 9.41453 6.33224 9.41558C6.33525 9.41187 6.33802 9.40817 6.34057 9.40443L6.35383 9.37926C6.3636 9.36223 6.371 9.3444 6.38109 9.32635C6.39931 9.29021 6.42164 9.25375 6.44241 9.21551C6.52967 9.06421 6.63503 8.90666 6.74537 8.76248C6.85601 8.61754 6.97241 8.48669 7.08559 8.37218C7.19952 8.258 7.3099 8.16023 7.42398 8.0751C7.53807 7.99059 7.65896 7.91669 7.79573 7.85836C7.93176 7.80029 8.08304 7.75772 8.23429 7.73161C8.38545 7.70408 8.53478 7.69373 8.66521 7.68687C8.73112 7.6824 8.78982 7.68404 8.84438 7.68146C8.89785 7.6812 8.94462 7.68128 8.98377 7.68051C9.0607 7.6816 9.10553 7.67982 9.10553 7.67982L9.13595 7.6787C9.1778 7.67692 9.22 7.66795 9.26052 7.65106C9.38392 7.59967 9.45819 7.48887 9.46261 7.37131C9.49464 7.35028 9.52351 7.32406 9.54709 7.29232L9.56367 7.26994C9.56367 7.26994 9.58913 7.23566 9.62907 7.17457C9.65058 7.14421 9.67541 7.10735 9.70404 7.06548C9.73537 7.02393 9.76509 6.9769 9.80424 6.92747C9.87985 6.82854 9.96871 6.71661 10.0742 6.61238C10.1785 6.50731 10.2977 6.411 10.423 6.33492C10.5489 6.25836 10.6806 6.20261 10.8184 6.15783C10.9567 6.11338 11.1046 6.07859 11.2693 6.04972C11.4339 6.02161 11.6152 5.99967 11.8062 5.98972C11.9963 5.97962 12.1961 5.98057 12.3805 5.99241C12.4264 5.9964 12.4715 5.99825 12.5142 6.00312C12.536 6.00479 12.5561 6.00846 12.5769 6.00984L12.6069 6.01278C12.6117 6.01278 12.6165 6.01256 12.6215 6.01216C12.6209 6.01093 12.6339 6.0142 12.6427 6.01601L12.6708 6.02219L12.6848 6.02527L12.6883 6.02604C12.6934 6.02745 12.6585 6.01677 12.6741 6.0215L12.6781 6.02244L12.6941 6.02604C12.7158 6.03083 12.7371 6.03355 12.7595 6.03936L12.8271 6.05585C12.8501 6.06297 12.8733 6.06958 12.8971 6.07546C12.9445 6.08959 12.9927 6.10332 13.0414 6.12144C13.0906 6.13677 13.1405 6.15613 13.1905 6.17461C13.24 6.19538 13.2914 6.21365 13.3417 6.23606C13.3671 6.24634 13.3923 6.25756 13.4174 6.26944C13.4427 6.28084 13.4686 6.29104 13.4938 6.30317C13.5948 6.3501 13.6957 6.40018 13.7949 6.45197C13.8441 6.47844 13.8942 6.50386 13.942 6.53179C13.9913 6.55801 14.039 6.58572 14.0864 6.61325C14.2766 6.72329 14.4555 6.83769 14.6203 6.94897C14.9483 7.17254 15.2128 7.38674 15.3925 7.54995C15.4368 7.59121 15.4772 7.62807 15.5114 7.66181C15.5439 7.69384 15.5727 7.7173 15.5964 7.74091C15.6444 7.80011 15.6722 7.83123 15.6722 7.83123L15.6723 7.83134C15.7139 7.87786 15.7706 7.91345 15.838 7.93081C16.0136 7.97599 16.1954 7.88048 16.244 7.71748C16.244 7.71748 16.2556 7.67852 16.2733 7.60624C16.2781 7.56499 16.2855 7.5079 16.2882 7.44648C16.2909 7.38732 16.2959 7.31701 16.292 7.24104V7.24104Z" fill="#2BA52E"/>
<path d="M11.7325 9.54874L9.37347 10.1409C9.23553 9.56327 9.04443 9.10073 8.81665 8.65442L10.9716 7.94812C11.2327 8.39453 11.457 8.86067 11.6496 9.33737C11.6779 9.40757 11.7054 9.4781 11.7325 9.54874ZM9.65715 13.1793L12.5465 12.9038C12.4765 12.3408 12.3789 11.7822 12.2483 11.231L9.61213 11.6504C9.65727 12.1568 9.6706 12.6674 9.65715 13.1793V13.1793ZM9.32588 16.1231H12.6804C12.6945 15.6496 12.6961 15.1749 12.6819 14.7009H9.54455C9.48831 15.1774 9.41399 15.6523 9.32588 16.1231Z" fill="#AF773F"/>
</svg>
