<svg width="22" height="19" viewBox="0 0 22 19" fill="none" xmlns="http://www.w3.org/2000/svg">
<path d="M0 0.968765H22V17.7607H0V0.968765Z" fill="#E3E3E3"/>
<path d="M2.12903 5.81259H19.871V9.04181H2.12903V5.81259Z" fill="#FF5D54"/>
<path d="M2.12903 9.04181V12.271V14.2086H7.09677V12.271H19.871V9.04181H2.12903Z" fill="#34C1AD"/>
<path d="M7.0968 12.271H19.871V14.2085H7.0968V12.271Z" fill="#F5F5F5"/>
<path d="M19.871 0.645843C19.871 0.289154 19.5533 0 19.1613 0C18.7694 0 18.4517 0.289154 18.4517 0.645843V1.29169C18.4517 1.64838 18.7694 1.93753 19.1613 1.93753C19.5533 1.93753 19.871 1.64838 19.871 1.29169V0.645843Z" fill="#21ABAB"/>
<path d="M14.9032 0.645843C14.9032 0.289154 14.5855 0 14.1936 0C13.8016 0 13.4839 0.289154 13.4839 0.645843V1.29169C13.4839 1.64838 13.8016 1.93753 14.1936 1.93753C14.5855 1.93753 14.9032 1.64838 14.9032 1.29169V0.645843Z" fill="#21ABAB"/>
<path d="M8.51616 0.645843C8.51616 0.289154 8.19842 0 7.80648 0C7.41454 0 7.0968 0.289154 7.0968 0.645843V1.29169C7.0968 1.64838 7.41454 1.93753 7.80648 1.93753C8.19842 1.93753 8.51616 1.64838 8.51616 1.29169V0.645843Z" fill="#21ABAB"/>
<path d="M3.54838 0.645843C3.54838 0.289154 3.23065 0 2.83871 0C2.44676 0 2.12903 0.289154 2.12903 0.645843V1.29169C2.12903 1.64838 2.44676 1.93753 2.83871 1.93753C3.23065 1.93753 3.54838 1.64838 3.54838 1.29169V0.645843Z" fill="#21ABAB"/>
<path d="M2.18076 7.4929L2.07715 7.36179L4.56102 5.74718L4.66463 5.87829L2.18076 7.4929Z" fill="#F5F5F5"/>
<path d="M4.66465 7.49275L4.56104 7.36164L7.04491 5.74703L7.14852 5.87814L4.66465 7.49275Z" fill="#F5F5F5"/>
<path d="M7.14853 7.49275L7.04492 7.36164L9.52879 5.74703L9.63241 5.87814L7.14853 7.49275Z" fill="#F5F5F5"/>
<path d="M9.63242 7.49275L9.52881 7.36164L12.0127 5.74703L12.1163 5.87814L9.63242 7.49275Z" fill="#F5F5F5"/>
<path d="M12.1163 7.49275L12.0127 7.36164L14.4966 5.74703L14.6002 5.87814L12.1163 7.49275Z" fill="#F5F5F5"/>
<path d="M14.6002 7.49275L14.4966 7.36164L16.9805 5.74703L17.0841 5.87814L14.6002 7.49275Z" fill="#F5F5F5"/>
<path d="M17.0795 7.49565L16.9851 7.35873L19.8238 5.74413L19.9182 5.88104L17.0795 7.49565Z" fill="#F5F5F5"/>
<path d="M2.18076 9.10736L2.07715 8.97626L4.56102 7.36165L4.66463 7.49275L2.18076 9.10736Z" fill="#F5F5F5"/>
<path d="M4.66465 9.10736L4.56104 8.97626L7.04491 7.36165L7.14852 7.49275L4.66465 9.10736Z" fill="#F5F5F5"/>
<path d="M7.14853 9.10736L7.04492 8.97626L9.52879 7.36165L9.63241 7.49275L7.14853 9.10736Z" fill="#F5F5F5"/>
<path d="M9.63242 9.10736L9.52881 8.97626L12.0127 7.36165L12.1163 7.49275L9.63242 9.10736Z" fill="#F5F5F5"/>
<path d="M12.1163 9.10736L12.0127 8.97626L14.4966 7.36165L14.6002 7.49275L12.1163 9.10736Z" fill="#F5F5F5"/>
<path d="M14.6002 9.10736L14.4966 8.97626L16.9805 7.36165L17.0841 7.49275L14.6002 9.10736Z" fill="#F5F5F5"/>
<path d="M17.0795 9.11027L16.9851 8.97335L19.8238 7.35874L19.9182 7.49566L17.0795 9.11027Z" fill="#F5F5F5"/>
<path d="M19.871 5.65113H2.12908C2.08202 5.65113 2.0369 5.66814 2.00363 5.69842C1.97035 5.7287 1.95166 5.76977 1.95166 5.81259V14.2086C1.95166 14.2514 1.97035 14.2924 2.00363 14.3227C2.0369 14.353 2.08202 14.37 2.12908 14.37H19.871C19.9181 14.37 19.9632 14.353 19.9965 14.3227C20.0297 14.2924 20.0484 14.2514 20.0484 14.2086V5.81259C20.0484 5.76977 20.0297 5.7287 19.9965 5.69842C19.9632 5.66814 19.9181 5.65113 19.871 5.65113ZM19.6936 7.26574H17.2097V5.97405H19.6936V7.26574ZM4.79037 12.1096V10.8179H6.9194V12.1096H4.79037ZM6.9194 12.4325V14.0471H4.79037V12.4325H6.9194ZM7.27424 9.20327H9.40327V10.495H7.27424V9.20327ZM6.9194 10.495H4.79037V9.20327H6.9194V10.495ZM11.8871 8.88035H9.75811V7.58866H11.8871V8.88035ZM12.242 7.58866H14.371V8.88035H12.242V7.58866ZM9.40327 8.88035H7.27424V7.58866H9.40327V8.88035ZM9.75811 9.20327H11.8871V10.495H9.75811V9.20327ZM12.242 9.20327H14.371V10.495H12.242V9.20327ZM14.7259 9.20327H16.8549V10.495H14.7259V9.20327ZM14.7259 8.88035V7.58866H16.8549V8.88035H14.7259ZM14.7259 7.26574V5.97405H16.8549V7.26574H14.7259ZM14.371 7.26574H12.242V5.97405H14.371V7.26574ZM11.8871 7.26574H9.75811V5.97405H11.8871V7.26574ZM9.40327 7.26574H7.27424V5.97405H9.40327V7.26574ZM6.9194 7.26574H4.79037V5.97405H6.9194V7.26574ZM6.9194 7.58866V8.88035H4.79037V7.58866H6.9194ZM4.43553 8.88035H2.3065V7.58866H4.43553V8.88035ZM4.43553 9.20327V10.495H2.3065V9.20327H4.43553ZM4.43553 10.8179V12.1096H2.3065V10.8179H4.43553ZM7.27424 10.8179H9.40327V12.1096H7.27424V10.8179ZM9.75811 10.8179H11.8871V12.1096H9.75811V10.8179ZM12.242 10.8179H14.371V12.1096H12.242V10.8179ZM14.7259 10.8179H16.8549V12.1096H14.7259V10.8179ZM17.2097 10.8179H19.6936V12.1096H17.2097V10.8179ZM17.2097 10.495V9.20327H19.6936V10.495H17.2097ZM17.2097 8.88035V7.58866H19.6936V8.88035H17.2097ZM4.43553 5.97405V7.26574H2.3065V5.97405H4.43553ZM2.3065 12.4325H4.43553V14.0471H2.3065V12.4325ZM7.27424 14.0471V12.4325H19.6936V14.0471H7.27424Z" fill="#3D3D3D"/>
<path d="M19.1613 0.968765V0.322922C19.162 0.212599 19.1942 0.104328 19.2547 0.00871887C19.2238 0.00384927 19.1926 0.000935976 19.1613 0C18.9731 0 18.7926 0.068044 18.6595 0.189163C18.5264 0.310282 18.4517 0.474555 18.4517 0.645843V1.29169C18.451 1.43461 18.5026 1.57366 18.5984 1.68692C18.6942 1.80018 18.8287 1.88121 18.9807 1.91722C19.1326 1.95323 19.2935 1.94218 19.4378 1.88581C19.5821 1.82944 19.7017 1.73095 19.7777 1.60589C19.6075 1.58583 19.4511 1.51013 19.3377 1.39291C19.2243 1.27569 19.1616 1.12494 19.1613 0.968765V0.968765Z" fill="#13969D"/>
<path d="M14.1936 0.968765V0.322922C14.1942 0.212599 14.2264 0.104328 14.2869 0.00871887C14.256 0.00384927 14.2249 0.000935976 14.1936 0C14.0054 0 13.8248 0.068044 13.6918 0.189163C13.5587 0.310282 13.4839 0.474555 13.4839 0.645843V1.29169C13.4832 1.43461 13.5349 1.57366 13.6306 1.68692C13.7264 1.80018 13.8609 1.88121 14.0129 1.91722C14.1649 1.95323 14.3257 1.94218 14.47 1.88581C14.6143 1.82944 14.7339 1.73095 14.8099 1.60589C14.6397 1.58583 14.4834 1.51013 14.37 1.39291C14.2566 1.27569 14.1939 1.12494 14.1936 0.968765V0.968765Z" fill="#13969D"/>
<path d="M7.80649 0.968765V0.322922C7.80716 0.212599 7.83932 0.104328 7.89981 0.00871887C7.86896 0.00384927 7.83778 0.000935976 7.80649 0C7.61827 0 7.43776 0.068044 7.30467 0.189163C7.17158 0.310282 7.09681 0.474555 7.09681 0.645843V1.29169C7.09615 1.43461 7.14778 1.57366 7.24356 1.68692C7.33934 1.80018 7.47383 1.88121 7.6258 1.91722C7.77778 1.95323 7.93861 1.94218 8.08293 1.88581C8.22724 1.82944 8.34683 1.73095 8.42284 1.60589C8.25265 1.58583 8.09628 1.51013 7.98288 1.39291C7.86948 1.27569 7.80679 1.12494 7.80649 0.968765Z" fill="#13969D"/>
<path d="M2.83871 0.968765V0.322922C2.83939 0.212599 2.87154 0.104328 2.93203 0.00871887C2.90119 0.00384927 2.87 0.000935976 2.83871 0C2.65049 0 2.46998 0.068044 2.33689 0.189163C2.2038 0.310282 2.12903 0.474555 2.12903 0.645843V1.29169C2.12837 1.43461 2.18 1.57366 2.27579 1.68692C2.37157 1.80018 2.50605 1.88121 2.65803 1.91722C2.81001 1.95323 2.97084 1.94218 3.11515 1.88581C3.25947 1.82944 3.37906 1.73095 3.45507 1.60589C3.28488 1.58583 3.12851 1.51013 3.01511 1.39291C2.90171 1.27569 2.83901 1.12494 2.83871 0.968765V0.968765Z" fill="#13969D"/>
<path d="M19.1613 1.93753C18.9731 1.93753 18.7926 1.86949 18.6595 1.74837C18.5264 1.62725 18.4516 1.46298 18.4516 1.29169V0.968765H18.0968V1.61461C18.0975 1.76184 18.1535 1.90443 18.2555 2.01874C18.3575 2.13304 18.4993 2.2122 18.6575 2.24311C18.8157 2.27401 18.9808 2.25479 19.1253 2.18865C19.2698 2.1225 19.3852 2.01339 19.4523 1.8794C19.3609 1.91739 19.2617 1.93721 19.1613 1.93753V1.93753Z" fill="#BFBFBF"/>
<path d="M14.1935 1.93753C14.0053 1.93753 13.8248 1.86949 13.6917 1.74837C13.5586 1.62725 13.4839 1.46298 13.4839 1.29169V0.968765H13.129V1.61461C13.1298 1.76184 13.1858 1.90443 13.2878 2.01874C13.3897 2.13304 13.5316 2.2122 13.6898 2.24311C13.8479 2.27401 14.013 2.25479 14.1575 2.18865C14.3021 2.1225 14.4174 2.01339 14.4845 1.8794C14.3932 1.91739 14.294 1.93721 14.1935 1.93753V1.93753Z" fill="#BFBFBF"/>
<path d="M7.80646 1.93753C7.61824 1.93753 7.43773 1.86949 7.30464 1.74837C7.17155 1.62725 7.09678 1.46298 7.09678 1.29169V0.968765H6.74194V1.61461C6.74269 1.76184 6.79869 1.90443 6.90067 2.01874C7.00264 2.13304 7.14448 2.2122 7.30267 2.24311C7.46085 2.27401 7.62589 2.25479 7.77044 2.18865C7.91498 2.1225 8.03035 2.01339 8.09743 1.8794C8.00608 1.91739 7.90689 1.93721 7.80646 1.93753V1.93753Z" fill="#BFBFBF"/>
<path d="M2.83869 1.93753C2.65047 1.93753 2.46996 1.86949 2.33687 1.74837C2.20378 1.62725 2.12901 1.46298 2.12901 1.29169V0.968765H1.77417V1.61461C1.77491 1.76184 1.83091 1.90443 1.93289 2.01874C2.03487 2.13304 2.17671 2.2122 2.33489 2.24311C2.49308 2.27401 2.65812 2.25479 2.80266 2.18865C2.94721 2.1225 3.06258 2.01339 3.12965 1.8794C3.03831 1.91739 2.93911 1.93721 2.83869 1.93753Z" fill="#BFBFBF"/>
<path d="M1.77417 2.58337H3.19352V3.22922H1.77417V2.58337Z" fill="#13969D"/>
<path d="M1.77417 3.55214H4.96772V4.19798H1.77417V3.55214Z" fill="#13969D"/>
<path d="M3.9032 4.5209H4.61288V5.16675H3.9032V4.5209Z" fill="#13969D"/>
<path d="M6.38708 4.5209H7.09676V5.16675H6.38708V4.5209Z" fill="#13969D"/>
<path d="M8.87097 4.5209H9.58065V5.16675H8.87097V4.5209Z" fill="#13969D"/>
<path d="M11.3549 4.5209H12.0645V5.16675H11.3549V4.5209Z" fill="#13969D"/>
<path d="M13.8387 4.5209H14.5484V5.16675H13.8387V4.5209Z" fill="#13969D"/>
<path d="M16.3226 4.5209H17.0323V5.16675H16.3226V4.5209Z" fill="#13969D"/>
<path d="M19.1613 4.5209H19.8709V5.16675H19.1613V4.5209Z" fill="#13969D"/>
<path d="M9.4032 14.8544H9.75804V17.1148H9.4032V14.8544Z" fill="#3D3D3D"/>
<path d="M11.8871 14.8544H11.5323V15.9846H10.8226V14.8544H10.4678V16.1461C10.4678 16.1889 10.4865 16.23 10.5197 16.2602C10.553 16.2905 10.5981 16.3075 10.6452 16.3075H11.5323V17.1148H11.8871V16.3075H12.4194V15.9846H11.8871V14.8544Z" fill="#3D3D3D"/>
<path d="M14.4873 14.8544H13.8387C13.7946 14.8519 13.7512 14.8654 13.718 14.8919C13.6847 14.9184 13.6644 14.9557 13.6613 14.9958V16.9734C13.6644 17.0135 13.6847 17.0509 13.718 17.0774C13.7512 17.1039 13.7946 17.1173 13.8387 17.1148H14.4873C14.7228 17.128 14.9544 17.0561 15.1319 16.9147C15.3094 16.7733 15.4185 16.574 15.4354 16.3598V15.6094C15.4185 15.3953 15.3094 15.1959 15.1319 15.0545C14.9544 14.9132 14.7228 14.8412 14.4873 14.8544V14.8544ZM15.0806 16.3598C15.07 16.4938 15.0017 16.6185 14.8906 16.707C14.7795 16.7954 14.6346 16.8405 14.4873 16.8323H14.0161V15.1369H14.4873C14.6346 15.1288 14.7795 15.1738 14.8906 15.2622C15.0017 15.3507 15.07 15.4754 15.0806 15.6094V16.3598Z" fill="#3D3D3D"/>
<path d="M17.0322 14.8544C16.805 14.8477 16.584 14.9232 16.4177 15.0644C16.2515 15.2056 16.1535 15.401 16.1451 15.6078V17.1148H16.5V16.3615H17.5645V17.1148H17.9193V15.6078C17.911 15.401 17.813 15.2056 17.6467 15.0644C17.4805 14.9232 17.2595 14.8477 17.0322 14.8544V14.8544ZM16.5 16.0599V15.6078C16.5 15.4793 16.5561 15.3561 16.6559 15.2653C16.7557 15.1744 16.8911 15.1234 17.0322 15.1234C17.1734 15.1234 17.3088 15.1744 17.4086 15.2653C17.5084 15.3561 17.5645 15.4793 17.5645 15.6078V16.0599H16.5Z" fill="#3D3D3D"/>
<path d="M19.6935 14.8544V15.1773C19.6935 15.3058 19.6374 15.429 19.5376 15.5198C19.4378 15.6107 19.3024 15.6617 19.1613 15.6617C19.0201 15.6617 18.8847 15.6107 18.7849 15.5198C18.6851 15.429 18.629 15.3058 18.629 15.1773V14.8544H18.2742V15.1773C18.2742 15.3634 18.3449 15.5437 18.4742 15.6878C18.6035 15.8319 18.7835 15.9309 18.9838 15.9682V17.1148H19.3387V15.9682C19.539 15.9309 19.719 15.8319 19.8484 15.6878C19.9777 15.5437 20.0483 15.3634 20.0484 15.1773V14.8544H19.6935Z" fill="#3D3D3D"/>
<path d="M0 17.7607H22V18.7295H0V17.7607Z" fill="#BFBFBF"/>
<path d="M0 17.7607V18.7295H1.77419C1.77419 18.5582 1.84896 18.3939 1.98205 18.2728C2.11514 18.1517 2.29565 18.0836 2.48387 18.0836H22V17.7607H0Z" fill="#A3A3A3"/>
</svg>
