<svg width="26" height="20" viewBox="0 0 26 20" fill="none" xmlns="http://www.w3.org/2000/svg">
<path d="M1.1117 17.3785C1.0823 17.3785 1.05411 17.3667 1.03332 17.3456C1.01253 17.3246 1.00085 17.296 1.00085 17.2663V3.04869C1.00085 3.01893 1.01253 2.9904 1.03332 2.96935C1.05411 2.94831 1.0823 2.93649 1.1117 2.93649C1.14109 2.93649 1.16929 2.94831 1.19007 2.96935C1.21086 2.9904 1.22254 3.01893 1.22254 3.04869V17.264C1.22283 17.279 1.22018 17.2938 1.21474 17.3077C1.20931 17.3215 1.20119 17.3342 1.19087 17.3448C1.18055 17.3555 1.16823 17.3639 1.15463 17.3697C1.14104 17.3755 1.12644 17.3785 1.1117 17.3785Z" fill="#DFEAEF"/>
<path d="M6.97974 17.3785C6.95034 17.3785 6.92215 17.3667 6.90136 17.3456C6.88057 17.3246 6.8689 17.296 6.8689 17.2663V3.04869C6.8689 3.01893 6.88057 2.9904 6.90136 2.96935C6.92215 2.94831 6.95034 2.93649 6.97974 2.93649C7.00913 2.93649 7.03733 2.94831 7.05811 2.96935C7.0789 2.9904 7.09058 3.01893 7.09058 3.04869V17.264C7.09087 17.279 7.08822 17.2938 7.08279 17.3077C7.07735 17.3215 7.06923 17.3342 7.05891 17.3448C7.04859 17.3555 7.03627 17.3639 7.02267 17.3697C7.00908 17.3755 6.99448 17.3785 6.97974 17.3785Z" fill="#DFEAEF"/>
<path d="M12.8464 17.3785C12.817 17.3785 12.7888 17.3667 12.7681 17.3456C12.7473 17.3246 12.7356 17.296 12.7356 17.2663V3.04869C12.7356 3.01893 12.7473 2.9904 12.7681 2.96935C12.7888 2.94831 12.817 2.93649 12.8464 2.93649C12.8758 2.93649 12.904 2.94831 12.9248 2.96935C12.9456 2.9904 12.9573 3.01893 12.9573 3.04869V17.264C12.9576 17.279 12.9549 17.2938 12.9495 17.3077C12.944 17.3215 12.9359 17.3342 12.9256 17.3448C12.9153 17.3555 12.903 17.3639 12.8894 17.3697C12.8758 17.3755 12.8612 17.3785 12.8464 17.3785Z" fill="#DFEAEF"/>
<path d="M18.7134 17.3785C18.684 17.3785 18.6558 17.3667 18.635 17.3456C18.6142 17.3246 18.6025 17.296 18.6025 17.2663V3.04869C18.6025 3.01893 18.6142 2.9904 18.635 2.96935C18.6558 2.94831 18.684 2.93649 18.7134 2.93649C18.7428 2.93649 18.771 2.94831 18.7918 2.96935C18.8125 2.9904 18.8242 3.01893 18.8242 3.04869V17.264C18.8245 17.279 18.8219 17.2938 18.8164 17.3077C18.811 17.3215 18.8029 17.3342 18.7926 17.3448C18.7822 17.3555 18.7699 17.3639 18.7563 17.3697C18.7427 17.3755 18.7281 17.3785 18.7134 17.3785Z" fill="#DFEAEF"/>
<path d="M24.5813 17.3785C24.5519 17.3785 24.5237 17.3667 24.5029 17.3456C24.4821 17.3246 24.4705 17.296 24.4705 17.2663V3.04869C24.4705 3.01893 24.4821 2.9904 24.5029 2.96935C24.5237 2.94831 24.5519 2.93649 24.5813 2.93649C24.6107 2.93649 24.6389 2.94831 24.6597 2.96935C24.6805 2.9904 24.6921 3.01893 24.6921 3.04869V17.264C24.6924 17.279 24.6898 17.2938 24.6843 17.3077C24.6789 17.3215 24.6708 17.3342 24.6605 17.3448C24.6501 17.3555 24.6378 17.3639 24.6242 17.3697C24.6106 17.3755 24.596 17.3785 24.5813 17.3785Z" fill="#DFEAEF"/>
<path d="M25.8892 17.3785H0.110841C0.0814442 17.3785 0.0532513 17.3667 0.0324645 17.3456C0.0116778 17.3246 0 17.296 0 17.2663C0 17.2365 0.0116778 17.208 0.0324645 17.1869C0.0532513 17.1659 0.0814442 17.1541 0.110841 17.1541H25.8892C25.9186 17.1541 25.9467 17.1659 25.9675 17.1869C25.9883 17.208 26 17.2365 26 17.2663C26 17.296 25.9883 17.3246 25.9675 17.3456C25.9467 17.3667 25.9186 17.3785 25.8892 17.3785Z" fill="#093F68"/>
<path d="M24.5812 12.9871H1.1117C1.0823 12.9871 1.05411 12.9753 1.03332 12.9542C1.01253 12.9332 1.00085 12.9046 1.00085 12.8749C1.00085 12.8451 1.01253 12.8166 1.03332 12.7956C1.05411 12.7745 1.0823 12.7627 1.1117 12.7627H24.5812C24.6106 12.7627 24.6388 12.7745 24.6596 12.7956C24.6804 12.8166 24.692 12.8451 24.692 12.8749C24.692 12.9046 24.6804 12.9332 24.6596 12.9542C24.6388 12.9753 24.6106 12.9871 24.5812 12.9871Z" fill="#DFEAEF"/>
<path d="M24.5812 7.55339H1.1117C1.0823 7.55339 1.05411 7.54157 1.03332 7.52053C1.01253 7.49949 1.00085 7.47095 1.00085 7.44119C1.00085 7.41144 1.01253 7.3829 1.03332 7.36186C1.05411 7.34082 1.0823 7.32899 1.1117 7.32899H24.5812C24.6106 7.32899 24.6388 7.34082 24.6596 7.36186C24.6804 7.3829 24.692 7.41144 24.692 7.44119C24.692 7.47095 24.6804 7.49949 24.6596 7.52053C24.6388 7.54157 24.6106 7.55339 24.5812 7.55339Z" fill="#DFEAEF"/>
<path d="M24.5812 3.16089H1.1117C1.0823 3.16089 1.05411 3.14907 1.03332 3.12803C1.01253 3.10698 1.00085 3.07845 1.00085 3.04869C1.00085 3.01893 1.01253 2.9904 1.03332 2.96935C1.05411 2.94831 1.0823 2.93649 1.1117 2.93649H24.5812C24.6106 2.93649 24.6388 2.94831 24.6596 2.96935C24.6804 2.9904 24.692 3.01893 24.692 3.04869C24.692 3.07845 24.6804 3.10698 24.6596 3.12803C24.6388 3.14907 24.6106 3.16089 24.5812 3.16089Z" fill="#DFEAEF"/>
<path d="M16.3934 16.6851V18.2166C16.3934 18.8976 17.5185 19.4508 18.9062 19.4508C20.2939 19.4508 21.419 18.8987 21.419 18.2166V16.6851H16.3934Z" fill="#FFBC0E"/>
<path d="M18.9063 19.5618C17.4355 19.5618 16.2827 18.9706 16.2827 18.2155V16.6851C16.2827 16.6553 16.2944 16.6268 16.3152 16.6058C16.336 16.5847 16.3642 16.5729 16.3936 16.5729H21.4191C21.4485 16.5729 21.4767 16.5847 21.4975 16.6058C21.5183 16.6268 21.5299 16.6553 21.5299 16.6851V18.2166C21.5299 18.9706 20.3772 19.5618 18.9063 19.5618V19.5618ZM16.5044 16.7973V18.2166C16.5044 18.8236 17.605 19.3386 18.9063 19.3386C20.2076 19.3386 21.3083 18.8247 21.3083 18.2166V16.7973H16.5044Z" fill="#093F68"/>
<path d="M18.9062 17.917C20.294 17.917 21.419 17.3655 21.419 16.6851C21.419 16.0047 20.294 15.4532 18.9062 15.4532C17.5184 15.4532 16.3934 16.0047 16.3934 16.6851C16.3934 17.3655 17.5184 17.917 18.9062 17.917Z" fill="#FFBC0E"/>
<path d="M18.9063 18.0292C17.4355 18.0292 16.2827 17.4391 16.2827 16.6828C16.2827 15.9266 17.4355 15.3365 18.9063 15.3365C20.3772 15.3365 21.5299 15.9266 21.5299 16.6828C21.5299 17.4391 20.3772 18.0292 18.9063 18.0292V18.0292ZM18.9063 15.5609C17.605 15.5609 16.5044 16.0736 16.5044 16.6828C16.5044 17.2921 17.605 17.8048 18.9063 17.8048C20.2076 17.8048 21.3083 17.2921 21.3083 16.6828C21.3083 16.0736 20.2076 15.5654 18.9063 15.5654V15.5609Z" fill="#093F68"/>
<path d="M16.3934 15.166V16.6986C16.3934 17.3785 17.5185 17.9327 18.9062 17.9327C20.2939 17.9327 21.419 17.3807 21.419 16.6986V15.166H16.3934Z" fill="#FFBC0E"/>
<path d="M18.9063 18.0449C17.4355 18.0449 16.2827 17.4548 16.2827 16.6986V15.166C16.2827 15.1362 16.2944 15.1077 16.3152 15.0866C16.336 15.0656 16.3642 15.0538 16.3936 15.0538H21.4191C21.4485 15.0538 21.4767 15.0656 21.4975 15.0866C21.5183 15.1077 21.5299 15.1362 21.5299 15.166V16.6986C21.5299 17.4548 20.3772 18.0449 18.9063 18.0449V18.0449ZM16.5044 15.2782V16.6986C16.5044 17.3055 17.605 17.8205 18.9063 17.8205C20.2076 17.8205 21.3083 17.3078 21.3083 16.6986V15.2782H16.5044Z" fill="#093F68"/>
<path d="M18.9062 16.4001C20.294 16.4001 21.419 15.8486 21.419 15.1682C21.419 14.4878 20.294 13.9363 18.9062 13.9363C17.5184 13.9363 16.3934 14.4878 16.3934 15.1682C16.3934 15.8486 17.5184 16.4001 18.9062 16.4001Z" fill="#FFBC0E"/>
<path d="M18.9063 16.5123C17.4355 16.5123 16.2827 15.9222 16.2827 15.166C16.2827 14.4098 17.4355 13.8196 18.9063 13.8196C20.3772 13.8196 21.5299 14.4109 21.5299 15.166C21.5299 15.921 20.3772 16.5123 18.9063 16.5123V16.5123ZM18.9063 14.044C17.605 14.044 16.5044 14.5567 16.5044 15.166C16.5044 15.7752 17.605 16.2879 18.9063 16.2879C20.2076 16.2879 21.3083 15.7752 21.3083 15.166C21.3083 14.5567 20.2076 14.044 18.9063 14.044V14.044Z" fill="#093F68"/>
<path d="M16.3934 13.6524V15.185C16.3934 15.8649 17.5185 16.4192 18.9062 16.4192C20.2939 16.4192 21.419 15.8672 21.419 15.185V13.6524H16.3934Z" fill="#FFBC0E"/>
<path d="M18.9063 16.5291C17.4355 16.5291 16.2827 15.9379 16.2827 15.1828V13.6524C16.2827 13.6227 16.2944 13.5941 16.3152 13.5731C16.336 13.552 16.3642 13.5402 16.3936 13.5402H21.4191C21.4485 13.5402 21.4767 13.552 21.4975 13.5731C21.5183 13.5941 21.5299 13.6227 21.5299 13.6524V15.185C21.5299 15.9379 20.3772 16.5291 18.9063 16.5291V16.5291ZM16.5044 13.7646V15.185C16.5044 15.792 17.605 16.307 18.9063 16.307C20.2076 16.307 21.3083 15.7943 21.3083 15.185V13.7646H16.5044Z" fill="#093F68"/>
<path d="M18.9062 14.8843C20.294 14.8843 21.419 14.3328 21.419 13.6524C21.419 12.9721 20.294 12.4205 18.9062 12.4205C17.5184 12.4205 16.3934 12.9721 16.3934 13.6524C16.3934 14.3328 17.5184 14.8843 18.9062 14.8843Z" fill="#FFBC0E"/>
<path d="M18.9063 14.9965C17.4355 14.9965 16.2827 14.4064 16.2827 13.6502C16.2827 12.894 17.4355 12.3038 18.9063 12.3038C20.3772 12.3038 21.5299 12.894 21.5299 13.6502C21.5299 14.4064 20.3772 14.9965 18.9063 14.9965V14.9965ZM18.9063 12.5282C17.605 12.5282 16.5044 13.0409 16.5044 13.6502C16.5044 14.2594 17.605 14.7721 18.9063 14.7721C20.2076 14.7721 21.3083 14.2594 21.3083 13.6502C21.3083 13.0409 20.2076 12.5327 18.9063 12.5327V12.5282Z" fill="#093F68"/>
<path d="M16.3934 12.1366V13.6692C16.3934 14.3492 17.5185 14.9034 18.9062 14.9034C20.2939 14.9034 21.419 14.3514 21.419 13.6692V12.1366H16.3934Z" fill="#FFBC0E"/>
<path d="M18.9063 15.0122C17.4355 15.0122 16.2827 14.4221 16.2827 13.6659V12.1366C16.2827 12.1069 16.2944 12.0783 16.3152 12.0573C16.336 12.0363 16.3642 12.0244 16.3936 12.0244H21.4191C21.4485 12.0244 21.4767 12.0363 21.4975 12.0573C21.5183 12.0783 21.5299 12.1069 21.5299 12.1366V13.6693C21.5299 14.4221 20.3772 15.0122 18.9063 15.0122V15.0122ZM16.5044 12.2488V13.6693C16.5044 14.2762 17.605 14.7912 18.9063 14.7912C20.2076 14.7912 21.3083 14.2785 21.3083 13.6693V12.2488H16.5044Z" fill="#093F68"/>
<path d="M18.9062 13.3674C20.294 13.3674 21.419 12.8159 21.419 12.1355C21.419 11.4551 20.294 10.9036 18.9062 10.9036C17.5184 10.9036 16.3934 11.4551 16.3934 12.1355C16.3934 12.8159 17.5184 13.3674 18.9062 13.3674Z" fill="#FFBC0E"/>
<path d="M18.9063 13.483C17.4355 13.483 16.2827 12.8895 16.2827 12.1366C16.2827 11.3838 17.4355 10.7903 18.9063 10.7903C20.3772 10.7903 21.5299 11.3816 21.5299 12.1366C21.5299 12.8917 20.3772 13.483 18.9063 13.483V13.483ZM18.9063 11.0147C17.605 11.0147 16.5044 11.5274 16.5044 12.1366C16.5044 12.7459 17.605 13.2586 18.9063 13.2586C20.2076 13.2586 21.3083 12.7448 21.3083 12.1366C21.3083 11.5285 20.2076 11.0147 18.9063 11.0147V11.0147Z" fill="#093F68"/>
<path d="M16.3934 10.6197V12.1523C16.3934 12.8323 17.5185 13.3865 18.9062 13.3865C20.2939 13.3865 21.419 12.8345 21.419 12.1523V10.6197H16.3934Z" fill="#FFBC0E"/>
<path d="M18.9063 13.4965C17.4355 13.4965 16.2827 12.9052 16.2827 12.1501V10.6197C16.2827 10.59 16.2944 10.5614 16.3152 10.5404C16.336 10.5194 16.3642 10.5075 16.3936 10.5075H21.4191C21.4485 10.5075 21.4767 10.5194 21.4975 10.5404C21.5183 10.5614 21.5299 10.59 21.5299 10.6197V12.1523C21.5299 12.9052 20.3772 13.4965 18.9063 13.4965V13.4965ZM16.5044 10.7319V12.1523C16.5044 12.7593 17.605 13.2743 18.9063 13.2743C20.2076 13.2743 21.3083 12.7616 21.3083 12.1523V10.7319H16.5044Z" fill="#093F68"/>
<path d="M18.9062 11.8516C20.294 11.8516 21.419 11.3001 21.419 10.6197C21.419 9.93935 20.294 9.3878 18.9062 9.3878C17.5184 9.3878 16.3934 9.93935 16.3934 10.6197C16.3934 11.3001 17.5184 11.8516 18.9062 11.8516Z" fill="#FFBC0E"/>
<path d="M18.9063 11.9639C17.4355 11.9639 16.2827 11.3737 16.2827 10.6175C16.2827 9.86129 17.4355 9.27113 18.9063 9.27113C20.3772 9.27113 21.5299 9.86129 21.5299 10.6175C21.5299 11.3737 20.3772 11.9639 18.9063 11.9639V11.9639ZM18.9063 9.49553C17.605 9.49553 16.5044 10.0083 16.5044 10.6175C16.5044 11.2267 17.605 11.7395 18.9063 11.7395C20.2076 11.7395 21.3083 11.2267 21.3083 10.6175C21.3083 10.0083 20.2076 9.50001 18.9063 9.50001V9.49553Z" fill="#093F68"/>
<path d="M10.2505 16.6851V18.2166C10.2505 18.8976 11.3744 19.4508 12.7621 19.4508C14.1499 19.4508 15.2749 18.8987 15.2749 18.2166V16.6851H10.2505Z" fill="#FFBC0E"/>
<path d="M12.7621 19.5618C11.2913 19.5618 10.1396 18.9706 10.1396 18.2155V16.6851C10.1396 16.6553 10.1513 16.6268 10.1721 16.6058C10.1929 16.5847 10.2211 16.5729 10.2505 16.5729H15.2749C15.3043 16.5729 15.3325 16.5847 15.3533 16.6058C15.3741 16.6268 15.3858 16.6553 15.3858 16.6851V18.2166C15.3858 18.9706 14.233 19.5618 12.7621 19.5618V19.5618ZM10.3613 16.7973V18.2166C10.3613 18.8236 11.4609 19.3386 12.7621 19.3386C14.0634 19.3386 15.1641 18.8247 15.1641 18.2166V16.7973H10.3613Z" fill="#093F68"/>
<path d="M12.7622 17.917C14.1499 17.917 15.2749 17.3655 15.2749 16.6851C15.2749 16.0047 14.1499 15.4532 12.7622 15.4532C11.3744 15.4532 10.2494 16.0047 10.2494 16.6851C10.2494 17.3655 11.3744 17.917 12.7622 17.917Z" fill="#FFBC0E"/>
<path d="M12.7621 18.0292C11.2913 18.0292 10.1396 17.4391 10.1396 16.6828C10.1396 15.9266 11.2913 15.3365 12.7621 15.3365C14.233 15.3365 15.3858 15.9266 15.3858 16.6828C15.3858 17.4391 14.233 18.0292 12.7621 18.0292ZM12.7621 15.5609C11.4609 15.5609 10.3613 16.0736 10.3613 16.6828C10.3613 17.2921 11.4609 17.8048 12.7621 17.8048C14.0634 17.8048 15.1641 17.2921 15.1641 16.6828C15.1641 16.0736 14.0656 15.5654 12.7621 15.5654V15.5609Z" fill="#093F68"/>
<path d="M10.2505 15.166V16.6986C10.2505 17.3785 11.3744 17.9327 12.7621 17.9327C14.1499 17.9327 15.2749 17.3807 15.2749 16.6986V15.166H10.2505Z" fill="#FFBC0E"/>
<path d="M12.7621 18.0449C11.2913 18.0449 10.1396 17.4548 10.1396 16.6986V15.166C10.1396 15.1362 10.1513 15.1077 10.1721 15.0866C10.1929 15.0656 10.2211 15.0538 10.2505 15.0538H15.2749C15.3043 15.0538 15.3325 15.0656 15.3533 15.0866C15.3741 15.1077 15.3858 15.1362 15.3858 15.166V16.6986C15.3858 17.4548 14.233 18.0449 12.7621 18.0449ZM10.3613 15.2782V16.6986C10.3613 17.3055 11.4609 17.8205 12.7621 17.8205C14.0634 17.8205 15.1641 17.3078 15.1641 16.6986V15.2782H10.3613Z" fill="#093F68"/>
<path d="M12.7622 16.4001C14.1499 16.4001 15.2749 15.8486 15.2749 15.1682C15.2749 14.4878 14.1499 13.9363 12.7622 13.9363C11.3744 13.9363 10.2494 14.4878 10.2494 15.1682C10.2494 15.8486 11.3744 16.4001 12.7622 16.4001Z" fill="#FFBC0E"/>
<path d="M12.7621 16.5123C11.2913 16.5123 10.1396 15.9222 10.1396 15.166C10.1396 14.4098 11.2913 13.8196 12.7621 13.8196C14.233 13.8196 15.3858 14.4109 15.3858 15.166C15.3858 15.921 14.233 16.5123 12.7621 16.5123ZM12.7621 14.044C11.4609 14.044 10.3613 14.5567 10.3613 15.166C10.3613 15.7752 11.4609 16.2879 12.7621 16.2879C14.0634 16.2879 15.1641 15.7752 15.1641 15.166C15.1641 14.5567 14.0656 14.044 12.7621 14.044Z" fill="#093F68"/>
<path d="M10.2505 13.6524V15.185C10.2505 15.8649 11.3744 16.4192 12.7621 16.4192C14.1499 16.4192 15.2749 15.8672 15.2749 15.185V13.6524H10.2505Z" fill="#FFBC0E"/>
<path d="M12.7621 16.5291C11.2913 16.5291 10.1396 15.9379 10.1396 15.1828V13.6524C10.1396 13.6227 10.1513 13.5941 10.1721 13.5731C10.1929 13.552 10.2211 13.5402 10.2505 13.5402H15.2749C15.3043 13.5402 15.3325 13.552 15.3533 13.5731C15.3741 13.5941 15.3858 13.6227 15.3858 13.6524V15.185C15.3858 15.9379 14.233 16.5291 12.7621 16.5291V16.5291ZM10.3613 13.7646V15.185C10.3613 15.792 11.4609 16.307 12.7621 16.307C14.0634 16.307 15.1641 15.7943 15.1641 15.185V13.7646H10.3613Z" fill="#093F68"/>
<path d="M12.7622 14.8843C14.1499 14.8843 15.2749 14.3328 15.2749 13.6524C15.2749 12.9721 14.1499 12.4205 12.7622 12.4205C11.3744 12.4205 10.2494 12.9721 10.2494 13.6524C10.2494 14.3328 11.3744 14.8843 12.7622 14.8843Z" fill="#FFBC0E"/>
<path d="M12.7621 14.9965C11.2913 14.9965 10.1396 14.4064 10.1396 13.6502C10.1396 12.894 11.2913 12.3038 12.7621 12.3038C14.233 12.3038 15.3858 12.894 15.3858 13.6502C15.3858 14.4064 14.233 14.9965 12.7621 14.9965ZM12.7621 12.5282C11.4609 12.5282 10.3613 13.0409 10.3613 13.6502C10.3613 14.2594 11.4609 14.7721 12.7621 14.7721C14.0634 14.7721 15.1641 14.2594 15.1641 13.6502C15.1641 13.0409 14.0656 12.5327 12.7621 12.5327V12.5282Z" fill="#093F68"/>
<path d="M4.10657 16.6851V18.2166C4.10657 18.8976 5.2316 19.4508 6.61823 19.4508C8.00485 19.4508 9.13099 18.8987 9.13099 18.2166V16.6851H4.10657Z" fill="#FFBC0E"/>
<path d="M6.61835 19.5618C5.14749 19.5618 3.99585 18.9706 3.99585 18.2155V16.6851C3.99585 16.6553 4.00753 16.6268 4.02831 16.6058C4.0491 16.5847 4.07729 16.5729 4.10669 16.5729H9.13112C9.16051 16.5729 9.18871 16.5847 9.20949 16.6058C9.23028 16.6268 9.24196 16.6553 9.24196 16.6851V18.2166C9.24196 18.9706 8.08921 19.5618 6.61835 19.5618V19.5618ZM4.21753 16.7973V18.2166C4.21753 18.8236 5.31708 19.3386 6.61835 19.3386C7.91962 19.3386 9.02028 18.8247 9.02028 18.2166V16.7973H4.21753Z" fill="#093F68"/>
<path d="M6.61836 17.917C8.00612 17.917 9.13113 17.3655 9.13113 16.6851C9.13113 16.0047 8.00612 15.4532 6.61836 15.4532C5.2306 15.4532 4.10559 16.0047 4.10559 16.6851C4.10559 17.3655 5.2306 17.917 6.61836 17.917Z" fill="#FFBC0E"/>
<path d="M6.61835 18.0292C5.14749 18.0292 3.99585 17.4391 3.99585 16.6828C3.99585 15.9266 5.14749 15.3365 6.61835 15.3365C8.08921 15.3365 9.24196 15.9266 9.24196 16.6828C9.24196 17.4391 8.08921 18.0292 6.61835 18.0292ZM6.61835 15.5609C5.31708 15.5609 4.21753 16.0736 4.21753 16.6828C4.21753 17.2921 5.31708 17.8048 6.61835 17.8048C7.91962 17.8048 9.02028 17.2921 9.02028 16.6828C9.02028 16.0736 7.92073 15.5654 6.61835 15.5654V15.5609Z" fill="#093F68"/>
<path d="M22.5662 0.652168C22.5651 0.622036 22.5618 0.59203 22.5562 0.562411V0.545582C22.5491 0.516114 22.5399 0.487233 22.5285 0.45919C22.526 0.452258 22.523 0.44551 22.5196 0.438994C22.5072 0.4114 22.4927 0.384774 22.4764 0.359335L22.4664 0.346993C22.4486 0.321018 22.4281 0.296958 22.4054 0.275187C22.3824 0.253646 22.3575 0.234128 22.3312 0.216845L22.3157 0.206747C22.2897 0.191275 22.2627 0.177774 22.2348 0.166356L22.2148 0.158502C22.1864 0.147909 22.1571 0.140021 22.1272 0.134941H22.1162C22.0876 0.130218 22.0586 0.12834 22.0297 0.129331H22.0153C21.992 0.129331 21.9676 0.129331 21.9443 0.136063L18.3476 0.735194C18.2743 0.744127 18.2037 0.76797 18.1398 0.805285C18.0759 0.8426 18.0202 0.892616 17.9759 0.952319C17.9316 1.01202 17.8998 1.08018 17.8822 1.15268C17.8647 1.22518 17.8618 1.30053 17.8738 1.37419C17.8857 1.44785 17.9123 1.51829 17.9519 1.58127C17.9915 1.64425 18.0433 1.69847 18.1041 1.74066C18.1649 1.78285 18.2336 1.81214 18.3059 1.82676C18.3782 1.84139 18.4527 1.84104 18.5249 1.82575L20.4945 1.47794L12.667 9.76929L8.99811 7.38735C8.89822 7.3227 8.78024 7.29277 8.66203 7.30208C8.54383 7.31139 8.43184 7.35945 8.34304 7.43896L3.31418 11.9403C3.2057 12.0373 3.13974 12.174 3.1308 12.3202C3.12186 12.4664 3.17068 12.6103 3.26652 12.7201C3.36235 12.8299 3.49735 12.8966 3.64182 12.9057C3.78629 12.9147 3.92839 12.8653 4.03686 12.7683L8.7598 8.54634L12.4597 10.9485C12.5662 11.0179 12.6933 11.0475 12.8191 11.0324C12.9449 11.0172 13.0616 10.9582 13.1491 10.8655L21.3192 2.21058L21.1308 4.11008C21.1162 4.25573 21.1594 4.40128 21.2509 4.51469C21.3424 4.6281 21.4746 4.70009 21.6185 4.71482H21.6739C21.8092 4.71464 21.9396 4.66355 22.0398 4.57149C22.1399 4.47943 22.2027 4.35296 22.2159 4.21666L22.5628 0.719486C22.5651 0.697122 22.5662 0.674652 22.5662 0.652168V0.652168Z" fill="#68E1FD"/>
<path d="M3.67327 13.0185C3.53985 13.0188 3.4095 12.978 3.2996 12.9014C3.18971 12.8248 3.10548 12.7162 3.05816 12.5899C3.01084 12.4636 3.00267 12.3257 3.03474 12.1946C3.06681 12.0636 3.1376 11.9455 3.23766 11.8561L8.27207 7.35368C8.37921 7.25818 8.51413 7.20051 8.65648 7.18938C8.79882 7.17825 8.94089 7.21426 9.06126 7.29198L12.6536 9.62455L20.1908 1.64174L18.5282 1.91887C18.4429 1.93262 18.3557 1.92922 18.2717 1.90886C18.1877 1.8885 18.1085 1.85158 18.0386 1.80021C17.9687 1.74883 17.9095 1.68402 17.8644 1.60947C17.8192 1.53492 17.7891 1.4521 17.7756 1.36574C17.7477 1.19201 17.789 1.01418 17.8904 0.871187C17.9917 0.728194 18.145 0.631687 18.3165 0.602798L21.9133 0.00815517C21.9418 0.00275768 21.9707 0.00012785 21.9997 0.000301419H22.0153C22.0524 -0.000946996 22.0895 0.00168484 22.1261 0.00815517H22.1383C22.1759 0.0149275 22.213 0.024681 22.2491 0.0373262L22.2724 0.0463021C22.3061 0.0598855 22.3387 0.0760121 22.3699 0.0945464L22.3844 0.104644C22.4176 0.12636 22.4491 0.150749 22.4786 0.177573C22.4832 0.181103 22.4873 0.185255 22.4908 0.189914C22.5157 0.215404 22.5387 0.242786 22.5595 0.271818L22.5706 0.287525C22.5914 0.317838 22.6092 0.350158 22.6238 0.384015L22.6349 0.407576C22.6479 0.441194 22.6586 0.475682 22.667 0.510797V0.528749C22.6745 0.56571 22.6789 0.603238 22.6803 0.640946V0.648799V0.728459L22.3334 4.22564C22.316 4.40105 22.2305 4.56231 22.0957 4.67393C21.9609 4.78555 21.7879 4.8384 21.6146 4.82084C21.4413 4.80328 21.282 4.71676 21.1717 4.58031C21.0614 4.44386 21.0092 4.26866 21.0266 4.09324L21.1828 2.52249L13.2355 10.9373C13.1302 11.0485 12.99 11.1194 12.8388 11.1378C12.6877 11.1562 12.5349 11.121 12.4064 11.0382L8.77639 8.6821L4.11442 12.8525C3.99271 12.9611 3.83554 13.0203 3.67327 13.0185V13.0185ZM8.70767 7.40866C8.60124 7.40887 8.49863 7.44882 8.41948 7.52086L3.38508 12.0244C3.31884 12.0836 3.27197 12.1617 3.25073 12.2485C3.22949 12.3353 3.23488 12.4266 3.26618 12.5102C3.29748 12.5938 3.35321 12.6657 3.42594 12.7165C3.49867 12.7672 3.58494 12.7943 3.67327 12.7941C3.77938 12.7939 3.88166 12.754 3.96035 12.6819L8.68661 8.45546C8.70469 8.43939 8.72745 8.42971 8.75145 8.42789C8.77544 8.42607 8.79937 8.4322 8.81962 8.44536L12.5195 10.8475C12.6054 10.9024 12.7073 10.9258 12.8082 10.9137C12.9091 10.9017 13.0028 10.8549 13.0737 10.7813L21.2427 2.12643C21.2586 2.10952 21.2793 2.09805 21.302 2.09363C21.3246 2.0892 21.3481 2.09204 21.3691 2.10175C21.3899 2.11141 21.4073 2.12739 21.4188 2.14749C21.4304 2.16759 21.4354 2.19081 21.4333 2.21395L21.2449 4.11344C21.2343 4.22975 21.2689 4.34566 21.3413 4.43657C21.3958 4.50413 21.4688 4.5538 21.5512 4.57927C21.6335 4.60474 21.7215 4.60486 21.8039 4.57961C21.8864 4.55436 21.9595 4.50488 22.0141 4.43747C22.0687 4.37005 22.1023 4.28772 22.1106 4.20095L22.4575 0.703776C22.4575 0.688068 22.4575 0.671239 22.4575 0.654409C22.457 0.651437 22.457 0.648406 22.4575 0.645434C22.4572 0.622045 22.4546 0.598745 22.4498 0.575871L22.5551 0.537725L22.4442 0.561286C22.4394 0.537838 22.4323 0.514918 22.4231 0.492846L22.4165 0.477138C22.4059 0.455164 22.394 0.433813 22.381 0.413186L22.3733 0.403088C22.3591 0.382278 22.3428 0.363092 22.3245 0.345868H22.319C22.3008 0.328734 22.2812 0.313334 22.2602 0.299867L22.3057 0.195524L22.248 0.290891C22.2273 0.27871 22.2058 0.267843 22.1837 0.258354H22.1704C22.1469 0.24988 22.1228 0.243131 22.0984 0.238158C22.0726 0.235676 22.0466 0.235676 22.0208 0.238158H22.0086C21.9897 0.238915 21.9708 0.240788 21.9521 0.243768L18.3553 0.842899C18.2933 0.845027 18.2326 0.860541 18.1771 0.888398C18.1215 0.916255 18.0725 0.955812 18.0334 1.00441C17.9942 1.05301 17.9657 1.10954 17.9499 1.17019C17.9341 1.23083 17.9313 1.29421 17.9416 1.35605C17.952 1.41789 17.9753 1.47677 18.01 1.52874C18.0447 1.58071 18.09 1.62457 18.1428 1.65736C18.1957 1.69016 18.2548 1.71114 18.3163 1.7189C18.3778 1.72665 18.4402 1.721 18.4994 1.70233L20.4856 1.36574C20.5086 1.362 20.5321 1.36566 20.5529 1.3762C20.5737 1.38673 20.5906 1.40361 20.6014 1.42445C20.6122 1.44529 20.6163 1.46903 20.613 1.49232C20.6097 1.5156 20.5993 1.53726 20.5832 1.55423L12.7567 9.8467C12.7389 9.86571 12.715 9.87779 12.6893 9.88087C12.6636 9.88394 12.6376 9.87781 12.6159 9.86353L8.94709 7.48047C8.87558 7.43452 8.79236 7.41073 8.70767 7.41203V7.40866Z" fill="#093F68"/>
</svg>
