<svg width="29" height="25" viewBox="0 0 29 25" fill="none" xmlns="http://www.w3.org/2000/svg">
<path d="M28.7194 23.8157L20.6274 24.4052L12.5823 23.8157L20.6274 10.4931L28.7194 23.8157Z" fill="#1589AD"/>
<path d="M20.6274 10.4931L28.7194 23.8157L20.6274 24.4052" fill="#035670"/>
<path d="M20.6275 22.0079L25.2581 18.1172L22.6387 13.8336L20.6275 12.1437L18.6162 13.8336L16.0436 18.1172L20.6275 22.0079Z" fill="#1EA4C4"/>
<path d="M20.6274 22.0079L25.2581 18.1172L22.6387 13.8336L20.6274 12.1437" fill="#066B93"/>
<path d="M24.0887 23.5406L12.2081 24.4052L0.187134 23.7371L12.2081 3.92999L24.0887 23.5406Z" fill="#1589AD"/>
<path d="M12.208 3.92999L24.229 23.7371L12.208 24.4052" fill="#057091"/>
<path d="M12.2081 20.8682L18.9903 15.1305L15.1548 8.80317L12.2081 6.32728L9.21451 8.80317L5.37903 15.1305L12.2081 20.8682Z" fill="#1EA4C4"/>
<path d="M12.208 20.8682L18.9903 15.1305L15.1548 8.80317L12.208 6.32728" fill="#1290AD"/>
<path d="M14.1257 13.6764L16.0435 15.2877L18.0548 13.6371L12.208 3.92999L6.31445 13.6371L8.32574 15.2877L10.2435 13.6764L12.208 15.2877L14.1257 13.6764Z" fill="#9ADFEF"/>
<path d="M12.208 15.2877L14.1257 13.6764L16.0435 15.2877L18.0548 13.6371L12.208 3.92999" fill="#7DD4E2"/>
<path d="M12.2081 1.1004C12.5697 1.1004 12.8629 0.854064 12.8629 0.550198C12.8629 0.246332 12.5697 0 12.2081 0C11.8464 0 11.5532 0.246332 11.5532 0.550198C11.5532 0.854064 11.8464 1.1004 12.2081 1.1004Z" fill="#C92B00"/>
<path d="M12.1613 1.4148C12.021 1.4148 12.021 1.4148 11.6936 1.3362V4.99108C11.6936 5.14828 11.9742 5.26618 12.1613 5.26618C12.3484 5.26618 12.6291 5.14828 12.6291 4.99108V1.3362C12.6291 1.4934 12.3017 1.4148 12.1613 1.4148V1.4148Z" fill="#1EA4C4"/>
<path d="M12.1613 5.26618C12.3484 5.26618 12.629 5.14828 12.629 4.99108V1.3362C12.3951 1.4148 12.3016 1.4148 12.1613 1.4148" fill="#087799"/>
<path d="M12.6291 0.196499C12.9097 0.392999 12.9097 0.746698 12.6291 0.982497C12.3484 1.2183 11.9742 1.2183 11.6936 0.982497" fill="#9E1600"/>
<path d="M12.1159 0.0962155C12.0794 0.065512 11.9609 0.11525 11.8513 0.207308C11.7416 0.299367 11.6824 0.398885 11.7189 0.429589C11.7554 0.460292 11.8739 0.410554 11.9835 0.318495C12.0932 0.226437 12.1524 0.126919 12.1159 0.0962155Z" fill="#E28133"/>
<path d="M18.9435 3.18329L19.7855 2.39729H14.5V3.96929H19.7855L18.9435 3.18329Z" fill="#9E1600"/>
<path d="M19.7855 3.96929L18.9435 3.18329L19.7855 2.39729H14.5" fill="#770B00"/>
<path d="M12.629 1.61129H16.371V2.79029H12.629V1.61129Z" fill="#C92B00"/>
<path d="M12.629 1.61129H16.371V2.79029" fill="#9E1600"/>
<path d="M0 23.6192H29V24.4052H0V23.6192Z" fill="#057091"/>
</svg>
