<svg width="64" height="64" viewBox="0 0 64 64" fill="none" xmlns="http://www.w3.org/2000/svg">
<path d="M42 26H45.945V29.945H42V26Z" fill="black"/>
<path d="M18 26H33.78V29.945H18V26Z" fill="black"/>
<path d="M42 19H45.945V22.945H42V19Z" fill="black"/>
<path d="M18 19H33.78V22.945H18V19Z" fill="black"/>
<path d="M18 12H45.615V15.945H18V12Z" fill="black"/>
<path d="M49.3125 3.945H13.8075C12.7615 3.94604 11.7587 4.36201 11.0191 5.10162C10.2795 5.84122 9.86354 6.84404 9.8625 7.89V57.2025C9.8625 57.7256 10.0703 58.2274 10.4402 58.5973C10.8101 58.9672 11.3119 59.175 11.835 59.175H13.8075C14.1138 59.1752 14.4158 59.104 14.6898 58.967C14.9637 58.8301 15.2019 58.6311 15.3855 58.386L19.725 52.6007L24.0645 58.386C24.2561 58.6192 24.4969 58.8071 24.7698 58.936C25.0426 59.065 25.3407 59.1319 25.6425 59.1319C25.9443 59.1319 26.2423 59.065 26.5152 58.936C26.7881 58.8071 27.0289 58.6192 27.2205 58.386L31.56 52.6007L35.8995 58.386C36.0911 58.6192 36.3319 58.8071 36.6048 58.936C36.8776 59.065 37.1757 59.1319 37.4775 59.1319C37.7793 59.1319 38.0774 59.065 38.3502 58.936C38.6231 58.8071 38.8639 58.6192 39.0555 58.386L43.395 52.6007L47.7345 58.386C47.9182 58.6311 48.1564 58.8299 48.4303 58.9669C48.7042 59.1039 49.0063 59.1751 49.3125 59.175H51.285C51.8081 59.175 52.3099 58.9672 52.6798 58.5973C53.0497 58.2274 53.2575 57.7256 53.2575 57.2025V7.89C53.2563 6.84409 52.8403 5.84136 52.1007 5.10179C51.3611 4.36222 50.3584 3.9462 49.3125 3.945ZM49.3125 53.9143L44.973 48.129C44.7814 47.8958 44.5406 47.7079 44.2677 47.579C43.9949 47.45 43.6968 47.3831 43.395 47.3831C43.0932 47.3831 42.7951 47.45 42.5223 47.579C42.2494 47.7079 42.0086 47.8958 41.817 48.129L37.4775 53.9143L33.138 48.129C32.9464 47.8958 32.7056 47.7079 32.4327 47.579C32.1599 47.45 31.8618 47.3831 31.56 47.3831C31.2582 47.3831 30.9601 47.45 30.6873 47.579C30.4144 47.7079 30.1736 47.8958 29.982 48.129L25.6425 53.9143L21.303 48.129C21.1114 47.8958 20.8706 47.7079 20.5977 47.579C20.3248 47.45 20.0268 47.3831 19.725 47.3831C19.4232 47.3831 19.1251 47.45 18.8523 47.579C18.5794 47.7079 18.3386 47.8958 18.147 48.129L13.8075 53.9143V7.89H49.3125V53.9143Z" fill="black"/>
<path d="M27.875 43.875V34.5C27.875 34.3342 27.9408 34.1753 28.0581 34.0581C28.1753 33.9408 28.3342 33.875 28.5 33.875H34.125C34.2908 33.875 34.4497 33.9408 34.5669 34.0581C34.6842 34.1753 34.75 34.3342 34.75 34.5V39.5H36C36.3315 39.5 36.6495 39.6317 36.8839 39.8661C37.1183 40.1005 37.25 40.4185 37.25 40.75V43.25C37.25 43.4158 37.3158 43.5747 37.4331 43.6919C37.5503 43.8091 37.7092 43.875 37.875 43.875C38.0408 43.875 38.1997 43.8091 38.3169 43.6919C38.4342 43.5747 38.5 43.4158 38.5 43.25V38.875H37.25C37.0842 38.875 36.9253 38.8091 36.8081 38.6919C36.6908 38.5747 36.625 38.4158 36.625 38.25V36.0087L35.5894 34.9731L36.4731 34.0894L39.5669 37.1831C39.625 37.2411 39.6711 37.31 39.7025 37.3858C39.7339 37.4616 39.7501 37.5429 39.75 37.625V43.25C39.75 43.7473 39.5525 44.2242 39.2008 44.5758C38.8492 44.9274 38.3723 45.125 37.875 45.125C37.3777 45.125 36.9008 44.9274 36.5492 44.5758C36.1975 44.2242 36 43.7473 36 43.25V40.75H34.75V43.875H35.375V45.125H27.25V43.875H27.875ZM29.125 35.125V38.875H33.5V35.125H29.125Z" fill="black"/>
</svg>
