<svg width="64" height="64" viewBox="0 0 64 64" fill="none" xmlns="http://www.w3.org/2000/svg">
<path d="M42 26H45.945V29.945H42V26Z" fill="black"/>
<path d="M18 26H33.78V29.945H18V26Z" fill="black"/>
<path d="M42 19H45.945V22.945H42V19Z" fill="black"/>
<path d="M18 19H33.78V22.945H18V19Z" fill="black"/>
<path d="M18 12H45.615V15.945H18V12Z" fill="black"/>
<path d="M49.3125 3.945H13.8075C12.7615 3.94604 11.7587 4.36201 11.0191 5.10162C10.2795 5.84122 9.86354 6.84404 9.8625 7.89V57.2025C9.8625 57.7256 10.0703 58.2274 10.4402 58.5973C10.8101 58.9672 11.3119 59.175 11.835 59.175H13.8075C14.1138 59.1752 14.4158 59.104 14.6898 58.967C14.9637 58.8301 15.2019 58.6311 15.3855 58.386L19.725 52.6007L24.0645 58.386C24.2561 58.6192 24.4969 58.8071 24.7698 58.936C25.0426 59.065 25.3407 59.1319 25.6425 59.1319C25.9443 59.1319 26.2423 59.065 26.5152 58.936C26.7881 58.8071 27.0289 58.6192 27.2205 58.386L31.56 52.6007L35.8995 58.386C36.0911 58.6192 36.3319 58.8071 36.6048 58.936C36.8776 59.065 37.1757 59.1319 37.4775 59.1319C37.7793 59.1319 38.0774 59.065 38.3502 58.936C38.6231 58.8071 38.8639 58.6192 39.0555 58.386L43.395 52.6007L47.7345 58.386C47.9182 58.6311 48.1564 58.8299 48.4303 58.9669C48.7042 59.1039 49.0063 59.1751 49.3125 59.175H51.285C51.8081 59.175 52.3099 58.9672 52.6798 58.5973C53.0497 58.2274 53.2575 57.7256 53.2575 57.2025V7.89C53.2563 6.84409 52.8403 5.84136 52.1007 5.10179C51.3611 4.36222 50.3584 3.9462 49.3125 3.945ZM49.3125 53.9143L44.973 48.129C44.7814 47.8958 44.5406 47.7079 44.2677 47.579C43.9949 47.45 43.6968 47.3831 43.395 47.3831C43.0932 47.3831 42.7951 47.45 42.5223 47.579C42.2494 47.7079 42.0086 47.8958 41.817 48.129L37.4775 53.9143L33.138 48.129C32.9464 47.8958 32.7056 47.7079 32.4327 47.579C32.1599 47.45 31.8618 47.3831 31.56 47.3831C31.2582 47.3831 30.9601 47.45 30.6873 47.579C30.4144 47.7079 30.1736 47.8958 29.982 48.129L25.6425 53.9143L21.303 48.129C21.1114 47.8958 20.8706 47.7079 20.5977 47.579C20.3248 47.45 20.0268 47.3831 19.725 47.3831C19.4232 47.3831 19.1251 47.45 18.8523 47.579C18.5794 47.7079 18.3386 47.8958 18.147 48.129L13.8075 53.9143V7.89H49.3125V53.9143Z" fill="black"/>
<path d="M36.4503 37.3019C36.966 36.063 37 35.0317 36.3805 34.414C35.693 33.7265 34.044 33.9324 32.2911 34.7577H32.0852C30.8463 34.7577 29.6448 35.2053 28.7514 35.9949C27.9941 36.6825 27.4444 37.5759 27.2045 38.5732C27.3763 38.3673 28.3378 37.2322 29.4389 36.6144C29.4729 36.6144 29.7469 36.4425 29.7469 36.4425C29.7129 36.4425 29.1973 36.9582 29.0952 37.0603C26.6888 39.5364 25.2797 43.2821 26.3791 44.3814C27.1006 45.103 28.4076 44.9311 29.9188 44.1074C30.5723 44.4154 31.2939 44.5533 32.0852 44.5533C33.1165 44.5533 34.078 44.2793 34.9034 43.7279C35.7628 43.1782 36.3805 42.3188 36.7601 41.3233H34.078C33.7342 41.9751 32.9446 42.4226 32.1192 42.4226C30.9501 42.4226 29.9869 41.4594 29.9546 40.3601V40.2562H36.966V40.1541C36.966 39.9823 37 39.7764 37 39.6385C37 38.8131 36.7941 38.0235 36.4503 37.3019ZM27.1347 44.1755C26.585 43.6258 26.7569 42.5605 27.4104 41.2893C27.7201 42.1487 28.2357 42.9043 28.8875 43.4539C29.0952 43.6258 29.3351 43.7977 29.575 43.9355C28.4757 44.5193 27.5822 44.6231 27.1347 44.1755ZM34.1818 38.951H29.9886V38.9169C30.0567 37.8516 31.0539 36.9241 32.2213 36.9241C33.3224 36.9241 34.2159 37.7836 34.2839 38.9169V38.951H34.1818ZM36.2784 37.0262C36.0725 36.6825 35.7968 36.3387 35.4871 36.0647C35.0072 35.6189 34.4486 35.2679 33.8381 35.0334C34.9374 34.5178 35.8649 34.448 36.3465 34.9296C36.7243 35.3772 36.6903 36.1328 36.2784 37.0262C36.2784 37.0603 36.2784 37.0603 36.2784 37.0262Z" fill="black"/>
</svg>
