<svg width="64" height="64" viewBox="0 0 64 64" fill="none" xmlns="http://www.w3.org/2000/svg">
<path d="M42 26H45.945V29.945H42V26Z" fill="black"/>
<path d="M18 26H33.78V29.945H18V26Z" fill="black"/>
<path d="M42 19H45.945V22.945H42V19Z" fill="black"/>
<path d="M18 19H33.78V22.945H18V19Z" fill="black"/>
<path d="M18 12H45.615V15.945H18V12Z" fill="black"/>
<path d="M49.3125 3.945H13.8075C12.7615 3.94604 11.7587 4.36201 11.0191 5.10162C10.2795 5.84122 9.86354 6.84404 9.8625 7.89V57.2025C9.8625 57.7256 10.0703 58.2274 10.4402 58.5973C10.8101 58.9672 11.3119 59.175 11.835 59.175H13.8075C14.1138 59.1752 14.4158 59.104 14.6898 58.967C14.9637 58.8301 15.2019 58.6311 15.3855 58.386L19.725 52.6007L24.0645 58.386C24.2561 58.6192 24.4969 58.8071 24.7698 58.936C25.0426 59.065 25.3407 59.1319 25.6425 59.1319C25.9443 59.1319 26.2423 59.065 26.5152 58.936C26.7881 58.8071 27.0289 58.6192 27.2205 58.386L31.56 52.6007L35.8995 58.386C36.0911 58.6192 36.3319 58.8071 36.6048 58.936C36.8776 59.065 37.1757 59.1319 37.4775 59.1319C37.7793 59.1319 38.0774 59.065 38.3502 58.936C38.6231 58.8071 38.8639 58.6192 39.0555 58.386L43.395 52.6007L47.7345 58.386C47.9182 58.6311 48.1564 58.8299 48.4303 58.9669C48.7042 59.1039 49.0063 59.1751 49.3125 59.175H51.285C51.8081 59.175 52.3099 58.9672 52.6798 58.5973C53.0497 58.2274 53.2575 57.7256 53.2575 57.2025V7.89C53.2563 6.84409 52.8403 5.84136 52.1007 5.10179C51.3611 4.36222 50.3584 3.9462 49.3125 3.945ZM49.3125 53.9143L44.973 48.129C44.7814 47.8958 44.5406 47.7079 44.2677 47.579C43.9949 47.45 43.6968 47.3831 43.395 47.3831C43.0932 47.3831 42.7951 47.45 42.5223 47.579C42.2494 47.7079 42.0086 47.8958 41.817 48.129L37.4775 53.9143L33.138 48.129C32.9464 47.8958 32.7056 47.7079 32.4327 47.579C32.1599 47.45 31.8618 47.3831 31.56 47.3831C31.2582 47.3831 30.9601 47.45 30.6873 47.579C30.4144 47.7079 30.1736 47.8958 29.982 48.129L25.6425 53.9143L21.303 48.129C21.1114 47.8958 20.8706 47.7079 20.5977 47.579C20.3248 47.45 20.0268 47.3831 19.725 47.3831C19.4232 47.3831 19.1251 47.45 18.8523 47.579C18.5794 47.7079 18.3386 47.8958 18.147 48.129L13.8075 53.9143V7.89H49.3125V53.9143Z" fill="black"/>
<path d="M38.125 34.75H33.3812L35.4375 32.6937L35 32.25L32.5 34.75L30 32.25L29.5562 32.6937L31.6187 34.75H26.875C26.1875 34.75 25.625 35.3062 25.625 36V43.5C25.625 44.1875 26.1875 44.75 26.875 44.75H38.125C38.8125 44.75 39.375 44.1875 39.375 43.5V36C39.375 35.3062 38.8125 34.75 38.125 34.75ZM38.125 43.5H26.875V36H38.125V43.5ZM30.625 37.25V42.25L35 39.75L30.625 37.25Z" fill="black"/>
</svg>
