<svg width="29" height="21" viewBox="0 0 29 21" fill="none" xmlns="http://www.w3.org/2000/svg">
<path d="M26.2297 2.38452H0.953807C0.427034 2.38452 0 2.81156 0 3.33833V19.5531C0 20.0798 0.427034 20.5069 0.953807 20.5069H26.2297C26.7565 20.5069 27.1835 20.0798 27.1835 19.5531V3.33833C27.1835 2.81156 26.7565 2.38452 26.2297 2.38452Z" fill="#BD7575"/>
<path fill-rule="evenodd" clip-rule="evenodd" d="M2.38452 0L25.2759 1.43071V2.38452H2.38452V0Z" fill="#22BA8E"/>
<path fill-rule="evenodd" clip-rule="evenodd" d="M20.03 10.4899C20.03 9.43741 20.8823 8.58423 21.9411 8.58423H28.1374V14.3071H21.9411C20.8856 14.3071 20.03 13.4503 20.03 12.4014V10.4899Z" fill="#9C4D4D"/>
<path d="M22.8913 12.3996C23.4181 12.3996 23.8451 11.9725 23.8451 11.4458C23.8451 10.919 23.4181 10.4919 22.8913 10.4919C22.3645 10.4919 21.9375 10.919 21.9375 11.4458C21.9375 11.9725 22.3645 12.3996 22.8913 12.3996Z" fill="#BD7575"/>
<path d="M4.76904 2.86133V19.553" stroke="#9C4D4D" stroke-width="0.953807" stroke-linecap="square" stroke-dasharray="1.91 1.91"/>
</svg>
