<svg width="10" height="11" viewBox="0 0 10 11" fill="none" xmlns="http://www.w3.org/2000/svg">
<path d="M0.319288 2.76344C0.142881 2.76344 0 2.90632 0 3.08273V3.40202C0 3.55208 0.104567 3.67741 0.244255 3.71173C0.268202 3.71732 0.293745 3.72131 0.319288 3.72131H0.639374C0.639374 3.74366 1.39689 7.62061 1.39689 7.62061C1.42562 7.76749 1.54456 7.87285 1.68265 7.87285H6.70984L7.52402 3.72131H7.88083V3.71173L7.9814 3.40202V2.76344H0.319288Z" fill="url(#paint0_linear_7_79)"/>
<path d="M0 3.40202C0 3.55209 0.104567 3.67741 0.244255 3.71173H7.88163L7.9822 3.40202H0Z" fill="#F57C00"/>
<path d="M1.32026 4.39502L1.88779 6.95012C1.90375 7.02356 1.96841 7.07544 2.04344 7.07544H2.39466C2.48246 7.07544 2.5543 7.0036 2.5543 6.9158V4.36069C2.5543 4.27289 2.48246 4.20105 2.39466 4.20105H1.47591C1.37374 4.20105 1.29791 4.29524 1.32026 4.39502V4.39502Z" fill="#F57C00"/>
<path d="M6.34266 4.39502L5.77512 6.95012C5.75916 7.02356 5.6945 7.07544 5.61947 7.07544H5.26825C5.18045 7.07544 5.10861 7.0036 5.10861 6.9158V4.36069C5.10861 4.27289 5.18045 4.20105 5.26825 4.20105H6.187C6.28838 4.20105 6.36501 4.29524 6.34266 4.39502Z" fill="#F57C00"/>
<path d="M3.37088 4.20105H4.29123C4.38622 4.20105 4.46045 4.28406 4.45008 4.37825L4.16671 6.93256C4.15793 7.01318 4.08928 7.07464 4.00786 7.07464H3.65505C3.57363 7.07464 3.50498 7.01318 3.4962 6.93256L3.21204 4.37746C3.20166 4.28327 3.27589 4.20105 3.37088 4.20105V4.20105Z" fill="#F57C00"/>
<path opacity="0.2" d="M7.74274 3.00291V3.3645L7.70442 3.48264H7.52482C7.41068 3.48264 7.3117 3.56406 7.29015 3.67581L6.51348 7.63418H1.68265C1.66349 7.63418 1.63875 7.61183 1.63156 7.57511C1.42881 6.53823 0.901191 3.83625 0.875648 3.68938C0.859683 3.57204 0.759906 3.48264 0.638576 3.48264H0.319288C0.317692 3.48264 0.312104 3.48264 0.300929 3.47945C0.271395 3.47226 0.239466 3.44512 0.239466 3.40202V3.08273C0.239466 3.03883 0.275386 3.00291 0.319288 3.00291H7.74274ZM7.9822 2.76344H0.319288C0.142881 2.76344 0 2.90632 0 3.08273V3.40202C0 3.55208 0.104567 3.67741 0.244255 3.71173C0.268202 3.71732 0.293745 3.72131 0.319288 3.72131H0.639375C0.639375 3.74366 1.39689 7.62061 1.39689 7.62061C1.42562 7.76749 1.54456 7.87285 1.68265 7.87285H6.70984L7.52482 3.72131H7.88163V3.71173L7.9822 3.40202V2.76344Z" fill="#424242"/>
<path opacity="0.2" d="M2.39466 4.36068V6.91578H2.04344L1.47591 4.36068H2.39466ZM2.39466 4.20103H1.47591C1.37374 4.20103 1.29791 4.29602 1.32026 4.395L1.88779 6.95011C1.90375 7.02354 1.96841 7.07543 2.04344 7.07543H2.39466C2.48246 7.07543 2.5543 7.00359 2.5543 6.91578V4.36068C2.5543 4.27208 2.48246 4.20103 2.39466 4.20103Z" fill="#424242"/>
<path opacity="0.2" d="M6.187 4.36068L5.61947 6.91578H5.26825V4.36068H6.187ZM6.187 4.20103H5.26825C5.18045 4.20103 5.10861 4.27287 5.10861 4.36068V6.91578C5.10861 7.00359 5.18045 7.07543 5.26825 7.07543H5.61947C5.6945 7.07543 5.75916 7.02354 5.77512 6.95011L6.34266 4.395C6.36501 4.29522 6.28838 4.20103 6.187 4.20103V4.20103Z" fill="#424242"/>
<path opacity="0.2" d="M4.29123 4.36068L4.00706 6.91578H3.65425L3.37008 4.36068H4.29123ZM4.29123 4.20103H3.37088C3.27589 4.20103 3.20166 4.28405 3.21204 4.37824L3.4962 6.93334C3.50498 7.01396 3.57363 7.07543 3.65505 7.07543H4.00786C4.08928 7.07543 4.15793 7.01396 4.16671 6.93334L4.45087 4.37824C4.46045 4.28325 4.38702 4.20103 4.29123 4.20103V4.20103Z" fill="#424242"/>
<path d="M8.3438 1.13587C8.15542 1.19893 8.00934 1.34979 7.95267 1.53977L6.08004 7.78185C6.0569 7.86008 6.06408 7.94389 6.1 8.01653L6.39215 8.60082C6.44563 8.70699 6.3682 8.83231 6.24927 8.83231H0.638577C0.451793 8.83231 0.302526 8.99275 0.320885 9.18273C0.33685 9.34876 0.485318 9.47089 0.652147 9.47089H7.01237C7.08979 9.47089 7.16802 9.44774 7.22789 9.39825C7.34602 9.29927 7.37476 9.13803 7.3101 9.00872L6.85911 8.10752C6.7745 7.9391 6.75773 7.74433 6.81201 7.56394L8.53537 1.81755C8.54734 1.77604 8.57608 1.74331 8.6136 1.72336L8.34859 1.13507L8.3438 1.13587V1.13587Z" fill="url(#paint1_linear_7_79)"/>
<path d="M9.53474 1.00496C9.45891 0.872456 9.29527 0.818177 9.15079 0.866869L8.34938 1.13427L8.61439 1.72256C8.62237 1.71857 8.62956 1.71378 8.63834 1.71139L9.35993 1.47032C9.54831 1.40726 9.6393 1.18696 9.53474 1.00496V1.00496Z" fill="#F57C00"/>
<path opacity="0.2" d="M9.25696 1.00895C9.31603 1.00895 9.36951 1.03768 9.39585 1.08398C9.43017 1.14385 9.4182 1.19653 9.40782 1.22367C9.39026 1.26837 9.35434 1.30349 9.30885 1.31866L8.58725 1.55972C8.5665 1.5669 8.55133 1.57489 8.53856 1.58207C8.46193 1.62278 8.40686 1.68983 8.38211 1.77125L6.65955 7.51684C6.5933 7.73715 6.61405 7.97182 6.71623 8.17776L7.16722 9.07895C7.20075 9.14521 7.18318 9.22583 7.12491 9.27452C7.09778 9.29767 7.05707 9.31044 7.01237 9.31044H0.652147C0.562746 9.31044 0.486915 9.24738 0.479731 9.16676C0.474942 9.12046 0.490108 9.07656 0.52044 9.04304C0.550773 9.00951 0.593078 8.99115 0.638577 8.99115H6.24927C6.36102 8.99115 6.46239 8.93448 6.52066 8.83949C6.57893 8.7445 6.58452 8.62876 6.53503 8.52898L6.24288 7.94468C6.22452 7.90797 6.22133 7.86646 6.2325 7.82735L8.10513 1.58526C8.14743 1.44478 8.25519 1.33382 8.39409 1.28753L8.39887 1.28593L9.20029 1.01853C9.21944 1.01214 9.2378 1.00895 9.25696 1.00895M9.25696 0.849304C9.22104 0.849304 9.18512 0.854892 9.15 0.866865L8.34859 1.13427L8.3438 1.13587C8.15542 1.19892 8.00934 1.34979 7.95267 1.53976L6.08004 7.78185C6.0569 7.86007 6.06408 7.94389 6.1 8.01652L6.39215 8.60082C6.44563 8.70698 6.3682 8.83231 6.24927 8.83231H0.638577C0.451793 8.83231 0.302526 8.99275 0.320885 9.18272C0.33685 9.34875 0.485318 9.47088 0.652147 9.47088H7.01237C7.08979 9.47088 7.16802 9.44773 7.22789 9.39824C7.34602 9.29926 7.37476 9.13802 7.3101 9.00871L6.85911 8.10752C6.7745 7.9391 6.75773 7.74433 6.81201 7.56393L8.53537 1.81755C8.54734 1.77604 8.57608 1.74331 8.6136 1.72336C8.62158 1.71936 8.62876 1.71457 8.63754 1.71218L9.35913 1.47112C9.54671 1.40806 9.63771 1.18775 9.53394 1.00576C9.47727 0.904381 9.36951 0.849304 9.25696 0.849304V0.849304Z" fill="#424242"/>
<path d="M1.91573 10.428C2.26841 10.428 2.55431 10.1421 2.55431 9.78938C2.55431 9.4367 2.26841 9.1508 1.91573 9.1508C1.56305 9.1508 1.27715 9.4367 1.27715 9.78938C1.27715 10.1421 1.56305 10.428 1.91573 10.428Z" fill="#37474F"/>
<path d="M6.06647 10.428C6.41915 10.428 6.70505 10.1421 6.70505 9.78938C6.70505 9.4367 6.41915 9.1508 6.06647 9.1508C5.7138 9.1508 5.4279 9.4367 5.4279 9.78938C5.4279 10.1421 5.7138 10.428 6.06647 10.428Z" fill="#37474F"/>
<path d="M2.07537 10.1087H1.75608C1.66828 10.1087 1.59644 10.0368 1.59644 9.94902V9.1508H2.23502V9.94902C2.23502 10.0368 2.16318 10.1087 2.07537 10.1087Z" fill="#B0BEC5"/>
<path d="M1.91573 9.78938C2.0039 9.78938 2.07537 9.71791 2.07537 9.62974C2.07537 9.54157 2.0039 9.47009 1.91573 9.47009C1.82756 9.47009 1.75608 9.54157 1.75608 9.62974C1.75608 9.71791 1.82756 9.78938 1.91573 9.78938Z" fill="#FAFAFA" stroke="#757575" stroke-width="0.07983" stroke-miterlimit="10"/>
<path d="M6.22612 10.1087H5.90683C5.81902 10.1087 5.74718 10.0368 5.74718 9.94902V9.1508H6.38576V9.94902C6.38576 10.0368 6.31392 10.1087 6.22612 10.1087Z" fill="#B0BEC5"/>
<path d="M6.06647 9.78938C6.15464 9.78938 6.22612 9.71791 6.22612 9.62974C6.22612 9.54157 6.15464 9.47009 6.06647 9.47009C5.9783 9.47009 5.90683 9.54157 5.90683 9.62974C5.90683 9.71791 5.9783 9.78938 6.06647 9.78938Z" fill="#FAFAFA" stroke="#757575" stroke-width="0.07983" stroke-miterlimit="10"/>
<defs>
<linearGradient id="paint0_linear_7_79" x1="3.99102" y1="2.63421" x2="3.99102" y2="8.31842" gradientUnits="userSpaceOnUse">
<stop stop-color="#FFA726"/>
<stop offset="1" stop-color="#FB8C00"/>
</linearGradient>
<linearGradient id="paint1_linear_7_79" x1="4.46668" y1="-0.38059" x2="4.46668" y2="10.8311" gradientUnits="userSpaceOnUse">
<stop stop-color="#90A4AE"/>
<stop offset="1" stop-color="#607D8B"/>
</linearGradient>
</defs>
</svg>
