<svg width="19" height="21" viewBox="0 0 19 21" fill="none" xmlns="http://www.w3.org/2000/svg">
<path d="M17.9212 14.1741H14.5613C14.4719 14.1753 14.3832 14.1584 14.3003 14.1246C14.2174 14.0907 14.142 14.0406 14.0784 13.9769C14.0149 13.9133 13.9645 13.8376 13.9303 13.7541C13.896 13.6706 13.8785 13.581 13.8788 13.4906V11.4425C13.8785 11.3521 13.896 11.2626 13.9303 11.1791C13.9645 11.0956 14.0149 11.0198 14.0784 10.9562C14.142 10.8926 14.2174 10.8424 14.3003 10.8086C14.3832 10.7747 14.4719 10.7579 14.5613 10.7591H17.93C18.0187 10.7591 18.1065 10.7768 18.1883 10.8112C18.2702 10.8455 18.3446 10.8959 18.4072 10.9594C18.4698 11.0229 18.5194 11.0983 18.5531 11.1812C18.5868 11.2641 18.604 11.3529 18.6037 11.4425V13.4906C18.604 13.581 18.5865 13.6706 18.5523 13.7541C18.518 13.8376 18.4676 13.9133 18.4041 13.9769C18.3406 14.0406 18.2651 14.0907 18.1822 14.1246C18.0993 14.1584 18.0106 14.1753 17.9212 14.1741Z" fill="#94D5D2"/>
<path d="M14.5612 14.1741C14.4718 14.1753 14.383 14.1584 14.3001 14.1246C14.2172 14.0907 14.1418 14.0406 14.0783 13.9769C14.0148 13.9133 13.9644 13.8376 13.9301 13.7541C13.8958 13.6706 13.8783 13.581 13.8786 13.4906V11.4425C13.8783 11.3521 13.8958 11.2626 13.9301 11.1791C13.9644 11.0956 14.0148 11.0198 14.0783 10.9562C14.1418 10.8926 14.2172 10.8424 14.3001 10.8086C14.383 10.7747 14.4718 10.7579 14.5612 10.7591H17.9299V6.6629C17.9299 6.30136 17.788 5.95459 17.5353 5.69873C17.2827 5.44288 16.94 5.29884 16.5824 5.29825H1.74701C1.38943 5.29766 1.0467 5.15362 0.794067 4.89776C0.541431 4.64191 0.399536 4.29514 0.399536 3.93359V18.2703C0.399536 18.6318 0.541431 18.9786 0.794067 19.2344C1.0467 19.4903 1.38943 19.6343 1.74701 19.6349H16.5736C16.9312 19.6343 17.2739 19.4903 17.5265 19.2344C17.7792 18.9786 17.9211 18.6318 17.9211 18.2703V14.1741H14.5612Z" fill="#FF8898"/>
<path d="M16.5736 5.29843H1.74701C1.38943 5.29784 1.04671 5.15381 0.794069 4.89795C0.541432 4.64209 0.399537 4.29532 0.399538 3.93378C0.399249 3.75457 0.433872 3.57706 0.501433 3.41138C0.568993 3.2457 0.668166 3.09509 0.79329 2.96817C0.918415 2.84124 1.06704 2.74047 1.23068 2.67162C1.39432 2.60277 1.56977 2.56719 1.74701 2.56689H15.2217C15.5793 2.56748 15.922 2.71152 16.1747 2.96738C16.4273 3.22324 16.5692 3.57001 16.5692 3.93155L16.5736 5.29843Z" fill="#E07885"/>
<path d="M3.04395 0.449707H11.7475V5.1581H3.04395V0.449707Z" fill="#FFEB97"/>
<path d="M6.18799 3.93359H15.1051V5.16023H6.18799V3.93359Z" fill="white"/>
<path d="M17.9211 14.5748H14.5613C14.2773 14.5742 14.0051 14.4597 13.8045 14.2565C13.6039 14.0532 13.4912 13.7778 13.4912 13.4907V11.4426C13.4912 11.1554 13.6039 10.88 13.8045 10.6767C14.0051 10.4735 14.2773 10.359 14.5613 10.3584H17.9299C18.2139 10.359 18.4861 10.4735 18.6867 10.6767C18.8873 10.88 19 11.1554 19 11.4426V13.4907C19 13.6336 18.972 13.7751 18.9177 13.9071C18.8634 14.0391 18.7839 14.1589 18.6836 14.2596C18.5833 14.3604 18.4643 14.4401 18.3335 14.4942C18.2026 14.5483 18.0625 14.5757 17.9211 14.5748ZM14.5613 11.1598C14.4875 11.1604 14.4169 11.1905 14.365 11.2434C14.313 11.2964 14.2838 11.368 14.2838 11.4426V13.4907C14.2838 13.5653 14.313 13.6368 14.365 13.6898C14.4169 13.7427 14.4875 13.7728 14.5613 13.7734H17.9299C18.0037 13.7728 18.0743 13.7427 18.1262 13.6898C18.1782 13.6368 18.2074 13.5653 18.2074 13.4907V11.4426C18.2074 11.368 18.1782 11.2964 18.1262 11.2434C18.0743 11.1905 18.0037 11.1604 17.9299 11.1598H14.5613Z" fill="#576065"/>
<path d="M16.5737 20.0357H1.74708C1.28458 20.0345 0.841382 19.8481 0.514547 19.5172C0.187713 19.1863 0.00387693 18.738 0.0032959 18.2704V3.93367C0.0032959 3.8274 0.0450504 3.72547 0.119374 3.65033C0.193697 3.57518 0.294501 3.53296 0.399611 3.53296C0.50472 3.53296 0.605524 3.57518 0.679848 3.65033C0.754171 3.72547 0.795925 3.8274 0.795925 3.93367C0.795925 4.18894 0.896065 4.43379 1.07438 4.6145C1.25269 4.79521 1.49462 4.89703 1.74708 4.89761H16.5737C17.0362 4.89879 17.4794 5.08524 17.8062 5.41612C18.133 5.74699 18.3169 6.19535 18.3174 6.66299V10.7592C18.3174 10.8655 18.2757 10.9674 18.2014 11.0425C18.127 11.1177 18.0262 11.1599 17.9211 11.1599H14.5613C14.4875 11.1605 14.4169 11.1905 14.365 11.2435C14.313 11.2964 14.2838 11.368 14.2838 11.4426V13.4907C14.2838 13.5653 14.313 13.6369 14.365 13.6899C14.4169 13.7428 14.4875 13.7729 14.5613 13.7734H17.9299C18.035 13.7734 18.1358 13.8157 18.2102 13.8908C18.2845 13.966 18.3263 14.0679 18.3263 14.1742V18.2704C18.326 18.5027 18.2804 18.7326 18.1921 18.9471C18.1039 19.1616 17.9747 19.3564 17.8119 19.5204C17.6491 19.6843 17.456 19.8142 17.2435 19.9027C17.031 19.9911 16.8034 20.0363 16.5737 20.0357ZM0.795925 5.41187V18.2704C0.795925 18.5256 0.896065 18.7705 1.07438 18.9512C1.25269 19.1319 1.49462 19.2337 1.74708 19.2343H16.5737C16.8261 19.2337 17.068 19.1319 17.2464 18.9512C17.4247 18.7705 17.5248 18.5256 17.5248 18.2704V14.5749H14.5613C14.2773 14.5743 14.0051 14.4598 13.8045 14.2565C13.6039 14.0533 13.4912 13.7779 13.4912 13.4907V11.4426C13.4912 11.1555 13.6039 10.88 13.8045 10.6768C14.0051 10.4735 14.2773 10.3591 14.5613 10.3585H17.5336V6.66299C17.5336 6.40772 17.4335 6.16287 17.2552 5.98216C17.0769 5.80145 16.8349 5.69963 16.5825 5.69904H1.74708C1.40911 5.69915 1.07849 5.59933 0.795925 5.41187Z" fill="#576065"/>
<path d="M16.5737 5.69898H1.74709C1.28373 5.69898 0.839353 5.51287 0.51171 5.18159C0.184068 4.85031 0 4.401 0 3.9325C0 3.464 0.184068 3.01469 0.51171 2.68341C0.839353 2.35213 1.28373 2.16602 1.74709 2.16602H3.04392C3.14903 2.16602 3.24983 2.20823 3.32415 2.28338C3.39848 2.35853 3.44023 2.46045 3.44023 2.56673C3.44023 2.67301 3.39848 2.77493 3.32415 2.85008C3.24983 2.92523 3.14903 2.96744 3.04392 2.96744H1.74709C1.49395 2.96744 1.25118 3.06912 1.07218 3.2501C0.893188 3.43109 0.79263 3.67655 0.79263 3.9325C0.79263 4.18845 0.893188 4.43391 1.07218 4.6149C1.25118 4.79588 1.49395 4.89755 1.74709 4.89755H16.1773V3.93361C16.1776 3.80665 16.1531 3.68088 16.1052 3.56353C16.0573 3.44618 15.9869 3.33955 15.8981 3.24977C15.8093 3.16 15.7039 3.08884 15.5878 3.04039C15.4717 2.99194 15.3474 2.96715 15.2218 2.96744H11.7474C11.6423 2.96744 11.5415 2.92523 11.4672 2.85008C11.3929 2.77493 11.3511 2.67301 11.3511 2.56673C11.3511 2.46045 11.3929 2.35853 11.4672 2.28338C11.5415 2.20823 11.6423 2.16602 11.7474 2.16602H15.2218C15.6843 2.16719 16.1275 2.35364 16.4543 2.68452C16.7812 3.0154 16.965 3.46375 16.9656 3.93139V5.29827C16.9656 5.40378 16.9244 5.50503 16.8511 5.58005C16.7777 5.65508 16.678 5.69781 16.5737 5.69898Z" fill="#576065"/>
<path d="M15.5631 13.208C15.4181 13.208 15.2764 13.1645 15.1558 13.0831C15.0352 13.0016 14.9413 12.8858 14.8858 12.7504C14.8303 12.6149 14.8158 12.4658 14.844 12.322C14.8723 12.1782 14.9422 12.0461 15.0447 11.9425C15.1472 11.8388 15.2779 11.7682 15.4201 11.7396C15.5623 11.711 15.7097 11.7257 15.8437 11.7818C15.9777 11.8379 16.0922 11.9329 16.1728 12.0548C16.2533 12.1767 16.2963 12.32 16.2963 12.4667C16.2957 12.6631 16.2183 12.8513 16.0809 12.9902C15.9436 13.1291 15.7574 13.2074 15.5631 13.208ZM15.5631 12.4066C15.5474 12.4066 15.5323 12.4129 15.5211 12.4242C15.51 12.4354 15.5037 12.4507 15.5037 12.4667C15.5037 12.5312 15.6226 12.5312 15.6226 12.4667C15.6226 12.4507 15.6163 12.4354 15.6052 12.4242C15.594 12.4129 15.5789 12.4066 15.5631 12.4066Z" fill="#576065"/>
<path d="M3.44021 5.30947H2.64758V0.988429C2.64758 0.726282 2.75058 0.474871 2.93391 0.289504C3.11724 0.104138 3.36589 0 3.62516 0L11.1662 0C11.4247 0.00117738 11.6722 0.105835 11.8546 0.291074C12.0369 0.476313 12.1393 0.727051 12.1393 0.988429V4.04499H11.3467V0.988429C11.3467 0.939217 11.3275 0.891987 11.2933 0.856981C11.2591 0.821975 11.2126 0.802015 11.1639 0.801429H3.62516C3.57649 0.802015 3.53001 0.821975 3.4958 0.856981C3.46159 0.891987 3.44241 0.939217 3.44241 0.988429L3.44021 5.30947Z" fill="#576065"/>
<path d="M15.2219 7.4644C15.197 7.46632 15.172 7.46632 15.1471 7.4644C15.121 7.46034 15.0957 7.45207 15.0722 7.43991C15.0476 7.43217 15.0245 7.42012 15.004 7.40429C14.9826 7.38995 14.9627 7.37355 14.9445 7.35532C14.9067 7.31836 14.8766 7.27409 14.8561 7.22513C14.8355 7.17618 14.825 7.12354 14.825 7.07037C14.825 7.01719 14.8355 6.96455 14.8561 6.9156C14.8766 6.86664 14.9067 6.82237 14.9445 6.78541C14.9627 6.76718 14.9826 6.75078 15.004 6.73644C15.0245 6.72061 15.0476 6.70856 15.0722 6.70082C15.0956 6.68847 15.1209 6.68019 15.1471 6.67633C15.1978 6.66421 15.2505 6.66421 15.3012 6.67633C15.3272 6.6807 15.3524 6.68895 15.3761 6.70082C15.4003 6.70943 15.4233 6.72142 15.4443 6.73644L15.5038 6.78541C15.5775 6.86155 15.6187 6.96384 15.6187 7.07037C15.6187 7.17689 15.5775 7.27918 15.5038 7.35532L15.4443 7.40429C15.4233 7.41931 15.4003 7.4313 15.3761 7.43991C15.3524 7.4516 15.3272 7.45985 15.3012 7.4644C15.2748 7.46654 15.2483 7.46654 15.2219 7.4644Z" fill="white"/>
<path d="M13.2271 7.06381C13.2271 6.95753 13.2688 6.85561 13.3432 6.78046C13.4175 6.70531 13.5183 6.66309 13.6234 6.66309C13.6757 6.6628 13.7276 6.67293 13.7761 6.69291C13.8245 6.71289 13.8686 6.74232 13.9058 6.77953C13.943 6.81674 13.9726 6.861 13.9929 6.90978C14.0132 6.95855 14.0238 7.01089 14.0241 7.06381C14.0238 7.11672 14.0132 7.16906 13.9929 7.21784C13.9726 7.26661 13.943 7.31087 13.9058 7.34808C13.8686 7.38529 13.8245 7.41472 13.7761 7.4347C13.7276 7.45468 13.6757 7.46481 13.6234 7.46452C13.5183 7.46452 13.4175 7.4223 13.3432 7.34715C13.2688 7.27201 13.2271 7.17008 13.2271 7.06381ZM11.6308 7.06381C11.6305 7.0111 11.6406 6.95886 11.6604 6.91011C11.6802 6.86136 11.7094 6.81707 11.7462 6.7798C11.7831 6.74253 11.8269 6.71303 11.8751 6.69299C11.9233 6.67296 11.975 6.6628 12.0271 6.66309C12.1321 6.66368 12.2325 6.70608 12.3067 6.7811C12.3809 6.85613 12.4229 6.95771 12.4234 7.06381C12.4229 7.1699 12.3809 7.27149 12.3067 7.34651C12.2325 7.42153 12.1321 7.46394 12.0271 7.46452C11.9748 7.46511 11.9229 7.45517 11.8744 7.43527C11.826 7.41537 11.7819 7.38591 11.7448 7.34861C11.7077 7.31131 11.6783 7.26692 11.6584 7.21802C11.6384 7.16912 11.6283 7.1167 11.6286 7.06381H11.6308ZM10.0301 7.06381C10.0298 7.0111 10.0399 6.95886 10.0597 6.91011C10.0795 6.86136 10.1087 6.81707 10.1456 6.7798C10.1824 6.74253 10.2262 6.71303 10.2744 6.69299C10.3227 6.67296 10.3743 6.6628 10.4265 6.66309C10.5314 6.66368 10.6319 6.70608 10.706 6.7811C10.7802 6.85613 10.8222 6.95771 10.8228 7.06381C10.8222 7.1699 10.7802 7.27149 10.706 7.34651C10.6319 7.42153 10.5314 7.46394 10.4265 7.46452C10.3741 7.46511 10.3222 7.45517 10.2738 7.43527C10.2253 7.41537 10.1812 7.38591 10.1441 7.34861C10.107 7.31131 10.0777 7.26692 10.0577 7.21802C10.0378 7.16912 10.0276 7.1167 10.0279 7.06381H10.0301ZM8.42947 7.06381C8.43004 6.95771 8.47198 6.85613 8.54618 6.7811C8.62038 6.70608 8.72085 6.66368 8.82578 6.66309C8.93071 6.66368 9.03118 6.70608 9.10538 6.7811C9.17958 6.85613 9.22152 6.95771 9.2221 7.06381C9.22152 7.1699 9.17958 7.27149 9.10538 7.34651C9.03118 7.42153 8.93071 7.46394 8.82578 7.46452C8.72047 7.46452 8.61944 7.42238 8.54476 7.34729C8.47009 7.27221 8.42785 7.17029 8.42726 7.06381H8.42947ZM6.82879 7.06381C6.82937 6.95771 6.87131 6.85613 6.94551 6.7811C7.01971 6.70608 7.12018 6.66368 7.22511 6.66309C7.33004 6.66368 7.43051 6.70608 7.50471 6.7811C7.5789 6.85613 7.62085 6.95771 7.62142 7.06381C7.62085 7.1699 7.5789 7.27149 7.50471 7.34651C7.43051 7.42153 7.33004 7.46394 7.22511 7.46452C7.1198 7.46452 7.01876 7.42238 6.94409 7.34729C6.86942 7.27221 6.82717 7.17029 6.82659 7.06381H6.82879ZM5.22812 7.06381C5.2287 6.95771 5.27064 6.85613 5.34484 6.7811C5.41904 6.70608 5.51951 6.66368 5.62444 6.66309C5.72937 6.66368 5.82984 6.70608 5.90404 6.7811C5.97823 6.85613 6.02017 6.95771 6.02075 7.06381C6.02017 7.1699 5.97823 7.27149 5.90404 7.34651C5.82984 7.42153 5.72937 7.46394 5.62444 7.46452C5.51912 7.46452 5.41809 7.42238 5.34342 7.34729C5.26875 7.27221 5.2265 7.17029 5.22592 7.06381H5.22812ZM3.62745 7.06381C3.62803 6.95771 3.66997 6.85613 3.74417 6.7811C3.81837 6.70608 3.91883 6.66368 4.02377 6.66309C4.1287 6.66368 4.22916 6.70608 4.30336 6.7811C4.37756 6.85613 4.4195 6.95771 4.42008 7.06381C4.4195 7.1699 4.37756 7.27149 4.30336 7.34651C4.22916 7.42153 4.1287 7.46394 4.02377 7.46452C3.97143 7.46481 3.91955 7.45468 3.87109 7.4347C3.82263 7.41472 3.77854 7.38529 3.74133 7.34808C3.70411 7.31087 3.67452 7.26661 3.65422 7.21784C3.63393 7.16906 3.62334 7.11672 3.62305 7.06381H3.62745Z" fill="white"/>
<path d="M2.42307 7.46445C2.34422 7.46509 2.26698 7.44194 2.20122 7.39796C2.13546 7.35397 2.08416 7.29115 2.0539 7.21753C2.02365 7.14391 2.01579 7.06284 2.03135 6.98468C2.04691 6.90652 2.08517 6.83483 2.14125 6.77878C2.2171 6.70711 2.31705 6.66724 2.42087 6.66724C2.52469 6.66724 2.62464 6.70711 2.70049 6.77878C2.75629 6.83457 2.79446 6.90585 2.81016 6.98359C2.82585 7.06132 2.81837 7.14203 2.78866 7.21546C2.75895 7.2889 2.70834 7.35176 2.64326 7.39609C2.57818 7.44041 2.50154 7.46421 2.42307 7.46445Z" fill="white"/>
<path d="M14.8277 18.2682C14.8277 18.1619 14.8695 18.06 14.9438 17.9848C15.0181 17.9097 15.1189 17.8674 15.224 17.8674C15.2762 17.8671 15.3278 17.8773 15.376 17.8973C15.4242 17.9174 15.4681 17.9469 15.5049 17.9841C15.5418 18.0214 15.571 18.0657 15.5908 18.1145C15.6106 18.1632 15.6206 18.2154 15.6203 18.2682C15.6209 18.3209 15.6111 18.3733 15.5914 18.4222C15.5717 18.4711 15.5425 18.5155 15.5056 18.5528C15.4687 18.5902 15.4247 18.6197 15.3764 18.6396C15.328 18.6595 15.2762 18.6695 15.224 18.6689C15.1719 18.6692 15.1202 18.659 15.072 18.639C15.0238 18.6189 14.98 18.5894 14.9431 18.5522C14.9063 18.5149 14.8771 18.4706 14.8573 18.4218C14.8375 18.3731 14.8274 18.3209 14.8277 18.2682ZM13.2425 18.2682C13.2427 18.2152 13.2533 18.1629 13.2736 18.1141C13.2939 18.0653 13.3235 18.0211 13.3607 17.9839C13.3979 17.9467 13.442 17.9172 13.4905 17.8973C13.539 17.8773 13.5908 17.8671 13.6432 17.8674C13.6949 17.8677 13.7461 17.8783 13.7938 17.8986C13.8415 17.9189 13.8848 17.9485 13.9212 17.9857C13.9576 18.0229 13.9864 18.067 14.0059 18.1155C14.0255 18.1639 14.0354 18.2158 14.0351 18.2682C14.0357 18.3206 14.026 18.3726 14.0065 18.4212C13.9871 18.4698 13.9583 18.514 13.9219 18.5512C13.8854 18.5885 13.842 18.6181 13.7942 18.6383C13.7463 18.6585 13.695 18.6689 13.6432 18.6689C13.5906 18.6698 13.5383 18.66 13.4895 18.6403C13.4406 18.6206 13.3962 18.5912 13.3587 18.5539C13.3211 18.5166 13.2914 18.4721 13.271 18.4231C13.2507 18.374 13.2402 18.3213 13.2402 18.2682H13.2425ZM11.6572 18.2682C11.6572 18.1619 11.6989 18.06 11.7733 17.9848C11.8476 17.9097 11.9484 17.8674 12.0535 17.8674C12.1056 17.8671 12.1573 17.8773 12.2055 17.8973C12.2537 17.9174 12.2975 17.9469 12.3344 17.9841C12.3713 18.0214 12.4004 18.0657 12.4202 18.1145C12.4401 18.1632 12.4501 18.2154 12.4498 18.2682C12.4504 18.3209 12.4406 18.3733 12.4209 18.4222C12.4011 18.4711 12.372 18.5155 12.3351 18.5528C12.2981 18.5902 12.2542 18.6197 12.2059 18.6396C12.1575 18.6595 12.1057 18.6695 12.0535 18.6689C12.0014 18.6692 11.9497 18.659 11.9015 18.639C11.8533 18.6189 11.8095 18.5894 11.7726 18.5522C11.7358 18.5149 11.7066 18.4706 11.6868 18.4218C11.667 18.3731 11.6569 18.3209 11.6572 18.2682ZM10.0719 18.2682C10.0719 18.1619 10.1137 18.06 10.188 17.9848C10.2623 17.9097 10.3631 17.8674 10.4682 17.8674C10.5204 17.8671 10.572 17.8773 10.6203 17.8973C10.6685 17.9174 10.7123 17.9469 10.7491 17.9841C10.786 18.0214 10.8152 18.0657 10.835 18.1145C10.8548 18.1632 10.8649 18.2154 10.8646 18.2682C10.8652 18.3209 10.8553 18.3733 10.8356 18.4222C10.8159 18.4711 10.7867 18.5155 10.7498 18.5528C10.7129 18.5902 10.669 18.6197 10.6206 18.6396C10.5723 18.6595 10.5205 18.6695 10.4682 18.6689C10.4161 18.6692 10.3645 18.659 10.3162 18.639C10.268 18.6189 10.2242 18.5894 10.1874 18.5522C10.1505 18.5149 10.1213 18.4706 10.1015 18.4218C10.0817 18.3731 10.0716 18.3209 10.0719 18.2682ZM8.48667 18.2682C8.48696 18.2152 8.49756 18.1629 8.51785 18.1141C8.53814 18.0653 8.56774 18.0211 8.60495 17.9839C8.64216 17.9467 8.68626 17.9172 8.73472 17.8973C8.78318 17.8773 8.83506 17.8671 8.88739 17.8674C8.99153 17.8686 9.09098 17.9114 9.16401 17.9865C9.23703 18.0616 9.27769 18.1628 9.2771 18.2682C9.27768 18.3206 9.26798 18.3726 9.24854 18.4212C9.22911 18.4698 9.20033 18.514 9.16388 18.5512C9.12743 18.5885 9.08403 18.6181 9.03619 18.6383C8.98835 18.6585 8.93703 18.6689 8.88519 18.6689C8.83296 18.6692 8.78119 18.659 8.73285 18.639C8.68451 18.619 8.64056 18.5895 8.60353 18.5523C8.56649 18.5151 8.5371 18.4708 8.51705 18.422C8.497 18.3733 8.48667 18.321 8.48667 18.2682ZM6.90141 18.2682C6.90141 18.1619 6.94317 18.06 7.01749 17.9848C7.09182 17.9097 7.19262 17.8674 7.29773 17.8674C7.34985 17.8671 7.40152 17.8773 7.44974 17.8973C7.49795 17.9174 7.54176 17.9469 7.57862 17.9841C7.61548 18.0214 7.64466 18.0657 7.66447 18.1145C7.68428 18.1632 7.69434 18.2154 7.69404 18.2682C7.69463 18.3209 7.68478 18.3733 7.66508 18.4222C7.64537 18.4711 7.6162 18.5155 7.57928 18.5528C7.54236 18.5902 7.49844 18.6197 7.45009 18.6396C7.40174 18.6595 7.34994 18.6695 7.29773 18.6689C7.2456 18.6692 7.19394 18.659 7.14572 18.639C7.09751 18.6189 7.0537 18.5894 7.01684 18.5522C6.97998 18.5149 6.9508 18.4706 6.93099 18.4218C6.91117 18.3731 6.90112 18.3209 6.90141 18.2682ZM5.31615 18.2682C5.31615 18.1619 5.35791 18.06 5.43223 17.9848C5.50656 17.9097 5.60736 17.8674 5.71247 17.8674C5.7646 17.8671 5.81626 17.8773 5.86448 17.8973C5.91269 17.9174 5.9565 17.9469 5.99336 17.9841C6.03022 18.0214 6.0594 18.0657 6.07921 18.1145C6.09902 18.1632 6.10908 18.2154 6.10878 18.2682C6.10937 18.3209 6.09953 18.3733 6.07982 18.4222C6.06011 18.4711 6.03094 18.5155 5.99402 18.5528C5.9571 18.5902 5.91318 18.6197 5.86483 18.6396C5.81648 18.6595 5.76468 18.6695 5.71247 18.6689C5.66016 18.6695 5.60825 18.6595 5.55978 18.6396C5.51131 18.6197 5.46725 18.5903 5.43015 18.553C5.39306 18.5157 5.36368 18.4713 5.34373 18.4224C5.32378 18.3735 5.31366 18.321 5.31395 18.2682H5.31615ZM3.7309 18.2682C3.7309 18.1619 3.77265 18.06 3.84697 17.9848C3.9213 17.9097 4.0221 17.8674 4.12721 17.8674C4.17934 17.8671 4.231 17.8773 4.27922 17.8973C4.32743 17.9174 4.37124 17.9469 4.4081 17.9841C4.44496 18.0214 4.47414 18.0657 4.49395 18.1145C4.51377 18.1632 4.52382 18.2154 4.52352 18.2682C4.52411 18.3209 4.51427 18.3733 4.49456 18.4222C4.47485 18.4711 4.44568 18.5155 4.40876 18.5528C4.37184 18.5902 4.32792 18.6197 4.27957 18.6396C4.23122 18.6595 4.17942 18.6695 4.12721 18.6689C4.07508 18.6692 4.02342 18.659 3.9752 18.639C3.92699 18.6189 3.88318 18.5894 3.84632 18.5522C3.80946 18.5149 3.78028 18.4706 3.76047 18.4218C3.74065 18.3731 3.7306 18.3209 3.7309 18.2682ZM2.14564 18.2682C2.14564 18.1619 2.18739 18.06 2.26171 17.9848C2.33604 17.9097 2.43684 17.8674 2.54195 17.8674C2.59408 17.8671 2.64574 17.8773 2.69396 17.8973C2.74217 17.9174 2.78598 17.9469 2.82284 17.9841C2.8597 18.0214 2.88888 18.0657 2.90869 18.1145C2.92851 18.1632 2.93856 18.2154 2.93827 18.2682C2.93886 18.3209 2.92901 18.3733 2.9093 18.4222C2.88959 18.4711 2.86042 18.5155 2.8235 18.5528C2.78658 18.5902 2.74266 18.6197 2.69431 18.6396C2.64596 18.6595 2.59416 18.6695 2.54195 18.6689C2.48982 18.6692 2.43816 18.659 2.38994 18.639C2.34173 18.6189 2.29792 18.5894 2.26106 18.5522C2.2242 18.5149 2.19502 18.4706 2.17521 18.4218C2.1554 18.3731 2.14534 18.3209 2.14564 18.2682Z" fill="white"/>
<path d="M16.2346 8.66666C16.2352 8.56057 16.2771 8.45899 16.3513 8.38396C16.4255 8.30894 16.526 8.26654 16.6309 8.26595C16.6831 8.26566 16.7347 8.27582 16.7829 8.29585C16.8312 8.31589 16.875 8.34539 16.9118 8.38266C16.9487 8.41993 16.9779 8.46422 16.9977 8.51297C17.0175 8.56172 17.0275 8.61396 17.0272 8.66666C17.0275 8.71937 17.0175 8.77161 16.9977 8.82036C16.9779 8.86911 16.9487 8.9134 16.9118 8.95067C16.875 8.98794 16.8312 9.01744 16.7829 9.03748C16.7347 9.05751 16.6831 9.06767 16.6309 9.06738C16.526 9.06679 16.4255 9.02439 16.3513 8.94937C16.2771 8.87434 16.2352 8.77276 16.2346 8.66666ZM16.2346 7.06381C16.2352 6.95771 16.2771 6.85613 16.3513 6.7811C16.4255 6.70608 16.526 6.66368 16.6309 6.66309C16.6831 6.6628 16.7347 6.67296 16.7829 6.69299C16.8312 6.71303 16.875 6.74253 16.9118 6.7798C16.9487 6.81707 16.9779 6.86136 16.9977 6.91011C17.0175 6.95886 17.0275 7.0111 17.0272 7.06381C17.0275 7.11651 17.0175 7.16875 16.9977 7.2175C16.9779 7.26625 16.9487 7.31054 16.9118 7.34781C16.875 7.38508 16.8312 7.41459 16.7829 7.43462C16.7347 7.45465 16.6831 7.46482 16.6309 7.46452C16.526 7.46394 16.4255 7.42153 16.3513 7.34651C16.2771 7.27149 16.2352 7.1699 16.2346 7.06381Z" fill="white"/>
<path d="M16.2346 18.1325C16.2352 18.0264 16.2771 17.9248 16.3513 17.8498C16.4255 17.7748 16.526 17.7324 16.6309 17.7318C16.6831 17.7315 16.7347 17.7416 16.7829 17.7617C16.8312 17.7817 16.875 17.8112 16.9118 17.8485C16.9487 17.8857 16.9779 17.93 16.9977 17.9788C17.0175 18.0275 17.0275 18.0798 17.0272 18.1325C17.0275 18.1852 17.0175 18.2374 16.9977 18.2862C16.9779 18.3349 16.9487 18.3792 16.9118 18.4165C16.875 18.4538 16.8312 18.4833 16.7829 18.5033C16.7347 18.5233 16.6831 18.5335 16.6309 18.5332C16.526 18.5326 16.4255 18.4902 16.3513 18.4152C16.2771 18.3402 16.2352 18.2386 16.2346 18.1325ZM16.2346 16.5296C16.2352 16.4235 16.2771 16.3219 16.3513 16.2469C16.4255 16.1719 16.526 16.1295 16.6309 16.1289C16.6831 16.1286 16.7347 16.1388 16.7829 16.1588C16.8312 16.1788 16.875 16.2084 16.9118 16.2456C16.9487 16.2829 16.9779 16.3272 16.9977 16.3759C17.0175 16.4247 17.0275 16.4769 17.0272 16.5296C17.0275 16.5823 17.0175 16.6346 16.9977 16.6833C16.9779 16.7321 16.9487 16.7764 16.9118 16.8136C16.875 16.8509 16.8312 16.8804 16.7829 16.9004C16.7347 16.9205 16.6831 16.9306 16.6309 16.9303C16.526 16.9298 16.4255 16.8874 16.3513 16.8123C16.2771 16.7373 16.2352 16.6357 16.2346 16.5296Z" fill="white"/>
<path d="M15.7392 5.41866H14.9465V4.34786C14.9465 4.28882 14.9233 4.23219 14.882 4.19044C14.8408 4.14869 14.7847 4.12524 14.7264 4.12524H6.54906C6.49067 4.12524 6.43466 4.14869 6.39337 4.19044C6.35208 4.23219 6.32888 4.28882 6.32888 4.34786V5.41866H5.53625V4.34786C5.53712 4.21436 5.56402 4.08234 5.61541 3.95937C5.6668 3.83639 5.74168 3.72488 5.83576 3.6312C5.92984 3.53753 6.04127 3.46354 6.16366 3.41346C6.28606 3.36339 6.41703 3.33822 6.54906 3.33939H14.7374C15.0033 3.33998 15.2581 3.4472 15.4459 3.63751C15.6337 3.82782 15.7392 4.08569 15.7392 4.35454V5.41866Z" fill="#576065"/>
</svg>
