<svg width="26" height="27" viewBox="0 0 26 27" fill="none" xmlns="http://www.w3.org/2000/svg">
<path d="M16.3688 19.4427C21.2353 19.4427 25.1803 15.4976 25.1803 10.6312C25.1803 5.76473 21.2353 1.8197 16.3688 1.8197C11.5024 1.8197 7.55737 5.76473 7.55737 10.6312C7.55737 15.4976 11.5024 19.4427 16.3688 19.4427Z" fill="#EAEAEA"/>
<path d="M2.6394 3.8689V4.68857" stroke="#4C241D" stroke-width="1.24528" stroke-linecap="round" stroke-linejoin="round"/>
<path d="M2.6394 6.32788V7.14755" stroke="#4C241D" stroke-width="1.24528" stroke-linecap="round" stroke-linejoin="round"/>
<path d="M1 5.50818H1.81967" stroke="#4C241D" stroke-width="1.24528" stroke-linecap="round" stroke-linejoin="round"/>
<path d="M3.45898 5.50818H4.27866" stroke="#4C241D" stroke-width="1.24528" stroke-linecap="round" stroke-linejoin="round"/>
<path d="M21.9017 16.1639C22.3544 16.1639 22.7214 15.7969 22.7214 15.3442C22.7214 14.8915 22.3544 14.5245 21.9017 14.5245C21.449 14.5245 21.082 14.8915 21.082 15.3442C21.082 15.7969 21.449 16.1639 21.9017 16.1639Z" stroke="#4C241D" stroke-width="1.24528" stroke-linecap="round" stroke-linejoin="round"/>
<path d="M15.754 22.3116V20.4816C15.753 19.6381 16.0104 18.8145 16.4917 18.1218L17.6618 16.4316C17.8513 16.158 17.9844 15.8493 18.0533 15.5237C18.1222 15.1981 18.1256 14.8619 18.0632 14.535C18.0008 14.208 17.8739 13.8968 17.69 13.6194C17.506 13.342 17.2686 13.104 16.9917 12.9193C16.5357 12.617 15.9935 12.4717 15.4474 12.5052C14.9013 12.5388 14.3811 12.7495 13.9655 13.1054L13.4204 13.5751V22.3116H15.754Z" fill="#E66353" stroke="#4C241D" stroke-width="1.24528" stroke-linecap="round" stroke-linejoin="round"/>
<path d="M6.75761 22.3116V20.4816C6.75865 19.6381 6.50119 18.8145 6.01991 18.1218L4.85229 16.4316C4.6628 16.158 4.52972 15.8493 4.46081 15.5237C4.39189 15.1981 4.38852 14.8619 4.4509 14.535C4.51328 14.208 4.64015 13.8968 4.82411 13.6194C5.00808 13.342 5.24544 13.104 5.52237 12.9193C5.9784 12.617 6.52056 12.4717 7.06666 12.5052C7.61277 12.5388 8.13303 12.7495 8.5486 13.1054L9.09368 13.5751V22.3116H6.75761Z" fill="#E66353" stroke="#4C241D" stroke-width="1.24528" stroke-linecap="round" stroke-linejoin="round"/>
<path d="M25.2333 6.32788L24.0251 7.53608" stroke="#4C241D" stroke-width="1.24528" stroke-linecap="round" stroke-linejoin="round"/>
<path d="M24.0251 6.32788L25.2333 7.53608" stroke="#4C241D" stroke-width="1.24528" stroke-linecap="round" stroke-linejoin="round"/>
<path d="M7.14753 19.8525H5.50818V18.0226C5.50881 17.5127 5.35335 17.0149 5.06269 16.596L3.8922 14.9058C3.57881 14.4531 3.35872 13.9425 3.24478 13.4038C3.13084 12.8651 3.12533 12.3092 3.22857 11.7683C3.3318 11.2275 3.54172 10.7127 3.84607 10.2538C4.15042 9.79501 4.54311 9.40139 5.00121 9.09595C5.75542 8.5959 6.65213 8.35545 7.55534 8.41106C8.45855 8.46668 9.31898 8.81534 10.0061 9.40415L10.5512 9.87341L9.48359 11.116L8.93851 10.6464C8.52294 10.2905 8.00268 10.0798 7.45658 10.0462C6.91047 10.0126 6.36831 10.158 5.91228 10.4603C5.63536 10.645 5.39799 10.8829 5.21402 11.1603C5.03006 11.4377 4.90319 11.749 4.84081 12.0759C4.77844 12.4029 4.7818 12.739 4.85072 13.0646C4.91963 13.3903 5.05271 13.6989 5.2422 13.9726L6.40982 15.6628C6.8911 16.3555 7.14856 17.1791 7.14753 18.0226V19.8525Z" fill="#FFCE56" stroke="#4C241D" stroke-width="1.24528" stroke-linecap="round" stroke-linejoin="round"/>
<path d="M15.5738 19.8525H17.2132V18.0226C17.2126 17.5127 17.368 17.0149 17.6587 16.596L18.8279 14.9058C19.1414 14.4532 19.3617 13.9428 19.4758 13.4042C19.5899 12.8656 19.5957 12.3097 19.4927 11.7689C19.3897 11.2281 19.18 10.7132 18.8759 10.2543C18.5718 9.79534 18.1793 9.40158 17.7214 9.09595C16.9672 8.5959 16.0705 8.35545 15.1673 8.41106C14.2641 8.46668 13.4036 8.81534 12.7165 9.40415L12.1714 9.87341L13.2411 11.116L13.7861 10.6464C14.2017 10.2905 14.722 10.0798 15.2681 10.0462C15.8142 10.0126 16.3563 10.158 16.8124 10.4603C17.0893 10.645 17.3267 10.8829 17.5106 11.1603C17.6946 11.4377 17.8215 11.749 17.8838 12.0759C17.9462 12.4029 17.9428 12.739 17.8739 13.0646C17.805 13.3903 17.6719 13.6989 17.4825 13.9726L16.3124 15.6628C15.8311 16.3555 15.5736 17.1791 15.5747 18.0226L15.5738 19.8525Z" fill="#FFCE56" stroke="#4C241D" stroke-width="1.24528" stroke-linecap="round" stroke-linejoin="round"/>
<path d="M4.27881 19.8524H18.2132V23.1311H4.27881V19.8524Z" fill="#FFCE56" stroke="#4C241D" stroke-width="1.24528" stroke-linecap="round" stroke-linejoin="round"/>
<path d="M10.0168 21.4921L11.2465 20.2625L12.4761 21.4921L11.2465 22.7217L10.0168 21.4921Z" fill="#E66353" stroke="#4C241D" stroke-width="1.24528" stroke-linecap="round" stroke-linejoin="round"/>
<path d="M14.1145 21.4921L15.3441 20.2625L16.5737 21.4921L15.3441 22.7217L14.1145 21.4921Z" fill="#E66353" stroke="#4C241D" stroke-width="1.24528" stroke-linecap="round" stroke-linejoin="round"/>
<path d="M11.246 9.19666C12.1514 9.19666 12.8854 8.4627 12.8854 7.55731C12.8854 6.65193 12.1514 5.91797 11.246 5.91797C10.3406 5.91797 9.60669 6.65193 9.60669 7.55731C9.60669 8.4627 10.3406 9.19666 11.246 9.19666Z" fill="#FFCE56" stroke="#4C241D" stroke-width="1.24528" stroke-linecap="round" stroke-linejoin="round"/>
<path d="M5.91846 21.4916L7.14807 20.262L8.37768 21.4916L7.14807 22.7212L5.91846 21.4916Z" fill="#E66353" stroke="#4C241D" stroke-width="1.24528" stroke-linecap="round" stroke-linejoin="round"/>
<path d="M17.9709 23.1311H4.52087C3.93441 23.1311 3.45898 23.6065 3.45898 24.193V24.9381C3.45898 25.5245 3.93441 26 4.52087 26H17.9709C18.5573 26 19.0328 25.5245 19.0328 24.9381V24.193C19.0328 23.6065 18.5573 23.1311 17.9709 23.1311Z" fill="white" stroke="#4C241D" stroke-width="1.24528" stroke-linecap="round" stroke-linejoin="round"/>
<path d="M9.19702 8.37708H13.2954V19.8525H9.19702V8.37708Z" fill="#FFCE56" stroke="#4C241D" stroke-width="1.24528" stroke-linecap="round" stroke-linejoin="round"/>
<path d="M13.7049 3.86891L11.2458 3.45908V3.04924L13.7049 2.6394V3.86891Z" fill="#FFCE56" stroke="#4C241D" stroke-width="1.24528" stroke-linecap="round" stroke-linejoin="round"/>
<path d="M8.78687 3.86891L11.2459 3.45908V3.04924L8.78687 2.6394V3.86891Z" fill="#FFCE56" stroke="#4C241D" stroke-width="1.24528" stroke-linecap="round" stroke-linejoin="round"/>
<path d="M11.8606 1L11.4508 3.2541H11.0409L10.6311 1H11.8606Z" fill="#FFCE56" stroke="#4C241D" stroke-width="1.24528" stroke-linecap="round" stroke-linejoin="round"/>
<path d="M11.8606 5.91808L11.4508 3.25415H11.0409L10.6311 5.91808H11.8606Z" fill="#FFCE56" stroke="#4C241D" stroke-width="1.24528" stroke-linecap="round" stroke-linejoin="round"/>
<path d="M5.09831 24.7706C5.32466 24.7706 5.50815 24.5871 5.50815 24.3608C5.50815 24.1344 5.32466 23.9509 5.09831 23.9509C4.87197 23.9509 4.68848 24.1344 4.68848 24.3608C4.68848 24.5871 4.87197 24.7706 5.09831 24.7706Z" fill="#4C241D"/>
<path d="M6.73747 25.1803C6.96382 25.1803 7.14731 24.9968 7.14731 24.7704C7.14731 24.5441 6.96382 24.3606 6.73747 24.3606C6.51113 24.3606 6.32764 24.5441 6.32764 24.7704C6.32764 24.9968 6.51113 25.1803 6.73747 25.1803Z" fill="#4C241D"/>
<path d="M8.78703 24.7706C9.01338 24.7706 9.19687 24.5871 9.19687 24.3608C9.19687 24.1344 9.01338 23.9509 8.78703 23.9509C8.56069 23.9509 8.3772 24.1344 8.3772 24.3608C8.3772 24.5871 8.56069 24.7706 8.78703 24.7706Z" fill="#4C241D"/>
<path d="M12.4755 25.1803C12.7019 25.1803 12.8853 24.9968 12.8853 24.7704C12.8853 24.5441 12.7019 24.3606 12.4755 24.3606C12.2492 24.3606 12.0657 24.5441 12.0657 24.7704C12.0657 24.9968 12.2492 25.1803 12.4755 25.1803Z" fill="#4C241D"/>
<path d="M10.8361 25.1803C11.0625 25.1803 11.2459 24.9968 11.2459 24.7704C11.2459 24.5441 11.0625 24.3606 10.8361 24.3606C10.6098 24.3606 10.4263 24.5441 10.4263 24.7704C10.4263 24.9968 10.6098 25.1803 10.8361 25.1803Z" fill="#4C241D"/>
<path d="M14.9345 24.7706C15.1608 24.7706 15.3443 24.5871 15.3443 24.3608C15.3443 24.1344 15.1608 23.9509 14.9345 23.9509C14.7081 23.9509 14.5247 24.1344 14.5247 24.3608C14.5247 24.5871 14.7081 24.7706 14.9345 24.7706Z" fill="#4C241D"/>
<path d="M18.2133 5.09836C18.4396 5.09836 18.6231 4.91487 18.6231 4.68852C18.6231 4.46218 18.4396 4.27869 18.2133 4.27869C17.987 4.27869 17.8035 4.46218 17.8035 4.68852C17.8035 4.91487 17.987 5.09836 18.2133 5.09836Z" fill="#4C241D"/>
<path d="M16.5739 25.1803C16.8002 25.1803 16.9837 24.9968 16.9837 24.7704C16.9837 24.5441 16.8002 24.3606 16.5739 24.3606C16.3476 24.3606 16.1641 24.5441 16.1641 24.7704C16.1641 24.9968 16.3476 25.1803 16.5739 25.1803Z" fill="#4C241D"/>
</svg>
