<svg width="127" height="146" viewBox="0 0 127 146" fill="none" xmlns="http://www.w3.org/2000/svg">
<path d="M69.1051 142.88V3.16715C69.1181 2.59022 68.9113 2.02991 68.5267 1.59973C68.142 1.16954 67.6082 0.901641 67.0334 0.850302C66.736 0.834202 66.4385 0.87893 66.159 0.981757C65.8794 1.08458 65.6238 1.24335 65.4077 1.44834C65.1917 1.65333 65.0197 1.90024 64.9023 2.17396C64.7849 2.44769 64.7246 2.74248 64.725 3.04032V142.88C64.725 143.461 64.9558 144.018 65.3665 144.429C65.7772 144.839 66.3342 145.07 66.9151 145.07C67.4959 145.07 68.0529 144.839 68.4636 144.429C68.8743 144.018 69.1051 143.461 69.1051 142.88Z" fill="#093F68"/>
<path d="M66.9151 145.916C66.11 145.916 65.3379 145.596 64.7686 145.027C64.1993 144.457 63.8795 143.685 63.8795 142.88V3.04031C63.8777 2.62743 63.9603 2.21855 64.1224 1.83881C64.2845 1.45907 64.5226 1.1165 64.8219 0.832168C65.1213 0.547837 65.4757 0.327759 65.8633 0.185462C66.2509 0.0431643 66.6635 -0.0183406 67.0757 0.00472934C67.8689 0.0630509 68.6094 0.423666 69.1443 1.01214C69.6793 1.60062 69.968 2.37203 69.9506 3.16715V142.88C69.9506 143.685 69.6308 144.457 69.0615 145.027C68.4923 145.596 67.7201 145.916 66.9151 145.916ZM66.9151 1.69586C66.7379 1.69359 66.562 1.72681 66.3979 1.79357C66.2337 1.86033 66.0846 1.95928 65.9593 2.08458C65.834 2.20988 65.7351 2.359 65.6683 2.52314C65.6016 2.68728 65.5683 2.86313 65.5706 3.04031V142.88C65.5706 143.237 65.7123 143.579 65.9644 143.831C66.2165 144.083 66.5585 144.225 66.9151 144.225C67.2716 144.225 67.6136 144.083 67.8657 143.831C68.1179 143.579 68.2595 143.237 68.2595 142.88V3.16715C68.2724 2.8072 68.1489 2.45566 67.9138 2.18285C67.6786 1.91005 67.3491 1.73612 66.9912 1.69586H66.9151Z" fill="#093F68"/>
<path d="M26.3617 143.54C33.9718 119.585 40.8209 98.7246 47.6192 78.6002C47.8127 78.0748 47.8049 77.4964 47.5972 76.9765C47.3895 76.4566 46.9968 76.0319 46.4946 75.7844C46.2156 75.6571 45.913 75.5898 45.6063 75.5868C45.2997 75.5839 44.9958 75.6454 44.7144 75.7674C44.4331 75.8893 44.1804 76.069 43.9729 76.2948C43.7654 76.5206 43.6076 76.7875 43.5098 77.0781C36.686 97.2533 29.837 118.19 22.1846 142.187C22.0793 142.515 22.0532 142.864 22.1084 143.205C22.1636 143.546 22.2984 143.868 22.502 144.147C22.7056 144.426 22.9722 144.652 23.28 144.808C23.5878 144.964 23.928 145.045 24.2731 145.045C24.7356 145.047 25.1867 144.902 25.5619 144.632C25.9371 144.361 26.2171 143.979 26.3617 143.54Z" fill="#093F68"/>
<path d="M24.2731 145.916C23.7946 145.916 23.3228 145.803 22.8961 145.587C22.4695 145.37 22.1001 145.055 21.8181 144.669C21.5362 144.282 21.3496 143.834 21.2737 143.362C21.1978 142.889 21.2347 142.406 21.3813 141.95C29.059 117.818 35.8405 97.135 42.7065 76.8414C42.8442 76.4394 43.0644 76.0706 43.353 75.7586C43.6415 75.4466 43.992 75.1982 44.382 75.0295C44.772 74.8608 45.193 74.7753 45.6179 74.7786C46.0429 74.782 46.4624 74.874 46.8497 75.0488C47.5381 75.3879 48.0783 75.9675 48.3682 76.6781C48.658 77.3886 48.6773 78.1807 48.4225 78.9046C41.5734 99.1982 34.8173 119.796 27.165 143.827C26.9685 144.438 26.582 144.97 26.0617 145.346C25.5415 145.722 24.9148 145.921 24.2731 145.916ZM45.5814 76.4355C45.3009 76.4353 45.0274 76.5234 44.7998 76.6873C44.5721 76.8512 44.4018 77.0826 44.313 77.3487C37.447 97.6423 30.6741 118.342 22.9879 142.457C22.9234 142.661 22.9082 142.876 22.9435 143.086C22.9788 143.297 23.0635 143.495 23.1908 143.666C23.3135 143.839 23.476 143.978 23.6645 144.074C23.8529 144.17 24.0618 144.219 24.2731 144.216C24.5584 144.213 24.8356 144.121 25.066 143.953C25.2965 143.784 25.4686 143.548 25.5584 143.278C33.1685 119.23 39.933 98.5893 46.8244 78.3211C46.9167 78.1151 46.9556 77.8892 46.9376 77.6643C46.9196 77.4393 46.8453 77.2225 46.7215 77.0338C46.5976 76.8451 46.4283 76.6906 46.2291 76.5845C46.0298 76.4785 45.8071 76.4244 45.5814 76.427V76.4355Z" fill="#093F68"/>
<path d="M109.557 145.07C109.901 145.069 110.241 144.987 110.548 144.83C110.854 144.673 111.12 144.447 111.323 144.169C111.527 143.891 111.662 143.569 111.718 143.229C111.774 142.889 111.749 142.541 111.646 142.212C104.035 118.215 97.161 97.3041 90.3457 77.1542C90.1885 76.6603 89.865 76.2362 89.4302 75.954C88.9954 75.6719 88.4763 75.5492 87.9612 75.6068C87.6398 75.6485 87.3316 75.761 87.0589 75.9362C86.7862 76.1114 86.5558 76.3449 86.3843 76.6199C86.2128 76.895 86.1045 77.2047 86.0672 77.5266C86.0299 77.8486 86.0645 78.1748 86.1686 78.4818C92.9754 98.6316 99.8245 119.542 107.46 143.54C107.603 143.984 107.883 144.371 108.26 144.646C108.636 144.921 109.091 145.069 109.557 145.07Z" fill="#093F68"/>
<path d="M109.557 145.916C108.91 145.918 108.28 145.713 107.758 145.332C107.236 144.95 106.85 144.411 106.657 143.793C98.9874 119.703 92.2229 99.0375 85.3653 78.7524C85.2245 78.3339 85.178 77.8894 85.2292 77.4509C85.2803 77.0123 85.4279 76.5905 85.6613 76.2157C85.8981 75.8321 86.2177 75.5062 86.5966 75.2619C86.9755 75.0176 87.4041 74.861 87.8513 74.8036C88.5609 74.7182 89.2781 74.8825 89.8798 75.2682C90.4816 75.6539 90.9303 76.237 91.149 76.9175C97.9981 97.2111 104.771 117.877 112.449 142.026C112.594 142.481 112.629 142.964 112.553 143.435C112.476 143.907 112.289 144.353 112.007 144.739C111.726 145.124 111.357 145.438 110.931 145.654C110.505 145.871 110.035 145.983 109.557 145.983V145.916ZM88.2403 76.4355H88.0796C87.8813 76.4604 87.691 76.5289 87.5223 76.6361C87.3536 76.7433 87.2108 76.8865 87.1041 77.0555C86.9973 77.2244 86.9294 77.415 86.9051 77.6133C86.8808 77.8117 86.9007 78.013 86.9634 78.2027C93.8294 98.4963 100.594 119.17 108.272 143.311C108.36 143.583 108.532 143.82 108.763 143.988C108.994 144.156 109.271 144.248 109.557 144.25C109.769 144.25 109.978 144.199 110.166 144.103C110.355 144.006 110.518 143.867 110.643 143.695C110.767 143.524 110.849 143.325 110.883 143.116C110.916 142.907 110.899 142.693 110.834 142.491C103.164 118.393 96.4 97.7184 89.5424 77.4502C89.4581 77.1665 89.2873 76.9162 89.0539 76.7343C88.8204 76.5524 88.536 76.4479 88.2403 76.4355Z" fill="#093F68"/>
<path d="M66.9151 126.721C99.2123 126.721 125.394 100.539 125.394 68.242C125.394 35.9447 99.2123 9.76257 66.9151 9.76257C34.6178 9.76257 8.43567 35.9447 8.43567 68.242C8.43567 100.539 34.6178 126.721 66.9151 126.721Z" fill="#68E1FD"/>
<path d="M66.9151 127.575C55.1796 127.577 43.7073 124.099 33.9489 117.58C24.1904 111.061 16.5842 101.795 12.0921 90.9537C7.59999 80.1121 6.42378 68.1819 8.71222 56.6718C11.0007 45.1617 16.6509 34.5887 24.9485 26.2899C33.2461 17.9911 43.8183 12.3393 55.3281 10.0492C66.8379 7.75916 78.7683 8.93366 89.6105 13.4242C100.453 17.9148 109.72 25.5197 116.24 35.2772C122.76 45.0347 126.24 56.5066 126.24 68.242C126.222 83.9712 119.966 99.0512 108.845 110.174C97.7234 121.297 82.6443 127.555 66.9151 127.575ZM66.9151 10.6081C55.5138 10.6065 44.368 13.9859 34.8875 20.3191C25.407 26.6523 18.0175 35.6547 13.6537 46.1878C9.28983 56.7209 8.14761 68.3115 10.3715 79.4938C12.5954 90.6761 18.0854 100.948 26.1473 109.01C34.2093 117.072 44.4809 122.562 55.6632 124.786C66.8455 127.009 78.4361 125.867 88.9692 121.503C99.5023 117.139 108.505 109.75 114.838 100.269C121.171 90.7889 124.551 79.6432 124.549 68.242C124.531 52.962 118.453 38.313 107.649 27.5085C96.844 16.7039 82.195 10.626 66.9151 10.6081Z" fill="#093F68"/>
<path d="M66.915 116.701C93.6785 116.701 115.374 95.0054 115.374 68.242C115.374 41.4786 93.6785 19.7825 66.915 19.7825C40.1516 19.7825 18.4556 41.4786 18.4556 68.242C18.4556 95.0054 40.1516 116.701 66.915 116.701Z" fill="white"/>
<path d="M66.9151 117.547C57.1635 117.547 47.6308 114.655 39.5227 109.238C31.4145 103.82 25.095 96.1195 21.3632 87.1102C17.6314 78.1009 16.655 68.1873 18.5574 58.623C20.4599 49.0588 25.1557 40.2735 32.0512 33.3781C38.9466 26.4826 47.7319 21.7868 57.2961 19.8843C66.8604 17.9819 76.774 18.9583 85.7833 22.6901C94.7926 26.4219 102.493 32.7414 107.911 40.8496C113.328 48.9577 116.22 58.4904 116.22 68.242C116.207 81.3143 111.008 93.8475 101.764 103.091C92.5206 112.335 79.9874 117.534 66.9151 117.547ZM66.9151 20.6366C57.4976 20.6366 48.2916 23.4293 40.4613 28.6615C32.6311 33.8938 26.5283 41.3305 22.9248 50.0313C19.3213 58.7321 18.3788 68.3061 20.2167 77.5425C22.0546 86.779 26.5902 95.2629 33.25 101.921C39.9097 108.58 48.3945 113.114 57.6312 114.95C66.868 116.787 76.4418 115.843 85.142 112.237C93.8421 108.632 101.278 102.528 106.509 94.6971C111.74 86.8659 114.531 77.6595 114.529 68.242C114.513 55.6196 109.492 43.5188 100.565 34.5942C91.6392 25.6696 79.5375 20.65 66.9151 20.6366Z" fill="#093F68"/>
<path d="M66.9151 104.221C86.7856 104.221 102.894 88.1125 102.894 68.242C102.894 48.3714 86.7856 32.2631 66.9151 32.2631C47.0445 32.2631 30.9362 48.3714 30.9362 68.242C30.9362 88.1125 47.0445 104.221 66.9151 104.221Z" fill="#68E1FD"/>
<path d="M66.9151 105.092C59.6291 105.1 52.5044 102.947 46.4421 98.906C40.3797 94.8646 35.6522 89.116 32.8574 82.3874C30.0626 75.6588 29.3262 68.2525 30.7413 61.1053C32.1563 53.9581 35.6593 47.3911 40.8071 42.2351C45.9549 37.079 52.5162 33.5654 59.6611 32.1389C66.806 30.7124 74.2135 31.4369 80.9466 34.2208C87.6797 37.0048 93.4359 41.7231 97.487 47.7789C101.538 53.8348 103.702 60.956 103.706 68.242C103.699 78.0028 99.8226 87.3629 92.9261 94.2704C86.0297 101.178 76.6759 105.069 66.9151 105.092ZM66.9151 33.1256C59.9618 33.1172 53.1623 35.1718 47.3772 39.0292C41.5921 42.8867 37.0813 48.3736 34.4158 54.7957C31.7502 61.2177 31.0498 68.2862 32.403 75.1065C33.7562 81.9268 37.1023 88.1924 42.0178 93.1103C46.9334 98.0282 53.1973 101.377 60.017 102.734C66.8366 104.09 73.9054 103.393 80.3288 100.731C86.7521 98.0684 92.2412 93.5602 96.1015 87.777C99.9617 81.9937 102.02 75.1952 102.015 68.242C102.003 58.9333 98.3029 50.0086 91.7238 43.4232C85.1448 36.8379 76.2237 33.1288 66.9151 33.1087V33.1256Z" fill="#093F68"/>
<path d="M66.9151 92.848C80.5046 92.848 91.521 81.8315 91.521 68.242C91.521 54.6524 80.5046 43.636 66.9151 43.636C53.3256 43.636 42.3091 54.6524 42.3091 68.242C42.3091 81.8315 53.3256 92.848 66.9151 92.848Z" fill="white"/>
<path d="M66.9151 93.6935C61.8809 93.6952 56.9592 92.2039 52.7726 89.4083C48.586 86.6126 45.3225 82.6382 43.3949 77.9877C41.4672 73.3372 40.962 68.2195 41.9431 63.2818C42.9242 58.3441 45.3475 53.8083 48.9067 50.248C52.4658 46.6877 57.0008 44.2628 61.9381 43.2801C66.8755 42.2973 71.9934 42.8009 76.6445 44.727C81.2957 46.6531 85.2712 49.9153 88.0682 54.101C90.8653 58.2866 92.3582 63.2078 92.3582 68.242C92.3515 74.9886 89.669 81.4571 84.8992 86.2285C80.1293 90.9999 73.6617 93.6846 66.9151 93.6935ZM66.9151 44.49C62.215 44.4883 57.62 45.8806 53.7113 48.4908C49.8026 51.101 46.7559 54.8118 44.9565 59.1538C43.157 63.4958 42.6858 68.2739 43.6023 72.8838C44.5189 77.4936 46.782 81.7281 50.1055 85.0516C53.4289 88.375 57.6634 90.6382 62.2733 91.5547C66.8831 92.4712 71.6612 92 76.0032 90.2006C80.3452 88.4011 84.056 85.3544 86.6662 81.4457C89.2764 77.5371 90.6687 72.942 90.667 68.242C90.6581 61.9453 88.1528 55.9091 83.7004 51.4567C79.2479 47.0042 73.2117 44.4989 66.9151 44.49Z" fill="#093F68"/>
<path d="M66.9151 81.8725C74.443 81.8725 80.5456 75.7699 80.5456 68.242C80.5456 60.714 74.443 54.6114 66.9151 54.6114C59.3871 54.6114 53.2845 60.714 53.2845 68.242C53.2845 75.7699 59.3871 81.8725 66.9151 81.8725Z" fill="#68E1FD"/>
<path d="M66.9151 82.7181C64.052 82.7181 61.2531 81.869 58.8726 80.2784C56.492 78.6877 54.6365 76.4269 53.5409 73.7817C52.4452 71.1366 52.1585 68.2259 52.7171 65.4178C53.2757 62.6097 54.6544 60.0303 56.6789 58.0058C58.7034 55.9813 61.2828 54.6026 64.0909 54.044C66.899 53.4855 69.8096 53.7721 72.4548 54.8678C75.1 55.9634 77.3608 57.8189 78.9515 60.1995C80.5421 62.58 81.3911 65.3789 81.3911 68.242C81.3867 72.0799 79.8601 75.7593 77.1463 78.4732C74.4324 81.187 70.753 82.7136 66.9151 82.7181ZM66.9151 55.457C64.3864 55.457 61.9146 56.2068 59.8121 57.6116C57.7096 59.0165 56.0709 61.0132 55.1033 63.3494C54.1356 65.6855 53.8824 68.2561 54.3757 70.7362C54.869 73.2162 56.0867 75.4943 57.8747 77.2823C59.6627 79.0703 61.9408 80.288 64.4208 80.7813C66.9009 81.2746 69.4715 81.0214 71.8076 80.0537C74.1438 79.0861 76.1405 77.4474 77.5454 75.3449C78.9502 73.2424 79.7 70.7706 79.7 68.242C79.6955 64.8525 78.3471 61.6032 75.9504 59.2066C73.5538 56.8099 70.3045 55.4615 66.9151 55.457Z" fill="#093F68"/>
<path d="M14.1602 26.5555L0.842468 32.5421L20.1975 47.4579L34.1324 42.0125L14.1602 26.5555Z" fill="#F56132"/>
<path d="M20.1975 48.3035C20.0094 48.303 19.8262 48.2439 19.6732 48.1344L0.326673 33.2186C0.21174 33.1293 0.121816 33.0118 0.0656006 32.8775C0.00938502 32.7432 -0.011216 32.5967 0.00579188 32.4522C0.0227998 32.3076 0.0768416 32.1699 0.162684 32.0523C0.248527 31.9347 0.363264 31.8413 0.49579 31.7811L13.8135 25.7945C13.9508 25.7351 14.1014 25.7132 14.25 25.731C14.3985 25.7488 14.5397 25.8058 14.659 25.896L34.6313 41.3529C34.7512 41.4443 34.8446 41.566 34.9016 41.7056C34.9587 41.8451 34.9774 41.9973 34.9558 42.1465C34.9342 42.2957 34.8732 42.4364 34.779 42.5541C34.6848 42.6718 34.5608 42.7621 34.4199 42.8158L20.485 48.2612C20.3919 48.2899 20.2949 48.3041 20.1975 48.3035ZM2.4406 32.7282L20.299 46.5024L32.399 41.7757L14.0756 27.5364L2.4406 32.7282Z" fill="#093F68"/>
<path d="M13.8727 25.7184L18.5317 13.5169L35.6967 29.9209L34.1324 42.0125L13.8727 25.7184Z" fill="#F56132"/>
<path d="M34.1324 42.858C33.9388 42.8589 33.7508 42.7932 33.5997 42.672L13.3061 26.378C13.1657 26.266 13.0646 26.1121 13.0175 25.9388C12.9704 25.7655 12.9796 25.5817 13.044 25.414L17.7031 13.2209C17.7531 13.0899 17.835 12.9734 17.9412 12.8819C18.0475 12.7904 18.1749 12.7267 18.3119 12.6967C18.459 12.6556 18.6145 12.6551 18.7619 12.6953C18.9093 12.7355 19.0431 12.8149 19.149 12.925L36.3224 29.329C36.418 29.4206 36.4908 29.5333 36.5349 29.6581C36.5789 29.783 36.5931 29.9164 36.5761 30.0477L35.0034 42.1393C34.9841 42.2885 34.9253 42.4299 34.8331 42.5488C34.741 42.6677 34.6188 42.7598 34.4791 42.8158C34.3678 42.8538 34.2497 42.8682 34.1324 42.858ZM14.9212 25.4394L33.5236 40.4144L34.8427 30.2676L18.8953 15.0474L14.9212 25.4394Z" fill="#093F68"/>
<path d="M67.1349 70.4235C66.6921 70.4207 66.2632 70.2688 65.9173 69.9923L5.70449 22.1417C5.48736 21.986 5.30415 21.7878 5.166 21.5592C5.02786 21.3305 4.93765 21.0762 4.90089 20.8116C4.86412 20.5469 4.88155 20.2776 4.95212 20.02C5.02269 19.7623 5.14492 19.5217 5.31139 19.3127C5.47785 19.1038 5.68509 18.9309 5.92047 18.8045C6.15585 18.6782 6.41446 18.601 6.68059 18.5777C6.94673 18.5544 7.21482 18.5855 7.46856 18.6691C7.72231 18.7526 7.95641 18.8869 8.15663 19.0638L68.361 66.9313C68.6796 67.1861 68.9114 67.5334 69.0242 67.9255C69.137 68.3176 69.1253 68.735 68.9907 69.1201C68.8562 69.5053 68.6054 69.8391 68.2729 70.0756C67.9405 70.3121 67.5429 70.4396 67.1349 70.4404V70.4235Z" fill="#FFBC0E"/>
<path d="M67.1349 71.2691C66.501 71.2672 65.8867 71.0495 65.393 70.6518L5.18021 22.8012C4.60228 22.3298 4.23497 21.6484 4.15888 20.9065C4.08278 20.1646 4.30413 19.4228 4.77434 18.844C5.23952 18.2628 5.91533 17.8888 6.6548 17.8033C7.39428 17.7178 8.13761 17.9277 8.72314 18.3873L68.9359 66.2633C69.3914 66.6278 69.7225 67.1248 69.8833 67.6856C70.0441 68.2464 70.0268 68.8433 69.8337 69.3938C69.6406 69.9443 69.2813 70.4212 68.8054 70.7587C68.3295 71.0961 67.7605 71.2774 67.1772 71.2775L67.1349 71.2691ZM6.93054 19.4612C6.69799 19.4628 6.47165 19.5364 6.28268 19.672C6.0937 19.8075 5.9514 19.9983 5.87536 20.2181C5.79932 20.4379 5.79328 20.6758 5.85807 20.8991C5.92287 21.1225 6.05531 21.3203 6.23717 21.4652L66.4415 69.3327C66.6765 69.5101 66.9707 69.5906 67.2633 69.5576C67.5559 69.5245 67.8247 69.3805 68.0143 69.1552C68.1065 69.0397 68.1751 68.9072 68.2161 68.7653C68.257 68.6233 68.2697 68.4746 68.2532 68.3278C68.2367 68.1809 68.1914 68.0388 68.1199 67.9094C68.0485 67.7801 67.9522 67.6661 67.8367 67.574L7.63236 19.6895C7.42747 19.545 7.18119 19.4708 6.93054 19.4781V19.4612Z" fill="#093F68"/>
</svg>
