<svg width="183" height="165" viewBox="0 0 183 165" fill="none" xmlns="http://www.w3.org/2000/svg">
<path d="M94.082 163.381L179.188 113.079C181.896 111.558 184.223 109.061 181.579 107.422L96.1676 58.2008C94.8869 57.4077 92.9423 56.8848 91.638 57.6427L2.29053 109.49C-0.417859 111.064 -0.905486 115.459 1.80878 117.033L82.8842 163.299C84.5832 164.283 86.5089 164.808 88.4722 164.823C90.4355 164.837 92.3688 164.34 94.082 163.381Z" fill="#225870"/>
<path d="M115.749 64.9218C115.475 65.1402 115.175 65.3237 114.856 65.4682C114.862 65.4892 114.864 65.5113 114.86 65.5329C114.857 65.5545 114.849 65.575 114.836 65.593C114.824 65.611 114.808 65.6261 114.789 65.637C114.77 65.6479 114.749 65.6545 114.727 65.6562C114.568 65.6562 114.41 65.6562 114.251 65.6562C113.748 65.778 113.225 65.7885 112.717 65.6871C112.21 65.5856 111.731 65.3746 111.314 65.0687C110.611 64.7635 109.952 64.3685 109.351 63.8937C107.894 62.7187 106.414 61.0267 104.757 59.8223C104.757 60.1572 104.804 60.498 104.839 60.8152L105.198 64.0465L105.832 69.7746C105.832 69.8745 105.832 70.18 105.885 70.2622C108.646 73.8343 116.249 72.5711 116.249 72.5711C116.249 72.5711 120.743 60.968 115.749 64.9218Z" fill="#F47A63"/>
<path d="M116.501 107.974L107.565 114.742L118.017 121.792L128.469 113.15" fill="url(#paint0_linear_2_253)"/>
<path d="M122.834 101.171C122.834 101.171 122.035 105.612 123.334 106.135C124.632 106.658 129.908 110.776 129.121 112.427C127.311 116.217 116.501 107.974 116.501 107.974L117.841 98.574" fill="#EF9841"/>
<path d="M116.013 84.1802C116.013 85.0321 115.256 99.8195 115.256 99.8195C115.256 99.8195 121.26 105.36 125.743 105.013L127.957 90.6662" fill="#FFF7E1"/>
<path d="M105.444 96.1653C105.444 96.1653 113.423 97.0818 118.123 92.229C120.855 89.4031 126.013 84.5915 126.013 84.5915L106.984 83.1991" fill="#FFF7E1"/>
<path d="M67.3095 0.343475C58.7437 5.4195 37.5407 17.9686 31.2015 21.6522C30.6601 21.9648 30.2116 22.4157 29.9018 22.9587C29.5921 23.5017 29.4324 24.1174 29.439 24.7425V111.787C29.3098 113.549 31.319 115.206 32.964 114.272L68.6079 93.9797C70.0414 93.1572 70.9579 91.9998 70.9579 90.3489V2.41736C70.9594 1.99034 70.8474 1.57059 70.6333 1.20111C70.4192 0.831629 70.1107 0.525705 69.7395 0.314679C69.3682 0.103652 68.9476 -0.00489088 68.5206 0.000169158C68.0936 0.00522919 67.6756 0.123711 67.3095 0.343475Z" fill="#68E1FD"/>
<path d="M57.1575 37.227C56.8877 37.2273 56.6183 37.2037 56.3526 37.1565C54.5901 36.8392 53.1331 35.5232 52.2401 33.4434C51.4018 31.2632 51.1981 28.8902 51.6526 26.599C52.5985 21.3115 56.1294 17.6749 59.7014 18.3094C61.4639 18.6266 62.9209 19.9426 63.8139 22.0224C64.6522 24.2026 64.8559 26.5756 64.4014 28.8668C64.0294 31.1747 63.0109 33.3299 61.4639 35.0826C60.9334 35.7184 60.2768 36.2373 59.5356 36.6064C58.7943 36.9755 57.9846 37.1868 57.1575 37.227ZM58.92 19.8662C56.4878 19.8662 53.9791 22.9154 53.2682 26.881C52.8688 28.8635 53.0379 30.9184 53.7559 32.8089C54.4021 34.3599 55.4244 35.3352 56.6288 35.5467C57.8331 35.7582 59.1256 35.2001 60.2713 33.9722C61.6066 32.4512 62.4845 30.5835 62.8034 28.5848C63.2029 26.6024 63.0338 24.5474 62.3158 22.6569C61.6284 21.1 60.6297 20.1306 59.4253 19.925C59.2607 19.8927 59.0936 19.875 58.9259 19.8721L58.92 19.8662Z" fill="#F2F2F2"/>
<path opacity="0.6" d="M36.5184 30.9935V104.061L44.3851 99.0558V26.4521L36.5184 30.9935Z" fill="white"/>
<path d="M70.7169 1.37754L59.3723 7.9282V10.3487C59.37 10.5528 59.3146 10.7527 59.2116 10.9289C59.1086 11.105 58.9615 11.2513 58.7848 11.3533L50.1132 16.3706C49.9963 16.4454 49.8613 16.4869 49.7226 16.4907C49.5839 16.4945 49.4468 16.4604 49.326 16.3922C49.2052 16.3239 49.1053 16.2241 49.0369 16.1033C48.9686 15.9825 48.9345 15.8454 48.9382 15.7067V13.9442L32.6702 23.4853C32.5145 23.5766 32.3854 23.707 32.2957 23.8637C32.2061 24.0204 32.159 24.1978 32.1591 24.3783V111.37C32.1631 111.492 32.1985 111.61 32.262 111.714C32.3255 111.818 32.4149 111.904 32.5214 111.963C32.6279 112.022 32.7479 112.053 32.8698 112.052C32.9916 112.051 33.1111 112.018 33.2166 111.957L70.9519 90.0846C71.0154 90.7597 70.8942 91.4393 70.6013 92.0509C70.3085 92.6624 69.855 93.1829 69.2893 93.5568C67.3329 94.8023 32.9581 114.255 32.9581 114.255C32.9581 114.255 30.238 115.482 29.4331 112.239V24.7425C29.4319 24.1766 29.5649 23.6185 29.8212 23.114C30.0776 22.6095 30.4499 22.1729 30.9077 21.8403C32.4822 20.6946 67.3036 0.343538 67.3036 0.343538C67.5937 0.178945 67.9142 0.0750251 68.2457 0.0380891C68.5772 0.00115301 68.9127 0.031971 69.232 0.128672C69.5512 0.225372 69.8474 0.385939 70.1027 0.600622C70.358 0.815306 70.5669 1.07963 70.7169 1.37754Z" fill="#124577"/>
<path d="M119.204 1.00153C127.376 6.11868 147.932 18.0391 154.941 22.3103C156.528 23.2855 156.769 24.7367 156.798 26.599V113.591C156.366 114.094 155.768 114.425 155.113 114.526C154.458 114.626 153.788 114.488 153.226 114.137L118.734 94.6495C117.018 93.639 115.667 92.5991 115.667 90.6075L115.966 2.58191C115.966 0.672527 117.6 -0.00897604 119.204 1.00153Z" fill="#68E1FD"/>
<path d="M116.031 1.9591L127.247 8.42163V10.8421C127.249 11.0462 127.304 11.2461 127.407 11.4223C127.51 11.5985 127.657 11.7448 127.834 11.8468L136.511 16.8582C136.628 16.9329 136.763 16.9744 136.902 16.9782C137.041 16.982 137.178 16.948 137.299 16.8797C137.42 16.8115 137.519 16.7116 137.588 16.5908C137.656 16.4701 137.69 16.333 137.686 16.1943V14.4318L153.978 23.9846C154.134 24.0759 154.263 24.2063 154.352 24.363C154.442 24.5197 154.489 24.6971 154.489 24.8776V111.875C154.485 111.997 154.45 112.116 154.386 112.22C154.323 112.324 154.233 112.409 154.127 112.468C154.02 112.528 153.9 112.558 153.778 112.557C153.657 112.556 153.537 112.524 153.432 112.463L115.679 90.6074C115.615 91.2825 115.736 91.9621 116.029 92.5737C116.322 93.1852 116.776 93.7057 117.341 94.0796C119.298 95.3251 153.672 114.777 153.672 114.777C153.672 114.777 156.393 116.005 157.197 112.762V25.2242C157.199 24.6583 157.066 24.1002 156.809 23.5957C156.553 23.0911 156.181 22.6546 155.723 22.322C154.148 21.1763 119.086 0.79584 119.086 0.79584C119.086 0.79584 116.595 -0.326291 116.031 1.9591Z" fill="#124577"/>
<path d="M73.4724 140.733C80.575 140.733 86.3328 137.361 86.3328 133.201C86.3328 129.042 80.575 125.67 73.4724 125.67C66.3697 125.67 60.6119 129.042 60.6119 133.201C60.6119 137.361 66.3697 140.733 73.4724 140.733Z" fill="#FF912E"/>
<path d="M60.6178 133.201V131.028L62.0161 132.767L60.6178 133.201Z" fill="#E0944F"/>
<path d="M86.3328 131.028V133.201H84.7054L85.8981 131.457L86.3328 131.028Z" fill="#E0944F"/>
<path d="M73.4724 138.559C80.575 138.559 86.3328 135.187 86.3328 131.028C86.3328 126.868 80.575 123.496 73.4724 123.496C66.3697 123.496 60.6119 126.868 60.6119 131.028C60.6119 135.187 66.3697 138.559 73.4724 138.559Z" fill="#FFB92C"/>
<path d="M79.9996 130.017C80.0915 130.198 80.1264 130.403 80.0995 130.605L80.0466 130.804H77.6966C77.7166 130.739 77.7304 130.672 77.7377 130.605C77.729 130.452 77.6804 130.304 77.5967 130.176C77.4602 129.945 77.2548 129.762 77.0092 129.653C76.6673 129.475 76.2898 129.377 75.9047 129.365C75.5486 129.338 75.1909 129.392 74.8589 129.524C74.5299 129.665 74.4026 129.849 74.477 130.076C74.5873 130.355 74.7579 130.605 74.9764 130.81C75.2297 131.068 75.4671 131.341 75.6873 131.627C75.7919 131.75 75.8596 131.901 75.8825 132.061C75.9053 132.221 75.8825 132.384 75.8166 132.532C75.5589 132.958 75.153 133.274 74.6768 133.419C73.8885 133.747 73.0453 133.922 72.1917 133.936C71.2697 133.967 70.3492 133.838 69.4715 133.554L68.1203 134.141L66.5399 133.372L67.85 132.784C67.6128 132.62 67.401 132.422 67.2214 132.197C67.0864 132.043 66.9809 131.866 66.91 131.674C66.865 131.537 66.8374 131.395 66.8278 131.251C66.812 131.154 66.812 131.055 66.8278 130.957L66.8748 130.846H69.2248C69.2001 130.923 69.1805 131.001 69.166 131.081C69.1758 131.273 69.241 131.459 69.354 131.615C69.5414 131.908 69.8112 132.139 70.1295 132.279C70.5536 132.492 71.0183 132.612 71.4925 132.632C71.9213 132.661 72.3512 132.593 72.7498 132.432C73.0749 132.291 73.1963 132.107 73.114 131.88C72.9988 131.599 72.8221 131.348 72.597 131.145C72.3387 130.891 72.0992 130.618 71.8803 130.329C71.7773 130.203 71.713 130.05 71.6953 129.888C71.6776 129.726 71.7071 129.563 71.7804 129.418C72.055 128.989 72.4705 128.669 72.9554 128.513C73.7136 128.207 74.523 128.048 75.3407 128.043C76.2058 128.013 77.0689 128.147 77.8846 128.437L79.23 127.849L80.7046 128.654L79.3533 129.242C79.634 129.438 79.8571 129.706 79.9996 130.017Z" fill="#EA8B24"/>
<path d="M73.4959 137.437C79.4564 137.437 84.2883 134.607 84.2883 131.116C84.2883 127.624 79.4564 124.794 73.4959 124.794C67.5354 124.794 62.7035 127.624 62.7035 131.116C62.7035 134.607 67.5354 137.437 73.4959 137.437Z" stroke="#F7931E" stroke-width="3.52502" stroke-miterlimit="10"/>
<path d="M73.4724 135.305C80.575 135.305 86.3328 131.933 86.3328 127.773C86.3328 123.613 80.575 120.241 73.4724 120.241C66.3697 120.241 60.6119 123.613 60.6119 127.773C60.6119 131.933 66.3697 135.305 73.4724 135.305Z" fill="#FF912E"/>
<path d="M60.6178 127.773V125.593L62.0161 127.332L60.6178 127.773Z" fill="#E0944F"/>
<path d="M86.3328 125.593V127.773H84.7054L85.8981 126.022L86.3328 125.593Z" fill="#E0944F"/>
<path d="M73.4724 133.125C80.575 133.125 86.3328 129.753 86.3328 125.593C86.3328 121.434 80.575 118.061 73.4724 118.061C66.3697 118.061 60.6119 121.434 60.6119 125.593C60.6119 129.753 66.3697 133.125 73.4724 133.125Z" fill="#FFB92C"/>
<path d="M79.9996 124.589C80.0915 124.77 80.1264 124.975 80.0995 125.176L80.0466 125.376H77.6966C77.7166 125.311 77.7304 125.244 77.7377 125.176C77.729 125.023 77.6804 124.875 77.5967 124.747C77.4602 124.516 77.2548 124.333 77.0092 124.224C76.6673 124.047 76.2898 123.948 75.9047 123.937C75.5486 123.909 75.1909 123.964 74.8589 124.095C74.5299 124.236 74.4026 124.42 74.477 124.647C74.5873 124.926 74.7579 125.177 74.9764 125.382C75.2297 125.639 75.4671 125.912 75.6873 126.198C75.7919 126.322 75.8596 126.472 75.8825 126.632C75.9053 126.792 75.8825 126.956 75.8166 127.103C75.5589 127.529 75.153 127.845 74.6768 127.99C73.8885 128.318 73.0453 128.494 72.1917 128.507C71.2697 128.539 70.3492 128.41 69.4715 128.125L68.1203 128.713L66.5399 127.943L67.85 127.356C67.6128 127.192 67.401 126.994 67.2214 126.768C67.0864 126.615 66.9809 126.437 66.91 126.245C66.865 126.108 66.8374 125.966 66.8278 125.822C66.812 125.725 66.812 125.626 66.8278 125.529L66.8748 125.417H69.2248C69.2001 125.494 69.1805 125.573 69.166 125.652C69.1758 125.845 69.241 126.03 69.354 126.187C69.5414 126.48 69.8112 126.711 70.1295 126.851C70.5536 127.064 71.0183 127.184 71.4925 127.203C71.9213 127.233 72.3512 127.164 72.7498 127.003C73.0749 126.862 73.1963 126.678 73.114 126.451C72.9988 126.171 72.8221 125.92 72.597 125.717C72.3387 125.462 72.0992 125.189 71.8803 124.9C71.7773 124.774 71.713 124.621 71.6953 124.46C71.6776 124.298 71.7071 124.135 71.7804 123.989C72.055 123.56 72.4705 123.241 72.9554 123.085C73.7136 122.779 74.523 122.619 75.3407 122.615C76.2058 122.585 77.0689 122.718 77.8846 123.008L79.23 122.421L80.7046 123.226L79.3533 123.813C79.634 124.009 79.8571 124.277 79.9996 124.589Z" fill="#EA8B24"/>
<path d="M73.4959 132.009C79.4564 132.009 84.2883 129.179 84.2883 125.687C84.2883 122.196 79.4564 119.366 73.4959 119.366C67.5354 119.366 62.7035 122.196 62.7035 125.687C62.7035 129.179 67.5354 132.009 73.4959 132.009Z" stroke="#F7931E" stroke-width="1.17501" stroke-miterlimit="10"/>
<path d="M73.4547 132.115C80.5574 132.115 86.3152 128.742 86.3152 124.583C86.3152 120.423 80.5574 117.051 73.4547 117.051C66.3521 117.051 60.5943 120.423 60.5943 124.583C60.5943 128.742 66.3521 132.115 73.4547 132.115Z" fill="#FF912E"/>
<path d="M60.5943 124.583V122.403L61.9925 124.142L60.5943 124.583Z" fill="#E0944F"/>
<path d="M86.3093 122.403V124.583H84.6819L85.8745 122.832L86.3093 122.403Z" fill="#E0944F"/>
<path d="M73.4547 129.935C80.5574 129.935 86.3152 126.563 86.3152 122.403C86.3152 118.243 80.5574 114.871 73.4547 114.871C66.3521 114.871 60.5943 118.243 60.5943 122.403C60.5943 126.563 66.3521 129.935 73.4547 129.935Z" fill="#FFB92C"/>
<path d="M79.9761 121.398C80.068 121.58 80.1028 121.785 80.0759 121.986L80.0231 122.186H77.673C77.6931 122.121 77.7069 122.054 77.7142 121.986C77.7055 121.833 77.6569 121.685 77.5732 121.557C77.4367 121.326 77.2313 121.143 76.9857 121.034C76.6438 120.857 76.2663 120.758 75.8812 120.746C75.525 120.719 75.1674 120.773 74.8354 120.905C74.5064 121.046 74.3791 121.23 74.4535 121.457C74.5638 121.736 74.7343 121.987 74.9529 122.192C75.2061 122.449 75.4435 122.722 75.6638 123.008C75.7684 123.132 75.8361 123.282 75.8589 123.442C75.8818 123.602 75.859 123.765 75.793 123.913C75.5354 124.339 75.1295 124.655 74.6533 124.8C73.865 125.128 73.0217 125.303 72.1681 125.317C71.2461 125.349 70.3257 125.219 69.448 124.935L68.0967 125.523L66.5164 124.753L67.8265 124.166C67.5893 124.002 67.3774 123.804 67.1979 123.578C67.0629 123.424 66.9573 123.247 66.8865 123.055C66.8415 122.918 66.8138 122.776 66.8042 122.632C66.7884 122.535 66.7884 122.436 66.8042 122.338L66.8512 122.227H69.2012C69.1766 122.304 69.157 122.382 69.1425 122.462C69.1522 122.654 69.2175 122.84 69.3305 122.996C69.5179 123.289 69.7877 123.52 70.106 123.66C70.5301 123.873 70.9948 123.994 71.469 124.013C71.8978 124.042 72.3277 123.974 72.7263 123.813C73.0514 123.672 73.1728 123.488 73.0905 123.261C72.9753 122.98 72.7986 122.73 72.5735 122.526C72.3152 122.272 72.0757 121.999 71.8568 121.71C71.7538 121.584 71.6895 121.431 71.6718 121.269C71.6541 121.108 71.6836 120.944 71.7569 120.799C72.0315 120.37 72.447 120.05 72.9319 119.894C73.6901 119.588 74.4995 119.429 75.3172 119.424C76.1823 119.395 77.0453 119.528 77.861 119.818L79.2064 119.231L80.6811 120.035L79.3298 120.623C79.6105 120.819 79.8336 121.087 79.9761 121.398Z" fill="#EA8B24"/>
<path d="M73.4724 128.819C79.4329 128.819 84.2648 125.988 84.2648 122.497C84.2648 119.006 79.4329 116.176 73.4724 116.176C67.5119 116.176 62.68 119.006 62.68 122.497C62.68 125.988 67.5119 128.819 73.4724 128.819Z" stroke="#F7931E" stroke-width="3.52502" stroke-miterlimit="10"/>
<path d="M73.4547 126.192C80.5574 126.192 86.3152 122.82 86.3152 118.661C86.3152 114.501 80.5574 111.129 73.4547 111.129C66.3521 111.129 60.5943 114.501 60.5943 118.661C60.5943 122.82 66.3521 126.192 73.4547 126.192Z" fill="#FF912E"/>
<path d="M60.5943 118.661V116.487L61.9925 118.226L60.5943 118.661Z" fill="#E0944F"/>
<path d="M86.3093 116.487V118.661H84.6819L85.8745 116.916L86.3093 116.487Z" fill="#E0944F"/>
<path d="M73.4547 124.019C80.5574 124.019 86.3152 120.647 86.3152 116.487C86.3152 112.327 80.5574 108.955 73.4547 108.955C66.3521 108.955 60.5943 112.327 60.5943 116.487C60.5943 120.647 66.3521 124.019 73.4547 124.019Z" fill="#FFB92C"/>
<path d="M79.9761 115.482C80.068 115.664 80.1028 115.868 80.0759 116.07L80.0231 116.27H77.673C77.6931 116.205 77.7069 116.138 77.7142 116.07C77.7055 115.917 77.6569 115.769 77.5732 115.641C77.4367 115.41 77.2313 115.227 76.9857 115.118C76.6438 114.941 76.2663 114.842 75.8812 114.83C75.525 114.803 75.1674 114.857 74.8354 114.989C74.5064 115.13 74.3791 115.314 74.4535 115.541C74.5638 115.82 74.7343 116.071 74.9529 116.276C75.2061 116.533 75.4435 116.806 75.6638 117.092C75.7684 117.215 75.8361 117.366 75.8589 117.526C75.8818 117.686 75.859 117.849 75.793 117.997C75.5354 118.423 75.1295 118.739 74.6533 118.884C73.865 119.212 73.0217 119.387 72.1681 119.401C71.2461 119.432 70.3257 119.303 69.448 119.019L68.0967 119.607L66.5164 118.837L67.8265 118.25C67.5893 118.086 67.3774 117.888 67.1979 117.662C67.0629 117.508 66.9573 117.331 66.8865 117.139C66.8415 117.002 66.8138 116.86 66.8042 116.716C66.7884 116.619 66.7884 116.52 66.8042 116.422L66.8512 116.311H69.2012C69.1766 116.388 69.157 116.466 69.1425 116.546C69.1522 116.738 69.2175 116.924 69.3305 117.08C69.5179 117.373 69.7877 117.604 70.106 117.744C70.5301 117.957 70.9948 118.078 71.469 118.097C71.8978 118.126 72.3277 118.058 72.7263 117.897C73.0514 117.756 73.1728 117.572 73.0905 117.345C72.9753 117.064 72.7986 116.813 72.5735 116.61C72.3152 116.356 72.0757 116.083 71.8568 115.794C71.7538 115.668 71.6895 115.515 71.6718 115.353C71.6541 115.192 71.6836 115.028 71.7569 114.883C72.0315 114.454 72.447 114.134 72.9319 113.978C73.6901 113.672 74.4995 113.513 75.3172 113.508C76.1823 113.479 77.0453 113.612 77.861 113.902L79.2064 113.315L80.6811 114.119L79.3298 114.707C79.6105 114.903 79.8336 115.171 79.9761 115.482Z" fill="#EA8B24"/>
<path d="M73.4724 122.902C79.4329 122.902 84.2648 120.072 84.2648 116.581C84.2648 113.09 79.4329 110.259 73.4724 110.259C67.5119 110.259 62.68 113.09 62.68 116.581C62.68 120.072 67.5119 122.902 73.4724 122.902Z" stroke="#F7931E" stroke-width="1.17501" stroke-miterlimit="10"/>
<path d="M68.4258 119.748C75.5284 119.748 81.2863 116.375 81.2863 112.216C81.2863 108.056 75.5284 104.684 68.4258 104.684C61.3232 104.684 55.5654 108.056 55.5654 112.216C55.5654 116.375 61.3232 119.748 68.4258 119.748Z" fill="#FF912E"/>
<path d="M55.5654 112.216V110.042L56.9636 111.781L55.5654 112.216Z" fill="#E0944F"/>
<path d="M81.2863 110.042V112.216H79.653L80.8515 110.471L81.2863 110.042Z" fill="#E0944F"/>
<path d="M68.4258 117.574C75.5284 117.574 81.2863 114.202 81.2863 110.042C81.2863 105.882 75.5284 102.51 68.4258 102.51C61.3232 102.51 55.5654 105.882 55.5654 110.042C55.5654 114.202 61.3232 117.574 68.4258 117.574Z" fill="#FFB92C"/>
<path d="M74.947 109.037C75.0389 109.219 75.0738 109.423 75.0469 109.625L74.994 109.825H72.644C72.664 109.759 72.6778 109.693 72.6851 109.625C72.6764 109.472 72.6278 109.324 72.5441 109.196C72.4077 108.965 72.2022 108.782 71.9566 108.673C71.6147 108.495 71.2372 108.397 70.8521 108.385C70.496 108.358 70.1383 108.412 69.8063 108.544C69.4773 108.685 69.3501 108.869 69.4245 109.096C69.5348 109.375 69.7053 109.625 69.9238 109.83C70.1771 110.088 70.4145 110.361 70.6347 110.647C70.7394 110.77 70.807 110.921 70.8299 111.081C70.8528 111.241 70.8299 111.404 70.764 111.552C70.5063 111.978 70.1004 112.294 69.6242 112.439C68.8359 112.767 67.9927 112.942 67.1391 112.956C66.2171 112.987 65.2967 112.858 64.4189 112.574L63.0677 113.162L61.4873 112.392L62.7974 111.804C62.5602 111.641 62.3484 111.443 62.1688 111.217C62.0338 111.063 61.9283 110.886 61.8574 110.694C61.8124 110.557 61.7848 110.415 61.7752 110.271C61.7594 110.174 61.7594 110.075 61.7752 109.977L61.8222 109.866H64.1722C64.1476 109.943 64.1279 110.021 64.1134 110.101C64.1232 110.293 64.1885 110.479 64.3014 110.635C64.4888 110.928 64.7586 111.159 65.0769 111.299C65.501 111.512 65.9657 111.633 66.44 111.652C66.8688 111.681 67.2987 111.613 67.6972 111.452C68.0223 111.311 68.1437 111.127 68.0615 110.9C67.9462 110.619 67.7695 110.368 67.5445 110.165C67.2862 109.911 67.0466 109.638 66.8277 109.349C66.7247 109.223 66.6605 109.07 66.6427 108.908C66.625 108.747 66.6546 108.583 66.7278 108.438C67.0024 108.009 67.4179 107.689 67.9028 107.533C68.661 107.227 69.4704 107.068 70.2881 107.063C71.1533 107.034 72.0163 107.167 72.832 107.457L74.1774 106.869L75.652 107.674L74.3008 108.262C74.5814 108.458 74.8046 108.726 74.947 109.037Z" fill="#EA8B24"/>
<path d="M68.4491 116.452C74.4096 116.452 79.2415 113.621 79.2415 110.13C79.2415 106.639 74.4096 103.809 68.4491 103.809C62.4886 103.809 57.6567 106.639 57.6567 110.13C57.6567 113.621 62.4886 116.452 68.4491 116.452Z" stroke="#F7931E" stroke-width="1.17501" stroke-miterlimit="10"/>
<path d="M53.4561 65.2567C53.5028 64.8611 53.5734 64.4687 53.6676 64.0817" stroke="#2E3192" stroke-width="1.17501" stroke-miterlimit="10" stroke-linecap="round"/>
<path d="M55.0893 59.1701C58.4734 49.3471 67.8852 31.1227 90.269 31.1286C113.928 31.1286 120.649 49.6996 122.458 57.7895" stroke="#2E3192" stroke-width="1.17501" stroke-miterlimit="10" stroke-linecap="round" stroke-dasharray="2.29 5.13"/>
<path d="M122.934 60.3157C123.046 61.056 123.081 61.4907 123.081 61.4907" stroke="#2E3192" stroke-width="1.17501" stroke-miterlimit="10" stroke-linecap="round"/>
<path d="M122.082 61.7904V61.6376C122.082 61.2938 122.172 60.9559 122.344 60.6581C122.516 60.3604 122.764 60.1134 123.062 59.9422C123.36 59.771 123.698 59.6817 124.042 59.6834C124.386 59.685 124.723 59.7775 125.02 59.9515L143.291 70.6382C143.586 70.8099 143.831 71.0559 144.001 71.3518C144.171 71.6477 144.261 71.983 144.261 72.3243C144.262 72.6687 144.173 73.0073 144.001 73.3059C143.83 73.6045 143.582 73.8523 143.284 74.0242C142.985 74.196 142.647 74.2859 142.302 74.2845C141.958 74.2831 141.62 74.1906 141.323 74.0163L123.04 63.4824C122.746 63.3087 122.503 63.0611 122.335 62.7642C122.167 62.4673 122.08 62.1315 122.082 61.7904Z" fill="#124577"/>
<path d="M132.581 61.1735C131.168 61.2128 129.774 61.5115 128.469 62.0547C126.4 62.9419 132.499 64.7396 132.499 64.7396" fill="#F2AE16"/>
<path d="M133.122 69.2458C134.884 70.2387 136.582 71.4019 138.333 72.4359C138.95 71.5203 139.347 70.4745 139.494 69.38C139.641 68.2856 139.533 67.1721 139.179 66.1262C138.004 62.4601 134.314 60.3686 130.954 61.4261C129.978 61.7577 129.1 62.3273 128.399 63.0832C127.699 63.8392 127.198 64.7578 126.941 65.756C129.027 66.9252 131.071 68.1002 133.122 69.2458Z" fill="#EA8B24"/>
<path d="M133.122 69.2459C134.461 69.9979 135.754 70.8439 137.064 71.6605C137.76 70.0242 137.835 68.1901 137.275 66.5022C136.1 62.8362 132.411 60.7447 129.05 61.8022C128.274 62.0599 127.557 62.4723 126.944 63.0146C126.331 63.5568 125.835 64.2176 125.484 64.9571C128.063 66.3377 130.584 67.8182 133.122 69.2459Z" fill="#FFD008"/>
<path d="M133.304 69.0343C134.402 69.6218 135.466 70.3327 136.541 71.0083C137.131 69.5862 137.19 67.999 136.705 66.5374C135.665 63.3237 132.446 61.4907 129.514 62.4249C128.841 62.6479 128.219 63.0042 127.686 63.4725C127.153 63.9408 126.72 64.5116 126.412 65.1509C128.739 66.4316 131.024 67.7418 133.304 69.0343V69.0343Z" stroke="#F7931E" stroke-width="0.587503" stroke-miterlimit="10"/>
<path d="M133.122 69.2458L133.468 69.4456C133.476 69.1004 133.371 68.7621 133.169 68.4821C132.966 68.2191 132.696 68.0161 132.387 67.8946C132.078 67.7692 131.77 67.6596 131.465 67.5656C131.193 67.4855 130.932 67.371 130.689 67.2248C130.595 67.1744 130.516 67.099 130.461 67.0068C130.406 66.9147 130.377 66.8092 130.378 66.702C130.377 66.6078 130.4 66.5148 130.443 66.431C130.485 66.3471 130.548 66.2748 130.625 66.2202C130.807 66.0832 131.032 66.0164 131.259 66.0322C131.479 66.0376 131.694 66.0939 131.888 66.1967C132.031 66.2633 132.166 66.3482 132.287 66.4493L132.434 66.6079L133.268 65.7561L133.122 65.5974C132.973 65.453 132.805 65.3304 132.622 65.2332C132.373 65.091 132.104 64.9879 131.823 64.9277V64.0406H130.648V64.9159C130.173 64.9758 129.733 65.1979 129.403 65.5446C129.097 65.8595 128.924 66.2805 128.921 66.7196C128.917 66.792 128.917 66.8645 128.921 66.9369L133.122 69.2458Z" fill="#EA8B24"/>
<path d="M91.591 19.6606C89.1579 19.7879 86.7685 20.3594 84.541 21.3467C81.016 22.9623 91.591 25.8 91.591 25.8" fill="#F2AE16"/>
<path d="M96.7542 42.9769C102.496 40.9742 105.371 34.2519 103.177 27.9622C100.983 21.6725 94.5504 18.1972 88.8091 20.1999C83.0678 22.2026 80.1922 28.9249 82.3862 35.2146C84.5801 41.5043 91.013 44.9796 96.7542 42.9769Z" fill="#EA8B24"/>
<path d="M93.4647 43.7084C99.206 41.7057 102.082 34.9834 99.8877 28.6937C97.6937 22.404 91.2609 18.9288 85.5196 20.9315C79.7783 22.9342 76.9027 29.6564 79.0967 35.9461C81.2906 42.2358 87.7234 45.7111 93.4647 43.7084Z" fill="#FFD008"/>
<path d="M92.9732 42.2994C98.0067 40.5435 100.529 34.6522 98.6062 29.1407C96.6836 23.6292 91.0446 20.5846 86.011 22.3405C80.9774 24.0963 78.4555 29.9876 80.378 35.4991C82.3005 41.0106 87.9396 44.0552 92.9732 42.2994Z" stroke="#F7931E" stroke-width="0.587503" stroke-miterlimit="10"/>
<path d="M91.8024 26.6401C92.1222 26.7937 92.4189 26.9914 92.6837 27.2276L92.9363 27.4978L91.5204 29.0018C91.4578 28.9313 91.3716 28.8432 91.2619 28.7374C91.0478 28.5689 90.8128 28.4287 90.5628 28.3203C90.2235 28.1507 89.8494 28.0622 89.47 28.0618C89.0772 28.0452 88.6914 28.1703 88.3832 28.4143C88.2551 28.5137 88.1515 28.6411 88.0802 28.7867C88.0089 28.9324 87.9719 29.0923 87.9719 29.2545C87.977 29.4425 88.0347 29.6253 88.1386 29.7822C88.2424 29.939 88.3882 30.0635 88.5594 30.1416C88.9846 30.3951 89.4407 30.5925 89.9165 30.7291C90.4492 30.8818 90.9838 31.06 91.5204 31.2637C92.0503 31.47 92.515 31.815 92.8658 32.2625C93.2632 32.7737 93.4708 33.4071 93.4533 34.0544C93.4724 34.8509 93.1938 35.626 92.6719 36.2281C92.092 36.8582 91.3151 37.2725 90.4688 37.4031V38.9365H88.4125V37.4971C88.0111 37.4376 87.6172 37.3351 87.2375 37.1916C86.9102 37.0743 86.5953 36.9248 86.2975 36.7451C86.0695 36.6031 85.8498 36.4482 85.6395 36.281C85.4934 36.1681 85.3559 36.0444 85.2283 35.9109L85.099 35.7522L86.5208 34.3305C86.5913 34.4127 86.6931 34.5185 86.8263 34.6477C87.0926 34.8614 87.3872 35.0374 87.7017 35.1706C88.1438 35.3887 88.6304 35.5013 89.1234 35.4996C89.6018 35.5259 90.0742 35.3823 90.457 35.0942C90.609 34.9726 90.7309 34.8177 90.8134 34.6415C90.896 34.4653 90.9368 34.2724 90.9329 34.0778C90.9276 33.8891 90.8698 33.7056 90.766 33.5479C90.6623 33.3901 90.5166 33.2644 90.3454 33.1848C89.9196 32.9285 89.4611 32.7309 88.9824 32.5973C88.4458 32.4485 87.9112 32.2723 87.3785 32.0686C86.8444 31.8697 86.3737 31.5308 86.0155 31.0875C85.6181 30.5762 85.4105 29.9429 85.428 29.2956C85.4214 28.5469 85.7009 27.8241 86.2094 27.2746C86.7668 26.6632 87.5179 26.2627 88.3362 26.1407V24.6249H90.4159V26.1583C90.8999 26.2473 91.3675 26.4098 91.8024 26.6401Z" fill="#EA8B24"/>
<path d="M65.9818 58.2126V58.0716C65.9825 57.7277 65.8922 57.3898 65.7202 57.0921C65.5482 56.7943 65.3005 56.5474 65.0023 56.3762C64.7041 56.205 64.3659 56.1157 64.022 56.1173C63.6782 56.119 63.3409 56.2115 63.0443 56.3855L44.7671 67.0604C44.4721 67.2321 44.2273 67.4781 44.0572 67.774C43.8871 68.0699 43.7976 68.4052 43.7977 68.7465C43.796 69.0909 43.8855 69.4296 44.0571 69.7281C44.2287 70.0267 44.4762 70.2745 44.7746 70.4464C45.073 70.6183 45.4116 70.7081 45.756 70.7067C46.1003 70.7053 46.4382 70.6128 46.7352 70.4385L65.0065 59.8752C65.2992 59.7063 65.5429 59.4643 65.7139 59.1728C65.8849 58.8813 65.9772 58.5505 65.9818 58.2126Z" fill="#124577"/>
<path d="M55.483 57.5898C56.8963 57.6291 58.2903 57.9278 59.5956 58.471C61.6636 59.3582 55.5653 61.1559 55.5653 61.1559" fill="#F2AE16"/>
<path d="M54.9426 65.6621C53.1801 66.655 51.4822 67.8182 49.7314 68.8523C49.1133 67.9371 48.7148 66.8915 48.5671 65.7971C48.4193 64.7026 48.5262 63.5888 48.8795 62.5425C50.0545 58.8765 53.7441 56.7849 57.1046 57.8424C58.0834 58.1814 58.9618 58.76 59.6597 59.5256C60.3575 60.2911 60.8525 61.2192 61.0996 62.2252C59.0375 63.3356 56.9988 64.5106 54.9426 65.6621Z" fill="#EA8B24"/>
<path d="M54.9426 65.662C53.6031 66.4141 52.3106 67.2601 51.0005 68.0767C50.3043 66.4404 50.2291 64.6062 50.789 62.9184C51.964 59.2524 55.6535 57.1609 59.014 58.2184C59.7907 58.4761 60.5072 58.8885 61.1201 59.4307C61.733 59.973 62.2297 60.6338 62.5801 61.3733C60.001 62.8127 57.4806 64.2403 54.9426 65.662Z" fill="#FFD008"/>
<path d="M54.7428 65.4506C53.6442 66.0381 52.5808 66.749 51.5057 67.4246C50.9151 66.0026 50.8567 64.4153 51.3412 62.9537C52.3811 59.7401 55.6006 57.9071 58.5322 58.8412C59.2057 59.0642 59.8274 59.4205 60.3603 59.8888C60.8933 60.3572 61.3265 60.9279 61.6342 61.5672C59.3253 62.848 57.0399 64.164 54.7428 65.4506V65.4506Z" stroke="#F7931E" stroke-width="0.587503" stroke-miterlimit="10"/>
<path d="M54.9425 65.662L54.5959 65.8618C54.5882 65.5165 54.6934 65.1783 54.8955 64.8983C55.098 64.6353 55.368 64.4322 55.6769 64.3108C55.9863 64.1854 56.2938 64.0758 56.5993 63.9818C56.8712 63.9017 57.1318 63.7872 57.3748 63.641C57.4694 63.5906 57.5485 63.5152 57.6034 63.423C57.6583 63.3308 57.6869 63.2254 57.6861 63.1181C57.6866 63.0239 57.6645 62.931 57.6215 62.8471C57.5786 62.7633 57.5161 62.691 57.4394 62.6364C57.2574 62.4993 57.0321 62.4326 56.8049 62.4484C56.5854 62.4537 56.3702 62.51 56.1762 62.6129C56.0327 62.6795 55.8984 62.7644 55.7767 62.8655L55.6299 63.0241L54.7956 62.1722L54.9425 62.0136C55.0909 61.8692 55.259 61.7466 55.4419 61.6494C55.691 61.5072 55.9604 61.4041 56.2409 61.3439V60.4567H57.4159V61.3321C57.891 61.392 58.331 61.614 58.6614 61.9607C58.9674 62.2757 59.14 62.6966 59.1431 63.1358C59.1468 63.2082 59.1468 63.2807 59.1431 63.3531L54.9425 65.662Z" fill="#EA8B24"/>
<path d="M84.6937 96.5589L68.8487 106.64L90.6862 119.325L108.999 107.152" fill="url(#paint1_linear_2_253)"/>
<path d="M86.7441 88.463C86.7441 88.463 84.3119 86.7005 83.4013 86.9531C82.4906 87.2058 82.1381 97.3637 82.7667 97.9806C83.3954 98.5975 85.528 100.918 86.7441 100.425C87.9603 99.9311 88.6653 97.9806 88.6653 97.9806" fill="#EF9841"/>
<path d="M109.087 82.2473L94.6049 83.1344L97.3368 93.3158L88.0014 86.2658C86.186 88.2046 86.4856 90.2726 86.3916 92.8223C86.2783 94.485 86.4431 96.1548 86.8792 97.7632C86.9321 97.9336 86.9909 98.104 87.0496 98.2744C87.9191 99.0734 88.9355 99.7784 89.6287 100.325C91.309 101.653 92.9305 103.033 94.5814 104.396C96.9314 106.311 99.1287 108.15 102.072 109.032C105.015 109.913 110.185 107.71 110.785 104.267C111.86 98.1099 109.95 88.3926 109.087 82.2473Z" fill="#FFF7E1"/>
<path d="M96.0442 57.6486C95.492 56.6792 93.7588 55.4043 92.7542 56.5205C92.5582 56.7622 92.4661 57.0717 92.4981 57.3812C92.53 57.6907 92.6834 57.9749 92.9246 58.1714C93.4474 58.6649 94.2935 58.8001 94.9515 58.9998C95.0321 59.0239 95.1173 59.0286 95.2001 59.0135C95.2829 58.9984 95.361 58.964 95.428 58.913C95.495 58.8621 95.549 58.796 95.5856 58.7202C95.6223 58.6444 95.6405 58.5611 95.6388 58.4769C95.7256 58.4582 95.8069 58.42 95.8768 58.3652C95.9467 58.3105 96.0032 58.2407 96.0422 58.161C96.0812 58.0813 96.1017 57.9937 96.102 57.905C96.1024 57.8162 96.0826 57.7286 96.0442 57.6486Z" fill="#FBB5AD"/>
<path d="M108.405 76.0491L93.5592 72.3948C93.5592 72.3948 94.0233 78.8574 94.599 83.1344C97.2545 84.3094 100.474 84.3094 103.312 83.8923C105.313 83.6603 107.264 83.1048 109.087 82.2473C109.679 81.9407 110.247 81.5892 110.785 81.1956C110.55 79.6387 108.587 77.6177 108.405 76.0491Z" fill="#F47A63"/>
<path d="M111.807 79.1747C111.807 80.3497 111.496 83.2108 111.431 84.3741C105.18 82.7055 91.6321 78.1818 90.7273 68.864C90.5907 67.5973 90.7413 66.3161 91.168 65.1157C91.9552 63.8467 93.2418 62.8127 94.2876 61.8374C95.8797 60.3511 97.8596 58.8588 100.057 58.4652C102.759 57.9834 104.892 59.7342 106.831 61.5672C107.559 63.2533 105.456 64.9101 105.732 66.6315L109.51 77.982L111.813 79.157" fill="#F47A63"/>
<path d="M100.116 54.4936C100.116 54.4936 101.761 62.1312 99.2403 63.0829C96.72 64.0347 94.1643 62.2957 93.7237 60.8563C93.4603 59.6627 93.4007 58.4331 93.5474 57.2197C93.5474 57.2197 95.4216 54.523 100.116 54.4936Z" fill="#FBB5AD"/>
<path d="M100.404 53.1366C100.486 51.2859 97.8949 50.1109 96.7023 51.6796C96.4025 51.42 96.0489 51.23 95.6669 51.1234C95.285 51.0167 94.8842 50.996 94.4933 51.0627C93.3946 51.2507 93.0127 52.0262 93.1067 53.0602C92.7909 53.0556 92.4783 53.1255 92.1946 53.2644C91.9108 53.4032 91.6637 53.607 91.4735 53.8592C91.2601 54.1629 91.1456 54.525 91.1456 54.8961C91.1456 55.2673 91.2601 55.6294 91.4735 55.9331C91.0854 56.089 90.7617 56.3722 90.5557 56.7362C90.3497 57.1002 90.2735 57.5234 90.3396 57.9365C90.3757 58.3228 90.5113 58.6933 90.7332 59.0116C90.6847 59.1287 90.6492 59.2509 90.6275 59.3758C90.5765 59.7179 90.6273 60.0674 90.7736 60.3808C90.9199 60.6942 91.1551 60.9577 91.45 61.1384C91.7968 61.3716 92.207 61.4926 92.625 61.485C92.7614 61.7481 92.9695 61.9673 93.2253 62.117C93.4811 62.2667 93.774 62.3409 94.0702 62.331C94.4414 62.3162 94.7943 62.1657 95.0618 61.9079C95.3293 61.6502 95.4929 61.3031 95.5214 60.9327C95.534 60.7333 95.5061 60.5335 95.4391 60.3452C95.7862 59.5775 95.8507 58.7119 95.6213 57.9012C95.7334 57.8648 95.8401 57.8134 95.9385 57.7485C96.2355 57.5364 96.4445 57.2229 96.526 56.8672C96.8738 56.9933 97.2486 57.0257 97.6129 56.9612C97.785 56.9247 97.9445 56.8436 98.0755 56.7261C98.2064 56.6085 98.3042 56.4587 98.359 56.2915C98.8365 56.4179 99.3409 56.3981 99.807 56.2347C100.273 56.0713 100.679 55.7718 100.973 55.3749C101.164 54.9957 101.211 54.5606 101.106 54.1494C101.002 53.7382 100.752 53.3786 100.404 53.1366Z" fill="#D86212"/>
<path d="M96.0737 59.7283C96.0268 59.4894 95.9324 59.2623 95.7962 59.0605C95.6599 58.8587 95.4846 58.6862 95.2806 58.5533C95.183 58.4701 95.0698 58.4072 94.9475 58.3686C94.8252 58.3299 94.6964 58.3162 94.5688 58.3283C94.4411 58.3403 94.3172 58.3779 94.2043 58.4388C94.0914 58.4996 93.9919 58.5825 93.9117 58.6826C93.7883 58.8753 93.7283 59.1018 93.7399 59.3304C93.7514 59.5589 93.8341 59.7782 93.9763 59.9575C94.3112 60.3981 94.8635 60.3981 95.3393 60.5978C95.6213 60.7153 95.7976 60.4275 95.733 60.1866C95.7875 60.1838 95.8407 60.1691 95.8888 60.1434C95.9369 60.1176 95.9788 60.0816 96.0114 60.0378C96.0439 59.994 96.0664 59.9435 96.0772 59.89C96.0879 59.8365 96.0868 59.7813 96.0737 59.7283Z" fill="#FBB5AD"/>
<path d="M99.5928 57.8189C99.5576 57.6427 99.2873 57.719 99.3226 57.8953L99.5576 59.0703C99.6089 59.2509 99.6442 59.4357 99.6633 59.6225C99.6633 59.9515 99.4988 60.0162 99.2521 60.163C99.2255 60.1842 99.2075 60.2142 99.2013 60.2475C99.1951 60.2808 99.2011 60.3153 99.2183 60.3445C99.2354 60.3738 99.2625 60.3959 99.2946 60.4068C99.3267 60.4177 99.3617 60.4167 99.3931 60.4039C99.7162 60.21 99.9806 60.1102 99.9806 59.7048C99.8902 59.0688 99.7607 58.439 99.5928 57.8189Z" fill="#56403D"/>
<path d="M100.245 57.49C100.207 57.49 100.172 57.5048 100.145 57.5313C100.119 57.5577 100.104 57.5936 100.104 57.631C100.104 57.6684 100.119 57.7042 100.145 57.7307C100.172 57.7571 100.207 57.772 100.245 57.772C100.282 57.772 100.318 57.7571 100.345 57.7307C100.371 57.7042 100.386 57.6684 100.386 57.631C100.386 57.5936 100.371 57.5577 100.345 57.5313C100.318 57.5048 100.282 57.49 100.245 57.49Z" fill="#56403D"/>
<path d="M97.5366 58.4064C97.4992 58.4064 97.4633 58.4212 97.4369 58.4477C97.4104 58.4741 97.3956 58.51 97.3956 58.5474C97.3956 58.5847 97.4104 58.6206 97.4369 58.6471C97.4633 58.6735 97.4992 58.6884 97.5366 58.6884C97.574 58.6884 97.6098 58.6735 97.6363 58.6471C97.6627 58.6206 97.6776 58.5847 97.6776 58.5474C97.6776 58.51 97.6627 58.4741 97.6363 58.4477C97.6098 58.4212 97.574 58.4064 97.5366 58.4064Z" fill="#56403D"/>
<path d="M98.9701 60.962C98.755 61.0547 98.5135 61.0659 98.2907 60.9934C98.068 60.921 97.8793 60.7699 97.7599 60.5684C97.7387 60.5419 97.7087 60.5238 97.6754 60.5176C97.6421 60.5114 97.6076 60.5174 97.5784 60.5346C97.5491 60.5517 97.527 60.5788 97.5161 60.6109C97.5052 60.643 97.5062 60.678 97.519 60.7094C97.6765 60.9739 97.9259 61.171 98.2197 61.2632C98.5134 61.3553 98.8308 61.3359 99.1111 61.2088C99.2756 61.1324 99.1346 60.8915 98.9701 60.962Z" fill="#56403D"/>
<path d="M116.213 77.5002C115.882 77.5008 115.559 77.5963 115.281 77.7754C115.003 77.9545 114.782 78.2098 114.645 78.5107C114.421 78.8985 114.269 79.3156 114.016 79.6857C113.599 80.2732 113.264 80.05 112.665 79.768C112.065 79.486 111.443 80.4318 112.077 80.7373C112.583 81.0592 113.156 81.2602 113.752 81.3248C113.936 81.2849 114.111 81.2075 114.265 81.0973C114.418 80.9872 114.548 80.8467 114.645 80.6845C114.668 80.7763 114.716 80.86 114.783 80.9265C114.85 80.993 114.935 81.0397 115.027 81.0615C115.119 81.0833 115.215 81.0794 115.305 81.0502C115.395 81.0211 115.476 80.9677 115.538 80.896C116.031 80.3085 116.742 79.6152 116.942 78.8515C116.997 78.7156 117.022 78.5691 117.015 78.4225C117.007 78.2759 116.967 78.1328 116.897 78.0035C116.827 77.8743 116.73 77.7621 116.612 77.6751C116.493 77.588 116.357 77.5283 116.213 77.5002Z" fill="#FBB5AD"/>
<path d="M119.603 82.0181C117.014 81.1447 114.421 80.2811 111.825 79.4272C111.666 80.7432 111.584 82.0651 111.478 83.3811C112.585 84.7258 113.872 85.9119 115.303 86.9061C115.397 86.9588 115.504 86.9861 115.612 86.9855C115.72 86.9848 115.827 86.9562 115.921 86.9024C116.015 86.8487 116.093 86.7715 116.148 86.6785C116.204 86.5855 116.234 86.4798 116.237 86.3715C116.211 86.1261 116.142 85.8872 116.031 85.6665C116.561 86.0189 117.128 86.3105 117.723 86.536C117.853 86.5619 117.988 86.5461 118.108 86.4909C118.228 86.4357 118.328 86.344 118.393 86.2287C118.458 86.1135 118.485 85.9806 118.471 85.849C118.456 85.7175 118.4 85.594 118.311 85.4961L117.794 85.0731C118.23 85.1486 118.674 85.1684 119.116 85.1319C119.774 85.0731 120.014 84.0744 119.28 83.9099C118.986 83.8453 118.693 83.7571 118.416 83.669C118.939 83.6024 119.436 83.3998 119.856 83.0815C120.267 82.7466 120.003 82.1532 119.603 82.0181Z" fill="#FBB5AD"/>
<path d="M116.807 61.1794C116.347 61.342 115.926 61.5982 115.571 61.9318C115.215 62.2654 114.932 62.6691 114.741 63.1175C114.549 63.5658 114.453 64.049 114.457 64.5366C114.462 65.0241 114.568 65.5054 114.768 65.95C114.803 66.0436 114.868 66.1229 114.953 66.1751C115.039 66.2273 115.139 66.2494 115.238 66.2378C115.259 65.761 115.381 65.294 115.596 64.8677C115.81 64.4413 116.113 64.0653 116.484 63.7645H116.519C117.071 63.3003 117.776 62.8773 117.982 62.3192C118.287 61.4497 117.612 60.9033 116.807 61.1794Z" fill="#FBB5AD"/>
<path d="M110.244 86.2187C110.162 85.7781 109.492 85.9661 109.574 86.4067C110.2 89.6954 110.645 93.0158 110.908 96.3532C110.943 96.7997 111.642 96.7997 111.607 96.3532C111.338 92.9527 110.883 89.5695 110.244 86.2187Z" fill="#18696D"/>
<path d="M100.18 103.074C99.165 100.042 98.3466 96.9472 97.7305 93.8094C97.6424 93.3687 96.9726 93.5567 97.0607 93.9974C97.6769 97.1352 98.4952 100.23 99.5106 103.262C99.6516 103.679 100.327 103.497 100.18 103.074Z" fill="#18696D"/>
<path d="M106.608 83.058C101.615 81.5655 97.111 78.7689 93.5592 74.9563C93.3301 74.7096 92.9717 75.0797 93.1891 75.3265C96.806 79.1986 101.389 82.0376 106.467 83.5515C106.529 83.5614 106.593 83.5482 106.646 83.5142C106.699 83.4802 106.738 83.428 106.756 83.3672C106.773 83.3065 106.768 83.2415 106.74 83.1845C106.713 83.1275 106.666 83.0825 106.608 83.058Z" fill="#AF3E2F"/>
<path d="M112.095 78.8691C108.631 77.458 105.358 75.6164 102.354 73.3877C102.084 73.188 101.825 73.6403 102.09 73.8401C105.134 76.0815 108.448 77.931 111.954 79.345C112.271 79.4977 112.406 78.9925 112.095 78.8691Z" fill="#AF3E2F"/>
<path d="M108.84 74.2396L106.425 66.9252C106.32 66.608 105.838 66.7431 105.92 67.0662L108.335 74.3982C108.446 74.6979 108.946 74.5627 108.84 74.2396Z" fill="#AF3E2F"/>
<path d="M142.345 38.0847C143.168 44.6354 140.142 50.3459 135.589 50.8394C131.036 51.3329 126.683 46.4155 125.86 39.8649C125.038 33.3142 128.063 27.6037 132.616 27.1102C137.169 26.6167 141.529 31.5341 142.345 38.0847Z" fill="#124577"/>
<path d="M128.386 39.7062L129.726 37.597L132.123 41.2572L137.452 33.0262L139.561 34.7535L132.328 45.7222L128.386 39.7062Z" fill="white"/>
<defs>
<linearGradient id="paint0_linear_2_253" x1="123.633" y1="107.128" x2="115.808" y2="116.628" gradientUnits="userSpaceOnUse">
<stop stop-color="#D46A00"/>
<stop offset="1" stop-color="white"/>
</linearGradient>
<linearGradient id="paint1_linear_2_253" x1="96.9725" y1="97.4872" x2="86.2095" y2="110.066" gradientUnits="userSpaceOnUse">
<stop stop-color="#D46A00"/>
<stop offset="1" stop-color="white"/>
</linearGradient>
</defs>
</svg>
