<svg width="64" height="50" viewBox="0 0 64 50" fill="none" xmlns="http://www.w3.org/2000/svg">
<path d="M5.25999 0C2.3549 0 0 2.367 0 5.25999V7.88999V10.52V13.15V15.78V18.41V21.04V23.67V26.3V28.93V31.5599V34.1899V36.8199V39.4499V42.0799V44.7099C0 47.6029 2.35498 49.9699 5.25999 49.9699H10.52H28.93H34.1899H52.5999H57.8599C60.7661 49.9699 63.1199 47.6029 63.1199 44.7099V42.0799V36.8199V34.1899V31.5599V26.3V23.67V21.04V18.41V15.78V13.15V10.52V7.88999V5.25999C63.1199 2.367 60.7661 0 57.8599 0H52.5999H34.1899H28.93H10.52H5.25999Z" fill="#16A085"/>
<path d="M31.9255 0C23.4209 0 14.7698 -0.000192658 6.52318 2.1038C2.95243 2.8928 1.86361 6.31199 1.33367 9.20499C-0.272759 16.569 -0.196436 24.1959 0.362727 31.8229C1.21698 35.7679 0.889831 40.5018 4.11678 43.9208C7.06764 46.0248 11.0679 46.0248 14.6231 46.5508C23.6566 47.6028 32.7724 47.34 41.8435 47.077C47.4533 46.814 53.263 46.2877 58.4388 44.1837C61.9288 42.0797 61.9446 37.6089 62.6284 34.1899C63.349 27.878 63.136 21.3028 62.8756 14.9908C62.4943 11.5719 62.0182 8.15305 60.6506 4.99706C59.3304 2.36706 56.0324 1.841 53.2472 1.315C46.2488 0 39.0531 0 31.9258 0H31.9255Z" fill="#1ABC9C"/>
<path d="M27.7096 5.25999C21.6491 5.25999 15.4828 5.25993 9.60527 6.83792C7.05996 7.36392 6.28385 10.2569 5.90618 12.3609C4.76135 18.1468 4.81579 24.196 5.21423 29.982C5.82307 33.138 5.58979 36.8199 7.88999 39.4499C9.9932 41.0279 12.8444 41.0277 15.3784 41.5537C21.8171 42.3427 28.3145 42.08 34.7791 41.817C38.7793 41.817 42.9189 41.2909 46.6088 39.7129C49.0968 37.8719 49.1073 34.4529 49.5938 31.8229C50.1067 26.8259 49.9568 21.829 49.77 16.832C49.4992 14.202 49.1599 11.572 48.1842 9.20499C47.2426 7.10099 44.8914 6.83805 42.9084 6.31205C37.9193 5.26006 32.7908 5.25999 27.7096 5.25999Z" fill="#2C3E50"/>
<path d="M27.9306 6.31205C22.5638 6.31205 17.1044 6.31193 11.9002 6.83792C9.64683 7.10092 8.95961 8.15299 8.62534 9.20498C7.61173 11.309 7.65986 13.6759 8.01255 16.0429C8.5517 17.3579 8.34524 18.673 10.3816 19.725C12.2439 20.251 14.7682 20.2508 17.0119 20.5138C22.7124 20.7768 28.4644 20.777 34.1899 20.777C37.7299 20.514 41.3961 20.514 44.6626 19.725C46.8639 19.199 46.8744 17.884 47.3057 16.832C47.7607 14.728 47.6266 12.8869 47.4635 10.7829C47.2216 9.73092 46.9218 8.67899 46.0591 7.88999C45.2228 6.83799 43.1425 6.83799 41.3856 6.57499C36.9699 6.31199 32.4278 6.31205 27.9306 6.31205Z" fill="#34495E"/>
<path d="M60.4899 27.615C60.4899 29.7926 58.7225 31.5599 56.5449 31.5599C54.3673 31.5599 52.5999 29.7926 52.5999 27.615C52.5999 25.4373 54.3673 23.67 56.5449 23.67C58.7225 23.67 60.4899 25.4373 60.4899 27.615Z" fill="#16A085"/>
<path d="M57.8599 27.615C57.8599 28.3408 57.2708 28.93 56.5449 28.93C55.819 28.93 55.2299 28.3408 55.2299 27.615C55.2299 26.8891 55.819 26.3 56.5449 26.3C57.2708 26.3 57.8599 26.8891 57.8599 27.615Z" fill="#BDC3C7"/>
<path d="M60.4899 38.1349C60.4899 40.3126 58.7225 42.0799 56.5449 42.0799C54.3673 42.0799 52.5999 40.3126 52.5999 38.1349C52.5999 35.9573 54.3673 34.1899 56.5449 34.1899C58.7225 34.1899 60.4899 35.9573 60.4899 38.1349Z" fill="#16A085"/>
<path d="M57.8599 38.1349C57.8599 38.8608 57.2708 39.4499 56.5449 39.4499C55.819 39.4499 55.2299 38.8608 55.2299 38.1349C55.2299 37.4091 55.819 36.8199 56.5449 36.8199C57.2708 36.8199 57.8599 37.4091 57.8599 38.1349Z" fill="#BDC3C7"/>
<path d="M52.5999 7.88999V10.52H60.4899V7.88999H52.5999ZM52.5999 13.15V15.78H60.4899V13.15H52.5999ZM52.5999 18.41V21.04H60.4899V18.41H52.5999Z" fill="#16A085"/>
<path d="M21.04 31.5599V15.78L34.1899 23.67L21.04 31.5599Z" fill="#ECF0F1"/>
<path d="M21.04 21.04V31.5599L34.1899 23.67L29.8347 21.04H21.04Z" fill="#BDC3C7"/>
</svg>
