<svg width="20" height="20" viewBox="0 0 20 20" fill="none" xmlns="http://www.w3.org/2000/svg">
<g clip-path="url(#clip0_2_13)">
<path d="M17.1429 10.7143V7.85714C17.1429 7.47826 16.9923 7.1149 16.7244 6.84699C16.4565 6.57908 16.0932 6.42857 15.7143 6.42857H2.14286C1.76398 6.42857 1.40061 6.57908 1.1327 6.84699C0.864796 7.1149 0.714286 7.47826 0.714286 7.85714V17.8571C0.714286 18.236 0.864796 18.5994 1.1327 18.8673C1.40061 19.1352 1.76398 19.2857 2.14286 19.2857H15.7143C16.0932 19.2857 16.4565 19.1352 16.7244 18.8673C16.9923 18.5994 17.1429 18.236 17.1429 17.8571V14.2857" stroke="#8D99AE" stroke-width="1.42857" stroke-linecap="round" stroke-linejoin="round"/>
<path d="M5.48571 2.85714L13.5857 0.742857C13.6767 0.717211 13.772 0.710274 13.8658 0.722463C13.9596 0.734652 14.0499 0.765716 14.1313 0.813778C14.2128 0.861841 14.2836 0.925906 14.3396 1.00211C14.3956 1.07831 14.4356 1.16507 14.4571 1.25714L14.8571 2.85714" stroke="#8D99AE" stroke-width="1.42857" stroke-linecap="round" stroke-linejoin="round"/>
<path d="M18.5714 10.7143H15C14.6055 10.7143 14.2857 11.0341 14.2857 11.4286V13.5714C14.2857 13.9659 14.6055 14.2857 15 14.2857H18.5714C18.9659 14.2857 19.2857 13.9659 19.2857 13.5714V11.4286C19.2857 11.0341 18.9659 10.7143 18.5714 10.7143Z" stroke="#8D99AE" stroke-width="1.42857" stroke-linecap="round" stroke-linejoin="round"/>
</g>
<defs>
<clipPath id="clip0_2_13">
<rect width="20" height="20" fill="white"/>
</clipPath>
</defs>
</svg>
