<svg width="26" height="28" viewBox="0 0 26 28" fill="none" xmlns="http://www.w3.org/2000/svg">
<path d="M24.5236 19.1832H19.9259C19.8036 19.1848 19.6822 19.1621 19.5687 19.1163C19.4553 19.0705 19.3521 19.0025 19.2651 18.9165C19.1782 18.8304 19.1093 18.7278 19.0624 18.6148C19.0155 18.5018 18.9915 18.3806 18.9919 18.2583V15.4864C18.9915 15.364 19.0155 15.2428 19.0624 15.1298C19.1093 15.0168 19.1782 14.9143 19.2651 14.8282C19.3521 14.7421 19.4553 14.6742 19.5687 14.6284C19.6822 14.5826 19.8036 14.5598 19.9259 14.5614H24.5357C24.657 14.5614 24.7772 14.5854 24.8892 14.6319C25.0013 14.6784 25.103 14.7466 25.1887 14.8325C25.2743 14.9185 25.3422 15.0204 25.3883 15.1327C25.4345 15.2449 25.458 15.3651 25.4576 15.4864V18.2583C25.4581 18.3806 25.4341 18.5018 25.3872 18.6148C25.3403 18.7278 25.2714 18.8304 25.1844 18.9165C25.0975 19.0025 24.9943 19.0705 24.8809 19.1163C24.7674 19.1621 24.646 19.1848 24.5236 19.1832Z" fill="#94D5D2"/>
<path d="M19.926 19.1833C19.8036 19.1849 19.6822 19.1621 19.5687 19.1163C19.4553 19.0705 19.3521 19.0026 19.2652 18.9165C19.1782 18.8304 19.1093 18.7279 19.0624 18.6149C19.0155 18.5019 18.9915 18.3807 18.992 18.2583V15.4865C18.9915 15.3641 19.0155 15.2429 19.0624 15.1299C19.1093 15.0169 19.1782 14.9144 19.2652 14.8283C19.3521 14.7422 19.4553 14.6743 19.5687 14.6285C19.6822 14.5827 19.8036 14.5599 19.926 14.5615H24.5357V9.01771C24.5357 8.5284 24.3416 8.05909 23.9958 7.71281C23.6501 7.36653 23.1811 7.17159 22.6918 7.17079H2.39077C1.90146 7.17 1.43246 6.97506 1.08675 6.62878C0.741035 6.2825 0.546863 5.81319 0.546864 5.32388V24.7271C0.546863 25.2164 0.741035 25.6857 1.08675 26.032C1.43246 26.3783 1.90146 26.5732 2.39077 26.574H22.6798C23.1691 26.5732 23.6381 26.3783 23.9838 26.032C24.3295 25.6857 24.5237 25.2164 24.5237 24.7271V19.1833H19.926Z" fill="#FF8898"/>
<path d="M22.6798 7.17078H2.39077C1.90146 7.16998 1.43246 6.97504 1.08675 6.62876C0.741037 6.28248 0.546865 5.81317 0.546866 5.32386C0.54647 5.08131 0.59385 4.84107 0.686301 4.61684C0.778751 4.39261 0.914462 4.18879 1.08569 4.017C1.25691 3.84522 1.46029 3.70885 1.68422 3.61566C1.90814 3.52248 2.14823 3.47432 2.39077 3.47392H20.8298C21.3192 3.47472 21.7882 3.66966 22.1339 4.01594C22.4796 4.36222 22.6737 4.83153 22.6737 5.32084L22.6798 7.17078Z" fill="#E07885"/>
<path d="M4.16534 0.60862H16.0754V6.98094H4.16534V0.60862Z" fill="#FFEB97"/>
<path d="M8.46777 5.32388H20.6701V6.98399H8.46777V5.32388Z" fill="white"/>
<path d="M24.5237 19.7256H19.9259C19.5373 19.7248 19.1649 19.5698 18.8904 19.2948C18.6158 19.0197 18.4617 18.6469 18.4617 18.2583V15.4864C18.4617 15.0978 18.6158 14.725 18.8904 14.4499C19.1649 14.1748 19.5373 14.0199 19.9259 14.0191H24.5357C24.9243 14.0199 25.2968 14.1748 25.5713 14.4499C25.8458 14.725 26 15.0978 26 15.4864V18.2583C26 18.4517 25.9617 18.6433 25.8874 18.8219C25.8131 19.0005 25.7043 19.1627 25.567 19.299C25.4298 19.4354 25.267 19.5433 25.0879 19.6165C24.9089 19.6897 24.7171 19.7268 24.5237 19.7256ZM19.9259 15.1038C19.825 15.1046 19.7284 15.1452 19.6573 15.2169C19.5862 15.2886 19.5463 15.3854 19.5463 15.4864V18.2583C19.5463 18.3592 19.5862 18.4561 19.6573 18.5278C19.7284 18.5995 19.825 18.6401 19.9259 18.6409H24.5357C24.6367 18.6401 24.7332 18.5995 24.8043 18.5278C24.8754 18.4561 24.9153 18.3592 24.9153 18.2583V15.4864C24.9153 15.3854 24.8754 15.2886 24.8043 15.2169C24.7332 15.1452 24.6367 15.1046 24.5357 15.1038H19.9259Z" fill="#576065"/>
<path d="M22.6798 27.1163H2.39076C1.75786 27.1147 1.15138 26.8624 0.704131 26.4146C0.256884 25.9668 0.00531838 25.36 0.00452328 24.7271V5.32386C0.00452328 5.18003 0.061661 5.04209 0.163367 4.94038C0.265072 4.83867 0.403015 4.78154 0.546849 4.78154C0.690682 4.78154 0.828625 4.83867 0.930331 4.94038C1.03204 5.04209 1.08917 5.18003 1.08917 5.32386C1.08917 5.66934 1.22621 6.00071 1.47022 6.24529C1.71422 6.48986 2.04528 6.62766 2.39076 6.62846H22.6798C23.3127 6.63005 23.9191 6.88238 24.3664 7.33019C24.8136 7.778 25.0652 8.3848 25.066 9.0177V14.5615C25.066 14.7053 25.0088 14.8433 24.9071 14.945C24.8054 15.0467 24.6675 15.1038 24.5237 15.1038H19.9259C19.825 15.1046 19.7284 15.1453 19.6573 15.2169C19.5862 15.2886 19.5463 15.3855 19.5463 15.4864V18.2583C19.5463 18.3593 19.5862 18.4562 19.6573 18.5278C19.7284 18.5995 19.825 18.6402 19.9259 18.641H24.5357C24.6795 18.641 24.8175 18.6981 24.9192 18.7998C25.0209 18.9015 25.078 19.0395 25.078 19.1833V24.7271C25.0776 25.0415 25.0153 25.3527 24.8945 25.643C24.7737 25.9333 24.5969 26.1969 24.3742 26.4188C24.1514 26.6407 23.8871 26.8166 23.5964 26.9362C23.3056 27.0559 22.9942 27.1171 22.6798 27.1163ZM1.08917 7.32444V24.7271C1.08917 25.0725 1.22621 25.4039 1.47022 25.6485C1.71422 25.8931 2.04528 26.0309 2.39076 26.0317H22.6798C23.0252 26.0309 23.3563 25.8931 23.6003 25.6485C23.8443 25.4039 23.9813 25.0725 23.9813 24.7271V19.7256H19.9259C19.5373 19.7248 19.1649 19.5699 18.8904 19.2948C18.6158 19.0197 18.4617 18.647 18.4617 18.2583V15.4864C18.4617 15.0978 18.6158 14.7251 18.8904 14.45C19.1649 14.1749 19.5373 14.0199 19.9259 14.0191H23.9934V9.0177C23.9934 8.67222 23.8564 8.34085 23.6123 8.09628C23.3683 7.85171 23.0373 7.71391 22.6918 7.71311H2.39076C1.92828 7.71326 1.47585 7.57816 1.08917 7.32444Z" fill="#576065"/>
<path d="M22.6798 7.71309H2.39075C1.75669 7.71309 1.14859 7.46121 0.700235 7.01285C0.251882 6.5645 0 5.9564 0 5.32234C0 4.68827 0.251882 4.08017 0.700235 3.63182C1.14859 3.18347 1.75669 2.93158 2.39075 2.93158H4.16536C4.3092 2.93158 4.44714 2.98872 4.54884 3.09043C4.65055 3.19213 4.70769 3.33008 4.70769 3.47391C4.70769 3.61774 4.65055 3.75569 4.54884 3.85739C4.44714 3.9591 4.3092 4.01623 4.16536 4.01623H2.39075C2.04435 4.01623 1.71214 4.15384 1.4672 4.39878C1.22226 4.64372 1.08465 4.97594 1.08465 5.32234C1.08465 5.66874 1.22226 6.00095 1.4672 6.24589C1.71214 6.49083 2.04435 6.62844 2.39075 6.62844H22.1374V5.32384C22.1378 5.15201 22.1043 4.9818 22.0387 4.82297C21.9731 4.66415 21.8768 4.51984 21.7553 4.39834C21.6338 4.27684 21.4895 4.18053 21.3307 4.11496C21.1719 4.04939 21.0016 4.01584 20.8298 4.01623H16.0754C15.9316 4.01623 15.7937 3.9591 15.692 3.85739C15.5902 3.75569 15.5331 3.61774 15.5331 3.47391C15.5331 3.33008 15.5902 3.19213 15.692 3.09043C15.7937 2.98872 15.9316 2.93158 16.0754 2.93158H20.8298C21.4627 2.93318 22.0692 3.18551 22.5164 3.63332C22.9637 4.08113 23.2153 4.68793 23.2161 5.32083V7.17076C23.2161 7.31356 23.1598 7.45059 23.0593 7.55213C22.9589 7.65366 22.8225 7.7115 22.6798 7.71309Z" fill="#576065"/>
<path d="M21.2968 17.8757C21.0984 17.8757 20.9044 17.8168 20.7394 17.7066C20.5744 17.5963 20.4458 17.4396 20.3699 17.2563C20.294 17.073 20.2741 16.8712 20.3128 16.6766C20.3515 16.482 20.4471 16.3032 20.5874 16.1629C20.7277 16.0226 20.9065 15.9271 21.1011 15.8883C21.2957 15.8496 21.4974 15.8695 21.6808 15.9454C21.8641 16.0214 22.0208 16.15 22.131 16.315C22.2413 16.4799 22.3001 16.6739 22.3001 16.8724C22.2993 17.1382 22.1934 17.3929 22.0054 17.5809C21.8174 17.7689 21.5627 17.8749 21.2968 17.8757ZM21.2968 16.791C21.2753 16.791 21.2546 16.7996 21.2393 16.8148C21.2241 16.8301 21.2155 16.8508 21.2155 16.8724C21.2155 16.9597 21.3782 16.9597 21.3782 16.8724C21.3782 16.8508 21.3696 16.8301 21.3544 16.8148C21.3391 16.7996 21.3184 16.791 21.2968 16.791Z" fill="#576065"/>
<path d="M4.70766 7.18581H3.623V1.33774C3.623 0.982947 3.76394 0.642688 4.01482 0.391814C4.26569 0.14094 4.60595 0 4.96074 0L15.28 0C15.6337 0.00159346 15.9724 0.143236 16.222 0.393938C16.4716 0.64464 16.6117 0.983988 16.6117 1.33774V5.47448H15.5271V1.33774C15.5271 1.27113 15.5008 1.20721 15.454 1.15983C15.4072 1.11246 15.3436 1.08544 15.277 1.08465H4.96074C4.89414 1.08544 4.83054 1.11246 4.78373 1.15983C4.73691 1.20721 4.71066 1.27113 4.71067 1.33774L4.70766 7.18581Z" fill="#576065"/>
<path d="M20.8298 10.1024C20.7957 10.1049 20.7614 10.1049 20.7273 10.1024C20.6916 10.0969 20.6571 10.0857 20.6249 10.0692C20.5912 10.0587 20.5596 10.0424 20.5315 10.021C20.5023 10.0016 20.4751 9.97939 20.4502 9.95472C20.3984 9.9047 20.3572 9.84478 20.3291 9.77853C20.301 9.71227 20.2865 9.64104 20.2865 9.56906C20.2865 9.49709 20.301 9.42586 20.3291 9.3596C20.3572 9.29334 20.3984 9.23342 20.4502 9.18341C20.4751 9.15874 20.5023 9.13654 20.5315 9.11713C20.5596 9.09571 20.5912 9.07939 20.6249 9.06892C20.657 9.05221 20.6916 9.041 20.7273 9.03578C20.7967 9.01937 20.8689 9.01937 20.9382 9.03578C20.9738 9.04169 21.0084 9.05286 21.0407 9.06892C21.0739 9.08058 21.1053 9.0968 21.1341 9.11713L21.2154 9.18341C21.3163 9.28645 21.3728 9.42489 21.3728 9.56906C21.3728 9.71324 21.3163 9.85168 21.2154 9.95472L21.1341 10.021C21.1053 10.0413 21.0739 10.0575 21.0407 10.0692C21.0083 10.085 20.9738 10.0962 20.9382 10.1024C20.9022 10.1052 20.8659 10.1052 20.8298 10.1024Z" fill="white"/>
<path d="M18.1001 9.56C18.1001 9.41617 18.1572 9.27823 18.2589 9.17652C18.3607 9.07482 18.4986 9.01768 18.6424 9.01768C18.714 9.01728 18.785 9.03099 18.8514 9.05803C18.9177 9.08507 18.978 9.12491 19.0289 9.17527C19.0798 9.22563 19.1203 9.28553 19.1481 9.35154C19.1759 9.41755 19.1904 9.48839 19.1908 9.56C19.1904 9.63162 19.1759 9.70245 19.1481 9.76847C19.1203 9.83448 19.0798 9.89438 19.0289 9.94474C18.978 9.9951 18.9177 10.0349 18.8514 10.062C18.785 10.089 18.714 10.1027 18.6424 10.1023C18.4986 10.1023 18.3607 10.0452 18.2589 9.94349C18.1572 9.84178 18.1001 9.70384 18.1001 9.56ZM15.9157 9.56C15.9153 9.48867 15.9291 9.41797 15.9562 9.35199C15.9833 9.28601 16.0232 9.22607 16.0737 9.17563C16.1241 9.12519 16.1841 9.08526 16.25 9.05815C16.316 9.03103 16.3867 9.01728 16.4581 9.01768C16.6017 9.01847 16.7391 9.07586 16.8407 9.1774C16.9422 9.27893 16.9996 9.41641 17.0004 9.56C16.9996 9.70359 16.9422 9.84108 16.8407 9.94261C16.7391 10.0441 16.6017 10.1015 16.4581 10.1023C16.3865 10.1031 16.3155 10.0897 16.2491 10.0627C16.1828 10.0358 16.1225 9.99594 16.0717 9.94546C16.021 9.89498 15.9808 9.8349 15.9535 9.76872C15.9262 9.70254 15.9123 9.63159 15.9127 9.56H15.9157ZM13.7253 9.56C13.7249 9.48867 13.7387 9.41797 13.7658 9.35199C13.7929 9.28601 13.8329 9.22607 13.8833 9.17563C13.9337 9.12519 13.9937 9.08526 14.0597 9.05815C14.1256 9.03103 14.1963 9.01728 14.2677 9.01768C14.4113 9.01847 14.5487 9.07586 14.6503 9.1774C14.7518 9.27893 14.8092 9.41641 14.81 9.56C14.8092 9.70359 14.7518 9.84108 14.6503 9.94261C14.5487 10.0441 14.4113 10.1015 14.2677 10.1023C14.1961 10.1031 14.1251 10.0897 14.0587 10.0627C13.9924 10.0358 13.9321 9.99594 13.8813 9.94546C13.8306 9.89498 13.7904 9.8349 13.7631 9.76872C13.7358 9.70254 13.7219 9.63159 13.7223 9.56H13.7253ZM11.535 9.56C11.5357 9.41641 11.5931 9.27893 11.6947 9.1774C11.7962 9.07586 11.9337 9.01847 12.0773 9.01768C12.2209 9.01847 12.3583 9.07586 12.4599 9.1774C12.5614 9.27893 12.6188 9.41641 12.6196 9.56C12.6188 9.70359 12.5614 9.84108 12.4599 9.94261C12.3583 10.0441 12.2209 10.1015 12.0773 10.1023C11.9332 10.1023 11.7949 10.0453 11.6927 9.94367C11.5905 9.84205 11.5327 9.70411 11.5319 9.56H11.535ZM9.34456 9.56C9.34535 9.41641 9.40274 9.27893 9.50428 9.1774C9.60581 9.07586 9.74329 9.01847 9.88688 9.01768C10.0305 9.01847 10.168 9.07586 10.2695 9.1774C10.371 9.27893 10.4284 9.41641 10.4292 9.56C10.4284 9.70359 10.371 9.84108 10.2695 9.94261C10.168 10.0441 10.0305 10.1015 9.88688 10.1023C9.74277 10.1023 9.60452 10.0453 9.50233 9.94367C9.40015 9.84205 9.34234 9.70411 9.34154 9.56H9.34456ZM7.15417 9.56C7.15496 9.41641 7.21235 9.27893 7.31388 9.1774C7.41542 9.07586 7.5529 9.01847 7.69649 9.01768C7.84008 9.01847 7.97756 9.07586 8.0791 9.1774C8.18063 9.27893 8.23802 9.41641 8.23882 9.56C8.23802 9.70359 8.18063 9.84108 8.0791 9.94261C7.97756 10.0441 7.84008 10.1015 7.69649 10.1023C7.55238 10.1023 7.41412 10.0453 7.31194 9.94367C7.20975 9.84205 7.15195 9.70411 7.15115 9.56H7.15417ZM4.96377 9.56C4.96456 9.41641 5.02196 9.27893 5.12349 9.1774C5.22502 9.07586 5.36251 9.01847 5.5061 9.01768C5.64969 9.01847 5.78717 9.07586 5.88871 9.1774C5.99024 9.27893 6.04763 9.41641 6.04842 9.56C6.04763 9.70359 5.99024 9.84108 5.88871 9.94261C5.78717 10.0441 5.64969 10.1015 5.5061 10.1023C5.43448 10.1027 5.36349 10.089 5.29718 10.062C5.23086 10.0349 5.17052 9.9951 5.1196 9.94474C5.06868 9.89438 5.02818 9.83448 5.00041 9.76847C4.97264 9.70245 4.95814 9.63162 4.95775 9.56H4.96377Z" fill="white"/>
<path d="M3.31574 10.1023C3.20785 10.1032 3.10214 10.0719 3.01215 10.0123C2.92216 9.95279 2.85198 9.86777 2.81057 9.76814C2.76916 9.6685 2.75842 9.55877 2.77971 9.453C2.801 9.34722 2.85336 9.2502 2.93009 9.17434C3.03389 9.07733 3.17066 9.02337 3.31273 9.02337C3.4548 9.02337 3.59157 9.07733 3.69537 9.17434C3.77173 9.24984 3.82396 9.34631 3.84544 9.45152C3.86692 9.55673 3.85668 9.66595 3.81602 9.76534C3.77536 9.86473 3.70612 9.94981 3.61705 10.0098C3.52799 10.0698 3.42312 10.102 3.31574 10.1023Z" fill="white"/>
<path d="M20.2905 24.7241C20.2905 24.5802 20.3477 24.4423 20.4494 24.3406C20.5511 24.2389 20.689 24.1817 20.8328 24.1817C20.9042 24.1813 20.9749 24.1951 21.0409 24.2222C21.1068 24.2493 21.1668 24.2893 21.2172 24.3397C21.2677 24.3901 21.3076 24.4501 21.3347 24.5161C21.3618 24.582 21.3756 24.6527 21.3752 24.7241C21.376 24.7955 21.3625 24.8664 21.3355 24.9326C21.3086 24.9987 21.2686 25.0588 21.2181 25.1094C21.1676 25.1599 21.1075 25.1998 21.0413 25.2268C20.9752 25.2537 20.9043 25.2672 20.8328 25.2664C20.7615 25.2668 20.6908 25.253 20.6248 25.2259C20.5589 25.1988 20.4989 25.1589 20.4485 25.1084C20.398 25.058 20.3581 24.9981 20.331 24.9321C20.3039 24.8661 20.2901 24.7954 20.2905 24.7241ZM18.1212 24.7241C18.1216 24.6525 18.1361 24.5816 18.1639 24.5156C18.1917 24.4496 18.2322 24.3897 18.2831 24.3393C18.334 24.289 18.3943 24.2491 18.4606 24.2221C18.527 24.1951 18.598 24.1813 18.6696 24.1817C18.7404 24.1821 18.8104 24.1965 18.8757 24.2239C18.941 24.2514 19.0002 24.2915 19.05 24.3418C19.0998 24.3922 19.1392 24.4519 19.166 24.5175C19.1927 24.583 19.2063 24.6532 19.2059 24.7241C19.2067 24.795 19.1934 24.8654 19.1668 24.9312C19.1402 24.9969 19.1008 25.0568 19.0509 25.1072C19.0011 25.1576 18.9417 25.1977 18.8762 25.225C18.8107 25.2523 18.7405 25.2664 18.6696 25.2664C18.5976 25.2676 18.5261 25.2545 18.4593 25.2277C18.3924 25.201 18.3316 25.1613 18.2802 25.1108C18.2289 25.0603 18.1882 25.0001 18.1603 24.9337C18.1325 24.8673 18.1182 24.7961 18.1182 24.7241H18.1212ZM15.9519 24.7241C15.9519 24.5802 16.0091 24.4423 16.1108 24.3406C16.2125 24.2389 16.3504 24.1817 16.4942 24.1817C16.5656 24.1813 16.6363 24.1951 16.7023 24.2222C16.7682 24.2493 16.8282 24.2893 16.8786 24.3397C16.9291 24.3901 16.969 24.4501 16.9961 24.5161C17.0232 24.582 17.037 24.6527 17.0366 24.7241C17.0374 24.7955 17.0239 24.8664 16.9969 24.9326C16.97 24.9987 16.93 25.0588 16.8795 25.1094C16.829 25.1599 16.7689 25.1998 16.7027 25.2268C16.6366 25.2537 16.5657 25.2672 16.4942 25.2664C16.4229 25.2668 16.3522 25.253 16.2862 25.2259C16.2203 25.1988 16.1603 25.1589 16.1099 25.1084C16.0594 25.058 16.0195 24.9981 15.9924 24.9321C15.9653 24.8661 15.9515 24.7954 15.9519 24.7241ZM13.7826 24.7241C13.7826 24.5802 13.8398 24.4423 13.9415 24.3406C14.0432 24.2389 14.1811 24.1817 14.3249 24.1817C14.3963 24.1813 14.467 24.1951 14.5329 24.2222C14.5989 24.2493 14.6589 24.2893 14.7093 24.3397C14.7598 24.3901 14.7997 24.4501 14.8268 24.5161C14.8539 24.582 14.8677 24.6527 14.8673 24.7241C14.8681 24.7955 14.8546 24.8664 14.8276 24.9326C14.8007 24.9987 14.7607 25.0588 14.7102 25.1094C14.6597 25.1599 14.5996 25.1998 14.5334 25.2268C14.4673 25.2537 14.3964 25.2672 14.3249 25.2664C14.2536 25.2668 14.1829 25.253 14.1169 25.2259C14.051 25.1988 13.991 25.1589 13.9406 25.1084C13.8901 25.058 13.8502 24.9981 13.8231 24.9321C13.796 24.8661 13.7822 24.7954 13.7826 24.7241ZM11.6133 24.7241C11.6137 24.6525 11.6282 24.5816 11.656 24.5156C11.6837 24.4496 11.7242 24.3897 11.7752 24.3393C11.8261 24.289 11.8864 24.2491 11.9527 24.2221C12.0191 24.1951 12.09 24.1813 12.1617 24.1817C12.3042 24.1833 12.4403 24.2413 12.5402 24.3429C12.6401 24.4445 12.6958 24.5816 12.6949 24.7241C12.6957 24.795 12.6825 24.8654 12.6559 24.9312C12.6293 24.9969 12.5899 25.0568 12.54 25.1072C12.4901 25.1576 12.4307 25.1977 12.3653 25.225C12.2998 25.2523 12.2296 25.2664 12.1586 25.2664C12.0872 25.2668 12.0163 25.2531 11.9502 25.226C11.884 25.1989 11.8239 25.159 11.7732 25.1086C11.7225 25.0582 11.6823 24.9983 11.6549 24.9323C11.6274 24.8663 11.6133 24.7955 11.6133 24.7241ZM9.44401 24.7241C9.44401 24.5802 9.50115 24.4423 9.60285 24.3406C9.70456 24.2389 9.8425 24.1817 9.98633 24.1817C10.0577 24.1813 10.1284 24.1951 10.1943 24.2222C10.2603 24.2493 10.3203 24.2893 10.3707 24.3397C10.4211 24.3901 10.4611 24.4501 10.4882 24.5161C10.5153 24.582 10.5291 24.6527 10.5287 24.7241C10.5295 24.7955 10.516 24.8664 10.489 24.9326C10.4621 24.9987 10.4221 25.0588 10.3716 25.1094C10.3211 25.1599 10.261 25.1998 10.1948 25.2268C10.1287 25.2537 10.0578 25.2672 9.98633 25.2664C9.915 25.2668 9.8443 25.253 9.77832 25.2259C9.71234 25.1988 9.6524 25.1589 9.60196 25.1084C9.55152 25.058 9.51159 24.9981 9.48448 24.9321C9.45736 24.8661 9.44361 24.7954 9.44401 24.7241ZM7.27471 24.7241C7.27471 24.5802 7.33184 24.4423 7.43355 24.3406C7.53526 24.2389 7.6732 24.1817 7.81703 24.1817C7.88836 24.1813 7.95906 24.1951 8.02504 24.2222C8.09102 24.2493 8.15097 24.2893 8.2014 24.3397C8.25184 24.3901 8.29178 24.4501 8.31889 24.5161C8.346 24.582 8.35976 24.6527 8.35936 24.7241C8.36016 24.7955 8.34669 24.8664 8.31972 24.9326C8.29275 24.9987 8.25283 25.0588 8.20231 25.1094C8.15179 25.1599 8.09168 25.1998 8.02552 25.2268C7.95936 25.2537 7.88847 25.2672 7.81703 25.2664C7.74545 25.2672 7.67442 25.2537 7.60809 25.2268C7.54177 25.1999 7.48146 25.16 7.4307 25.1095C7.37994 25.059 7.33974 24.999 7.31244 24.9328C7.28514 24.8666 7.27129 24.7957 7.27169 24.7241H7.27471ZM5.1054 24.7241C5.1054 24.5802 5.16254 24.4423 5.26425 24.3406C5.36595 24.2389 5.5039 24.1817 5.64773 24.1817C5.71906 24.1813 5.78976 24.1951 5.85574 24.2222C5.92172 24.2493 5.98166 24.2893 6.0321 24.3397C6.08254 24.3901 6.12247 24.4501 6.14959 24.5161C6.1767 24.582 6.19045 24.6527 6.19006 24.7241C6.19086 24.7955 6.17739 24.8664 6.15042 24.9326C6.12345 24.9987 6.08353 25.0588 6.03301 25.1094C5.98249 25.1599 5.92238 25.1998 5.85622 25.2268C5.79006 25.2537 5.71917 25.2672 5.64773 25.2664C5.5764 25.2668 5.5057 25.253 5.43972 25.2259C5.37374 25.1988 5.3138 25.1589 5.26336 25.1084C5.21292 25.058 5.17299 24.9981 5.14587 24.9321C5.11876 24.8661 5.105 24.7954 5.1054 24.7241ZM2.9361 24.7241C2.9361 24.5802 2.99324 24.4423 3.09495 24.3406C3.19665 24.2389 3.33459 24.1817 3.47843 24.1817C3.54976 24.1813 3.62046 24.1951 3.68644 24.2222C3.75242 24.2493 3.81236 24.2893 3.8628 24.3397C3.91324 24.3901 3.95317 24.4501 3.98028 24.5161C4.0074 24.582 4.02115 24.6527 4.02075 24.7241C4.02156 24.7955 4.00808 24.8664 3.98112 24.9326C3.95415 24.9987 3.91423 25.0588 3.86371 25.1094C3.81319 25.1599 3.75308 25.1998 3.68692 25.2268C3.62076 25.2537 3.54987 25.2672 3.47843 25.2664C3.4071 25.2668 3.33639 25.253 3.27042 25.2259C3.20444 25.1988 3.14449 25.1589 3.09405 25.1084C3.04362 25.058 3.00368 24.9981 2.97657 24.9321C2.94946 24.8661 2.9357 24.7954 2.9361 24.7241Z" fill="white"/>
<path d="M22.2157 11.7293C22.2165 11.5857 22.2739 11.4482 22.3755 11.3467C22.477 11.2452 22.6145 11.1878 22.7581 11.187C22.8294 11.1866 22.9001 11.2003 22.9661 11.2274C23.0321 11.2546 23.092 11.2945 23.1424 11.3449C23.1929 11.3954 23.2328 11.4553 23.2599 11.5213C23.287 11.5873 23.3008 11.658 23.3004 11.7293C23.3008 11.8006 23.287 11.8713 23.2599 11.9373C23.2328 12.0033 23.1929 12.0632 23.1424 12.1137C23.092 12.1641 23.0321 12.204 22.9661 12.2312C22.9001 12.2583 22.8294 12.272 22.7581 12.2716C22.6145 12.2708 22.477 12.2134 22.3755 12.1119C22.2739 12.0104 22.2165 11.8729 22.2157 11.7293ZM22.2157 9.56C22.2165 9.41641 22.2739 9.27893 22.3755 9.1774C22.477 9.07586 22.6145 9.01847 22.7581 9.01768C22.8294 9.01728 22.9001 9.03103 22.9661 9.05815C23.0321 9.08526 23.092 9.12519 23.1424 9.17563C23.1929 9.22607 23.2328 9.28601 23.2599 9.35199C23.287 9.41797 23.3008 9.48867 23.3004 9.56C23.3008 9.63133 23.287 9.70204 23.2599 9.76801C23.2328 9.83399 23.1929 9.89394 23.1424 9.94438C23.092 9.99482 23.0321 10.0347 22.9661 10.0619C22.9001 10.089 22.8294 10.1027 22.7581 10.1023C22.6145 10.1015 22.477 10.0441 22.3755 9.94261C22.2739 9.84108 22.2165 9.70359 22.2157 9.56Z" fill="white"/>
<path d="M22.2157 24.5402C22.2165 24.3966 22.2739 24.2591 22.3755 24.1576C22.477 24.0561 22.6145 23.9987 22.7581 23.9979C22.8294 23.9975 22.9001 24.0113 22.9661 24.0384C23.0321 24.0655 23.092 24.1054 23.1424 24.1558C23.1929 24.2063 23.2328 24.2662 23.2599 24.3322C23.287 24.3982 23.3008 24.4689 23.3004 24.5402C23.3008 24.6116 23.287 24.6823 23.2599 24.7482C23.2328 24.8142 23.1929 24.8742 23.1424 24.9246C23.092 24.975 23.0321 25.015 22.9661 25.0421C22.9001 25.0692 22.8294 25.0829 22.7581 25.0825C22.6145 25.0818 22.477 25.0244 22.3755 24.9228C22.2739 24.8213 22.2165 24.6838 22.2157 24.5402ZM22.2157 22.3709C22.2165 22.2273 22.2739 22.0898 22.3755 21.9883C22.477 21.8868 22.6145 21.8294 22.7581 21.8286C22.8294 21.8282 22.9001 21.8419 22.9661 21.8691C23.0321 21.8962 23.092 21.9361 23.1424 21.9865C23.1929 22.037 23.2328 22.0969 23.2599 22.1629C23.287 22.2289 23.3008 22.2996 23.3004 22.3709C23.3008 22.4422 23.287 22.513 23.2599 22.5789C23.2328 22.6449 23.1929 22.7049 23.1424 22.7553C23.092 22.8057 23.0321 22.8457 22.9661 22.8728C22.9001 22.8999 22.8294 22.9136 22.7581 22.9132C22.6145 22.9125 22.477 22.8551 22.3755 22.7535C22.2739 22.652 22.2165 22.5145 22.2157 22.3709Z" fill="white"/>
<path d="M21.5378 7.33348H20.4532V5.88427C20.4532 5.80436 20.4214 5.72773 20.3649 5.67122C20.3084 5.61472 20.2318 5.58298 20.1519 5.58298H8.96188C8.88197 5.58298 8.80534 5.61472 8.74883 5.67122C8.69233 5.72773 8.66059 5.80436 8.66059 5.88427V7.33348H7.57594V5.88427C7.57712 5.70359 7.61393 5.52492 7.68426 5.35849C7.75458 5.19205 7.85705 5.04113 7.98579 4.91435C8.11453 4.78757 8.26701 4.68743 8.4345 4.61966C8.60199 4.55189 8.7812 4.51783 8.96188 4.51942H20.1669C20.5308 4.52022 20.8795 4.66532 21.1365 4.92288C21.3935 5.18045 21.5378 5.52945 21.5378 5.89331V7.33348Z" fill="#576065"/>
</svg>
