<svg width="11" height="10" viewBox="0 0 11 10" fill="none" xmlns="http://www.w3.org/2000/svg">
<path d="M10.8762 8.40302C11.2287 9.01402 10.7862 9.77777 10.0822 9.77777H0.917703C0.212309 9.77777 -0.228111 9.01283 0.123698 8.40302L4.706 0.458047C5.05867 -0.153236 5.94197 -0.152128 6.29401 0.458047L10.8762 8.40302ZM5.5 6.76041C5.01484 6.76041 4.62153 7.15372 4.62153 7.63889C4.62153 8.12405 5.01484 8.51736 5.5 8.51736C5.98517 8.51736 6.37848 8.12405 6.37848 7.63889C6.37848 7.15372 5.98517 6.76041 5.5 6.76041ZM4.66597 3.60277L4.80763 6.19999C4.81426 6.32152 4.91475 6.41666 5.03646 6.41666H5.96355C6.08526 6.41666 6.18575 6.32152 6.19237 6.19999L6.33404 3.60277C6.3412 3.47149 6.23668 3.36111 6.10521 3.36111H4.89477C4.76331 3.36111 4.65881 3.47149 4.66597 3.60277Z" fill="#EA3546"/>
</svg>
